<svg xmlns="http://www.w3.org/2000/svg" width="266.86" height="21.77" viewBox="0 0 266.86 21.77"><g id="Layer_2" data-name="Layer 2"><g id="Layer_1-2" data-name="Layer 1"><path d="M100.63,17.72c1.9,2.37,4,4,7,2.35,2.21-1.22,2.18-3.41,2-5.74-4.31,2.43-7.18,2.37-9.13,0s-1.68-6.74.35-8.78,5.25-1.92,8.49.43l.85-1.76c.27.31.55.47.55.63,0,4.07.15,8.14,0,12.2-.09,2.86-2.22,4.67-5.08,4.75C102.74,21.85,100.89,20.49,100.63,17.72Zm-.1-7.57c0,2.93,2,5,4.74,5a4.79,4.79,0,0,0,4.45-5.05c0-2.85-1.88-4.89-4.51-4.92C102.41,5.14,100.51,7.16,100.53,10.15Z"/><path d="M147.1,16.05V.83c3.87-.17,7.73-1,10.68,2.39,1.92,2.17,2.2,6.84.58,9.44C155.69,16.92,151.42,16,147.1,16.05Zm1-7.69h0c0,1.66-.1,3.32.05,5,0,.58.64,1.57,1,1.6,2.66.16,5.42.26,7.38-2a6.88,6.88,0,0,0,1.07-7.48c-1.08-2.73-3.39-3.65-6.17-3.73-3.36-.1-3.36-.13-3.37,3.13C148.08,6,148.09,7.2,148.09,8.36Z"/><path d="M243.17,5.84c.13-2,.26-3.88.38-5.77l.67,0V16.5l-.91-1.57a39.08,39.08,0,0,1-6.2,1.06,4.72,4.72,0,0,1-2.9-1.66c-2-2.13-1.91-6.34,0-8.54S239.13,3.53,243.17,5.84Zm-9.1,4.25c0,3,1.88,5,4.62,5.05A4.75,4.75,0,0,0,243.27,10c0-2.85-1.88-4.83-4.53-4.86C235.93,5.13,234.07,7.09,234.07,10.09Z"/><path d="M186.94,16.14c-1.19-3.11-2.39-6.23-3.84-10-1.47,3.77-2.68,6.87-3.9,10l-1,.09q-1.8-5.84-3.59-11.67l1-.38c1,3.06,2,6.12,3.22,9.83,1.39-3.7,2.56-6.79,3.73-9.89l.89-.08,3.65,9.21.54.08,2.73-9.13,1.05.35Q189.7,10.33,188,16.1Z"/><path d="M31.11,21.31V4.39l.52-.09c.19.61.39,1.22.59,1.83,3.17-2.57,6.51-2.78,8.68-.55s2.15,6.5.24,8.8-5.43,2.36-9.37-.53v7.53ZM41.31,10a4.56,4.56,0,0,0-4.86-4.83A4.72,4.72,0,0,0,32,10.23a4.82,4.82,0,0,0,4.64,4.91A4.75,4.75,0,0,0,41.31,10Z"/><path d="M81.34,15.94c-.07-.83-.18-1.67-.22-2.51-.07-1.66,0-3.32-.17-5a3.37,3.37,0,0,0-3.57-3.4,3.56,3.56,0,0,0-3.92,3.36c-.23,1.81-.14,3.65-.24,5.47A19.15,19.15,0,0,1,72.86,16l-.64-.08V.11L73,0c.14,1.75.29,3.49.46,5.51.65-.38,1.14-.72,1.67-1,3.22-1.64,6.68.06,7,3.63.23,2.57,0,5.19,0,7.78Z"/><path d="M55.38,11.84c-.27,3.3-2.66,4.82-6.17,4.27-3.06-.48-4.94-3.4-4.5-7a5.53,5.53,0,0,1,6.47-5.06c3.34.4,5,2.57,4.49,6.45H46.13a3.79,3.79,0,0,0,2.44,4.25C51.76,16.15,53.61,14.16,55.38,11.84Zm-.72-2.23C54.29,6.33,52.71,4.89,50,5.1c-2.48.19-3.85,1.77-3.82,4.51Z"/><path d="M248.72,10.56c-.08,2.5,1.07,3.82,3,4.39,2.88.87,4.69-.71,6-3.27.64,1.72.28,2.6-1.33,3.64a6.12,6.12,0,0,1-7.36-.71c-1.84-1.89-2.17-5.77-.69-8.14a5.92,5.92,0,0,1,7.07-2.07c2.32.88,3.4,3,2.94,6.16Zm8.33-.92c.13-3-1.5-4.68-4.25-4.55A3.81,3.81,0,0,0,249,9.64Z"/><path d="M124.49,12c-.48,3.26-2.73,4.65-6.15,4.15-2.77-.4-4.51-2.7-4.53-5.95,0-3.43,1.63-5.56,4.68-6s5.38.86,6.22,3.35c.78,2.33.3,3.05-2.1,3.07s-4.94,0-7.41,0l-.56.8c1,1.14,1.8,2.69,3.06,3.35C120.76,16.3,122.66,14.05,124.49,12Zm-.79-2.37c-.29-3.12-1.69-4.51-4.21-4.51s-4,1.52-4.31,4.51Z"/><path d="M95.61,15.89l-.33-1.6c-4.86,2.9-9,3.38-10.29-3.59a5.22,5.22,0,0,1,2.87-6.07c2.57-1.2,5-.74,7.23,1.51l.69-1.83.5.06V16ZM90.71,5.16a4.66,4.66,0,0,0-4.64,5.05,4.67,4.67,0,1,0,9.33-.05A4.68,4.68,0,0,0,90.71,5.16Z"/><path d="M13.73,11.19c-.37,3.74-4.24,5.5-8,4.89C2.22,15.52-.11,12.25,0,8.13S2.62,1,6.46.57,13,2,14,6C10.27,1.74,6.55-.61,2.47,4.24a7,7,0,0,0,.55,9C7.25,17,10.62,14.78,13.73,11.19Z"/><path d="M67.91,16a16.35,16.35,0,0,1-.28-2c0-1.66,0-3.33-.06-5-.13-2.54-1.4-3.9-3.57-4s-3.69,1.21-4,3.61c-.22,1.64-.12,3.32-.19,5,0,.77-.13,1.54-.2,2.32l-.66,0V4.54L59.42,4l.63,1.71c2.07-1.83,4.16-2.39,6.42-1.22s2.33,3.3,2.39,5.4,0,4,0,6Z"/><path d="M173.28,10c0,3.75-2.15,6.13-5.68,6.18s-5.85-2.24-5.88-5.95,2.16-6.16,5.66-6.22S173.24,6.34,173.28,10Zm-1.25.14c0-2.95-1.72-4.92-4.4-5s-4.74,1.94-4.75,4.93,2,5.13,4.69,5.06S172,13,172,10.14Z"/><path d="M28,10.17c0,3.72-2.27,6-5.84,6s-5.74-2.38-5.72-6.12S18.79,4,22.31,4,28.06,6.46,28,10.17Zm-1.24-.1c0-2.93-1.78-4.88-4.47-4.92s-4.71,2-4.68,5a4.72,4.72,0,0,0,4.5,5C24.82,15.21,26.81,13,26.8,10.07Z"/><path d="M202.62,15.85c0-2.1.07-4.2,0-6.3-.07-1.9-.51-3.67-2.65-4.33a3.88,3.88,0,0,0-5.14,3.54c-.19,1.64-.07,3.32-.12,5,0,.74-.13,1.49-.2,2.24l-.73-.05v-12l1.29,1.6L195,4.85c1.87-.22,3.8-.82,5.57-.52A4.16,4.16,0,0,1,203.32,7a65.86,65.86,0,0,1,.13,8.78Z"/><path d="M207.66,4.5c0,1.77-.08,3.54,0,5.31.07,1.22,0,2.78.73,3.55A5,5,0,0,0,212.15,15a4.86,4.86,0,0,0,3-2.8c.58-1.57.35-3.44.46-5.18,0-.87.09-1.74.14-2.61h.65v11.8l-1.2-1.44c-.4.26-.9.62-1.43.91-3.24,1.73-6.66.07-7.06-3.55a56.41,56.41,0,0,1-.12-6.24,7.44,7.44,0,0,1,.23-1.4Z"/><path d="M128,15.84V4l1.29,1.44a16.15,16.15,0,0,1,2-1.16,4.51,4.51,0,0,1,6.5,3.9c.17,2.55,0,5.13,0,7.7h-1a47.65,47.65,0,0,0-.07-6c-.17-1.41-.57-3.14-1.52-4a4.16,4.16,0,0,0-3.84-.45A5.34,5.34,0,0,0,129.05,9a42.62,42.62,0,0,0-.1,6.88Z"/><path d="M220.2,15.84V3.63l1.17,1.86A15.11,15.11,0,0,1,224.6,4c2-.39,3.93.18,4.83,2.17,1.41,3.12.53,6.39.77,9.59l-.95.08c-.09-.81-.22-1.61-.25-2.43-.06-1.49,0-3-.08-4.48-.18-2.54-1.46-3.86-3.62-3.92s-3.66,1.22-4,3.63c-.22,1.63-.12,3.31-.18,5,0,.76-.11,1.51-.17,2.27Z"/><path d="M261.56,5c1.13-.24,1.89-.43,2.66-.56s1.69-.23,2.54-.35l.1.65c-.24.16-.47.42-.74.46-2.77.4-3.69,2.17-3.63,4.75,0,2,0,4,0,6h-.94Z"/></g></g></svg>