<svg xmlns="http://www.w3.org/2000/svg" width="528" height="332.001" viewBox="0 0 528 332.001">
  <g id="Group_3" data-name="Group 3" transform="translate(-214 -223)">
    <g id="Subtraction_2" data-name="Subtraction 2" transform="translate(176 223)" fill="none">
      <path d="M566,332H38V246h.017a96.328,96.328,0,0,0,17.644-1.624,93.389,93.389,0,0,0,16.45-4.661A90.571,90.571,0,0,0,87,232.337a87.058,87.058,0,0,0,12.97-9.769,82.67,82.67,0,0,0,10.7-11.84,78.1,78.1,0,0,0,8.08-13.589,74.617,74.617,0,0,0,5.106-15.017,73.889,73.889,0,0,0,0-32.246,74.611,74.611,0,0,0-5.106-15.017,78.092,78.092,0,0,0-8.08-13.589,82.672,82.672,0,0,0-10.7-11.84A87.051,87.051,0,0,0,87,99.663a90.569,90.569,0,0,0-14.886-7.376,93.384,93.384,0,0,0-16.45-4.661A96.425,96.425,0,0,0,38,86V0H566V332Z" stroke="none"/>
      <path d="M 563.0001831054688 329.0000915527344 L 563.0001220703125 3.000031232833862 L 40.99980163574219 3.000031232833862 L 40.99980163574219 83.04541778564453 C 46.12546920776367 83.19907379150391 51.22918701171875 83.74589538574219 56.21220016479492 84.67669677734375 C 62.01873397827148 85.76129913330078 67.73153686523438 87.38023376464844 73.19180297851562 89.48843383789062 C 78.55613708496094 91.55963134765625 83.73079681396484 94.12369537353516 88.57206726074219 97.10942840576172 C 93.37166595458984 100.0694274902344 97.88600158691406 103.4696960449219 101.9896697998047 107.2158279418945 C 106.0981979370117 110.9663009643555 109.8293304443359 115.0947647094727 113.0795364379883 119.4864349365234 C 116.3651962280273 123.9259643554688 119.1882019042969 128.6741027832031 121.4700012207031 133.5988922119141 C 123.7965316772461 138.6200256347656 125.5836029052734 143.8759613037109 126.7816696166992 149.2205657958984 C 128.0113372802734 154.7057647705078 128.6347961425781 160.3510284423828 128.6347961425781 165.9995574951172 C 128.6347961425781 171.6481018066406 128.0113372802734 177.2934265136719 126.7816696166992 182.7786254882812 C 125.5836639404297 188.1230926513672 123.7966003417969 193.3790283203125 121.4700012207031 198.4004364013672 C 119.1882629394531 203.3250274658203 116.3653335571289 208.0731658935547 113.0795974731445 212.5129699707031 C 109.8296661376953 216.9044952392578 106.0984649658203 221.0330352783203 101.9896697998047 224.7839050292969 C 97.88566589355469 228.5303039550781 93.37133026123047 231.9306335449219 88.57213592529297 234.8904266357422 C 83.73040008544922 237.8764343261719 78.55573272705078 240.4405670166016 73.19186401367188 242.5115051269531 C 67.73179626464844 244.6197662353516 62.01900100708008 246.2386932373047 56.21220016479492 247.3233642578125 C 51.22761917114258 248.2544860839844 46.12376403808594 248.8011322021484 40.99980163574219 248.9541473388672 L 40.99980163574219 329.0000915527344 L 563.0001831054688 329.0000915527344 M 566.0001831054688 332.0011596679688 L 566.0001220703125 332.0000915527344 L 37.99980163574219 332.0000915527344 L 37.99980163574219 245.9996948242188 L 38.0172004699707 245.9987030029297 C 43.9552001953125 245.9987030029297 49.89153289794922 245.4521636962891 55.66133499145508 244.3743591308594 C 61.28779983520508 243.3233642578125 66.82233428955078 241.7550354003906 72.11126708984375 239.712890625 C 77.30386352539062 237.7080383300781 82.31226348876953 235.2263641357422 86.99732971191406 232.3369598388672 C 91.63780212402344 229.47509765625 96.00140380859375 226.1883697509766 99.96706390380859 222.5682373046875 C 103.932731628418 218.9480285644531 107.5331344604492 214.9645690917969 110.6681365966797 210.7283630371094 C 113.8331298828125 206.4516906738281 116.5515975952148 201.879638671875 118.7480010986328 197.1392364501953 C 120.9850006103516 192.3110961914062 122.7030029296875 187.2586364746094 123.8543319702148 182.1224365234375 C 125.0357971191406 176.8520965576172 125.6348037719727 171.4275665283203 125.6348037719727 165.9995574951172 C 125.6348037719727 160.5715637207031 125.0357971191406 155.1470947265625 123.8543319702148 149.8768310546875 C 122.7030029296875 144.7406311035156 120.9850692749023 139.688232421875 118.7480010986328 134.8600921630859 C 116.5515975952148 130.1197052001953 113.8331985473633 125.5476989746094 110.6681365966797 121.2710952758789 C 107.5330657958984 117.0349655151367 103.9326629638672 113.0514984130859 99.96706390380859 109.4314956665039 C 96.00166320800781 105.8115615844727 91.63806915283203 102.5248947143555 86.99732971191406 99.66289520263672 C 82.31226348876953 96.77349853515625 77.30386352539062 94.29196166992188 72.11126708984375 92.28709411621094 C 66.82253265380859 90.24509429931641 61.28799819946289 88.67669677734375 55.66133499145508 87.62569427490234 C 49.88793182373047 86.54723358154297 43.94580078125 86.00043487548828 37.99980163574219 86.00043487548828 L 37.99980163574219 3.124186332570389e-05 L 566.0001220703125 3.124186332570389e-05 L 566.0001831054688 332.0011596679688 Z" stroke="none" fill="#a00000"/>
    </g>
    <g id="Group_2" data-name="Group 2" transform="translate(53)">
      <line id="Line_3" data-name="Line 3" y2="10" transform="translate(608.5 231.5)" fill="none" stroke="#a00000" stroke-width="3"/>
      <line id="Line_4" data-name="Line 4" y2="10" transform="translate(608.5 246.5)" fill="none" stroke="#a00000" stroke-width="3"/>
      <line id="Line_5" data-name="Line 5" y2="10" transform="translate(608.5 261.5)" fill="none" stroke="#a00000" stroke-width="3"/>
      <line id="Line_6" data-name="Line 6" y2="10" transform="translate(608.5 276.5)" fill="none" stroke="#a00000" stroke-width="3"/>
      <line id="Line_7" data-name="Line 7" y2="10" transform="translate(608.5 291.5)" fill="none" stroke="#a00000" stroke-width="3"/>
      <line id="Line_8" data-name="Line 8" y2="10" transform="translate(608.5 306.5)" fill="none" stroke="#a00000" stroke-width="3"/>
      <line id="Line_9" data-name="Line 9" y2="10" transform="translate(608.5 321.5)" fill="none" stroke="#a00000" stroke-width="3"/>
      <line id="Line_10" data-name="Line 10" y2="10" transform="translate(608.5 336.5)" fill="none" stroke="#a00000" stroke-width="3"/>
      <line id="Line_11" data-name="Line 11" y2="10" transform="translate(608.5 351.5)" fill="none" stroke="#a00000" stroke-width="3"/>
      <line id="Line_12" data-name="Line 12" y2="10" transform="translate(608.5 366.5)" fill="none" stroke="#a00000" stroke-width="3"/>
      <line id="Line_13" data-name="Line 13" y2="10" transform="translate(608.5 381.5)" fill="none" stroke="#a00000" stroke-width="3"/>
      <line id="Line_14" data-name="Line 14" y2="10" transform="translate(608.5 396.5)" fill="none" stroke="#a00000" stroke-width="3"/>
      <line id="Line_15" data-name="Line 15" y2="10" transform="translate(608.5 412.5)" fill="none" stroke="#a00000" stroke-width="3"/>
      <line id="Line_16" data-name="Line 16" y2="10" transform="translate(608.5 427.5)" fill="none" stroke="#a00000" stroke-width="3"/>
      <line id="Line_17" data-name="Line 17" y2="10" transform="translate(608.5 442.5)" fill="none" stroke="#a00000" stroke-width="3"/>
      <line id="Line_18" data-name="Line 18" y2="10" transform="translate(608.5 457.5)" fill="none" stroke="#a00000" stroke-width="3"/>
      <line id="Line_19" data-name="Line 19" y2="10" transform="translate(608.5 472.5)" fill="none" stroke="#a00000" stroke-width="3"/>
      <line id="Line_20" data-name="Line 20" y2="10" transform="translate(608.5 489.5)" fill="none" stroke="#a00000" stroke-width="3"/>
      <line id="Line_21" data-name="Line 21" y2="10" transform="translate(608.5 504.5)" fill="none" stroke="#a00000" stroke-width="3"/>
      <line id="Line_22" data-name="Line 22" y2="10" transform="translate(608.5 519.5)" fill="none" stroke="#a00000" stroke-width="3"/>
      <line id="Line_23" data-name="Line 23" y2="10" transform="translate(608.5 534.5)" fill="none" stroke="#a00000" stroke-width="3"/>
    </g>
    <text id="DAGSBILLET" transform="translate(378 294)" fill="#0a0a0a" font-size="30" font-family="Arial-BoldMT, Arial" font-weight="700"><tspan x="0" y="0">DAGSBILLET</tspan></text>
    <line id="Line_25" data-name="Line 25" x2="197" transform="translate(373 300)" fill="none" stroke="#0b0b0b" stroke-width="2"/>
    <text id="Billet_til_en_enkel_dag" data-name="Billet til en enkel dag" transform="translate(390 317)" fill="#0a0a0a" font-size="18" font-family="Arial-BoldMT, Arial" font-weight="700"><tspan x="0" y="16">Billet til en enkel dag</tspan></text>
    <text id="DKK_120_-" data-name="DKK 120,-" transform="translate(407 429)" fill="#0a0a0a" font-size="30" font-family="Arial-BoldItalicMT, Arial" font-weight="700" font-style="italic"><tspan x="0" y="0">DKK 120,-</tspan></text>
    <g id="Rectangle_4" data-name="Rectangle 4" transform="translate(316 452)" fill="none" stroke="#a00000" stroke-width="1">
      <rect width="316" height="51" stroke="none"/>
      <rect x="0.5" y="0.5" width="315" height="50" fill="none"/>
    </g>
    <text id="KØB_BILLETTER" data-name="KØB BILLETTER" transform="translate(378 488)" fill="#0a0a0a" font-size="25" font-family="Arial-BoldMT, Arial" font-weight="700"><tspan x="0" y="0">KØB BILLETTER</tspan></text>
  </g>
</svg>
