<svg width="380" height="228" viewBox="0 0 380 228" fill="none" xmlns="http://www.w3.org/2000/svg">
<mask id="path-1-inside-1_325_199" fill="white">
<path fill-rule="evenodd" clip-rule="evenodd" d="M380 0H0V65.8523C26.8297 65.8523 48.5795 87.6021 48.5795 114.432C48.5795 141.262 26.8297 163.011 0 163.011V227.784H380V0Z"/>
</mask>
<path d="M0 0V-2H-2V0H0ZM380 0H382V-2H380V0ZM0 65.8523H-2V67.8523H0V65.8523ZM0 163.011V161.011H-2V163.011H0ZM0 227.784H-2V229.784H0V227.784ZM380 227.784V229.784H382V227.784H380ZM0 2H380V-2H0V2ZM2 65.8523V0H-2V65.8523H2ZM0 67.8523C25.7252 67.8523 46.5795 88.7066 46.5795 114.432H50.5795C50.5795 86.4975 27.9343 63.8523 0 63.8523V67.8523ZM46.5795 114.432C46.5795 140.157 25.7252 161.011 0 161.011V165.011C27.9343 165.011 50.5795 142.366 50.5795 114.432H46.5795ZM2 227.784V163.011H-2V227.784H2ZM380 225.784H0V229.784H380V225.784ZM378 0V227.784H382V0H378Z" fill="#A00000" mask="url(#path-1-inside-1_325_199)"/>
<path d="M74.32 89.58V111H82.42C84.04 111 85.3 110.71 86.2 110.13C87.1 109.53 87.77 108.74 88.21 107.76C88.67 106.76 88.95 105.62 89.05 104.34C89.15 103.04 89.2 101.69 89.2 100.29C89.2 98.89 89.15 97.55 89.05 96.27C88.95 94.97 88.67 93.83 88.21 92.85C87.77 91.85 87.1 91.06 86.2 90.48C85.3 89.88 84.04 89.58 82.42 89.58H74.32ZM79.9 106.98V93.6H81.01C81.55 93.6 81.98 93.68 82.3 93.84C82.62 93.98 82.86 94.29 83.02 94.77C83.2 95.25 83.31 95.93 83.35 96.81C83.41 97.69 83.44 98.85 83.44 100.29C83.44 101.73 83.41 102.89 83.35 103.77C83.31 104.65 83.2 105.33 83.02 105.81C82.86 106.29 82.62 106.61 82.3 106.77C81.98 106.91 81.55 106.98 81.01 106.98H79.9ZM98.0092 93.96L96.4792 103.05H99.5992L98.0692 93.96H98.0092ZM101.549 89.58L106.769 111H100.829L100.259 107.25H95.8192L95.2492 111H89.3992L94.5292 89.58H101.549ZM114.889 99.36V103.14H116.869C116.869 104.06 116.819 104.82 116.719 105.42C116.639 106 116.519 106.46 116.359 106.8C116.199 107.12 115.999 107.34 115.759 107.46C115.539 107.58 115.279 107.64 114.979 107.64C114.559 107.64 114.219 107.53 113.959 107.31C113.719 107.09 113.529 106.7 113.389 106.14C113.269 105.58 113.189 104.83 113.149 103.89C113.109 102.93 113.089 101.73 113.089 100.29C113.089 98.85 113.109 97.66 113.149 96.72C113.189 95.76 113.269 95 113.389 94.44C113.529 93.88 113.729 93.49 113.989 93.27C114.269 93.05 114.639 92.94 115.099 92.94C115.759 92.94 116.189 93.25 116.389 93.87C116.589 94.39 116.689 95.22 116.689 96.36H122.089C122.089 95.06 121.919 93.96 121.579 93.06C121.239 92.14 120.769 91.39 120.169 90.81C119.569 90.23 118.849 89.81 118.009 89.55C117.189 89.29 116.289 89.16 115.309 89.16C113.669 89.16 112.329 89.41 111.289 89.91C110.249 90.39 109.429 91.1 108.829 92.04C108.249 92.98 107.849 94.14 107.629 95.52C107.429 96.9 107.329 98.49 107.329 100.29C107.329 102.07 107.379 103.65 107.479 105.03C107.599 106.41 107.869 107.57 108.289 108.51C108.709 109.45 109.329 110.16 110.149 110.64C110.969 111.1 112.089 111.33 113.509 111.33C113.989 111.33 114.459 111.3 114.919 111.24C115.399 111.18 115.839 111.08 116.239 110.94C116.659 110.78 117.029 110.55 117.349 110.25C117.689 109.95 117.949 109.57 118.129 109.11H118.189L118.309 111H122.089V99.36H114.889ZM132.699 95.76H137.919C137.919 93.46 137.369 91.79 136.269 90.75C135.189 89.69 133.429 89.16 130.989 89.16C128.629 89.16 126.869 89.73 125.709 90.87C124.549 92.01 123.969 93.67 123.969 95.85C123.969 97.11 124.179 98.13 124.599 98.91C125.039 99.69 125.579 100.32 126.219 100.8C126.879 101.28 127.589 101.67 128.349 101.97C129.109 102.27 129.809 102.57 130.449 102.87C131.109 103.15 131.649 103.5 132.069 103.92C132.509 104.32 132.729 104.87 132.729 105.57C132.729 106.15 132.569 106.64 132.249 107.04C131.949 107.44 131.509 107.64 130.929 107.64C130.389 107.64 129.949 107.46 129.609 107.1C129.269 106.72 129.099 106.07 129.099 105.15V104.64H123.699V105.39C123.699 106.51 123.859 107.45 124.179 108.21C124.499 108.97 124.959 109.59 125.559 110.07C126.179 110.53 126.929 110.85 127.809 111.03C128.709 111.23 129.739 111.33 130.899 111.33C133.359 111.33 135.239 110.82 136.539 109.8C137.839 108.76 138.489 107.1 138.489 104.82C138.489 103.52 138.259 102.47 137.799 101.67C137.359 100.85 136.799 100.19 136.119 99.69C135.439 99.19 134.709 98.79 133.929 98.49C133.149 98.17 132.419 97.86 131.739 97.56C131.059 97.26 130.489 96.91 130.029 96.51C129.589 96.09 129.369 95.53 129.369 94.83C129.369 94.35 129.509 93.92 129.789 93.54C130.069 93.14 130.509 92.94 131.109 92.94C131.649 92.94 132.049 93.17 132.309 93.63C132.569 94.07 132.699 94.61 132.699 95.25V95.76ZM146.232 106.98V101.76H147.792C148.312 101.76 148.772 101.98 149.172 102.42C149.572 102.86 149.772 103.5 149.772 104.34C149.772 105.24 149.572 105.91 149.172 106.35C148.772 106.77 148.312 106.98 147.792 106.98H146.232ZM146.232 97.98V93.6H147.582C148.162 93.6 148.602 93.82 148.902 94.26C149.202 94.7 149.352 95.22 149.352 95.82C149.352 96.4 149.202 96.91 148.902 97.35C148.602 97.77 148.162 97.98 147.582 97.98H146.232ZM140.652 89.58V111H149.082C150.242 111 151.232 110.85 152.052 110.55C152.872 110.23 153.532 109.79 154.032 109.23C154.552 108.67 154.932 108 155.172 107.22C155.412 106.44 155.532 105.59 155.532 104.67C155.532 104.11 155.452 103.56 155.292 103.02C155.152 102.46 154.922 101.95 154.602 101.49C154.282 101.03 153.872 100.65 153.372 100.35C152.872 100.03 152.272 99.84 151.572 99.78V99.72C152.172 99.6 152.682 99.39 153.102 99.09C153.522 98.79 153.862 98.43 154.122 98.01C154.402 97.57 154.602 97.09 154.722 96.57C154.862 96.03 154.932 95.48 154.932 94.92C154.932 93.3 154.452 92.01 153.492 91.05C152.552 90.07 151.082 89.58 149.082 89.58H140.652ZM157.489 89.58V111H163.069V89.58H157.489ZM165.492 89.58V111H177.942V106.44H171.072V89.58H165.492ZM179.379 89.58V111H191.829V106.44H184.959V89.58H179.379ZM193.265 89.58V111H206.225V106.44H198.845V102.18H205.505V97.8H198.845V94.14H205.955V89.58H193.265ZM211.085 94.32V111H216.665V94.32H220.865V89.58H206.945V94.32H211.085Z" fill="#A00000"/>
<path d="M75.1 70.985V67.16H78.61C80.22 67.16 81.025 67.83 81.025 69.17C81.025 69.42 80.975 69.655 80.875 69.875C80.775 70.095 80.625 70.29 80.425 70.46C80.225 70.62 79.975 70.75 79.675 70.85C79.375 70.94 79.02 70.985 78.61 70.985H75.1ZM74.08 66.29V77H78.61C79.19 77 79.685 76.95 80.095 76.85C80.515 76.74 80.865 76.605 81.145 76.445C81.435 76.275 81.665 76.08 81.835 75.86C82.005 75.64 82.135 75.42 82.225 75.2C82.315 74.97 82.375 74.75 82.405 74.54C82.435 74.32 82.45 74.125 82.45 73.955C82.45 73.255 82.245 72.67 81.835 72.2C81.425 71.72 80.875 71.435 80.185 71.345V71.315C80.465 71.255 80.715 71.15 80.935 71C81.165 70.85 81.36 70.67 81.52 70.46C81.69 70.24 81.82 70 81.91 69.74C82 69.47 82.045 69.195 82.045 68.915C82.045 68.415 81.95 68 81.76 67.67C81.57 67.33 81.315 67.06 80.995 66.86C80.685 66.65 80.32 66.505 79.9 66.425C79.49 66.335 79.06 66.29 78.61 66.29H74.08ZM75.1 76.13V71.855H78.61C79.52 71.855 80.215 72.03 80.695 72.38C81.185 72.72 81.43 73.235 81.43 73.925C81.43 74.355 81.355 74.715 81.205 75.005C81.055 75.285 80.85 75.51 80.59 75.68C80.33 75.85 80.03 75.97 79.69 76.04C79.35 76.1 78.99 76.13 78.61 76.13H75.1ZM84.1599 66.29V77H85.1799V66.29H84.1599ZM87.2451 66.29V77H88.1901V66.29H87.2451ZM90.0136 66.29V77H90.9586V66.29H90.0136ZM98.3322 72.59H93.3222C93.3622 72.24 93.4422 71.9 93.5622 71.57C93.6922 71.23 93.8622 70.935 94.0722 70.685C94.2822 70.425 94.5372 70.22 94.8372 70.07C95.1372 69.91 95.4822 69.83 95.8722 69.83C96.2522 69.83 96.5922 69.91 96.8922 70.07C97.1922 70.22 97.4472 70.425 97.6572 70.685C97.8672 70.935 98.0272 71.225 98.1372 71.555C98.2572 71.885 98.3222 72.23 98.3322 72.59ZM93.3222 73.385H99.2772C99.2972 72.845 99.2472 72.315 99.1272 71.795C99.0072 71.265 98.8072 70.8 98.5272 70.4C98.2572 69.99 97.9022 69.66 97.4622 69.41C97.0222 69.16 96.4922 69.035 95.8722 69.035C95.2622 69.035 94.7322 69.155 94.2822 69.395C93.8422 69.625 93.4822 69.935 93.2022 70.325C92.9222 70.705 92.7122 71.14 92.5722 71.63C92.4422 72.12 92.3772 72.62 92.3772 73.13C92.3772 73.68 92.4422 74.205 92.5722 74.705C92.7122 75.195 92.9222 75.63 93.2022 76.01C93.4822 76.38 93.8422 76.675 94.2822 76.895C94.7322 77.105 95.2622 77.21 95.8722 77.21C96.8522 77.21 97.6072 76.97 98.1372 76.49C98.6772 76.01 99.0472 75.33 99.2472 74.45H98.3022C98.1522 75.05 97.8822 75.53 97.4922 75.89C97.1022 76.25 96.5622 76.43 95.8722 76.43C95.4222 76.43 95.0372 76.335 94.7172 76.145C94.3972 75.955 94.1322 75.715 93.9222 75.425C93.7122 75.135 93.5572 74.81 93.4572 74.45C93.3672 74.08 93.3222 73.725 93.3222 73.385ZM102.046 69.26V66.935H101.101V69.26H99.7505V70.055H101.101V75.35C101.091 76.01 101.211 76.465 101.461 76.715C101.711 76.955 102.151 77.075 102.781 77.075C102.921 77.075 103.061 77.07 103.201 77.06C103.341 77.05 103.481 77.045 103.621 77.045V76.25C103.351 76.28 103.081 76.295 102.811 76.295C102.471 76.275 102.256 76.18 102.166 76.01C102.086 75.83 102.046 75.585 102.046 75.275V70.055H103.621V69.26H102.046ZM110.659 69.26V66.935H109.714V69.26H108.364V70.055H109.714V75.35C109.704 76.01 109.824 76.465 110.074 76.715C110.324 76.955 110.764 77.075 111.394 77.075C111.534 77.075 111.674 77.07 111.814 77.06C111.954 77.05 112.094 77.045 112.234 77.045V76.25C111.964 76.28 111.694 76.295 111.424 76.295C111.084 76.275 110.869 76.18 110.779 76.01C110.699 75.83 110.659 75.585 110.659 75.275V70.055H112.234V69.26H110.659ZM113.612 66.29V67.805H114.557V66.29H113.612ZM113.612 69.26V77H114.557V69.26H113.612ZM116.381 66.29V77H117.326V66.29H116.381ZM128.874 72.59H123.864C123.904 72.24 123.984 71.9 124.104 71.57C124.234 71.23 124.404 70.935 124.614 70.685C124.824 70.425 125.079 70.22 125.379 70.07C125.679 69.91 126.024 69.83 126.414 69.83C126.794 69.83 127.134 69.91 127.434 70.07C127.734 70.22 127.989 70.425 128.199 70.685C128.409 70.935 128.569 71.225 128.679 71.555C128.799 71.885 128.864 72.23 128.874 72.59ZM123.864 73.385H129.819C129.839 72.845 129.789 72.315 129.669 71.795C129.549 71.265 129.349 70.8 129.069 70.4C128.799 69.99 128.444 69.66 128.004 69.41C127.564 69.16 127.034 69.035 126.414 69.035C125.804 69.035 125.274 69.155 124.824 69.395C124.384 69.625 124.024 69.935 123.744 70.325C123.464 70.705 123.254 71.14 123.114 71.63C122.984 72.12 122.919 72.62 122.919 73.13C122.919 73.68 122.984 74.205 123.114 74.705C123.254 75.195 123.464 75.63 123.744 76.01C124.024 76.38 124.384 76.675 124.824 76.895C125.274 77.105 125.804 77.21 126.414 77.21C127.394 77.21 128.149 76.97 128.679 76.49C129.219 76.01 129.589 75.33 129.789 74.45H128.844C128.694 75.05 128.424 75.53 128.034 75.89C127.644 76.25 127.104 76.43 126.414 76.43C125.964 76.43 125.579 76.335 125.259 76.145C124.939 75.955 124.674 75.715 124.464 75.425C124.254 75.135 124.099 74.81 123.999 74.45C123.909 74.08 123.864 73.725 123.864 73.385ZM131.073 69.26V77H132.018V72.485C132.028 72.105 132.088 71.755 132.198 71.435C132.318 71.105 132.478 70.825 132.678 70.595C132.888 70.355 133.138 70.17 133.428 70.04C133.728 69.9 134.068 69.83 134.448 69.83C134.828 69.83 135.143 69.89 135.393 70.01C135.653 70.13 135.858 70.295 136.008 70.505C136.158 70.715 136.263 70.965 136.323 71.255C136.383 71.535 136.413 71.84 136.413 72.17V77H137.358V72.02C137.358 71.56 137.313 71.145 137.223 70.775C137.133 70.405 136.978 70.095 136.758 69.845C136.538 69.585 136.243 69.385 135.873 69.245C135.513 69.105 135.063 69.035 134.523 69.035C133.973 69.035 133.468 69.18 133.008 69.47C132.548 69.75 132.228 70.125 132.048 70.595H132.018V69.26H131.073ZM148.884 72.59H143.874C143.914 72.24 143.994 71.9 144.114 71.57C144.244 71.23 144.414 70.935 144.624 70.685C144.834 70.425 145.089 70.22 145.389 70.07C145.689 69.91 146.034 69.83 146.424 69.83C146.804 69.83 147.144 69.91 147.444 70.07C147.744 70.22 147.999 70.425 148.209 70.685C148.419 70.935 148.579 71.225 148.689 71.555C148.809 71.885 148.874 72.23 148.884 72.59ZM143.874 73.385H149.829C149.849 72.845 149.799 72.315 149.679 71.795C149.559 71.265 149.359 70.8 149.079 70.4C148.809 69.99 148.454 69.66 148.014 69.41C147.574 69.16 147.044 69.035 146.424 69.035C145.814 69.035 145.284 69.155 144.834 69.395C144.394 69.625 144.034 69.935 143.754 70.325C143.474 70.705 143.264 71.14 143.124 71.63C142.994 72.12 142.929 72.62 142.929 73.13C142.929 73.68 142.994 74.205 143.124 74.705C143.264 75.195 143.474 75.63 143.754 76.01C144.034 76.38 144.394 76.675 144.834 76.895C145.284 77.105 145.814 77.21 146.424 77.21C147.404 77.21 148.159 76.97 148.689 76.49C149.229 76.01 149.599 75.33 149.799 74.45H148.854C148.704 75.05 148.434 75.53 148.044 75.89C147.654 76.25 147.114 76.43 146.424 76.43C145.974 76.43 145.589 76.335 145.269 76.145C144.949 75.955 144.684 75.715 144.474 75.425C144.264 75.135 144.109 74.81 144.009 74.45C143.919 74.08 143.874 73.725 143.874 73.385ZM151.082 69.26V77H152.027V72.485C152.037 72.105 152.097 71.755 152.207 71.435C152.327 71.105 152.487 70.825 152.687 70.595C152.897 70.355 153.147 70.17 153.437 70.04C153.737 69.9 154.077 69.83 154.457 69.83C154.837 69.83 155.152 69.89 155.402 70.01C155.662 70.13 155.867 70.295 156.017 70.505C156.167 70.715 156.272 70.965 156.332 71.255C156.392 71.535 156.422 71.84 156.422 72.17V77H157.367V72.02C157.367 71.56 157.322 71.145 157.232 70.775C157.142 70.405 156.987 70.095 156.767 69.845C156.547 69.585 156.252 69.385 155.882 69.245C155.522 69.105 155.072 69.035 154.532 69.035C153.982 69.035 153.477 69.18 153.017 69.47C152.557 69.75 152.237 70.125 152.057 70.595H152.027V69.26H151.082ZM159.154 66.29V77H160.099V74.06L161.629 72.785L164.689 77H165.874L162.349 72.125L165.649 69.26H164.389L160.099 73.01V66.29H159.154ZM172.219 72.59H167.209C167.249 72.24 167.329 71.9 167.449 71.57C167.579 71.23 167.749 70.935 167.959 70.685C168.169 70.425 168.424 70.22 168.724 70.07C169.024 69.91 169.369 69.83 169.759 69.83C170.139 69.83 170.479 69.91 170.779 70.07C171.079 70.22 171.334 70.425 171.544 70.685C171.754 70.935 171.914 71.225 172.024 71.555C172.144 71.885 172.209 72.23 172.219 72.59ZM167.209 73.385H173.164C173.184 72.845 173.134 72.315 173.014 71.795C172.894 71.265 172.694 70.8 172.414 70.4C172.144 69.99 171.789 69.66 171.349 69.41C170.909 69.16 170.379 69.035 169.759 69.035C169.149 69.035 168.619 69.155 168.169 69.395C167.729 69.625 167.369 69.935 167.089 70.325C166.809 70.705 166.599 71.14 166.459 71.63C166.329 72.12 166.264 72.62 166.264 73.13C166.264 73.68 166.329 74.205 166.459 74.705C166.599 75.195 166.809 75.63 167.089 76.01C167.369 76.38 167.729 76.675 168.169 76.895C168.619 77.105 169.149 77.21 169.759 77.21C170.739 77.21 171.494 76.97 172.024 76.49C172.564 76.01 172.934 75.33 173.134 74.45H172.189C172.039 75.05 171.769 75.53 171.379 75.89C170.989 76.25 170.449 76.43 169.759 76.43C169.309 76.43 168.924 76.335 168.604 76.145C168.284 75.955 168.019 75.715 167.809 75.425C167.599 75.135 167.444 74.81 167.344 74.45C167.254 74.08 167.209 73.725 167.209 73.385ZM174.447 66.29V77H175.392V66.29H174.447ZM188.186 77V66.29H187.241V70.73H187.211C187.111 70.45 186.966 70.205 186.776 69.995C186.596 69.785 186.386 69.61 186.146 69.47C185.906 69.32 185.646 69.21 185.366 69.14C185.096 69.07 184.816 69.035 184.526 69.035C183.936 69.035 183.421 69.145 182.981 69.365C182.551 69.585 182.191 69.885 181.901 70.265C181.611 70.635 181.396 71.07 181.256 71.57C181.116 72.06 181.046 72.58 181.046 73.13C181.046 73.68 181.116 74.205 181.256 74.705C181.396 75.195 181.611 75.63 181.901 76.01C182.191 76.38 182.551 76.675 182.981 76.895C183.421 77.105 183.936 77.21 184.526 77.21C184.806 77.21 185.086 77.17 185.366 77.09C185.656 77.01 185.926 76.9 186.176 76.76C186.426 76.61 186.646 76.43 186.836 76.22C187.036 76.01 187.186 75.78 187.286 75.53H187.316V77H188.186ZM181.991 73.13C181.991 72.73 182.036 72.335 182.126 71.945C182.226 71.545 182.376 71.19 182.576 70.88C182.786 70.57 183.051 70.32 183.371 70.13C183.691 69.93 184.076 69.83 184.526 69.83C185.026 69.83 185.446 69.93 185.786 70.13C186.136 70.32 186.416 70.57 186.626 70.88C186.846 71.19 187.001 71.545 187.091 71.945C187.191 72.335 187.241 72.73 187.241 73.13C187.241 73.53 187.191 73.93 187.091 74.33C187.001 74.72 186.846 75.07 186.626 75.38C186.416 75.69 186.136 75.945 185.786 76.145C185.446 76.335 185.026 76.43 184.526 76.43C184.076 76.43 183.691 76.335 183.371 76.145C183.051 75.945 182.786 75.69 182.576 75.38C182.376 75.07 182.226 74.72 182.126 74.33C182.036 73.93 181.991 73.53 181.991 73.13ZM189.899 71.63H190.844C190.864 71 191.064 70.545 191.444 70.265C191.824 69.975 192.314 69.83 192.914 69.83C193.194 69.83 193.454 69.855 193.694 69.905C193.944 69.945 194.159 70.025 194.339 70.145C194.529 70.265 194.674 70.43 194.774 70.64C194.884 70.84 194.939 71.1 194.939 71.42C194.939 71.63 194.909 71.8 194.849 71.93C194.799 72.06 194.724 72.165 194.624 72.245C194.524 72.315 194.399 72.365 194.249 72.395C194.099 72.425 193.924 72.45 193.724 72.47C193.214 72.53 192.709 72.595 192.209 72.665C191.719 72.725 191.274 72.835 190.874 72.995C190.484 73.155 190.169 73.39 189.929 73.7C189.689 74 189.569 74.42 189.569 74.96C189.569 75.35 189.634 75.69 189.764 75.98C189.904 76.26 190.089 76.495 190.319 76.685C190.559 76.865 190.834 76.995 191.144 77.075C191.464 77.165 191.804 77.21 192.164 77.21C192.544 77.21 192.869 77.175 193.139 77.105C193.419 77.035 193.664 76.935 193.874 76.805C194.094 76.675 194.289 76.515 194.459 76.325C194.639 76.125 194.814 75.9 194.984 75.65H195.014C195.014 75.85 195.024 76.035 195.044 76.205C195.074 76.365 195.129 76.505 195.209 76.625C195.289 76.745 195.399 76.84 195.539 76.91C195.689 76.97 195.884 77 196.124 77C196.254 77 196.359 76.995 196.439 76.985C196.529 76.975 196.629 76.96 196.739 76.94V76.145C196.649 76.185 196.549 76.205 196.439 76.205C196.069 76.205 195.884 76.015 195.884 75.635V71.525C195.884 71.005 195.799 70.585 195.629 70.265C195.459 69.935 195.239 69.68 194.969 69.5C194.699 69.32 194.394 69.2 194.054 69.14C193.714 69.07 193.374 69.035 193.034 69.035C192.584 69.035 192.174 69.085 191.804 69.185C191.434 69.285 191.109 69.44 190.829 69.65C190.559 69.86 190.344 70.13 190.184 70.46C190.024 70.79 189.929 71.18 189.899 71.63ZM194.939 72.77V74C194.939 74.38 194.864 74.72 194.714 75.02C194.574 75.32 194.379 75.575 194.129 75.785C193.889 75.995 193.604 76.155 193.274 76.265C192.944 76.375 192.599 76.43 192.239 76.43C192.019 76.43 191.804 76.395 191.594 76.325C191.384 76.255 191.199 76.155 191.039 76.025C190.879 75.885 190.749 75.725 190.649 75.545C190.559 75.355 190.514 75.14 190.514 74.9C190.514 74.52 190.624 74.23 190.844 74.03C191.074 73.82 191.364 73.66 191.714 73.55C192.064 73.44 192.449 73.36 192.869 73.31C193.299 73.25 193.714 73.185 194.114 73.115C194.244 73.095 194.394 73.06 194.564 73.01C194.734 72.96 194.849 72.88 194.909 72.77H194.939ZM204.307 76.37V69.26H203.362V70.595H203.332C203.242 70.385 203.112 70.185 202.942 69.995C202.782 69.805 202.597 69.64 202.387 69.5C202.177 69.35 201.942 69.235 201.682 69.155C201.432 69.075 201.162 69.035 200.872 69.035C200.312 69.035 199.812 69.14 199.372 69.35C198.942 69.55 198.577 69.83 198.277 70.19C197.987 70.54 197.762 70.955 197.602 71.435C197.452 71.905 197.377 72.405 197.377 72.935C197.377 73.485 197.442 74.005 197.572 74.495C197.702 74.975 197.907 75.395 198.187 75.755C198.477 76.115 198.842 76.4 199.282 76.61C199.722 76.81 200.252 76.91 200.872 76.91C201.442 76.91 201.937 76.765 202.357 76.475C202.787 76.185 203.112 75.8 203.332 75.32H203.362V76.37C203.362 77.31 203.167 78.03 202.777 78.53C202.387 79.03 201.752 79.28 200.872 79.28C200.612 79.28 200.357 79.25 200.107 79.19C199.857 79.14 199.627 79.055 199.417 78.935C199.217 78.815 199.042 78.655 198.892 78.455C198.752 78.265 198.657 78.025 198.607 77.735H197.662C197.692 78.145 197.802 78.495 197.992 78.785C198.192 79.085 198.437 79.33 198.727 79.52C199.027 79.71 199.362 79.85 199.732 79.94C200.102 80.03 200.482 80.075 200.872 80.075C201.502 80.075 202.032 79.99 202.462 79.82C202.902 79.65 203.257 79.405 203.527 79.085C203.797 78.765 203.992 78.375 204.112 77.915C204.242 77.455 204.307 76.94 204.307 76.37ZM200.872 76.115C200.432 76.115 200.052 76.03 199.732 75.86C199.412 75.68 199.147 75.45 198.937 75.17C198.727 74.88 198.572 74.55 198.472 74.18C198.372 73.81 198.322 73.43 198.322 73.04C198.322 72.64 198.367 72.25 198.457 71.87C198.557 71.48 198.712 71.135 198.922 70.835C199.132 70.535 199.397 70.295 199.717 70.115C200.037 69.925 200.422 69.83 200.872 69.83C201.322 69.83 201.702 69.925 202.012 70.115C202.332 70.305 202.592 70.555 202.792 70.865C202.992 71.175 203.137 71.52 203.227 71.9C203.317 72.28 203.362 72.66 203.362 73.04C203.362 73.43 203.307 73.81 203.197 74.18C203.097 74.55 202.942 74.88 202.732 75.17C202.522 75.45 202.262 75.68 201.952 75.86C201.642 76.03 201.282 76.115 200.872 76.115Z" fill="black"/>
<path d="M252.02 142.88V132.84H253.24C253.787 132.84 254.22 132.947 254.54 133.16C254.873 133.36 255.12 133.667 255.28 134.08C255.453 134.48 255.567 134.987 255.62 135.6C255.673 136.213 255.7 136.927 255.7 137.74C255.7 138.713 255.667 139.527 255.6 140.18C255.547 140.833 255.427 141.36 255.24 141.76C255.067 142.16 254.827 142.447 254.52 142.62C254.213 142.793 253.807 142.88 253.3 142.88H252.02ZM249.14 130.72V145H253.68C254.64 145 255.433 144.853 256.06 144.56C256.687 144.267 257.187 143.82 257.56 143.22C257.933 142.62 258.193 141.86 258.34 140.94C258.5 140.007 258.58 138.913 258.58 137.66C258.58 136.607 258.52 135.653 258.4 134.8C258.28 133.947 258.047 133.22 257.7 132.62C257.367 132.007 256.893 131.54 256.28 131.22C255.667 130.887 254.86 130.72 253.86 130.72H249.14ZM263.364 130.72H260.484V145H263.364V140.76L264.424 139.14L267.364 145H270.604L266.284 136.84L270.164 130.72H267.044L263.404 136.44H263.364V130.72ZM274.107 130.72H271.227V145H274.107V140.76L275.167 139.14L278.107 145H281.347L277.027 136.84L280.907 130.72H277.787L274.147 136.44H274.107V130.72ZM289.413 145H292.293V130.84H290.173C290.027 131.64 289.673 132.22 289.113 132.58C288.567 132.94 287.813 133.12 286.853 133.12H286.593V135H289.413V145ZM304.463 145V142.76H299.123C299.189 142.493 299.343 142.18 299.583 141.82C299.823 141.447 300.156 141.067 300.583 140.68L302.183 139.2C302.583 138.84 302.923 138.493 303.203 138.16C303.483 137.813 303.709 137.46 303.883 137.1C304.056 136.74 304.183 136.367 304.263 135.98C304.343 135.58 304.383 135.153 304.383 134.7C304.383 133.46 304.036 132.507 303.343 131.84C302.649 131.173 301.583 130.84 300.143 130.84C298.623 130.84 297.509 131.193 296.803 131.9C296.096 132.607 295.743 133.62 295.743 134.94V135.48H298.503C298.503 135.107 298.516 134.753 298.543 134.42C298.583 134.087 298.656 133.793 298.763 133.54C298.883 133.287 299.043 133.087 299.243 132.94C299.456 132.793 299.743 132.72 300.103 132.72C301.036 132.72 301.503 133.307 301.503 134.48C301.503 134.84 301.483 135.16 301.443 135.44C301.416 135.72 301.349 135.98 301.243 136.22C301.136 136.46 300.983 136.7 300.783 136.94C300.596 137.18 300.343 137.44 300.023 137.72L298.863 138.8C298.343 139.28 297.883 139.76 297.483 140.24C297.096 140.707 296.769 141.187 296.503 141.68C296.249 142.173 296.056 142.693 295.923 143.24C295.803 143.787 295.743 144.373 295.743 145H304.463ZM305.352 138.4C305.352 139.653 305.419 140.72 305.552 141.6C305.699 142.467 305.939 143.173 306.272 143.72C306.619 144.267 307.079 144.653 307.652 144.88C308.226 145.107 308.939 145.22 309.792 145.22C310.846 145.22 311.666 145.02 312.252 144.62C312.852 144.22 313.299 143.673 313.592 142.98C313.886 142.273 314.066 141.467 314.132 140.56C314.199 139.653 314.232 138.707 314.232 137.72C314.232 136.467 314.159 135.407 314.012 134.54C313.879 133.66 313.639 132.947 313.292 132.4C312.959 131.853 312.506 131.46 311.932 131.22C311.372 130.967 310.659 130.84 309.792 130.84C308.739 130.84 307.912 131.053 307.312 131.48C306.726 131.893 306.286 132.453 305.992 133.16C305.699 133.853 305.519 134.653 305.452 135.56C305.386 136.467 305.352 137.413 305.352 138.4ZM308.232 139.02V137.48C308.232 136.573 308.252 135.813 308.292 135.2C308.346 134.587 308.426 134.1 308.532 133.74C308.652 133.367 308.812 133.107 309.012 132.96C309.212 132.8 309.472 132.72 309.792 132.72C310.099 132.72 310.352 132.78 310.552 132.9C310.752 133.02 310.912 133.247 311.032 133.58C311.152 133.9 311.232 134.347 311.272 134.92C311.326 135.48 311.352 136.207 311.352 137.1V138.64C311.352 139.547 311.326 140.307 311.272 140.92C311.232 141.533 311.152 142.027 311.032 142.4C310.926 142.76 310.772 143.02 310.572 143.18C310.372 143.327 310.112 143.4 309.792 143.4C309.486 143.4 309.232 143.34 309.032 143.22C308.832 143.1 308.672 142.88 308.552 142.56C308.432 142.227 308.346 141.78 308.292 141.22C308.252 140.647 308.232 139.913 308.232 139.02ZM318.322 141.88H315.682V145H316.722V145.26C316.722 145.633 316.635 145.973 316.462 146.28C316.288 146.587 316.028 146.773 315.682 146.84V148.24C316.215 148.187 316.648 148.053 316.982 147.84C317.328 147.64 317.602 147.373 317.802 147.04C318.002 146.72 318.135 146.333 318.202 145.88C318.282 145.44 318.322 144.973 318.322 144.48V141.88ZM325.926 138.04H320.286V140.4H325.926V138.04Z" fill="#222222"/>
<rect x="73.5" y="161.5" width="253" height="40.5625" stroke="#A00000"/>
<path d="M138.104 176.576V188H140.616V184.32L142.056 182.864L145.496 188H148.648L143.752 181.088L148.216 176.576H145.08L140.616 181.312V176.576H138.104ZM152.723 185.376L157.443 180.16C157.592 180.491 157.699 180.843 157.763 181.216C157.838 181.579 157.875 181.952 157.875 182.336C157.875 182.816 157.816 183.285 157.699 183.744C157.592 184.192 157.416 184.597 157.171 184.96C156.926 185.323 156.606 185.616 156.211 185.84C155.816 186.053 155.336 186.16 154.771 186.16C154.323 186.16 153.928 186.091 153.587 185.952C153.256 185.813 152.968 185.621 152.723 185.376ZM156.851 179.232L152.115 184.496C151.955 184.165 151.838 183.819 151.763 183.456C151.699 183.083 151.667 182.709 151.667 182.336C151.667 181.835 151.72 181.349 151.827 180.88C151.944 180.411 152.126 179.995 152.371 179.632C152.616 179.259 152.936 178.965 153.331 178.752C153.726 178.528 154.206 178.416 154.771 178.416C155.23 178.416 155.63 178.491 155.971 178.64C156.312 178.789 156.606 178.987 156.851 179.232ZM150.467 186.32L149.091 187.84L149.875 188.512L151.203 187.056C151.651 187.429 152.174 187.723 152.771 187.936C153.368 188.149 154.035 188.256 154.771 188.256C155.656 188.256 156.446 188.107 157.139 187.808C157.832 187.499 158.419 187.077 158.899 186.544C159.379 186.011 159.747 185.387 160.003 184.672C160.259 183.947 160.387 183.168 160.387 182.336C160.387 181.536 160.275 180.8 160.051 180.128C159.838 179.456 159.523 178.848 159.107 178.304L160.451 176.816L159.651 176.112L158.371 177.536C157.912 177.141 157.379 176.837 156.771 176.624C156.174 176.411 155.507 176.304 154.771 176.304C153.896 176.304 153.107 176.459 152.403 176.768C151.71 177.077 151.123 177.504 150.643 178.048C150.163 178.592 149.795 179.232 149.539 179.968C149.283 180.693 149.155 181.483 149.155 182.336C149.155 183.104 149.262 183.824 149.475 184.496C149.688 185.168 150.019 185.776 150.467 186.32ZM164.616 181.2V178.528H166.968C167.192 178.528 167.405 178.549 167.608 178.592C167.821 178.624 168.008 178.688 168.168 178.784C168.328 178.88 168.456 179.013 168.552 179.184C168.648 179.355 168.696 179.573 168.696 179.84C168.696 180.32 168.552 180.667 168.264 180.88C167.976 181.093 167.608 181.2 167.16 181.2H164.616ZM162.104 176.576V188H167.64C168.152 188 168.648 187.936 169.128 187.808C169.619 187.68 170.051 187.483 170.424 187.216C170.808 186.949 171.112 186.608 171.336 186.192C171.56 185.765 171.672 185.264 171.672 184.688C171.672 183.973 171.496 183.365 171.144 182.864C170.803 182.352 170.28 181.995 169.576 181.792C170.088 181.547 170.472 181.232 170.728 180.848C170.995 180.464 171.128 179.984 171.128 179.408C171.128 178.875 171.037 178.427 170.856 178.064C170.685 177.701 170.44 177.413 170.12 177.2C169.8 176.976 169.416 176.816 168.968 176.72C168.52 176.624 168.024 176.576 167.48 176.576H162.104ZM164.616 186.048V182.912H167.352C167.896 182.912 168.333 183.04 168.664 183.296C168.995 183.541 169.16 183.957 169.16 184.544C169.16 184.843 169.107 185.088 169 185.28C168.904 185.472 168.771 185.627 168.6 185.744C168.429 185.851 168.232 185.931 168.008 185.984C167.784 186.027 167.549 186.048 167.304 186.048H164.616ZM180.335 181.2V178.528H182.687C182.911 178.528 183.124 178.549 183.327 178.592C183.54 178.624 183.727 178.688 183.887 178.784C184.047 178.88 184.175 179.013 184.271 179.184C184.367 179.355 184.415 179.573 184.415 179.84C184.415 180.32 184.271 180.667 183.983 180.88C183.695 181.093 183.327 181.2 182.879 181.2H180.335ZM177.823 176.576V188H183.359C183.871 188 184.367 187.936 184.847 187.808C185.337 187.68 185.769 187.483 186.143 187.216C186.527 186.949 186.831 186.608 187.055 186.192C187.279 185.765 187.391 185.264 187.391 184.688C187.391 183.973 187.215 183.365 186.863 182.864C186.521 182.352 185.999 181.995 185.295 181.792C185.807 181.547 186.191 181.232 186.447 180.848C186.713 180.464 186.847 179.984 186.847 179.408C186.847 178.875 186.756 178.427 186.575 178.064C186.404 177.701 186.159 177.413 185.839 177.2C185.519 176.976 185.135 176.816 184.687 176.72C184.239 176.624 183.743 176.576 183.199 176.576H177.823ZM180.335 186.048V182.912H183.071C183.615 182.912 184.052 183.04 184.383 183.296C184.713 183.541 184.879 183.957 184.879 184.544C184.879 184.843 184.825 185.088 184.719 185.28C184.623 185.472 184.489 185.627 184.319 185.744C184.148 185.851 183.951 185.931 183.727 185.984C183.503 186.027 183.268 186.048 183.023 186.048H180.335ZM189.088 176.576V188H191.6V176.576H189.088ZM193.807 176.576V188H201.887V185.888H196.319V176.576H193.807ZM203.292 176.576V188H211.372V185.888H205.804V176.576H203.292ZM212.776 176.576V188H221.448V185.888H215.288V183.088H220.824V181.136H215.288V178.688H221.32V176.576H212.776ZM225.679 178.688V188H228.191V178.688H231.615V176.576H222.255V178.688H225.679ZM235.46 178.688V188H237.972V178.688H241.396V176.576H232.036V178.688H235.46ZM242.713 176.576V188H251.385V185.888H245.225V183.088H250.761V181.136H245.225V178.688H251.257V176.576H242.713ZM255.6 181.744V178.528H258.352C258.928 178.528 259.36 178.656 259.648 178.912C259.936 179.157 260.08 179.557 260.08 180.112C260.08 180.688 259.936 181.104 259.648 181.36C259.36 181.616 258.928 181.744 258.352 181.744H255.6ZM253.088 176.576V188H255.6V183.536H258.112C258.742 183.536 259.195 183.675 259.472 183.952C259.75 184.229 259.931 184.667 260.016 185.264C260.08 185.723 260.128 186.203 260.16 186.704C260.192 187.205 260.278 187.637 260.416 188H262.928C262.811 187.84 262.72 187.648 262.656 187.424C262.603 187.189 262.56 186.944 262.528 186.688C262.507 186.432 262.491 186.181 262.48 185.936C262.47 185.691 262.459 185.477 262.448 185.296C262.427 185.008 262.384 184.72 262.32 184.432C262.267 184.144 262.176 183.883 262.048 183.648C261.92 183.403 261.755 183.195 261.552 183.024C261.35 182.843 261.094 182.709 260.784 182.624V182.592C261.424 182.336 261.883 181.963 262.16 181.472C262.448 180.981 262.592 180.4 262.592 179.728C262.592 179.291 262.512 178.885 262.352 178.512C262.203 178.128 261.979 177.792 261.68 177.504C261.392 177.216 261.04 176.992 260.624 176.832C260.219 176.661 259.76 176.576 259.248 176.576H253.088Z" fill="#222222"/>
</svg>
