<svg width="380" height="228" viewBox="0 0 380 228" fill="none" xmlns="http://www.w3.org/2000/svg">
<mask id="path-1-inside-1_320_188" fill="white">
<path fill-rule="evenodd" clip-rule="evenodd" d="M380 0H0V65.8523C26.8297 65.8523 48.5795 87.6021 48.5795 114.432C48.5795 141.262 26.8297 163.011 0 163.011V227.784H380V0Z"/>
</mask>
<path d="M0 0V-3H-3V0H0ZM380 0H383V-3H380V0ZM0 65.8523H-3V68.8523H0V65.8523ZM0 163.011V160.011H-3V163.011H0ZM0 227.784H-3V230.784H0V227.784ZM380 227.784V230.784H383V227.784H380ZM0 3H380V-3H0V3ZM3 65.8523V0H-3V65.8523H3ZM0 68.8523C25.1729 68.8523 45.5795 89.2589 45.5795 114.432H51.5795C51.5795 85.9452 28.4866 62.8523 0 62.8523V68.8523ZM45.5795 114.432C45.5795 139.605 25.1729 160.011 0 160.011V166.011C28.4866 166.011 51.5795 142.918 51.5795 114.432H45.5795ZM3 227.784V163.011H-3V227.784H3ZM380 224.784H0V230.784H380V224.784ZM377 0V227.784H383V0H377Z" fill="#A00000" mask="url(#path-1-inside-1_320_188)"/>
</svg>
