<svg xmlns="http://www.w3.org/2000/svg" width="256.51" height="267.35" viewBox="0 0 256.51 267.35"><g id="Layer_2" data-name="Layer 2"><g id="Layer_1-2" data-name="Layer 1"><path d="M123.93,113.78c4.82,0,9.65,0,14.47,0,1,0,2.82.29,2.86.64.22,1.57.53,3.69-.29,4.72-1.58,2-1.61,3.85-1.4,6,1,10.58,2.05,21.16,2.88,31.75.3,3.79.05,3.81-3.74,3.81-2.16,0-4.32-.06-6.48,0-1.59.05-2.18-.58-2.25-2.18-.16-3.57-.5-7.13-.78-10.7s-2.39-5.7-5.4-5.67-5.09,2.3-5.37,5.77-.59,7-.75,10.45c-.08,1.65-.62,2.41-2.37,2.34-2.57-.09-5.16-.08-7.73,0-1.83.06-2.6-.68-2.45-2.51.71-8.52,1.36-17,2.11-25.57.27-3,.93-5.93,1.05-8.91,0-1.36-.75-2.76-1.24-4.12-.21-.59-.79-1.08-.9-1.68-.69-3.57-.12-4.23,3.56-4.23Q116.82,113.76,123.93,113.78Z"/><path d="M53.16,167.94c9.62-2.64,18.4-2.57,26.67,2.67,4.18,2.65,8.58,4.72,13.67,4.87a23.24,23.24,0,0,0,13-3.52A31.1,31.1,0,0,1,130,167.64a32.28,32.28,0,0,1,9.93,3.72c9.44,5.68,18.57,5.39,27.65-.53,8.37-5.46,17.29-5.56,27-2.89-1.47,2.55-2.72,4.95-4.25,7.15-.34.49-1.7.5-2.54.36-7.17-1.2-13.61.51-19.69,4.38-9.4,6-19.08,5.42-28.65.49-5.07-2.62-10.07-5-16-4.8a24.87,24.87,0,0,0-12.34,3.38c-6.71,4-13.89,6.08-21.67,4.71a24.49,24.49,0,0,1-8.55-3.12c-6.59-4.14-13.44-6.38-21.29-5.07A3.81,3.81,0,0,1,56.68,174,56,56,0,0,1,53.16,167.94Z"/><path d="M73.48,105.88c.25,1.32.17,2.13.54,2.59a4.9,4.9,0,0,0,2.21,1.75c1.24.34,2-.43,2-1.8s.56-2.28,2.23-2.28c1.47,0,2.37.33,2.52,2,.13,1.38.73,2.26,2.38,2.24s1.85-1.07,2-2.28c.15-1.88,1.5-2.22,2.82-1.74.57.21,1,1.6,1,2.45a5.26,5.26,0,0,1-2,4.58c-1.44,1.08-1.2,4.42.32,5.85s2.81,2.74.09,4.4c-.52.32-.58,1.85-.44,2.75.89,5.57,1.94,11.12,2.85,16.69.83,5.08,1.54,10.17,2.3,15.26.27,1.79-.38,2.54-2.3,2.52q-11.23-.12-22.45,0c-2.13,0-2.88-.81-2.54-2.84q1.83-10.8,3.63-21.61c.51-3,1-6.06,1.36-9.11.18-1.61.85-3.5-1.42-4.53a4.26,4.26,0,0,1,.61-2.9c2.34-2.57,2.22-4.7.27-7.35-1-1.4-1-3.66-1.09-5.56C70.38,106.65,72.25,106.28,73.48,105.88Z"/><path d="M167.08,160.78c-3.82,0-7.64-.07-11.46,0-1.91.05-2.59-.72-2.3-2.52q1.52-9.33,3-18.67c.74-4.58,1.56-9.16,2.13-13.77.11-.86-1-1.81-1.16-2.79s-.39-2.51.16-3.16c2.53-3,2.41-4.56.26-7.48-1-1.39-.85-3.69-1.06-5.59a3.51,3.51,0,0,1,2.11-.54,2.25,2.25,0,0,1,1.42,1.55c.15,1.72.8,2.9,2.58,2.34a3.43,3.43,0,0,0,1.87-2.35c.29-1.67,1.26-1.65,2.49-1.67s2.13.23,2.16,1.71.63,2.49,2.4,2.44,2-1.13,2.05-2.49c0-1.54,1-1.65,2.21-1.65,1.42,0,1.62.83,1.53,2-.15,2,0,3.87-2,5.28-1.55,1.09-1.08,4.41.65,6,1.57,1.44,2.27,2.62,0,4.08-.51.32-.65,1.68-.52,2.5,1,6.14,2.08,12.26,3.09,18.4.75,4.58,1.39,9.18,2.11,13.77.31,2-.47,2.69-2.45,2.64C174.56,160.71,170.82,160.78,167.08,160.78Z"/><path d="M65.1,185.18a19.19,19.19,0,0,1,11.21,1.68c3.64,1.59,7.07,3.85,10.84,4.9,7.1,2,14.15,1.5,20.7-2.38,7-4.15,14.45-6,22.46-3.89a43.13,43.13,0,0,1,9.17,3.72c9.27,4.92,18.41,5,27.55-.16,3.73-2.1,7.57-3.81,11.91-4.08,1.17-.08,2.36,0,3.54,0l.37.92a82.74,82.74,0,0,1-6.7,6.42c-10.41,8-21.88,11.36-34.82,7.34a30.2,30.2,0,0,1-6.07-2.84c-7.58-4.41-15.15-4.57-22.66,0-16.61,10-37,2.19-47.31-10.67A3.85,3.85,0,0,1,65.1,185.18Z"/><path d="M139.71,89.39c0,3.12.62,6-2.12,8.61-1.06,1-1.08,3.58-.88,5.36.69,6.14.8,6.13-5.4,6.13H110.44c.19-1.72.32-3.15.5-4.58.41-3.17.55-6-2.06-8.76-1.29-1.36-.91-4.31-1.33-6.86,1.57-.07,2.62-.07,3.66-.18,1.73-.16,2.76.42,2.67,2.31s.88,2.28,2.49,2.17c1.43-.1,3.16.44,3.16-2,0-2,1.12-2.76,3.06-2.51a8.36,8.36,0,0,0,2,0c2.23-.26,3.7.23,3.7,2.94,0,.51,1.27,1.43,1.94,1.43,1.14,0,3-.31,3.29-1C135.1,88.78,135,88.72,139.71,89.39Z"/><path d="M181.77,27.26q2.56-3.78,5.12-7.57c2.43-3.63,2.94-3.67,6.45-.37-3.86,5.46-7.7,11-11.66,16.38a2.52,2.52,0,0,1-2.3.59c-1.34-.54-3.19-.74-3.07-3,.16-3.15.18-6.31.26-9.47,0-.87,0-1.73,0-3.34-1.49,1.22-2.44,1.95-3.33,2.74-2,1.82-4,3.79-6.13,5.46a3.79,3.79,0,0,1-3,.51c-3.17-1.05-3.11-1.2-2.21-4.49,1.36-5,2.62-9.95,3.95-14.91.25-1,.64-1.86.94-2.74,4.43.16,4.91.88,3.71,4.91-.87,2.91-1.6,5.85-2.4,8.78l.58.38c1-.82,1.92-1.61,2.85-2.45,1.77-1.63,3.41-3.42,5.31-4.89a5.1,5.1,0,0,1,3.4-1.1c1.71.24,1.5,1.88,1.4,3.23q-.28,4.23-.53,8.46c0,.87,0,1.75,0,2.63Z"/><path d="M211.23,44.33c-4.16,1.7-7.85,3.29-11.62,4.67a3.43,3.43,0,0,1-2.81-.31c-2.9-2.22-2.83-2.3-.73-5.34,3.08-4.44,6.13-8.89,9.21-13.33.65-.94,1.28-2.24,2.65-.85,1,1,3.35,1.44,1.56,3.77-2.25,2.94-4.33,6-6.48,9l.43.58L212,39a12.27,12.27,0,0,1,2.75-1.15,3.42,3.42,0,0,1,2.57.51,2.83,2.83,0,0,1,.55,2.5c-1.39,3.8-3,7.52-4.08,11.7,1-.7,2.09-1.36,3.11-2.09,1.48-1.07,2.93-2.19,4.4-3.27,3.51-2.58,3.72-2.52,6.2,1.67-1.08.81-2.16,1.67-3.29,2.47Q218,55.7,211.71,60.05c-.9.62-1.8,1.74-3,.39s-3-2-2-4.3c1.43-3.26,2.7-6.6,4-9.92A17.34,17.34,0,0,0,211.23,44.33Z"/><path d="M30.11,226.48c-3.76-.12-7.37-2.82-9.59-7.45-.59-1.23-1-2.15-2.64-2.07-.44,0-1.27-.85-1.29-1.32s.74-1,1.17-1.52,1.49-1.18,1.65-1.91c1.27-5.61,5.06-9.36,10.35-10,5.6-.69,10.18,2,12.83,7.44.37.76,1.51,1.14,2.27,1.72.52.39,1.36.76,1.42,1.22s-.63,1.08-1,1.59c-.59.76-1.6,1.43-1.76,2.26C42.39,222.35,37.63,226.47,30.11,226.48ZM25,216.38c.6,3.64,4.51,5.64,8.24,4.77A5.81,5.81,0,0,0,38,215Zm-.32-3L38.13,212c-1.53-3.63-4.42-5.37-7.45-4.88A6.66,6.66,0,0,0,24.72,213.42Z"/><path d="M124.12,60.9c3.65,6.1,7.07,11.74,10.41,17.43a43.85,43.85,0,0,1,2.13,4.49c.55,1.24.09,2-1.26,2q-11.46,0-22.92,0c-1.36,0-1.79-.77-1.36-2a19.88,19.88,0,0,1,1.46-3.42c3.3-5.56,6.66-11.08,10-16.61C122.89,62.32,123.3,61.92,124.12,60.9Z"/><path d="M232.75,89.05c-6.58,0-12.21-5.76-12.27-12.56a12.17,12.17,0,0,1,12.13-12c6.56.06,12.13,5.91,12.11,12.73A12,12,0,0,1,232.75,89.05Zm-.25-5.19a7.11,7.11,0,0,0,7.31-7.17,7.17,7.17,0,0,0-14.34,0A7,7,0,0,0,232.5,83.86Z"/><path d="M44.13,241.76c4.16-6.09,7.86-11.6,11.69-17a2.47,2.47,0,0,1,2.35-.42,81,81,0,0,1,7.38,5.07c1.93,1.49,3.64,3.28,3.15,6.06s-2.51,4.14-5.18,4.56a17.73,17.73,0,0,1,.78,4.12c-.19,3.77-4.31,6.58-7.75,4.93C52.34,247.06,48.46,244.35,44.13,241.76ZM59.7,242c-.34-.57-.6-1.46-1.19-1.88a14.86,14.86,0,0,0-4.81-2.63c-.5-.11-2.47,3-2.23,3.29a17.13,17.13,0,0,0,4.92,3.73c.64.31,2-.63,2.89-1.13C59.53,243.28,59.52,242.67,59.7,242Zm1.45-4.79c1-1.44,2-2.25,2.23-3.24s-3.16-4.47-4.11-3.92c-1.14.66-2.79,2.73-2.54,3.1C57.67,234.62,59.27,235.62,61.15,237.24Z"/><path d="M109.39,14.61c-.55-3.33-1.16-6.66-1.62-10-.55-4-.09-4.42,4.41-4.44.55,3.27,1.13,6.59,1.65,9.93.43,2.78.85,5.58,1.14,8.38.12,1.13.25,3.12-.2,3.3-1.7.7-3.6,1.2-5.35-.36-2.85-2.53-5.82-4.93-8.75-7.38-.73-.61-1.51-1.16-2.27-1.74l-.72.32c.55,2.93,1,5.88,1.66,8.81s.37,3.26-2.55,3.6c-1.64.19-2.17-.44-2.44-2-1-5.72-2.11-11.42-3.09-17.14a4,4,0,0,1,.44-2.25c1.48,0,2.83-1.44,4.52.25,4,3.94,8.24,7.54,12.39,11.29Z"/><path d="M128.6,267.28l-11.26-14.21-.66.15a16.83,16.83,0,0,0-.32,2c-.15,3.24-.33,6.48-.35,9.72,0,2-.93,2.47-2.79,2.44-2,0-2.33-1-2.28-2.7.19-5.48.26-11,.49-16.46,0-1,.64-2.9.94-2.9,1.62,0,3.77,0,4.75,1,2.92,2.93,5.38,6.32,8,9.52.52.62,1.09,1.21,2.16,2.38v-12.8h5.15v21.89Z"/><path d="M237.26,184.7,225.94,179c.21-.66.32-1.14.51-1.57,1.37-3.06,1.41-3.08,4.32-1.67,5.59,2.7,11.17,5.43,16.86,8.2-.75,2.53-1.5,4-4.71,4.35-5,.5-9.84,2.18-15.49,3.54,1.24.79,1.9,1.29,2.63,1.67,2.79,1.47,5.55,3,8.41,4.31,2.12,1,1.4,2.11.7,3.58s-1.32,2-3,1.09c-4.94-2.72-10-5.23-15-7.92-.88-.48-2.27-1.84-2.12-2.13.7-1.36,1.62-3.18,2.88-3.59,4.32-1.41,8.81-2.31,13.23-3.42C235.67,185.34,236.1,185.13,237.26,184.7Z"/><path d="M151.57,264.73c-.86-2.9-1.7-5.65-2.49-8.41-1-3.43-1.83-6.9-2.88-10.3-.63-2,.15-2.84,2-3.37s2.79.2,3.14,2c.16.81.52,1.58.65,2.4.6,3.63,1.45,3,4.26,2.3a39.84,39.84,0,0,1,4-1.23c2.21-.35,2.19-1.59,1.62-3.23a22.38,22.38,0,0,0-.91-2.84c-1.05-2.08-.53-3.12,1.78-3.69,1.76-.44,2.5-.13,3,1.69,1.56,5.33,3.33,10.59,5,15.89.84,2.64-.83,4.65-3.5,4.13-.49-.1-1-.82-1.22-1.37a38.7,38.7,0,0,1-1.19-3.79c-1-3.37-1.09-3.44-4.48-2.38-.55.18-1.09.39-1.65.56-5.57,1.76-4.76.46-3.32,6.25a14.65,14.65,0,0,0,.4,1.44c.7,1.84.36,3.05-1.86,3.27A18.18,18.18,0,0,0,151.57,264.73Z"/><path d="M149.51,10.48c-.52,3.81-1,8.1-1.73,12.36-.36,2.1-2.14.92-3.29,1-1.47.05-2-.77-1.82-2.26.5-3.45,1-6.91,1.38-10.37.41-3.87-1.36-6-4.77-6.11-2.74-.06-4.35,1.3-4.83,4.32-.59,3.69-1.12,7.4-1.53,11.11-.26,2.41-1.85,1.55-3.13,1.49-1.45-.08-2.29-.58-2-2.35.55-3.69.9-7.42,1.37-11.13.7-5.47,5-8.87,10.7-8.47C145.69.45,149.58,4.46,149.51,10.48Z"/><path d="M183.91,253.06c-.71-5.43-1.39-10.68-2.07-15.93-.17-1.32-.27-2.64-.49-3.95-.59-3.52-.06-4.55,3.3-5.8a2.71,2.71,0,0,1,2.08.11c6.1,3.86,12.15,7.8,18.2,11.73.12.07.13.29.19.44-2.06,3.11-3.26,3.35-6.19,1.75a3.86,3.86,0,0,0-3.07-.12,43.15,43.15,0,0,0-6.35,3.91,3.65,3.65,0,0,0-1.34,2.57C188.27,251.54,188.16,251.82,183.91,253.06Zm2.87-19.92-.69.37c.36,2.43.73,4.87,1.18,7.85l6-3.85Z"/><path d="M93.16,259.57c-.89,4.26-.94,4.28-4.57,3.09-3.38-1.11-6.76-2.26-10.19-3.21-1.86-.52-2.1-1.4-1.54-3.1,1.76-5.35,3.46-10.72,5.06-16.13.61-2.06,1.55-2.55,3.61-1.81,4.28,1.52,8.64,2.8,12.91,4.17-.62,4.15-.9,4.31-4.56,3.09-2.34-.78-4.7-1.48-7-2.2-2.06,3.71-2,4,1.65,5.11,1.11.35,2.21.71,3.33,1,1.33.37,2.54.56,1.92,2.61s-1.68,2.13-3.33,1.52c-1.32-.5-2.69-.85-4-1.36-1.87-.72-2.9-.2-3.43,1.79-.38,1.43-.15,2.17,1.32,2.6C87.26,257.63,90.15,258.6,93.16,259.57Z"/><path d="M66.74,32.43c2.77-1.33,5.43-2.66,8.14-3.88,1.39-.62,2-1.26,1.18-2.84s-1.4-2.11-3-1.15c-1.35.81-2.85,1.35-4.27,2s-2.36,1.33-3.34-.73.17-2.63,1.6-3.28,3-1.47,4.52-2.1,1.29-1.55.69-2.77-1.08-2.31-2.74-1.53c-2.84,1.35-5.68,2.67-8.47,4-2.4-3.54-2.39-3.59,1.06-5.23s6.62-3.09,9.9-4.71c1.35-.66,2.2-.7,2.94.9,2.48,5.44,5.08,10.82,7.68,16.2.67,1.41.42,2.26-1.09,2.92-3.34,1.46-6.67,3-9.92,4.64C67.91,36.75,68.12,36.29,66.74,32.43Z"/><path d="M8.57,201.35c-2.31-2.92-3.27-5.47-1.31-8.67A23.71,23.71,0,0,0,10,185.13c-1.26.55-2.55,1.08-3.79,1.68-4.23,2-4.23,2-6.19-2.6a18.47,18.47,0,0,1,1.78-1.11c5.3-2.56,10.67-5,15.88-7.69,2.05-1.08,2.55-.06,3.3,1.38.84,1.61.91,2.69-1.11,3.43a43.79,43.79,0,0,0-4.79,2.41l-.1,1a68.31,68.31,0,0,0,7.72,2.65c3.37.76,4,1.17,4.87,5.62-2.6-.55-4.95-1-7.26-1.56a12,12,0,0,1-3.2-1.34c-1.67-1-2.57-.77-3.32,1.17-1.24,3.25-2.76,6.38-4.19,9.56A18.21,18.21,0,0,1,8.57,201.35Z"/><path d="M231.27,99.84c4.72.72,8,3.64,11.74,6.32l8.85-11.53c2,3.2,2,5.39.1,7.94l-5.35,7.07.35.58c2-.44,4.14-.75,6.13-1.35,3-.89,2.73,1.5,3.25,3,.7,2-1,1.87-2.12,2.12-5.59,1.23-11.18,2.4-16.77,3.64-1.57.34-2.65.35-3-1.7s-.09-3.18,2.13-3.51c1.7-.25,3.36-.72,5-1.1l.27-.78c-2.14-1.46-4.09-3.42-6.45-4.25C232.23,105.24,231.27,103.23,231.27,99.84Z"/><path d="M250.08,167.78c-2.67-2.92-2.49-3-.29-5.85a12.13,12.13,0,0,0,1.84-5.19c.11-.66-.84-1.86-1.58-2.18a2.67,2.67,0,0,0-2.31.88,21.29,21.29,0,0,0-2.16,3.89c-1.48,3-3.18,5.74-7.14,5.55a6.15,6.15,0,0,1-5.91-5.11c-.82-3.76.73-10.49,4.92-12,2.45,2.61,2.38,2.79.63,5.48a8.93,8.93,0,0,0-1.33,3.92,2.74,2.74,0,0,0,1.27,2.3,2.8,2.8,0,0,0,2.44-1c1.16-1.8,1.89-3.88,3-5.73,2-3.38,4.91-4.34,8.54-2.91a6.52,6.52,0,0,1,4.09,5.24A12.09,12.09,0,0,1,250.08,167.78Z"/><path d="M216.82,221.23c-.85-2.07-1.39-3.49-2-4.87-1.27-2.88-2.58-5.75-3.87-8.62s-.69-4.47,2.53-6.26c1.5,3.3,3,6.59,4.5,9.88s3,6.84,4.62,10.18c.92,1.86,0,2.9-1.17,4.09s-1.94,2-3.8,1.2c-6.83-2.75-13.74-5.27-20.64-7.88,1.67-3.5,3.24-4.16,6.45-2.91Z"/><path d="M143.49,209.61a76.63,76.63,0,0,1-39.49-.05c4.11-1.6,7.87-3.08,11.65-4.52,1.62-.62,3.27-1.67,4.9-1.65a38.7,38.7,0,0,1,10.21,1.16C135,205.77,139,207.78,143.49,209.61Z"/><path d="M175.3,102.42c-5.24,0-10.44,0-15.63-.08-.39,0-1.06-1.12-1.08-1.74a7.53,7.53,0,0,1,4.29-7.51,8.56,8.56,0,0,1,9.4.7C175.06,95.83,176,98.72,175.3,102.42Z"/><path d="M80.61,102.45c-2.23,0-4.47,0-6.7,0-1.42,0-1.84-.57-1.84-1.93a8.5,8.5,0,0,1,8.6-8.47,8.26,8.26,0,0,1,8.5,8.45c0,1.34-.42,2-1.85,2C85.09,102.41,82.85,102.45,80.61,102.45Z"/><path d="M84.08,75.34c1.23-1.85,3-3.31,3-4.77s-1.84-2.69-2.93-4.12c1.3-.11,7.1-3.36,8.06-4.73.49,4.9,3,6.35,7.13,4.22,0,.53.12.73,0,.83-1,1.39-2.82,2.76-2.81,4.14s1.87,2.66,3.17,4.3c-2.18-.2-4.2-1-5.49-.32-1.13.58-1.43,2.77-2.3,4.67a9.37,9.37,0,0,1-1.11-2.22c-.41-2.39-1.62-3.25-4-2.48A21.63,21.63,0,0,1,84.08,75.34Z"/><path d="M150.24,77.43c4.32-.7,7.24-2.57,7.2-6.76s-3-6-7-6.6a7.55,7.55,0,0,1,10.29.68,8.42,8.42,0,0,1,.62,11.32C158.53,79.48,154.32,80.17,150.24,77.43Z"/><path d="M123.9,58a4.17,4.17,0,1,1-.09-8.34A4.17,4.17,0,1,1,123.9,58Z"/></g></g></svg>