<svg xmlns="http://www.w3.org/2000/svg" width="203.7" height="63.59" viewBox="0 0 203.7 63.59"><g id="Layer_2" data-name="Layer 2"><g id="Layer_1-2" data-name="Layer 1"><path d="M61.93.46C73.87.46,85.82.17,97.74.61c4.72.17,9.49,1.62,14,3.12,9.49,3.12,14.76,10,16.33,19.77a48.32,48.32,0,0,1-.56,19.24c-2.61,10.68-10.2,16.24-20.38,18.43a112.73,112.73,0,0,1-18.51,2.22c-8.13.37-16.29.12-24.43.06a8.25,8.25,0,0,1-2.35-.79c.66-.46,1.27-1.22,2-1.33,2.77-.41,3.57-1.89,3.55-4.62-.12-16.65-.06-33.3-.06-49.95,0-3.66-.16-3.8-3.7-4.66a10,10,0,0,1-2.06-1ZM85.72,31.7c0,8,0,15.9,0,23.84,0,5.79-1,5.41,5.57,5.21,9.89-.3,15.06-4.81,16.48-14.19a99,99,0,0,0,0-29.67c-1.36-9-5.9-13.25-15-14.1-1.32-.12-2.66-.09-4-.23-2.35-.26-3.2.64-3.17,3.07C85.79,14.32,85.72,23,85.72,31.7Z"/><path d="M136.79.31a4,4,0,0,1,.94-.19c10.89,0,21.8-.39,32.65.23a67.34,67.34,0,0,1,17.4,3.86c8.29,2.8,13,9.09,14.86,17.57A48,48,0,0,1,203,40.29c-2,11.86-9.61,18.44-20.9,20.88a111.54,111.54,0,0,1-18.5,2.22c-8.13.37-16.29.12-24.43.06a8.25,8.25,0,0,1-2.36-.77c.64-.46,1.24-1.23,1.94-1.34,2.75-.43,3.57-1.86,3.55-4.61-.12-16.56-.06-33.13-.06-49.69,0-4,0-3.95-3.89-5A8.15,8.15,0,0,1,136.49,1Zm23.82,31.45c0,8.87,0,17.73,0,26.59,0,1.78.53,2.64,2.42,2.47,2.64-.25,5.32-.22,7.92-.67a12.68,12.68,0,0,0,10.83-10,80.19,80.19,0,0,0,.58-34.51C180.82,7.55,176.9,4.06,169.6,3c-2-.3-4.14-.24-6.21-.44s-2.84.72-2.82,2.87C160.67,14.2,160.61,23,160.61,31.76Z"/><path d="M.39.22H55c0,5.48,0,10.82,0,16.17,0,.36-.66,1.05-.81,1a2.49,2.49,0,0,1-1.47-1c-.87-1.88-1.54-3.84-2.33-5.75A11.9,11.9,0,0,0,39.21,2.83c-4.32-.22-8.64-.16-13-.26-1.51,0-2.27.49-2.26,2.16q.07,11.43,0,22.85c0,1.83.88,2.24,2.46,2.23,6,0,12-.07,18,0,.82,0,1.62.82,2.43,1.25-.79.38-1.58,1.07-2.38,1.09-5.9.09-11.8.13-17.7,0-2.27-.05-2.81.84-2.78,2.93.1,7.37.11,14.74,0,22.11,0,2.36.79,3.58,3.13,3.84a9,9,0,0,1,2.17.55c.31.12.72.66.66.86a1.68,1.68,0,0,1-.9.93,4.53,4.53,0,0,1-1.48.06c-8.31,0-16.62,0-24.92,0A8.68,8.68,0,0,1,.25,62.7c.72-.5,1.39-1.31,2.17-1.43C5,60.86,5.66,59.4,5.65,56.93,5.56,40.2,5.6,23.48,5.6,6.75,5.6,3,5.58,3,2,2.09A8.31,8.31,0,0,1,0,1Z"/></g></g></svg>