<svg xmlns="http://www.w3.org/2000/svg" width="257.31" height="112.87" viewBox="0 0 257.31 112.87"><g id="Layer_2" data-name="Layer 2"><g id="Layer_1-2" data-name="Layer 1"><path d="M58.41,43c-3,3.55-5.69,7.22-6.88,11.76-1.28,4.93-1.23,9.7,1.75,14.1A14.44,14.44,0,0,0,71.15,74c5.67-2.63,8.28-9.56,6.19-16.46a20.28,20.28,0,0,0-6.91-9.85c-3.87-3.14-8-5.93-11.88-9.07a61.14,61.14,0,0,1-8.39-7.75c-4.78-5.69-5.81-12.35-2.69-19.1,3.19-6.9,9.31-9.91,16.66-10.46A19,19,0,0,1,79.75,7a14.77,14.77,0,0,1,1.34,19.55c-2.47,3.36-7.63,7.49-11.17,8.71.7-.76,1.08-1.22,1.51-1.64,5.64-5.44,7.32-12.11,5.74-19.59C75.64,6.79,69.64,3,62.51,4.33c-5.94,1.15-9.9,7.32-9.09,14.08a17.48,17.48,0,0,0,6.1,11.38c3.7,3.2,7.74,6,11.56,9.06a93.64,93.64,0,0,1,8.69,7.42c5.37,5.54,7,12.25,4.52,19.54s-8.6,10.69-15.88,12a22.12,22.12,0,0,1-17.85-4.47c-7.29-5.53-8.44-14.53-2.85-21.75A32.57,32.57,0,0,1,58.41,43Z"/><path d="M142.86,77.39c.48-1.91,1.28-3.66,1.31-5.43q.22-11.82,0-23.64c0-1.66-.88-3.32-1.48-5.38,2.61-.14,5.6-.42,8.59-.4a51.92,51.92,0,0,1,10.15.57c8.68,1.78,13.61,8,13.67,16.52.08,8.94-4.88,15.93-13.48,17.56-5,.94-10.21.44-15.34.53A27.18,27.18,0,0,1,142.86,77.39Zm7.55-18.1h.05c0,3.9,0,7.79,0,11.68a3.84,3.84,0,0,0,3.72,4.16c6.63.91,11.88-2.44,13.48-8.93a24.37,24.37,0,0,0,.67-7.12C167.82,50,162,44.66,153.57,45.3c-2.14.16-3.35.82-3.21,3.31C150.56,52.16,150.41,55.73,150.41,59.29Z"/><path d="M133.06,1.78c6.86-.47,14.11-1.64,21.21.85,7.55,2.64,11.39,8.63,11.18,16.93a17.18,17.18,0,0,1-12.21,16.16c-5.79,1.89-11.68,1-17.55.71-1,0-2-.23-2.49-.3.46-1.87,1.28-3.69,1.31-5.53q.23-11.69,0-23.37C134.48,5.56,133.65,3.9,133.06,1.78Zm7.55,16.13h0c0,3.65-.08,7.29,0,10.93.06,2,.21,4.24,2.71,4.76,5.24,1.07,11.48-.11,14.1-6.81a20.72,20.72,0,0,0,.74-12c-1.59-7.46-7.13-11.35-14.72-10.66-2,.19-3,.92-2.91,3.09C140.7,10.79,140.61,14.35,140.61,17.91Z"/><path d="M105.53,36.1H96.12a29.05,29.05,0,0,0,1.1-5.38q.18-11.8,0-23.63c0-1.67-.79-3.33-1.29-5.24C101.33,2,107.4.77,113.05,3.56c4.77,2.35,5.7,8.89,2,13a43.87,43.87,0,0,1-3.27,3c4.45,5.95,7.06,13.44,14.44,16.89a12.29,12.29,0,0,1-13.9-4.13c-1.76-2.51-3.22-5.23-4.92-7.79a5.91,5.91,0,0,0-2.11-2,2.25,2.25,0,0,0-1.77.56c0,4.06-1.25,8.29,1.33,12.06C105,35.36,105.15,35.54,105.53,36.1Zm-2.18-23.92c0,1.83,0,3.65,0,5.47,0,2.61,1.32,3.5,3.63,2.3a6.31,6.31,0,0,0,2.56-2.56c1.55-3,1.47-6.26.71-9.45-.62-2.58-2.69-3.39-5.08-3.63-1.26-.13-1.86.34-1.83,1.66C103.39,8,103.35,10.11,103.35,12.18Z"/><path d="M32.63,36.8l-23.76-26L8.24,11C9,19.27,6.7,27.88,10.82,36H2.16C4.83,34,5,31.25,5,28.67q.32-10.46.21-20.92c0-1-1-2.2-1.73-3.07A28.14,28.14,0,0,0,0,1.81c3.32,0,6-.12,8.71.08.73.05,1.47,1,2.07,1.62q8.45,9.16,16.84,18.37c.78.85,1.58,1.68,2.59,2.75a7.77,7.77,0,0,0,.34-1.55c-.05-4.9-.13-9.79-.21-14.68,0-2.48-.55-4.75-3.5-6.43H37c-3.21,2.15-3.32,5.1-3.37,8-.14,8-.13,15.94-.2,23.9,0,.89-.08,1.78-.12,2.67Z"/><path d="M229.22,51.74c0,6.61-.17,12.75.09,18.88.09,2.23,1.17,4.42,1.81,6.66H223c2.92-3,2.66-6.68,2.79-10.22.19-5.39-.08-10.8.2-16.18a6.54,6.54,0,0,0-3-6.08c-.57-.42-1.11-.87-2.29-1.8,3.38,0,6-.1,8.59.07.67,0,1.36.86,1.91,1.45Q240.11,54.23,249,64c.54.6,1,1.31,1.65,2.27,1.85-7.17.28-20.22-2.77-23h9.42c-3.92,3.25-3.08,7.73-3.25,11.78-.29,6.71-.08,13.44-.09,20.16a5.29,5.29,0,0,1-.74,2.88q-6-6.56-12-13.12Z"/><path d="M122.62,66.2c0-6.63.16-12.42-.09-18.2-.07-1.61-1.34-3.16-2.09-4.82h8.66c-3.66,3.21-3.06,7.45-3.19,11.36-.22,6.8-.08,13.6-.09,20.41v2.68l-.73.42Q113.14,65,101.2,51.91l-.81.24c.36,7.07.64,14.15,1.16,21.21.1,1.32,1.18,2.56,1.85,3.93H94.57c3.07-2.46,2.86-5.75,3-8.78.23-6.38.21-12.77.09-19.16A6.58,6.58,0,0,0,96,46a18.62,18.62,0,0,0-2.82-2.43,9.94,9.94,0,0,1,10.9,2.14q8.39,9.21,16.8,18.39C121.39,64.6,121.82,65.2,122.62,66.2Z"/><path d="M226.2,0c4.5,10.55,8.78,20.71,13.18,30.81a41.78,41.78,0,0,0,3.12,5.11H232.19c.95-1.78.13-7.36-1.48-8.92a2.51,2.51,0,0,0-1.58-.46c-2.83,0-5.66,0-8.48,0a2.75,2.75,0,0,0-1.45.24c-1.51,1-2.67,7.55-1.48,9.41h-8a53.56,53.56,0,0,0,3.7-6.19c4-9.21,7.81-18.49,11.71-27.74C225.4,1.65,225.7,1.06,226.2,0Zm3.16,23.27c-1.55-4.08-3-7.76-4.58-12l-4.44,12Z"/><path d="M196,58.31l9.45-.84v4.22l-9.37-1c0,4-.09,7.52.07,11.05a2.65,2.65,0,0,0,1.52,2c3.72.52,7.59,1.35,10.66-1.92.11.17.27.3.26.42-.52,6.41.25,5-5.39,5.15-5,.08-10,0-14.43,0a51.58,51.58,0,0,0,1.15-7.24q.22-10.71,0-21.42c0-1.83-.82-3.65-1.35-5.83h2.7c4.08,0,8.16.15,12.23-.05,2.48-.13,3.32.76,2.94,3.09a5,5,0,0,0-.06.86c-2.73-.24-5.41-.46-8.08-.72-1.45-.14-2.25.49-2.27,1.93C196,51.28,196,54.5,196,58.31Z"/><path d="M178.58,1.91h17.78V5.58c-2.82-.21-5.64-.52-8.47-.56a2.34,2.34,0,0,0-1.7,1.52c-.16,3.29-.08,6.59-.08,10.38l9.39-.6v4.1l-9.37-1c0,4-.12,7.54.1,11.06a3,3,0,0,0,2,2.11c3.64.31,7.51,1.21,10.41-2.22a1.87,1.87,0,0,1,.16.39c-.48,5.38-.48,5.38-6,5.38h-14c.44-2.11,1.16-4,1.2-6,.13-7.62.14-15.25,0-22.87C180,5.58,179.11,3.85,178.58,1.91Z"/><path d="M25.82,77.33h-9.6a36.8,36.8,0,0,0,1.12-6.08q.19-11.56,0-23.14c0-1.58-.84-3.15-1.4-5.1-.34.3-.17,0,0,0,5.56,0,11.13-.1,16.7,0,.54,0,1.33.92,1.55,1.56a6.16,6.16,0,0,1,.06,2.2c-3-.22-5.94-.51-8.85-.58-.56,0-1.63.81-1.65,1.29-.14,3.44-.07,6.89-.07,10.78l9.58-.8v4.23l-9.82-1C24.07,66.51,21.78,72.16,25.82,77.33Z"/><path d="M149.33,95.22,147.83,97c1.61,4.73.38,6.25-6,7.43a6.8,6.8,0,0,0,1.86,1.26c.95.24,2.08-.11,2.95.24s2.29,1.16,2.47,2a4.33,4.33,0,0,1-1,3.29,6,6,0,0,1-7.37.72,4.08,4.08,0,0,1-1.41-3.07c.12-1.74.92-3.43,1.31-5.17a3.26,3.26,0,0,0-.32-1.73c-1.12-2.81.27-5.42,3.24-5.63,1.66-.11,3.25,0,4.4-1.55.16-.2.73-.08,1.1-.11ZM144,106.4c-1.25,1.09-2.62,1.7-2.77,2.53-.34,1.88,1.36,2.28,2.78,2.29s3.37-.29,3.18-2.22C147.09,108.17,145.41,107.5,144,106.4Zm2.89-5.83,0-1.08c-.91-.6-1.81-1.65-2.72-1.65-.75,0-2.2,1.35-2.11,1.89a3.38,3.38,0,0,0,2,2.4C144.9,102.27,145.93,101.14,146.87,100.57Z"/><path d="M97.06,96.72l2.64-3.6.59,3.08H105l1.27-2.76.55,0,.67,2.63,2.68.63v.65l-2.95.66c0,1.41,0,2.88,0,4.34,0,2-.57,4.44,3.68,3.25l-.66,1.22c-1.15.14-2.39.59-3.43.31a3,3,0,0,1-1.47-2.23c-.19-2.28-.06-4.59-.06-7h-5.17c0,1.63.06,3.18,0,4.72-.09,2,.08,3.66,3,3.43l-.18.82c-1,.15-2.11.64-3,.36a3.07,3.07,0,0,1-1.59-2.13c-.26-1.53,0-3.15-.14-4.7A21.76,21.76,0,0,0,97.06,96.72Z"/><path d="M93,95c.38,1.47.74,3,1.17,4.54,1.33,4.63-1.36,8-6.25,8-1,0-2,.92-2.78,1.3-.45-1.8-1-3.69-1.39-5.62-.71-4.09,1.79-6.85,5.93-7A10.94,10.94,0,0,0,93,95Zm-6.49,9.7,3.89-6.51L90,97.46c-1.1.43-2.51.57-3.23,1.35C85.27,100.38,85.42,102.34,86.54,104.73ZM91.62,99l-4,6.66C91.9,106.25,93.46,103.6,91.62,99Z"/><path d="M172.3,96.16c.08-1.72,1-3.56-2.29-3.79l.58-.81a9.26,9.26,0,0,1,3-.08c.42.12.69,1.37.71,2.12.07,3.31,0,6.63.08,9.94a14.81,14.81,0,0,0,1,3.44c-.07,0-.92.56-1.26.33-1.75-1.15-3.3,0-4.94.16-2.66.25-4.41-1.46-4.65-4.36-.32-3.78,1.45-6.41,4.61-6.8C170.21,96.19,171.2,96.21,172.3,96.16Zm.13,5.16c-.28-1.38,1-3.77-2.24-3.64-2.35.09-3.59,1.52-3.56,4.33,0,2.55,1.13,4,3.07,3.93C171.85,105.91,172.43,105,172.43,101.32Z"/><path d="M36.43,92.55h4.34a16.17,16.17,0,0,0,0,4c.75,2.68,1.78,5.27,2.94,8.56,1.31-3.82,2.48-7,3.42-10.17.18-.6-.53-1.46-.92-2.4h4c-1.61,4.22-3.19,8.47-4.9,12.68a9.12,9.12,0,0,1-1.73,2.1c-.61-.68-1.48-1.25-1.79-2-1.17-2.92-2.1-5.94-3.25-8.87A33.87,33.87,0,0,0,36.43,92.55Z"/><path d="M156.94,96.25c3.25,0,5.09,2,5.07,5.4s-2.31,5.92-5.66,5.91c-3.17,0-5.07-2.06-5.06-5.48C151.31,98.47,153.47,96.24,156.94,96.25Zm-3.56,5.51c0,2.71,1.24,4.27,3.39,4.22,2,0,3.27-1.69,3.22-4.17s-1.38-4.08-3.35-4.11S153.39,99.12,153.38,101.76Z"/><path d="M180.16,101.94c.64,3.66.74,3.71,6.52,4-1.22,1.85-4.6,2.18-6.67.66-1.83-1.34-2.48-4.43-1.49-7a4.76,4.76,0,0,1,5.22-3.3,3.68,3.68,0,0,1,3.55,4.2,2.44,2.44,0,0,1-1.76,1.42A47.45,47.45,0,0,1,180.16,101.94Zm5.18-1.31c-.12-1.81-.69-3.07-2.63-2.89-1.63.14-2.35,1.18-2.24,2.89Z"/><path d="M114.15,101.94c.16,4.82,3.63,3.91,6.56,4a5.17,5.17,0,0,1-6.76.72c-1.88-1.36-2.51-4.62-1.41-7.28a4.75,4.75,0,0,1,5.36-3.06,3.73,3.73,0,0,1,3.27,4.42,2.37,2.37,0,0,1-1.74,1.19C117.73,102.05,116,101.94,114.15,101.94Zm5.08-1.32c-.09-1.71-.58-2.84-2.23-2.89-1.84-.07-2.56,1.08-2.77,2.89Z"/><path d="M213.84,96.62c-2,3.26,1.1,5.33,1.71,8,.51-2.66,3.86-4.67,1.45-8.06h3.86c-1.3,3-2.56,6.1-3.94,9.1-.3.66-1,1.11-1.58,1.66-.54-.56-1.27-1-1.57-1.69-1.37-2.94-2.62-5.94-4-9Z"/><path d="M65.89,104.56A23.05,23.05,0,0,0,69.53,106c.44.1,1.44-.66,1.55-1.17a2.24,2.24,0,0,0-1-1.72c-.8-.55-2-.58-2.68-1.22-.85-.82-1.85-2.06-1.79-3.06S67,97,68,96.46A6.12,6.12,0,0,1,71,96.3c2.48.18,1.52,1.81,1.76,3.12a15,15,0,0,0-3.33-1.75c-.54-.12-1.29.67-1.94,1,.4.57.69,1.31,1.23,1.65.82.53,2,.57,2.68,1.21.81.77,1.75,2,1.66,2.94a4.31,4.31,0,0,1-2.17,2.62,5.79,5.79,0,0,1-3.15.29C65.41,107.21,65.14,106.61,65.89,104.56Z"/><path d="M195.9,92c3.06-1.31,3.63-1,3.64,1.86,0,3.14-.09,6.29.05,9.43a18,18,0,0,0,1,3.76h-4.49C198.22,103.9,198.18,93.77,195.9,92Z"/><path d="M81.77,106.9c-1.09.12-2.29.57-3.25.26A3.13,3.13,0,0,1,77,105c-.26-1.54,0-3.15-.17-4.71a18.76,18.76,0,0,0-1.13-3.4l2.71-3.66.7,2.91,2.63.59,0,.67-2.91.71c0,1.55.07,3.19,0,4.81-.12,2.06.31,3.5,3,3Z"/><path d="M123.76,96.44l3.7.31,0,.6a8.87,8.87,0,0,1,2.18-1c.44-.09,1,.43,1.52.67-.36.43-.74,1.25-1.08,1.24-2.41-.1-2.79,1.35-2.6,3.21s-1.05,4.23,1.77,5.58h-4.83a30.83,30.83,0,0,0,1-5.07c.07-1.7,1-3.93-2-4.6Z"/><path d="M56.06,107.17H51.91A33,33,0,0,0,53,102c.07-1.7,1-3.93-2-4.65l.22-.67a9.48,9.48,0,0,1,3-.14c.41.12.65,1.37.71,2.12.11,1.4-.1,2.82.07,4.21A38.19,38.19,0,0,0,56.06,107.17Z"/><path d="M202.54,97.14c3.63-1.46,4.12-1.16,4.14,1.93a32.85,32.85,0,0,0,0,4,34.29,34.29,0,0,0,1,4h-4.06a35.37,35.37,0,0,0,1-5.08C204.79,100.22,205.52,98.1,202.54,97.14Z"/></g></g></svg>