<svg xmlns="http://www.w3.org/2000/svg" width="572.05" height="126.68" viewBox="0 0 572.05 126.68"><g id="Layer_2" data-name="Layer 2"><g id="Layer_1-2" data-name="Layer 1"><path d="M63.46,126.68A63.34,63.34,0,1,1,126.73,63.4,63.11,63.11,0,0,1,63.46,126.68ZM16.72,94.33H29.54c.06-1,.14-1.91.14-2.8,0-4.82,0-9.64,0-14.46,0-6.78,0-6.7,6.78-6.78A3.24,3.24,0,0,1,40,72.63c2.84,6.65,5.79,13.25,8.79,19.82.36.79,1.21,1.89,1.88,1.92,4,.18,8.1.09,12.68.09-4-9.11-7.85-17.78-11.67-26.45.82-.51,1.32-.8,1.8-1.11C60,62.71,63,55.49,61.61,47.43,60.28,39.52,55.41,35,47.84,33.14a32.59,32.59,0,0,0-7.17-.83c-7.33-.11-14.65-.05-22,0a15.28,15.28,0,0,0-2,.26Zm64.49-25.8c1.1-.07,1.75-.14,2.4-.15,7.33,0,14.66-.07,22,0,2.12,0,2.8-.68,2.65-2.71a33.23,33.23,0,0,1,0-5.73c.22-2.3-.63-3-2.92-2.93-7.24.14-14.48,0-21.72.08-1.86,0-2.52-.58-2.44-2.44a58.88,58.88,0,0,0,0-8c-.22-2.6.74-3.21,3.23-3.15,7.57.16,15.15,0,22.73.09,1.86,0,2.52-.54,2.39-2.4a48.32,48.32,0,0,1,0-6.48c.13-1.94-.49-2.58-2.5-2.56q-18.1.12-36.22,0c-1.88,0-2.6.44-2.59,2.48q.11,28.68,0,57.35c0,1.77.41,2.48,2.35,2.47q18.6-.12,37.21,0c1.69,0,2.44-.43,2.32-2.23s0-3.65,0-5.48c0-4.06.39-3.64-3.57-3.65-7.66,0-15.32,0-23,0-1,0-2.29.26-2.29-1.45C81.22,77.37,81.21,73.07,81.21,68.53Z"/><path d="M473.21,114.21c4.88.07,9.22.79,12.51,4.87l-7.12,7.57c-5.06-6.69-12.11-7.82-19.67-8.08-8.76-.29-15.25-4.56-18.92-12.5a30.28,30.28,0,0,1-.58-24.49c3.69-9.42,12.65-14.55,23-13.57a21.74,21.74,0,0,1,19.48,17.65c1.7,8.54,1.06,16.74-4.43,24A60.75,60.75,0,0,1,473.21,114.21Zm-.35-21.29c-.93-3.32-1.5-6.8-2.9-9.9-1.9-4.21-5.62-6.24-10.28-6.11a10.52,10.52,0,0,0-9.88,6.4,22.66,22.66,0,0,0,.19,20.18,11.14,11.14,0,0,0,19.14,1.41C471.64,101.36,472.2,97.27,472.86,92.92Z"/><path d="M334.25,117.57V69a21.91,21.91,0,0,1,2.2-.2c5.9,0,11.83-.31,17.7.1a30.3,30.3,0,0,1,11,2.54c8,3.93,8.22,14.48.74,19.32-.54.35-1.07.72-1.8,1.21a8.81,8.81,0,0,0,1.18.69c4.86,1.84,7.54,5.3,7.76,10.51.23,5.61-2.18,9.85-7.2,12.33a16.9,16.9,0,0,1-6.64,2C351,117.71,342.78,117.57,334.25,117.57Zm16.88-8a55.31,55.31,0,0,0,6.95-.45c3.27-.6,4.89-3.13,4.65-6.63a5.45,5.45,0,0,0-5.26-5.33c-2.48-.24-5-.22-7.48-.23-5.8,0-5.8,0-5.81,5.71C344.18,109.46,344.18,109.46,351.13,109.58Zm-.66-21.06c1.66,0,3.33.12,5,0,3.56-.31,5.64-2.51,5.63-5.76s-1.95-5.19-5.53-5.56c-2-.2-4-.13-6-.14-5.38,0-5.38,0-5.38,5.37C344.18,88.62,344.18,88.62,350.47,88.52Z"/><path d="M356.35,57.11V8.21c1.11,0,2.09,0,3.06,0,7.4.12,14.83-.07,22.2.48,5.8.43,10.48,3.26,12.56,9.15A14.35,14.35,0,0,1,386.88,36c-.5.26-1,.57-1.7,1,3.54,6.67,7,13.25,10.76,20.31-3.65,0-6.92.08-10.18-.08-.55,0-1.21-1-1.57-1.69-2.54-4.76-5.14-9.5-7.48-14.37-1.1-2.3-2.41-3.55-5.1-3.16a38.89,38.89,0,0,1-5.21,0V57.11Zm10.19-27.45c3,0,5.83.08,8.63,0A22.43,22.43,0,0,0,380.8,29c2.83-.86,4.2-3.53,3.88-6.72a5.35,5.35,0,0,0-4.9-5.15c-4.35-.28-8.73-.07-13.24-.07Z"/><path d="M154.49,69c8.42,0,16.7-.66,24.84.15,12.19,1.22,17.89,13.61,10.9,22.87-1.68,2.23-4.3,3.77-6.8,5.88L194,117.79c-3.6,0-6.73.1-9.85-.08-.66,0-1.46-1-1.85-1.66-2.69-5-5.36-9.94-7.87-15-.89-1.8-1.9-2.7-4-2.49-1.88.19-3.79,0-6.07,0v7.16c0,3.32,0,6.64,0,10,0,1.42-.32,2.16-1.93,2.1-2.56-.09-5.13,0-7.92,0Zm16.3,21.11a49.34,49.34,0,0,0,6,0c4-.5,6.23-3.22,6-6.9-.19-3.41-2.59-5.63-6.5-5.89-1.82-.11-3.65,0-5.47,0-6.48,0-6.48,0-6.48,6.49S164.32,90.29,170.79,90.15Z"/><path d="M227.61,48.56v8.53H194V8.42H227v8.4c-.87,0-1.75.12-2.63.12-6,0-12,0-18,0-1.66,0-2.43.37-2.34,2.2.13,2.81,0,5.63,0,8.75h21.51v8.65H218.1c-3.92,0-7.83.06-11.74,0-1.67,0-2.43.42-2.33,2.23a69.13,69.13,0,0,1,0,7.48c-.11,1.86.53,2.43,2.4,2.4,6.07-.1,12.14,0,18.22,0Z"/><path d="M347.94,17c-7,0-13.62.07-20.27,0-2,0-2.9.44-2.72,2.6a44.66,44.66,0,0,1,0,6.23c-.1,1.72.5,2.32,2.26,2.29,5.83-.09,11.65,0,17.48,0,.56,0,1.13.08,2,.15,0,2.41.13,4.72-.09,7-.06.51-1.32,1.28-2,1.3-5.65.1-11.31.14-17,0-2.08,0-2.82.59-2.67,2.68a41.88,41.88,0,0,1,0,6.72c-.2,2.31.75,2.77,2.86,2.73,5.9-.13,11.82,0,17.72,0h2.91v8.52h-33.5c-.05-.79-.14-1.59-.14-2.39,0-14.62,0-29.24-.06-43.86,0-2.08.61-2.68,2.67-2.66,9.41.1,18.81,0,28.22.05.72,0,1.45.1,2.32.16Z"/><path d="M285.43,68.94h9.82c.06,1,.17,2,.17,2.94q0,12.7,0,25.41c0,1,0,2,.08,3,.56,7,5.09,10.39,12,9.13a7.86,7.86,0,0,0,6.69-6.22,24.59,24.59,0,0,0,.64-5.67c.07-8.56,0-17.11,0-25.67V69h9.8c.14.24.3.38.3.52,0,10.38.45,20.78-.09,31.13-.65,12.73-9.76,19.53-22.84,17.86-10-1.27-15.8-6.62-16.44-16.89C284.91,90.87,285.43,80.05,285.43,68.94Z"/><path d="M200.11,69h33v8.46h-3.68c-5.66,0-11.32,0-17,0-1.68,0-2.43.45-2.33,2.25a63,63,0,0,1,0,6.73c-.08,1.63.52,2.16,2.15,2.14,5.66-.08,11.32,0,17-.07,2.05,0,2.74.55,2.72,2.64,0,6,.05,6-6,6-4.49,0-9,.09-13.48,0-1.91,0-2.45.61-2.37,2.43.13,3.06,0,6.12,0,9.56h5.93c5.16,0,10.32.06,15.47,0,1.72,0,2.3.52,2.33,2.27.1,6.48.16,6.48-6.31,6.47-8.4,0-16.81,0-25.21,0-1.51,0-2.47-.11-2.46-2.08.07-15.12,0-30.24,0-45.36A12.36,12.36,0,0,1,200.11,69Z"/><path d="M538.31,69h32.94v8.45h-3.93c-5.57,0-11.14,0-16.72,0-1.68,0-2.43.44-2.32,2.24a63,63,0,0,1,0,6.73c-.08,1.62.49,2.17,2.13,2.15,5.66-.08,11.32.07,17-.08,2.24-.06,2.83.66,2.8,2.82-.08,5.88,0,5.88-5.91,5.88h-15.8v12h7.83c4.24,0,8.49.15,12.72,0,2.49-.12,3.23.76,3,3.11a54.05,54.05,0,0,0,0,5.43H538.31Z"/><path d="M518.85,69h9.93A5,5,0,0,1,529,70c0,10,.27,20-.1,29.9-.53,14-9.87,19.91-22.92,18.52-10-1.06-15.72-6.65-16.4-16.61-.65-9.34-.31-18.75-.4-28.13,0-1.49,0-3,0-4.67h10.09c0,.83.11,1.71.12,2.59q0,13.2,0,26.41a19.1,19.1,0,0,0,.24,3.47c1,5.62,4.31,8.33,9.84,8.13s8.89-3.17,9.09-8.88c.33-9.37.2-18.77.26-28.15Z"/><path d="M277.73,57.29c-3.23,0-6.14.09-9-.08a2.75,2.75,0,0,1-1.79-1.56c-1-2.55-1.83-5.16-2.62-7.78A2.22,2.22,0,0,0,261.84,46c-4.91.08-9.82.07-14.72,0a2.23,2.23,0,0,0-2.46,1.89c-.81,2.62-1.66,5.22-2.66,7.77a2.75,2.75,0,0,1-1.79,1.56c-2.72.18-5.46.08-8.59.08.24-1,.36-1.79.61-2.52,5.18-14.89,10.39-29.77,15.52-44.68a2.37,2.37,0,0,1,2.69-1.91c2.91.1,5.83-.06,8.73.1a2.92,2.92,0,0,1,2.21,1.35c5.43,15.33,10.75,30.7,16.09,46.06A14.26,14.26,0,0,1,277.73,57.29Zm-29.52-19.9h12.56c-2.09-6.45-4.09-12.6-6.26-19.32l-5.73,17.37C248.6,36,248.46,36.54,248.21,37.39Z"/><path d="M241.37,69c8.64,0,16.91-.59,25.07.14,11.59,1,17.41,12,12.31,22.1-2.68,5.3-7.46,7.43-13,8-3.63.34-7.31.15-11,.22-1,0-1.95.1-3.16.16v18.2c-3.19,0-6.15.09-9.09-.1-.43,0-1.09-1.43-1.1-2.2-.09-6.48-.06-13-.06-19.43V69Zm10.26,21.47c4.52,0,8.81.21,13.08-.07,3.43-.23,5.38-2.8,5.45-6.29s-1.76-6-5.32-6.34a113.72,113.72,0,0,0-11.68-.28,2.09,2.09,0,0,0-1.47,1.4C251.57,82.7,251.63,86.5,251.63,90.48Z"/><path d="M380.39,69H390v3.08c0,11.47,0,22.94,0,34.41,0,2,.46,2.82,2.62,2.73,3.8-.16,7.6,0,11.73,0V93.5c3.05,1.88,5.67,3.45,8.23,5.11a2,2,0,0,1,.81,1.4c.06,5.8,0,11.6,0,17.6h-33Z"/><path d="M295.5,57.14H285.23v-3c0-11.37-.05-22.75,0-34.12,0-2-.53-2.78-2.65-2.7-3.8.16-7.62.05-11.81.05,0-2.79-.08-5.33.08-7.85,0-.45,1.06-1.2,1.64-1.2,11.81-.07,23.61,0,35.42-.08,1.43,0,1.82.58,1.89,1.92.41,7.21.44,7.2-6.8,7.21a42,42,0,0,1-4.49,0c-2.35-.27-3.13.51-3.1,3,.12,11.29.05,22.58.05,33.88Z"/><path d="M189.07,8.51v8.81c-3.95,0-7.77.13-11.56-.05-2.25-.11-2.8.66-2.78,2.82.1,11.3,0,22.59,0,33.89v3.29c-3.1,0-6,.12-8.85-.11-.49,0-1.24-1.51-1.25-2.32-.08-10.47-.06-20.93-.06-31.4,0-6.13,0-6.13-6.12-6.12-2.08,0-4.16-.06-6.24,0-1.43.05-2.18-.35-2.1-1.94.09-1.74.06-3.49,0-5.23,0-1.31.32-2,1.81-2,12.06.05,24.12,0,36.19.06A4.29,4.29,0,0,1,189.07,8.51Z"/><path d="M420.2,68.91h9.92c.07,1,.18,1.84.18,2.72,0,14.45-.05,28.91.06,43.37,0,2.37-.76,3-3,2.85s-4.63,0-7.17,0Z"/><path d="M29.72,43.57c4.38,0,8.29-.21,12.16.06,4.41.31,6.69,2.88,6.88,7.07.21,4.64-1.95,7.73-6.43,8.29a85.34,85.34,0,0,1-11.2.23A1.87,1.87,0,0,1,29.78,58C29.68,53.25,29.72,48.54,29.72,43.57Z"/></g></g></svg>