<svg xmlns="http://www.w3.org/2000/svg" width="543.48" height="99.03" viewBox="0 0 543.48 99.03"><g id="Layer_2" data-name="Layer 2"><g id="Layer_1-2" data-name="Layer 1"><path d="M368.3.16c.89,0,1.63-.1,2.37-.1,12.31,0,24.63-.12,36.94,0,11.54.15,21.19,4.27,27.28,14.54,9.25,15.59,3.63,33.52-12.73,41.23-.36.16-.69.39-1.19.68,7.34,14.05,14.62,28,22.14,42.43H435.9c-4.33,0-8.66-.09-13,0a3.14,3.14,0,0,1-3.37-2.14c-5.68-11.73-11.49-23.39-17.17-35.12a3.27,3.27,0,0,0-3.58-2.22c-3.16.16-6.33.13-9.48,0a2.76,2.76,0,0,1-2.12-1.37Q377.66,29.58,368.31,1A3.45,3.45,0,0,1,368.3.16Z"/><path d="M227.1,99c-6.55,0-12.62.06-18.69-.08a3.12,3.12,0,0,1-2.07-1.82q-2.43-6.66-4.52-13.45a2.56,2.56,0,0,0-3-2.16c-10.07.08-20.15,0-30.22.08a2.56,2.56,0,0,1-2.95-2.15c-2.72-8.54-5.62-17-8.35-25.56a6,6,0,0,1,.07-3.55C163.22,34.2,169.13,18.16,175,2.08,175.48.63,176.14,0,177.78,0c3.58.13,7.17.17,10.74,0,2-.1,2.67.77,3.3,2.48q14.09,38.72,28.3,77.4C222.4,86.11,224.67,92.33,227.1,99Z"/><path d="M463.38.07c6.59,0,12.81,0,19,.1.58,0,1.39,1.22,1.64,2q6.48,20.66,12.84,41.37c2.06,6.65,4.13,13.3,6.44,20.75.54-1.48.85-2.25,1.1-3.05,6.07-19.58,12.16-39.15,18.14-58.75C523.16.55,524,0,526,0c4.9.15,9.81,0,14.72,0,.81,0,1.61.08,2.72.14-1.63,5-3.18,9.66-4.74,14.35q-13.65,41-27.27,82c-.63,1.93-1.45,2.62-3.48,2.5-3.24-.19-6.5-.13-9.74,0a2.41,2.41,0,0,1-2.81-2Q485.27,66,475,35.08C471.16,23.58,467.35,12.08,463.38.07Z"/><path d="M25.84,17.26c-6.36,0-12.26-.06-18.17,0a2.39,2.39,0,0,1-2.79-2C3.38,10.36,1.7,5.49,0,.32H71V17.18H45.29V99c-4.13,0-8,.05-11.89-.07-.48,0-1.16-.84-1.36-1.43q-3-9-5.93-18a9.64,9.64,0,0,1-.26-2.95q0-28,0-56Z"/><path d="M295.38.27v17h-25.7V98.94c-4.19,0-8.14,0-12.1-.06-.4,0-1-.81-1.16-1.34-2-6.05-4.06-12.12-6-18.2a10,10,0,0,1-.24-3q0-27.88,0-55.77V17.26h-7.55c-3.66,0-7.32.06-11-.06a2.64,2.64,0,0,1-2-1.13c-1.82-5.14-3.48-10.35-5.27-15.8Z"/><path d="M132.52,57.56H93.11Q83.76,29.23,74.21.23h65.16V17.16H93.74V40.6h38.78Z"/><path d="M363.44.32V17.2h-45.7V40.51h38.87v17H317.16Q307.86,29.31,298.3.32Z"/><path d="M139.53,99h-14c-5.58,0-11.15.06-16.73-.06a3.1,3.1,0,0,1-2.39-1.35C104.56,92.5,103,87.37,101.16,82c1-.07,1.8-.17,2.58-.17,11.07,0,22.13,0,33.2,0,2.09,0,2.7.6,2.64,2.66C139.43,89.17,139.53,94,139.53,99Z"/><path d="M325.21,81.9h38.14V98.85c-.75,0-1.54.11-2.33.11-9.31,0-18.62,0-27.93.05-1.68,0-2.5-.4-3-2.1C328.62,92,326.93,87.15,325.21,81.9Z"/></g></g></svg>