<svg xmlns="http://www.w3.org/2000/svg" width="289.38" height="171.5" viewBox="0 0 289.38 171.5"><g id="Layer_2" data-name="Layer 2"><g id="Layer_1-2" data-name="Layer 1"><path d="M90.72,99.52H87.54q-31.46,0-62.9,0a5.39,5.39,0,0,1-4.51-1.92c-6.2-6.95-12.54-13.77-18.76-20.7a5,5,0,0,1-1.31-3Q-.06,37.78,0,1.62C0,1.22.08.81.16,0H3.1Q98.93,0,194.77,0a5.21,5.21,0,0,1,4.3,1.89Q208.16,12,217.43,21.94a6.22,6.22,0,0,1,1.83,4.64c-.08,14,0,28.09,0,42.14V71.9h3.27c14.14,0,28.29,0,42.43,0A4.94,4.94,0,0,1,269,73.6c6.33,7.06,12.77,14,19.11,21.06a4.62,4.62,0,0,1,1.2,2.79q.09,36.29,0,72.56c0,.39-.07.79-.13,1.45h-2.79q-85.72,0-171.46,0a5.16,5.16,0,0,1-4.26-1.88c-6.1-6.82-12.35-13.49-18.42-20.33a6.42,6.42,0,0,1-1.52-3.92c-.11-14.29-.07-28.59-.07-42.88ZM193.55,5.31H5.25v66.4h188.3ZM95.89,77.21v66.66H263.7V77.21Zm185,89.2c-.9-1.09-1.38-1.73-1.92-2.31-4.09-4.48-8.13-9-12.34-13.38a5.53,5.53,0,0,0-3.56-1.59q-80.73-.12-161.45-.06c-.69,0-1.38.1-2.51.18,4.85,5.31,9.43,10.23,13.88,15.26a5.37,5.37,0,0,0,4.51,1.94q80.1-.07,160.21,0ZM8.49,77.25c4.91,5.38,9.43,10.25,13.84,15.22a5.17,5.17,0,0,0,4.3,1.87c20.38-.07,40.76,0,61.13,0h2.76v-17Zm260.8,4.31a4.4,4.4,0,0,0-.33,1q0,30.9,0,61.81a4,4,0,0,0,1,2.37c4.22,4.7,8.49,9.35,12.77,14a15.62,15.62,0,0,0,1.58,1.28v-3.11c0-17.78-.21-35.56.12-53.33.1-5.37-1.1-9.48-5.13-13.12C275.77,89.17,272.73,85.32,269.29,81.56ZM199,9.43v62.3h14.92a5.07,5.07,0,0,0,.19-.88c0-14.54,0-29.09,0-43.63a4.31,4.31,0,0,0-1.17-2.57c-2.9-3.32-5.9-6.55-8.87-9.8C202.4,13.11,200.78,11.38,199,9.43Z"/><path d="M154.45,25.33c3.86,0,7.51-.15,11.15,0a7.73,7.73,0,0,1,7.31,6.09c.85,3.75-.64,6.9-4.21,8.93-.29.16-.55.35-1,.66l5.21,10.11c-5.12.89-5.29.81-7.39-3.31-.82-1.62-1.72-3.21-2.48-4.86s-1.66-1.92-3.43-1.15a60.09,60.09,0,0,0,.05,6.57c.3,2.65-.76,3.46-3.2,3.07-.63-.1-1.28-.13-2-.2Zm5.27,4.44V37c2.64-.62,5.59,1.08,7.4-1.76a4.21,4.21,0,0,0,.07-3.65C165.5,28.73,162.5,30.16,159.72,29.77Z"/><path d="M75.63,51.47c3.32-8.65,6.47-16.76,9.53-24.9.64-1.7,2-1.35,3.1-1.25,1.35.12,3.1-.85,3.87,1.2q4.64,12.19,9.28,24.38c-4,1.45-5.45.94-6.56-2.72-.63-2.08-1.72-2.79-3.76-2.52a8.66,8.66,0,0,1-2.49,0c-3.72-.58-6.45.22-7.11,4.53-.08.5-1.09,1.11-1.74,1.22A27.23,27.23,0,0,1,75.63,51.47ZM92.06,40.7c-1.18-3.22-2.26-6.14-3.53-9.62-1.28,3.54-2.34,6.45-3.48,9.62Z"/><path d="M53.93,25.38H70v4.74h-11v5.74H69V40.6h-10v6H70v4.62H53.93Z"/><path d="M130.72,25.4h16.34v4.75H136V35.9h9.71v4.79c-2.56,0-5,.13-7.49,0-2.05-.14-2.66.67-2.46,2.57a32.53,32.53,0,0,1,0,3.45h11.25v4.6H130.72Z"/><path d="M38.35,51.33H33.17v-21H25V25.47H46.4v4.72h-8Z"/><path d="M102.43,30.29V25.48H124v4.73h-8.06V51.28h-5.13v-21Z"/><path d="M140.17,123.44h-4.94V112.77H123.84v10.66h-4.91v-26h4.8v10.19h11.41V97.35h5Z"/><path d="M148.43,97.3h4.83c.06.88.17,1.75.17,2.61,0,4.57,0,9.13,0,13.7.06,3.5,1.78,5.38,4.79,5.46s4.85-1.49,5-4.37c.19-4.64.11-9.29.15-13.94V97.39h5.16c0,1.67,0,3.31,0,4.94-.08,4.73.1,9.47-.33,14.17s-4.26,7.46-9.31,7.63-9.25-2.57-10.16-7a35.17,35.17,0,0,1-.52-6.41c-.07-4.23,0-8.46,0-12.7A3.51,3.51,0,0,1,148.43,97.3Z"/><path d="M194.13,103.51l-4.48,1.41c-1-2.5-2.68-3.91-5.38-3.62-1.92.22-3.42,1.14-3.52,3.21-.09,1.91,1.31,2.71,3,3s3.12.54,4.63,1c3.78,1.06,6.16,4,6.13,7.51a8.07,8.07,0,0,1-6.14,7.56c-3.91,1.09-7.7.73-10.77-2-1.47-1.33-2.31-3.37-3.68-5.47l5-1.4-.36.67c1.62,1.33,3.08,3,4.92,3.86,1.11.52,2.94.06,4.21-.5a3.17,3.17,0,0,0,1.36-2.6,3.56,3.56,0,0,0-1.79-2.38,18.62,18.62,0,0,0-4.3-1.12c-5.6-1.16-8.22-4.48-7.3-9.31.82-4.27,6.15-7.49,10.86-6.52C190.22,97.52,193,99.31,194.13,103.51Z"/><path d="M201.85,97.36H218v4.78H207.13V108h9.77v4.51h-9.77v6H218v4.87H201.85Z"/><path d="M245.05,102.22H237v21.19H231.8V102.27h-8.1V97.35h21.35Z"/></g></g></svg>