<?xml version="1.0" encoding="UTF-8"?><svg id="Layer_1" xmlns="http://www.w3.org/2000/svg" viewBox="0 0 188.63 205.18"><defs><style>.cls-1{fill:#a21916;}</style></defs><g><path d="M137.24,66.43v.02h-.01s0,0,.01-.02Z"/><g><path d="M137.24,66.43v.02h-.01s0,0,.01-.02Z"/><path d="M137.3,66.41s-.01,.04-.01,.06c-.01-.01-.02-.01-.03-.01,.01-.02,.03-.03,.04-.05Z"/></g><path d="M134.74,65.23c-.02-.08-.05-.13-.06-.22,.02,.08,.04,.15,.06,.22Z"/><path d="M134.74,65.23c-.02-.08-.05-.13-.06-.22,.02,.08,.04,.15,.06,.22Z"/><path d="M148.56,63.52c-.02-.28-.07-.56-.15-.83-.98,1.12-2.87,1.22-4.2,1.86,1.29-.93,2.62-1.73,3.95-2.54-.08-.18-.17-.36-.29-.52-2.14,1.29-4.22,2.7-6.39,3.93,1.94-1.57,3.9-3.11,6.02-4.44-.1-.13-.22-.26-.35-.38-3.03,1.79-5.54,4.42-8.47,6.26,2.43-2.45,4.98-4.75,7.69-6.9-.14-.09-.29-.19-.45-.27-2.81,2.24-5.56,4.69-8.05,7.26,1.51-2.71,4.87-5.36,7.5-7.56-3.11,.56-5.65,4.98-8.11,7.07,2.12-2.69,4.15-5.35,6.75-7.6-2.33,.5-4.08,3.11-5.78,5.45,1.05-2.06,2.24-3.99,3.56-5.94-1.75-.09-2.39,2.95-3.45,4.25,.47-1.49,1.01-2.95,1.56-4.43-.18,0-.36-.01-.55-.01-.61,1.68-1.23,3.37-1.75,5.09,.23-1.7,.51-3.39,.91-5.08l-.61,.02c-.64,2.6-.87,5.31-1.25,7.93-.15-2.6-.28-5.22-.2-7.81-.17,.02-.33,.04-.49,.07-.06,2.65,.05,5.32,.22,7.94-.03-.02-.07-.02-.1-.03-.25-2.6-.59-5.22-.77-7.81-.16,.02-.33,.04-.49,.08,.07,2.79,.8,5.64,.74,8.36-.5-2.76-1.02-5.48-1.22-8.27-.16,.03-.33,.07-.49,.11,.19,2.15,.45,4.33,.89,6.45-.58-2.08-1.08-4.19-1.39-6.33-.19,.04-.38,.09-.57,.15,.07,.67,.18,1.33,.31,1.98-.27-.62-.56-1.22-.88-1.82-.18,.05-.35,.11-.52,.17,1.03,1.92,1.71,3.94,2.45,5.95-.98-1.91-1.9-3.84-2.79-5.83-.17,.05-.34,.11-.5,.18,.8,1.42,1.36,3.26,2.15,4.84-.93-1.52-1.82-3.05-2.84-4.56-.16,.06-.3,.12-.45,.2,.76,1.1,1.44,2.26,2.14,3.42-1.21-.88-2.53-1.67-3.54-2.67-.18,.1-.38,.22-.58,.36,1.91,1.9,4.82,2.94,5.98,5.39-1.72-2.08-4.42-3.27-6.42-5.09-.18,.11-.36,.24-.54,.38,1.74,1.65,4.16,2.7,5.75,4.44-1.96-1.5-4.03-2.89-6.17-4.11-.16,.12-.33,.25-.49,.4,1.83,1.1,3.62,2.22,5.32,3.48-2.11-.52-5.08-2.95-6.96-1.91,1.1,.29,2.18,.64,3.25,1.03-1.45-.37-2.84-.48-4.04-.08,2.62,.46,5.18,1.05,7.68,1.9-2.93-.34-6.8-1.53-8.92,0,3.64-.19,7.24,.19,10.8,.83-3.81-.17-8.45-1.17-11.44,.5,3.83-.5,7.67-.37,11.5-.05-3.69,.57-7.87-.04-11.71,.63-.07,.17-.13,.34-.18,.51,3.77-.41,7.54-.53,11.33-.46-.01,.01-.03,.03-.03,.05-3.83,.46-7.74,.56-11.51,1.5-.02,.17-.03,.35-.03,.53,2.57-.6,5.18-.96,7.81-1.19-2.63,.74-5.21,1.72-7.67,2.96,.04,.22,.09,.42,.14,.64,2.94-1.4,5.93-2.59,9.05-3.28-2.88,1.47-5.82,2.79-8.92,3.73,.05,.16,.1,.32,.16,.48,3.59-1.1,7.03-2.75,10.37-4.49-2.89,2.31-6.54,3.98-9.96,5.51,.07,.15,.15,.3,.23,.44,3.11-1.33,6.13-2.95,9.02-4.69-2.06,2.57-5.82,3.59-8.7,5.24,.08,.15,.17,.28,.27,.42,2.44-1.18,4.94-2.42,7.28-3.88-1.93,1.87-3.99,3.6-6.31,5.03,.14,.15,.29,.28,.44,.4,2.03-1.28,3.93-2.78,5.69-4.42-1.47,1.76-3.06,3.43-4.78,5.02,.19,.1,.37,.18,.56,.25,1.22-1.16,2.44-2.36,3.59-3.63-.61,1.41-1.27,2.8-2.15,4.05,.22,.04,.43,.08,.65,.11,1.67-2.42,2.26-5.43,4.33-7.59-1.2,2.53-1.94,5.43-3.62,7.67,2.9-1,2.85-6.55,4.97-8.81-1.14,2.94-1.78,6.17-3.49,8.86,2.99-1.49,2.98-6.91,4.61-9.96-.01-.01,0-.02,.01-.03,.08,.08,.18,.14,.27,.19-.99,3.27-1.87,6.59-3.36,9.65,2.71-1.56,2.56-6.41,3.94-9.41,.04,.01,.08,.02,.12,.03-.98,2.87-1.62,5.91-2.01,8.91,.2-.05,.41-.12,.62-.2,.34-2.57,.9-5.05,1.66-7.48-.14,2.26-.12,4.57-.03,6.83,.19-.07,.38-.16,.57-.26-.05-1.59-.09-3.18-.04-4.77,.08,1.54,.24,3.08,.45,4.57,1.2-1.3-.27-4.13,.07-5.97,.42,1.57,.73,3.18,1.11,4.77,.97-.87-.21-2.62-.19-3.88,.32,.96,.63,2,1.03,2.94,.15-.16,.29-.32,.44-.48-.66-1.8-1.28-3.6-1.83-5.43,.95,1.42,1.97,2.84,3.17,4.12,.13-.13,.27-.25,.41-.36-1.18-1.23-2.09-2.67-3.05-4.05,1.15,1.24,2.29,2.5,3.33,3.82,.14-.14,.28-.25,.43-.36-.82-.8-1.84-2.28-2.91-3.43,1.14,.98,2.18,2.07,3.3,3.13,.13-.1,.27-.19,.41-.29-.7-.73-1.45-1.44-2.21-2.15,1.33,.43,2.83,1.84,4.05,1.1-1.18-.75-2.94-.95-3.99-1.9,1.87,.28,3.76,.68,5.53,1.15,.14-.18,.28-.38,.42-.59-2-.87-4.6-.58-6.55-1.35,2.25,.35,4.49,.68,6.73,1.09,.12-.19,.25-.38,.37-.59-2.54-.54-5.19-.7-7.68-1.29,0-.01-.02-.03-.03-.04,2.63,.52,5.38,.66,8.07,.74,.11-.2,.22-.4,.32-.6-2.19-.05-4.36-.16-6.52-.47,3.06,.06,6.35,.17,7.22-1.22-2.53,.44-5.04,.64-7.59,.7,2.69-.5,5.37-1.19,7.95-2.03,.04-.21,.07-.41,.08-.62-2.5,.74-5.01,1.48-7.55,1.98,2.45-1.11,5.08-1.89,7.55-2.96Zm-16.59,7.47c.13-.27,.32-.48,.58-.61-.19,.21-.38,.41-.58,.61Zm5.27-4.54h-.01s0,0,.01-.02v.02Z"/><path d="M137.24,66.43v.02h-.01s0,0,.01-.02Z"/><path d="M148.92,69.89c-.12,.05-.23,.1-.35,.15,.02,0,.33-.16,.35-.15Z"/><path d="M134.49,69.99s-.01,.01-.02,.02c-.01-.01,0-.02,.01-.03h.01Z"/></g><g><path d="M135.95,50.61c-.3,.16-.61,.31-.92,.46-1.33-5.07-1.76-10.52-.61-15.66,0-.77,.11-1.52,.22-2.26,.11-.71,.21-1.38,.21-2.06,.34,.11,.67,.22,.99,.32-.02,.64-.12,1.27-.21,1.89-.11,.73-.21,1.41-.21,2.1-1.07,5.09-.79,10.18,.53,15.21Z"/><path d="M139.32,32.49c-.06,.3-.13,.6-.2,.9-.17,.72-.33,1.39-.38,2.07-1.43,4.65-1.46,9.31-.93,14.12-.3,.18-.61,.35-.91,.53-.67-4.88-.63-9.98,.84-14.72,.06-.76,.24-1.51,.41-2.23,.08-.33,.16-.65,.22-.97,.32,.11,.64,.2,.95,.3Z"/><path d="M142.1,33.31c-.09,.41-.17,.82-.23,1.23-.97,4.83-3.11,9.34-2.86,14.34-.32,.19-.64,.38-.96,.56-.46-5.19,1.8-10.09,2.83-15.04,.06-.47,.16-.92,.26-1.37,.33,.1,.65,.19,.96,.28Z"/><path d="M150.44,35.15c-1.61,3.49-3.73,6.71-4.31,10.59-.36,.07-.71,.15-1.05,.25,.48-3.98,2.65-7.49,4.33-11,.34,.05,.69,.11,1.03,.16Z"/><path d="M147.03,34.54c-1.57,3.86-3.33,7.69-3.37,11.94-.37,.14-.73,.3-1.09,.47,.16-4.46,1.71-8.66,3.48-12.63,.33,.08,.66,.15,.98,.22Z"/><path d="M144.91,34.05c-.12,.46-.28,.9-.44,1.34-1.22,4.06-3.08,7.86-3.13,12.17-.34,.18-.67,.37-1.01,.56-.09-4.58,1.86-8.82,3.2-13.07,.15-.42,.3-.83,.42-1.24,.33,.08,.65,.16,.96,.24Z"/><path d="M155.75,35.38c-1.95,3.42-4.3,6.47-5.63,10.18-.35-.03-.71-.04-1.06-.04,1.74-3.3,3.26-8.92,6.69-10.14Z"/><path d="M153.11,35.46c-1.77,3.35-3.83,6.43-4.92,10.07-.36,.01-.72,.03-1.08,.07,1.06-3.71,3.14-6.92,4.92-10.25,.35,.04,.72,.08,1.08,.11Z"/><path d="M134.29,50.69c.01,.24-.01,.48-.05,.72-.37,.16-.75,.3-1.13,.43,0-5.29-2.83-10.77-1.64-16.27,.13-.72,.26-1.4,.22-2.06-.05-.75,.02-1.51,.08-2.23,.03-.35,.06-.69,.08-1.02,.33,.05,.67,.12,.99,.22-.02,.3-.04,.6-.07,.89-.07,.72-.13,1.4-.08,2.07,.05,.79-.1,1.56-.24,2.32-.77,5.09,.82,10,1.84,14.93Z"/><path d="M132.26,52.09c-.36,.09-.72,.17-1.08,.22,.04-5.4-3.71-10.75-2.86-16.46,.08-.73,.15-1.42,.05-2.08-.1-.74-.1-1.5-.09-2.23,.01-.45,.01-.89,0-1.32,.33-.04,.66-.07,.99-.08,.03,.47,.03,.95,.02,1.41,0,.72,0,1.41,.09,2.08,.11,.78,.03,1.56-.05,2.32-.75,5.65,2.76,10.74,2.94,16.14Z"/><path d="M130.97,52.34c-.34,.06-.68,.11-1.03,.15-2.68-5.46-3.46-11.54-3.66-17.54-.04-.73-.08-1.42-.22-2.09-.14-.7-.22-1.41-.29-2.1,.33-.1,.65-.19,.97-.27,0,.03,.01,.06,.01,.09,.08,.68,.15,1.4,.29,2.07,.16,.75,.2,1.51,.24,2.25,.2,6.06,.97,11.93,3.69,17.44Z"/><path d="M124.9,52.75c-1.27-5.92-7.3-10.46-7.61-17.24,.27-.23,.54-.45,.82-.66,.77,4.34,2.52,8.18,4.97,11.82,1.06,1.93,3.19,3.54,2.82,6.05-.33,.02-.67,.02-1,.03Z"/><path d="M127.52,52.08c-.01,.21-.02,.4-.03,.6-.34,.01-.67,.02-1.01,.03,.07-5.96-5.96-10.56-5.96-16.85-.06-.73-.11-1.41-.32-2.04-.04-.12-.08-.25-.11-.38,.29-.19,.59-.38,.89-.55,.05,.21,.1,.42,.17,.62,.25,.74,.31,1.52,.37,2.27,.56,4.49,2.71,8.55,5.05,12.36,.86,1.14,1.14,2.53,.95,3.94Z"/><path d="M129.67,52.52c-.34,.03-.67,.06-1.01,.09-.4-1.54-1.75-2.85-2.09-4.47-1.99-3.71-2.97-7.97-3.18-12.14-.2-.74-.28-1.5-.36-2.24-.06-.64-.12-1.25-.27-1.84,.31-.14,.62-.28,.93-.41,.18,.71,.26,1.44,.34,2.15,.07,.73,.15,1.42,.32,2.08,.08,6.11,2.8,11.39,5.32,16.78Z"/><path d="M122.84,52.84c-.34,.01-.67,.04-1.01,.07-2.85-4.43-6.89-8.55-8.09-13.91,.26-.3,.53-.6,.8-.88,1.04,5.8,5.61,9.81,8.3,14.72Z"/><path d="M124.44,52.77c-.35,.01-.7,.02-1.04,.04-3.14-4.81-6.88-9.72-8.07-15.51,.27-.26,.53-.52,.81-.77,1.17,6.17,5.22,10.99,8.3,16.24Z"/><path d="M110.08,61.36c-.12,.31-.23,.63-.33,.95-4.23-1.34-7.48-4.51-10.81-7.23,.26-.21,.51-.43,.77-.65,3.28,2.62,6.25,5.64,10.37,6.93Z"/><path d="M111.11,59.21c-.17,.29-.33,.58-.47,.88-3.61-1.52-6.4-4.47-9.07-7.19,.26-.21,.52-.43,.78-.65,2.63,2.69,5.22,5.46,8.76,6.96Z"/><path d="M111.91,57.97c-.2,.27-.38,.55-.56,.83-2.98-2.17-5.1-5.15-7.58-7.76,.25-.22,.5-.44,.74-.67,2.48,2.58,4.52,5.49,7.4,7.6Z"/><path d="M117.28,53.84c-.34,.12-.66,.25-.98,.41-2.64-2.65-5.6-5.39-7.13-8.91,.22-.3,.45-.6,.67-.92,1.56,3.83,4.64,6.51,7.44,9.42Z"/><path d="M115.17,54.88c-.29,.17-.56,.37-.83,.58-2.68-2.17-5.51-4.55-7.32-7.56,.24-.25,.47-.51,.71-.77,1.82,3.19,4.69,5.4,7.44,7.75Z"/><path d="M113.42,56.26c-.25,.23-.49,.47-.71,.73-2.82-2.11-4.87-5.03-7.04-7.7,.24-.24,.48-.48,.71-.72,2.23,2.71,4.17,5.58,7.04,7.69Z"/><path d="M121.42,52.95c-4.64-.76-7.25-7.81-9.4-11.81,.22-.29,.44-.58,.66-.86,2.09,4.81,4.84,9.1,8.74,12.67Z"/><path d="M119.33,53.26c-.36,.07-.72,.16-1.08,.26-3.09-2.96-5.97-6.4-7.54-10.44,.2-.32,.4-.64,.62-.95,1.75,4.38,4.69,7.85,8,11.13Z"/><path d="M109.64,62.68c-.09,.32-.17,.64-.24,.97-4.13-1.09-8.54-2.29-12.05-4.87-.48-.38-.93-.73-1.42-.99,.25-.25,.5-.49,.76-.73,3.76,3.05,8.33,4.44,12.95,5.62Z"/><path d="M109.22,64.63c-.06,.33-.1,.66-.12,.99-3.73-.43-7.43-1.43-10.95-2.82-.74-.26-1.39-.69-2.02-1.11-.61-.41-1.19-.79-1.81-1.01-.25-.09-.5-.19-.75-.31,.22-.27,.44-.54,.67-.8,.13,.07,.27,.12,.41,.17,.74,.26,1.4,.69,2.03,1.12,3.82,2.27,8.2,3.11,12.54,3.77Z"/><path d="M109.14,67.77c-4.39-.53-8.8-1.68-12.68-3.85-.72-.21-1.41-.52-2.07-.83-.67-.31-1.3-.6-1.96-.79-.07-.02-.13-.04-.2-.06,.19-.29,.38-.58,.58-.86,.7,.2,1.36,.51,2,.8,.66,.3,1.28,.59,1.93,.78,3.88,2.08,7.93,3.3,12.31,3.77,.01,.36,.04,.71,.09,1.04Z"/><path d="M111.02,72.16c.26,.4,.55,.8,.83,1.21-4.23-2.2-8.41-.89-12.99-.72-1.44-.11-2.88-.22-4.32-.34-.78-.06-1.53-.31-2.25-.55-.69-.23-1.34-.45-2-.5-.17-.02-.35-.04-.52-.06-.03-.34-.05-.68-.05-1.02,.22,.03,.43,.06,.65,.08,.78,.06,1.52,.31,2.24,.55,.69,.24,1.35,.46,2.01,.51,1.44,.11,2.87,.22,4.31,.33,4.04,.17,8.42-1.92,12.09,.51Z"/><path d="M109.62,69.63c.23,.59,.52,1.14,.84,1.67-3.33-2.55-7.58-.67-11.47-1.28-1.32-.2-2.63-.42-3.95-.63l-.32-.05c-.77-.12-1.5-.43-2.2-.73-.67-.29-1.3-.56-1.95-.67-.21-.03-.43-.08-.63-.13,.06-.32,.13-.65,.22-.97,.19,.05,.38,.09,.57,.12,.77,.12,1.49,.43,2.18,.73,.68,.29,1.32,.56,1.97,.66l.32,.06c1.31,.21,2.63,.42,3.95,.62,3.39,.55,7.3-.95,10.47,.6Z"/><path d="M109.42,69.06c-3.82,.15-7.66-.34-11.39-1.29-.76-.17-1.47-.52-2.15-.86-.65-.33-1.27-.63-1.91-.78-.75-.17-1.46-.45-2.14-.72-.36-.14-.71-.28-1.06-.4,.13-.31,.26-.61,.42-.92,.34,.13,.68,.26,1.01,.39,.68,.27,1.32,.53,1.99,.68,.76,.17,1.46,.52,2.13,.86,4.04,1.78,8.49,2.04,12.87,2.06,.05,.34,.13,.67,.23,.98Z"/><path d="M113.2,75.5c.16,.29,.31,.6,.45,.93-2.05,.84-3.96-.85-5.85-1.11-2.83,.41-5.75,1.04-8.66,1.26-1.44,0-2.88-.03-4.32-.03-.78-.01-1.54-.2-2.27-.38-.48-.12-.94-.24-1.39-.29h0c-.18-.35-.35-.69-.5-1.05,.73,.01,1.45,.19,2.14,.37,.7,.18,1.37,.34,2.02,.35,1.45,0,2.89,.02,4.33,.03,2.89-.22,5.77-.89,8.67-1.26,1.86,.04,3.5,1.85,5.38,1.18Z"/><path d="M112.47,74.26c.25,.38,.49,.78,.71,1.2-4.42-2.38-8.92-.84-13.71-.67-1.55-.08-3.1-.15-4.65-.21-.82-.03-1.62-.24-2.4-.45-.75-.19-1.46-.39-2.16-.41-.11-.33-.2-.67-.27-1.02,.08,0,.16,.01,.24,.01,.84,.03,1.66,.24,2.45,.45,.76,.21,1.47,.4,2.18,.42,1.56,.06,3.1,.13,4.66,.21,4.32,.11,9-2.05,12.95,.47Z"/><path d="M122.95,86.37c-1.25,1.25-3.45,.79-4.85,1.57-1.16,.56-1.78,2.61-3.3,1.72,1.59-1.79,3.37-3.37,5.92-3.36-.02,.02-.03,.03-.04,.05,.76,.05,1.53,.05,2.27,.02Z"/><path d="M120.72,86.3c-1.87,2.42-5.33,.69-7.34,2.77-.32-.16-.63-.33-.93-.51,2.15-2.12,5.61-1.83,8.27-2.26Z"/><path d="M118.4,86.05c-2.51,.46-4.94-.19-6.92,1.89-.3-.2-.59-.4-.89-.61,2.35-2.1,4.89-2.6,7.81-1.28Z"/><path d="M115.26,84.67c-1.51,1.1-3.27,1.58-4.9,2.49-.3-.22-.59-.44-.89-.67,1.7-1.01,3.58-1.47,5.22-2.64,.12,.31,.31,.58,.57,.82Z"/><path d="M113.24,79.97c.4,.14,.78,.27,1.14,.36,0,.34-.02,.68-.02,1.02-5.45-2.32-10,2.44-16.11,.4,5.13,.49,10.07-3.1,14.99-1.78Z"/><path d="M114.44,82.98c-3.46-2.01-6.55,2.01-9.62,.37,3.19-.77,6.2-2.85,9.53-1.4,.02,.35,.03,.69,.09,1.03Z"/><path d="M114.47,83.15c-2.08,.66-4.08,1.74-6.23,2.41-.31-.23-.62-.46-.94-.68,2.36-.84,4.65-1.99,7.06-2.72,0,.34,.05,.66,.11,.99Z"/><path d="M114.14,77.92c-5.05-2.14-10.53,1.55-15.97,.62-.77,0-1.53-.18-2.26-.36-.71-.17-1.38-.34-2.03-.34h-.02c-.49,0-.97-.04-1.44-.11-.31-.37-.59-.75-.84-1.14,.07,.01,.13,.02,.2,.03,.72,.12,1.4,.22,2.08,.22h.02c.77,0,1.53,.19,2.26,.37,.72,.17,1.39,.32,2.05,.33,4.29,1.34,14.36-4.15,15.95,.38Z"/><path d="M114.33,78.82c-5.32-.94-10.69,2.36-16.28,1.69-.76,0-1.52-.15-2.25-.29-.3-.06-.6-.12-.89-.16-.48-.34-.94-.71-1.35-1.11,.82-.02,1.64,.14,2.43,.29,.78,.15,1.52,.3,2.24,.27,3.8,1.19,15.57-4.44,16.1-.69Z"/><path d="M158.16,34.82c-.77,2.06-1.3,4.23-2.01,6.35-1,1.79-3.46,2.54-3.48,4.84-.32-.09-.65-.17-.98-.23,.03-2.34,2.43-3.42,3.57-5.06,.63-1.8,.96-3.79,1.78-5.58,.39-.09,.76-.2,1.12-.32Z"/><path d="M161.73,33.46c-.16,.25-.31,.5-.47,.75-1.31,2.58-2.23,5.39-3.37,8.07-1.03,1.63-3.48,2.13-3.77,4.22-.31-.13-.63-.24-.95-.34,.31-2.14,2.72-2.93,3.87-4.4,.79-1.98,1.49-4.01,2.43-5.99,.21-.57,.43-1.16,.73-1.71,.5-.2,1.01-.41,1.53-.6Z"/><path d="M168.16,32.32c-.09,.1-.19,.2-.29,.3-.52,.52-1.01,1.01-1.42,1.57-.45,.63-1.05,1.13-1.63,1.62-3.68,3.37-5.62,8.04-7.63,12.51-.25-.21-.52-.42-.8-.6,1.93-4.49,4.08-9.32,7.79-12.67,.55-.47,1.08-.92,1.46-1.45,.33-.46,.71-.87,1.1-1.27,.45-.02,.92-.03,1.42,0Z"/><path d="M173.92,37.45h0c-.01,.12-.02,.23-.03,.34-.12,.09-.22,.18-.33,.28-.57,.54-1.27,.91-1.94,1.28-.63,.35-1.24,.68-1.72,1.12-4.18,2.8-6.08,8.06-10.26,10.59-.16-.3-.36-.6-.57-.86,4.07-2.45,6.01-7.7,10.15-10.46,.58-.53,1.26-.9,1.92-1.27,.65-.35,1.26-.68,1.74-1.13,.32-.29,.66-.56,1.01-.8,.05,.3,.06,.6,.03,.91Z"/><path d="M172.61,34.45c-.46,.38-.9,.75-1.29,1.16-.53,.58-1.19,1.01-1.83,1.43-4.97,2.99-6.56,9.24-10.91,12.59-.24-.27-.49-.52-.74-.75,4.67-3.95,6.95-10.78,12.75-13.94,.38-.41,.8-.78,1.22-1.12,.3,.22,.57,.43,.8,.63Z"/><path d="M170.7,33.09s-.05,.07-.08,.1c-.48,.6-1.05,1.11-1.61,1.61-4.6,4.02-8.69,8.37-11.26,14-.25-.24-.51-.44-.78-.66,2.34-4.76,5.6-9.23,9.8-12.51,.47-.58,1.03-1.09,1.58-1.57,.52-.48,1.03-.93,1.44-1.44,.28,.12,.6,.28,.91,.47Z"/><path d="M170.31,44.27c-1.25,2.64-6.58,9.13-9.54,9.84-.07-.33-.14-.66-.24-.98,4.19-1.46,5.84-6.64,9.78-8.86Z"/><path d="M173.06,40.09s-.04,.09-.07,.13c-.35,.57-.76,1.12-1.17,1.67h0c-.25,.16-.49,.33-.71,.51-1.19,1.01-2.37,2.02-3.55,3.03-2.57,2.31-4.22,5.74-7,7.8-.09-.33-.19-.66-.33-.97,3.42-3.41,6.13-7.75,10.23-10.62,.64-.54,1.4-.93,2.13-1.3,.16-.08,.32-.16,.47-.25Z"/><path d="M170.27,53.02c.2,2.38-2.43,2.91-3.65,4.59-1.31,2.13-3.94,2.08-5.96,2.85,.09-.38,.16-.78,.21-1.18,4.17-.29,6.31-3.86,9.4-6.26Z"/><path d="M170,49.59c-3.39,1.98-5.21,6.32-8.96,7.61,.01-.35,.01-.7-.01-1.04,3.44-1.68,5.38-5.72,8.81-7.69,.05,.37,.1,.75,.16,1.12Z"/><path d="M170.26,51.65c-3.36,1.99-5.53,6.11-9.34,7.27,.05-.34,.08-.69,.1-1.04,3.49-1.62,5.71-5.39,9.12-7.35,.05,.37,.08,.75,.12,1.12Z"/><path d="M166.09,61.74c-1.46,2.42-4.19,2.85-6.74,2.15,.17-.27,.34-.58,.49-.94,2.32,.79,4.1-.33,6.08-1.34l.17,.13Z"/><path d="M168.38,58.37c-1.72,2.55-5.51,3.47-8.4,4.26,.14-.33,.26-.67,.37-1.02,2.7-.87,5.33-2.21,8.03-3.24Z"/></g><g><path class="cls-1" d="M148.92,69.89c-.12,.05-.23,.1-.35,.15,.02,0,.33-.16,.35-.15Z"/><path class="cls-1" d="M166.09,61.74c-.45,.57-.94,1.11-1.45,1.61-.54,.52-1.1,1-1.7,1.44-2.23,1.63-4.82,2.59-7.41,3.41l-2.78-.07c.15-.08,.31-.17,.46-.25,.18-.06,.36-.11,.54-.17,2.98-.92,5.81-1.8,8.25-3.48,.11-.08,.23-.16,.34-.24,.6-.44,1.16-.92,1.69-1.44,.45-.45,.88-.92,1.28-1.43l.39,.31,.22,.18,.17,.13Z"/></g><path class="cls-1" d="M76.03,75.96c-20.26-12.88,6.53-22.93,8.91-37.78,2.2-10.42,9.15-15.53,17-20.96,7.16-8.11,12.09-13.59,23.32-15.28,18.12-7.95,27.83,14.57,51.31,11.21,4.96-.76,14.49,.91,11.54,7.97-1.77,3.7-6.86,5.98-9.65,9.16-2.2,2.43-4,6.52-4.98,10.24h-.38v-.49h-.51l.12-.12-.09-.03c1.34-4.76,3.38-9.07,6.85-11.98,9.99-6.03,12.29-14.86-2.86-13.75-23.97,3.29-33.38-18.96-50.99-11.28-11.12,1.68-15.94,7.1-23.02,15.1-7.81,5.47-14.53,10.17-16.71,20.51-1.72,14.41-28.84,24.39-9.3,36.65l-.57,.82Z"/><path class="cls-1" d="M116.06,91.18l-.06-.02c-1.69,.06-3.29-.17-4.78-.66h-.12l-.07-.07c-.55-.18-1.11-.42-1.7-.72-1.54-.8-2.91-1.91-4.23-2.98-.87-.71-1.77-1.44-2.7-2.06h-.06l-.2-.17c-.79-.52-1.69-.96-2.6-1.25-1.91-.58-3.9-.48-6.01-.37-1.23,.06-2.5,.13-3.75,.05-2.09-.15-4.09-.74-6.12-1.81l.46-.89c1.9,1,3.77,1.55,5.72,1.69,1.19,.08,2.43,.02,3.63-.05,2.1-.11,4.28-.22,6.36,.42,.97,.31,1.92,.77,2.83,1.37h0l.13,.08c1.02,.66,1.98,1.45,2.91,2.21,1.28,1.04,2.61,2.12,4.06,2.87,.57,.29,1.1,.51,1.62,.68l.18,.07c1.32,.43,2.77,.63,4.31,.6h.17c4.43-.18,9.55-2.41,14.07-6.13,.19-.16,.33-.27,.47-.4l.32-.27c.25-.21,.49-.42,.72-.63,.06-.05,.1-.08,.12-.1,.52-.46,1.03-.92,1.52-1.36l.43-.41c.21-.2,.43-.4,.64-.6l.71,.7c-.23,.22-.45,.43-.67,.63l-.42,.4c-.51,.47-1.02,.93-1.52,1.37-.03,.03-.09,.08-.16,.13-.22,.2-.47,.42-.71,.62l-.18,.15c-.07,.07-.1,.09-.13,.12-.14,.13-.29,.26-.45,.39-4.74,3.9-10.08,6.21-14.69,6.39l-.07,.03Z"/><path class="cls-1" d="M117.23,90.57c-5.83-.09-9.32-6.06-14.63-7.56-15.19-.66-17.12-18.11-6.25-26.31,3.66-3.38,7.74-6.15,11.01-9.9,6.12-9.31,16.23-21.12,28.63-15.86,6.04,1.84,12.16,3.91,18.51,4.06,5.03-.3,9.3-3.93,14.44-3.12,7.75,2.25,5.91,7.44,1.87,12.5-1.57,7,2.49,11.26-4.78,17.43l-.67-.74c8.69-7.18-.02-13.59,7.25-21.2h0c2.09-2.94-.18-5.7-3.03-6.78-5.77-1.59-10.71,3.54-16.52,2.88,0,.47-14.13-3.18-21.29-5.2-12.45-3.51-18.93,13.67-31.99,24.27-10.91,8.86-14.09,25.6,3.12,27.03,9.26,4.33,13.31,12.08,23.66,3.36l.57,.82c-3.27,2.07-5.89,4.09-9.9,4.33Z"/><path class="cls-1" d="M124.66,111.25c-11.31,1.04-19.35-8.23-27.2-14.92l.59-.81c12.86,12.13,21.13,18.82,39.67,12.33,8.35-.96,10.47-10.35,16.74-14.08,3.1-1.45,6.24-1.16,9.81-2.08,2.86-.67,9.23-7.52,11.05-10.22,3.72-10.18,7.2-21.57,6.8-32.38-.98-9.01-2.74-16.83,2.52-24.42,.49-.63,1.01-1.46,1.38-2.25l.17-.16,.33,.36h.51c-.26,.87-1.06,1.69-1.38,2.47-5.4,7.27-3.41,15.12-2.53,23.92,.85,9.28-2.66,18.1-4.78,27.13-.81,6.26-8.34,14.12-13.83,16.53-1.77,.41-3.28,.61-4.61,.79-15.12,1.92-6.07,16.56-35.23,17.79Z"/><path class="cls-1" d="M126.11,101.74c-8.1,1.37-14.12-3.62-21.36-5.43-21.1,1.3-26.43,1.23-30.18-20.81,3.28-1.86,6.74,3.01,9.61,4.76l-.57,.82c-2.31-1.48-5.37-5.11-7.83-5.03,3.44,21.74,9.42,20.09,29.06,19.26,17.57,5.58,25.47,13.01,42.47-8.74,9.21-11.6,23.43-7.82,30.21-22.79,5.43-8.94-2.29-29.57,7.49-40.1h1c-10.09,12.39-1.8,30.29-7.58,40.52-7.01,15.35-20.99,11.51-30.33,22.99-10.24,13.15-15.48,14.55-21.99,14.55Z"/><path class="cls-1" d="M134.82,50.62c7.22-4.42,15.84-8.9,23.27-2.18,5.73,5.21,4.49,16.94-3.46,19.29-1.34,.64-3,1.56-4.34,2.22-1,.24-2.04,.85-3.04,1.03-.21,.07-.51,.1-.65,.19-.54,.07-2,.74-2.53,.93,11.22-12.61-3.75-16.01-13.89-11.61-5.69,2.49-11.5,9.57-7.35,15.71l.09,.15c3.65,5.51,11.47,2.72,15.99-.1-4.21,5.6-9.34,11.13-16.94,10.64-2.94-.1-7.44-.32-8.02-3.83-.03-3.38-.04-6.41-2.32-9.15-6.26-6.64-2.01-18.57,6.49-20.87,4.5-1.25,9.36-.38,13.91-1.4l2.8-1.02Zm-14.24,35.23c5.85,.65,10.95-1.99,14.52-6.54-4.7,2.1-11.7,1.65-13.73-3.76h0c-.16-.34-.29-.66-.39-.98h0c-2.75-8.08,6.04-15.13,13.27-16.39,4.75-.83,11.65-1.19,14.37,3.63,1.23,2.75-.2,5.85-1.72,8.22,2.4-.61,4.67-1.82,6.84-3,1.84-1.12,4.13-1.59,5.19-3.41,2.55-4.71,2.42-11.77-2.26-15.09-7.67-5.86-15.19-.36-22.25,3.34-4.03,1.74-8.67,1.12-12.93,1.57-7.33,.13-12.72,7.47-11.82,14.49,.45,2.8,2.66,4.93,4.01,7.32,2.96,5.21-1.94,10.18,6.9,10.58Z"/><path class="cls-1" d="M137.18,78.41h-.22c.07-.32-.08-.68-.37-.83,2.43-2.95,5.2-5.89,8.92-7.13l.32,.95c-3.64,1.2-6.27,4.18-8.65,7.02Z"/><polygon class="cls-1" points="148.77 70.51 148.38 69.58 148.73 69.43 149.11 70.36 148.77 70.51"/><polygon class="cls-1" points="136.95 78.41 136.94 78.41 136.94 77.41 136.95 78.41"/><path d="M61.01,205.18c-10.64,0-28.26-1.33-44.51-8.69-4.37-1.98-15.38-9.06-16.41-12.82-.16-.59-.1-1.1,.2-1.52,1.39-1.99,3.37-1.88,5.29-1.77,1.05,.06,2.14,.12,3.23-.11l.39-.08,.17,.36c2.06,4.46,9.16,15.15,30.48,18.18,15.24,2.16,29.68,2.15,42.92-.03l.78-.13c21.51-3.69,40.11-13.13,55.31-28.05,8.36-8.2,17.2-24.52,20.13-37.17,1.86-8.04-.17-21-3.24-28.06-.19-.43-1.03-1.7-2-3.18-.9-1.37-2.03-3.08-3.02-4.7l.85-.52c.99,1.61,2.11,3.31,3.01,4.67,1.08,1.64,1.86,2.82,2.08,3.33,3.13,7.2,5.21,20.45,3.3,28.68-2.97,12.81-11.94,29.35-20.41,37.66-15.35,15.07-34.12,24.6-55.8,28.32,0,0-.83,.14-.83,.14-13.34,2.2-27.88,2.21-43.23,.03-7.2-1.02-24.55-4.86-31.08-18.39-1.09,.17-2.15,.11-3.1,.06-1.87-.11-3.35-.18-4.42,1.34-.04,.06-.17,.25-.05,.68,.86,3.11,11.03,9.98,15.86,12.17,22.71,10.28,48.15,8.68,53.02,8.26,23.74-2.09,35.83-7.98,45.55-12.72l.97-.47c11.85-5.76,33.16-19.56,42.76-47.3,3.99-11.52,3.63-20.38,3.44-25.15-.19-4.99-2.48-17.33-8.34-23.63l.73-.68c6.53,7.03,8.45,20.21,8.6,24.27,.19,4.83,.55,13.82-3.5,25.51-9.72,28.08-31.28,42.05-43.26,47.88l-.97,.47c-9.79,4.77-21.98,10.71-45.9,12.82-1.43,.12-4.63,.35-9.01,.35Z"/><path class="cls-1" d="M135.84,70.43c-1.24,0-2.09-.07-2.49-.46-.15-.15-.22-.33-.22-.53,0-.98,1.87-2.9,3.46-2.9,1.8,0,2.83,.54,2.83,1.48,0,1.01-.86,2.42-2.46,2.42h-.55c-.19,0-.38,0-.55,0Zm.74-3.15c-1.24,0-2.71,1.64-2.71,2.15,.17,.26,1.75,.25,2.51,.24h.56c1.2,0,1.71-1.11,1.71-1.67,0-.43-.83-.73-2.08-.73Z"/></svg>