<svg version="1.1" id="Layer_1" xmlns="http://www.w3.org/2000/svg" x="0" y="0" viewBox="0 0 188.6 205.2" style="enable-background:new 0 0 188.6 205.2" xml:space="preserve"><style>.st0{fill:#a21916}</style><path d="M50.1 58.2c.3 1.3.5 2.7.8 4 .1.4.1.7.1 1.1 0 .3.1.6.1.9v.1c0 .3 0 .6.1.9 0 .4.1.7.1 1.1V68.7h.1c.1 0 .1.1.2.1 0 0 .1 0 .1.1h.1c.1 0 .1.1.1.1V66c0-.1 0-.2-.1-.3-.1-.5-.1-1-.1-1.5-.1-.7-.1-1.5-.3-2.3-.2-1.3-.5-2.6-.8-3.9l-.5.2zM53.2 67.2s0 .1 0 0l.1.1v.1c0 .1.1.1.1.2 0 0 0 .1.1.1v.2l.1.1v.2c0 .1.1.1.1.2s.1.1.1.1v.1c0 .1.1.1.1.2l.1.1v.1c0 .1.1.1.1.2 0 0 0 .1.1.1.1.1.2.2.2.3 0 0 0 .1.1.1 0 0 0 .1.1.1l.1.1c.1.1.1.2.2.3.2.2.4.5.5.8.1.1.1.2.2.3v.1c.2.3.4.6.6.8.2.3.5.7.8 1 .3.3.6.7.9 1 .4.5.9 1.1 1.4 1.6.2.2.4.4.6.7.5.6 1.1 1.1 1.6 1.6s1 .9 1.4 1.4c.2-.1.4-.2.6-.2l-.1-.1c-.5-.6-1.1-1.1-1.6-1.6s-1.1-.9-1.5-1.4c-.5-.6-1.1-1.3-1.6-1.9-.1-.1-.2-.2-.2-.3-.3-.4-.6-.8-.9-1.1-.1-.2-.3-.3-.4-.5-.3-.4-.5-.8-.8-1.2 0 0 0-.1-.1-.1-.1-.2-.2-.3-.3-.4-.1-.2-.2-.3-.4-.5 0-.1-.1-.2-.2-.2-.1-.1-.2-.2-.3-.4l-.1-.1v-.2c-.1-.1-.2-.3-.3-.4l-.1-.1v-.1l-.1-.1v-.2c0-.1-.1-.1-.1-.2 0 0 0-.1-.1-.1l-.1-.1v-.1s0-.1-.1-.1c0-.1-.1-.1-.1-.2 0 0 0-.1-.1-.1v-.2l-.7-.1z"/><path d="M48.7 58.2c.1.2.2.5.3.7l.2.5c.4 1.1.8 2.2 1.2 3.4.3.8.3.8 0 0 0 .1.1.2.1.3.2.6.4 1.2.5 1.9v.1c.1.3.1.6.2.9.1.2.1.2 0 0 0 .1.1.2.1.3v.1c0 .1 0 .1.1.2v.4c0 .1 0 .1.1.2v.2c0 .1.1.1.1.2v.6c.1.1.1.1.2.1s.1.1.2.1h.1v-.5c0-.1 0-.2-.1-.2V67s0-.1-.1-.1v-.6c0-.1 0-.1-.1-.2V66c-.1-.2-.1-.4-.2-.7-.1-.3-.1-.6-.2-.8-.1-.6-.3-1.2-.5-1.8.1.5.1.3 0 .2-.4-1.2-.9-2.5-1.3-3.7l-.2-.5c-.1-.2-.1-.4-.2-.5h-.5z"/><path d="M46.8 58.4c.4.7.8 1.3 1.2 1.9.4.6.8 1.1 1.1 1.7l.9 1.8c.4.7.7 1.4 1.1 2.1 0 .1.1.1.1.2.1.1.1.2.1.3 0 .1.1.1.1.2s.1.2.1.3v.1c0 .1.1.1.1.2s.1.2.1.2c0 .1 0 .1 0 0h.2c.1 0 .1 0 .1.1h.1c.1 0 .1 0 .1.1h.2v-.5c0-.1-.1-.2-.1-.2 0-.1-.1-.1-.1-.2s-.1-.1-.1-.2v-.1c-.1-.1-.1-.2-.1-.3 0-.1-.1-.2-.1-.2 0-.1-.1-.2-.1-.3-.1-.1-.1-.3-.2-.4-.1-.2-.2-.5-.4-.7-.3-.5-.5-1-.8-1.6-.2-.4-.2-.4 0 0l-.6-1.2c-.4-.7-.8-1.3-1.3-2-.3-.5-.7-.9-.9-1.4-.3 0-.5 0-.8.1z"/><path d="M51.9 67.4V69h.1s.1 0 .1.1h.1c.1 0 .1.1.2.1h.1V69c0-.1 0-.2-.1-.3v-2.4c.1-.8.1-1.5.1-2.3 0-.7 0-1.3.1-2 0-.7.1-1.5.1-2.2v-.9c-.2 0-.3 0-.5-.1v1.1c0 .7 0 1.3-.1 2s-.1 1.5-.1 2.3c0 .6 0 1.3-.1 2v1.2-.4.4c0-.1 0-.1 0 0z"/><path d="M52.5 66.8V68.5h.4V67c0-.6.1-1.2.2-1.9s.2-1.5.2-2.2c0-.7.1-1.3.2-2 .1-.6.2-1.3.2-2-.2 0-.3-.1-.5-.1 0 .6-.1 1.2-.2 1.8.1.4 0 1.2 0 1.9 0 .6-.1 1.3-.2 2-.1.6-.2 1.2-.2 1.8v.3c-.1.1-.1.1-.1.2z"/><path d="M52.8 68h.5v-.8c0-.1 0-.2.1-.3v-.2c.1-.5.2-.9.2-1.4v-.1l.3-1.8c.1-.7.3-1.4.4-2.1l.1-.5c.1-.8.1-1.5.2-2.3-.2 0-.3-.1-.5-.1-.1.7-.1 1.5-.2 2.2v.4c-.1.7-.2 1.3-.3 1.9-.1.7-.3 1.4-.4 2.1 0 .5-.1.9-.2 1.4 0 .1-.1.2-.1.3v.2c0 .1 0 0 0 0v.4c-.1.6-.1.7-.1.7z"/><path d="M52.8 69.3c.1 0 .2 0 .4.1h.2v-1.3c0-.1 0-.1.1-.2 0-.1.1-.2.1-.2v-.1c0-.1.1-.2.1-.2 0-.1.1-.1.1-.2s.1-.2.1-.3c.1-.2.1-.5.2-.8V66c0-.1 0-.2.1-.3 0-.1.1-.3.1-.4.1-.5.2-1 .4-1.5.2-.7.4-1.4.5-2.1v-.1l.3-2.1c-.2-.1-.4-.1-.6-.2l-.3 2.1c-.1.7-.3 1.3-.5 1.9-.2.7-.4 1.4-.5 2.1 0 .1-.1.3-.1.4-.1.4-.3.9-.4 1.3 0 .1-.1.2-.1.3v.5c0 .1 0 .1-.1.2V69.2c-.1 0-.1 0-.1.1zM47.8 73.7c.1.1.3.2.4.4.6-.7 1.2-1.4 1.7-2 .5-.6.9-1.2 1.2-1.7.1-.2.2-.4.3-.5.1-.2.2-.3.3-.5.1-.1.1-.2.2-.2 0 0 0-.1.1-.1 0 0 0-.1.1-.1v-.1l.1-.1.1-.1v-.1c0-.1 0 0 0 0s0-.1.1-.1l.1-.1v-.1l.1-.1.1-.1V68h-.6c-.1 0-.1 0-.2.1h-.1l-.1.1s0 .1-.1.1v.1l-.1.1-.1.1c-.1.1-.1.2-.2.2l-.1.1c-.1.1-.1.1-.1.2-.2.2-.4.5-.5.8-.1.2-.1.2 0 0-.1.2-.3.4-.4.7-.3.5-.6 1-1.1 1.5-.4.6-.8 1.1-1.2 1.6zM50.3 76.3c.1.1.1.2.2.2l.1.1.2.2c.2-.7.4-1.5.5-2.3.1-.8.2-1.5.5-2.1 0-.1.1-.3.1-.4.1-.4.3-.8.4-1.2.1-.2.1-.4.2-.5 0-.1.1-.2.1-.3v-.2c0-.1.1-.2.1-.4V69c0-.1 0-.1.1-.2 0-.1-.1-.1-.1-.2s-.1-.1-.1-.2v-.1.1c0 .1 0 .1-.1.2V68.9c0 .1-.1.2-.1.2 0 .1 0 .1-.1.2v.2c-.2.7-.4 1.3-.7 2l-.3 1.2c-.1.4-.1.8-.2 1.2-.5 1-.6 1.7-.8 2.4z"/><path d="m51.4 77.6.3.3c.1.1.2.1.3.1l.3-2.1c.1-.8.1-1.7.1-2.5 0-.7.1-1.4.1-2.2V66.8s-.1 0-.1.1c-.1 0-.1.1-.2.1h-.1s-.1 0-.1.1h-.1V71.1c0 .3 0 .6-.1.9-.1 1.2-.1 2.5-.2 3.7.1.7 0 1.3-.2 1.9z"/><path d="M49.5 75.4c.1.2.3.3.4.5.1-.3.2-.6.4-.9.2-.7.4-1.3.7-2 .3-.8.6-1.6.8-2.4.1-.2.1-.3.2-.5 0-.1.1-.2.1-.3V69.5c0-.1.1-.2.1-.3V68c0-.1 0 0 0 0v-.8c0-.1.1-.3.1-.4 0-.1.1-.3.1-.4-.1 0-.2 0-.3.1H52c-.1 0-.2 0-.3.1V69.4c-.1.2-.1.4-.2.7 0 .1-.1.3-.1.4-.5 1.5-1 3-1.5 4.4-.2 0-.3.3-.4.5z"/><path d="M51.9 66.9v2.2-.1 1c.1.3.1.6.1.9.1.4.1.9.1 1.3v4.7c0 .5 0 .9-.1 1.4l.6.3c.1-.6.1-1.1.1-1.7v-.2c0-1.5 0-3-.1-4.4v-.5c0-.5-.1-1-.1-1.4V69.3c0-.1 0-.2-.1-.3V66.6l-.1.1c-.1 0-.1.1-.1.1h-.1c-.1.1-.1.1-.2.1z"/><path d="M47 73.2c.1.1.3.2.4.4.1-.1.2-.2.3-.4.4-.6.8-1.1 1.3-1.6.6-.6 1.1-1.1 1.5-1.7.3-.4.3-.4 0 0 .2-.3.5-.5.7-.8l.1-.1.1-.1.2-.2.1-.1v-.1l.1-.1s.1 0 .1-.1l.1-.1v-.1l.1-.1H51.3l-.1.1c-.1.1-.1.2-.2.2l-.6.6c-.2.2-.3.4-.5.6-.5.6-.9 1.1-1.4 1.6-.6.9-1 1.5-1.5 2.1zM46.2 72.6c.1.1.3.2.4.3.5-.4.9-.8 1.3-1.2.5-.6 1-1.1 1.6-1.5.3-.2.6-.5.8-.7l.6-.6.2-.2.1-.1.1-.1c.1 0 .1-.1.1-.1l.1-.1.1-.1.1-.1.1-.1.1-.1.1-.1h-.7l-.1.1s0 .1-.1.1l-.3.3-.1.1-.2.2-.1.1-.1.1-.1.1-.4.4-.4.4c-.2.1-.3.3-.5.4-.3.2-.5.4-.8.7-.4.3-.7.7-1 1-.2.1-.5.4-.9.8zM52.6 67.4c0 .1 0 .1 0 0 .1.2.1.2.1.3v.5s0 .1.1.1V68.6s0 .1.1.1v.1c0 .1 0 0 0 0s0 .1.1.1V69.2l.1.1c.1.1.2.3.3.4l.1.1.1.1s.1 0 .1.1l.2.1c.2.2.5.4.7.6l.1.1c.1.1.2.2.2.3.3.5.5 1.1.8 1.8.3.7.5 1.4.9 2 .3.5.5 1.1.8 1.7.3.6.5 1.3.9 1.9.3.5.6 1.1.9 1.6.2 0 .5 0 .7-.1-.4-.8-.9-1.5-1.3-2.3-.3-.5-.5-1.1-.8-1.7-.3-.7-.6-1.3-.9-1.9-.3-.5-.5-1.1-.8-1.8 0-.1-.1-.2-.1-.3-.1-.2-.2-.4-.2-.6-.1-.3-.2-.6-.4-.9 0-.1-.1-.1-.1-.2s-.1-.2-.1-.2c-.1-.1-.1-.1-.1-.2l-.2-.2c-.2-.2-.4-.4-.6-.5l-.1-.1c-.1 0-.1-.1-.1-.1l-.1-.1-.2-.2-.1-.1-.1-.1s0-.1-.1-.1c-.1-.1-.1-.1-.1-.2v-.1s0-.1-.1-.1c0 0 0-.1-.1-.1v-.1c0-.1-.1-.1-.1-.2s-.1-.1-.1-.2-.1-.1-.1-.2c-.1 0-.1.1-.1.1s-.1 0-.1.1c0-.1 0-.1-.1 0 .1 0 0 0 0 0zM54.6 67.3l.1.1s0 .1.1.1l.3.3.1.1.1.1c.1.1.3.2.4.3.1.1.1.1 0 0 .1.1.2.1.3.2.2.1.4.3.5.5 0 0 0 .1.1.1.1.1.1.2.2.2 0 .1.1.1.1.2 0 0 0 .1.1.1 0 .1.1.2.1.2 0 .1.1.1.1.2.1.1.1.2.2.4s.2.5.3.7c0 .1.1.2.1.3 0 .1.1.2.1.2.1.2.1.3.2.5 0 .1.1.2.1.3.1.3.2.5.4.7.1.1.1.2.2.4l.1.1c.2.4.4.9.6 1.4.1.1.1.2.1.3.2.5.4 1 .6 1.4.5.9 1 1.8 1.6 2.7-.2 0-.4.1-.6.1L60 77.4c-.3-.6-.6-1.2-.9-1.9-.3-.6-.5-1.2-.8-1.7 0 0 0-.1-.1-.1l-.6-1.2c-.1-.2-.2-.5-.3-.7-.1-.3-.2-.6-.4-.9-.1-.1-.1-.3-.2-.4-.1-.2-.1-.3-.2-.5s-.2-.3-.4-.5l-.2-.2c-.1-.1-.2-.2-.4-.3l-.1-.1-.1-.1h-.1s-.1 0-.1-.1l-.1-.1c-.2-.1-.3-.3-.4-.4l-.1-.1c0-.1-.1-.1-.1-.2v-.1c0-.1-.1-.1-.1-.2s-.1-.1-.1-.2v-.1s0-.1-.1-.1c0-.1-.1-.2-.1-.2v-.5l-.1-.2v-.1s.1 0 .1-.1c.1-.1.2-.2.3-.2l.1-.1v.1c0 .1 0 .1.1.1v.1c.1.2.1.3.2.5-.2.6-.2.6-.1.7z"/><path d="M51.7 67.9v.5c0 .1 0 .1.1.2v.5c0 .1 0 .2.1.2v.1c0 .1 0 0 0 0v.1c0 .1.1.2.1.3v.1c.1.2.1.3.2.5 0 .1.1.1.1.2.1.3.3.7.4 1 .1.2.1.4.2.7.3 1.5.7 3 1.1 4.4.2.7.2 1.4.4 2.2v.2c.2.1.4.2.6.2 0-.2-.1-.4-.1-.7-.1-.8-.2-1.6-.4-2.4-.4-1.5-.7-2.9-1.1-4.4-.1-.6-.3-1.1-.5-1.6 0-.1-.1-.2-.1-.3 0-.1-.1-.2-.1-.2v-.1c0-.1 0-.1-.1-.2V69.1c0-.1-.1-.2-.1-.4v-.1c0-.1 0-.1-.1-.2v-.1c0-.1 0-.1-.1-.2 0-.1 0-.1-.1-.2V67.6h-.4c0 .2 0 .2-.1.3 0-.1 0-.1 0 0zM52.6 68.3c.1 0 .1.1 0 0l.1.1.1.1.1.1.1.1h.1l.1.1v.1l.5.5v.1l.1.1v.1l.1.1s0 .1.1.1c.2.5.4 1.1.6 1.8.2.7.4 1.5.7 2.1.2.5.4 1.1.6 1.8.2.7.4 1.4.7 2 .4.8.7 1.5 1.1 2.2.3 0 .5 0 .8.1l-1.5-3c-.2-.5-.4-1.1-.7-1.8-.2-.7-.4-1.4-.7-2-.2-.5-.4-1.2-.6-1.8-.1-.2-.1-.5-.2-.7 0-.2-.1-.3-.1-.4 0-.1-.1-.2-.1-.3v-.1s0-.1-.1-.1v-.1c0-.1-.1-.1-.1-.2s-.1-.1-.1-.2c0 0 0-.1-.1-.1l-.1-.1c0-.1-.1-.1-.1-.2s-.1-.1-.1-.2l-.1-.1-.1-.1s0-.1-.1-.1c0-.1-.1-.1-.1-.1l-.1-.1-.1-.1-.1-.1s-.1 0-.1-.1l-.1-.1c-.1 0-.1.1-.1.1s-.1 0-.1.1h-.2l-.1.1c.3.2.2.3.1.3.1 0 .1 0 0 0z"/><path d="M52.2 68.8c.1.1.1.1 0 0l.3.3.1.1.1.1v.1l.1.1.1.1c.1.1.1.2.1.2.1.1.1.2.1.2v.1c.2.6.4 1.2.6 1.9.2.8.4 1.6.7 2.3.2.6.4 1.3.7 2 .2.7.4 1.5.8 2.2.2.3.3.7.5 1.1.3.1.6.1.8.2-.3-.6-.6-1.2-.9-1.9-.3-.6-.5-1.3-.7-2-.2-.7-.4-1.5-.7-2.1-.3-.6-.4-1.3-.6-2.1-.1-.6-.3-1.2-.5-1.8 0-.1-.1-.2-.1-.2V69.4c-.1-.1-.1-.2-.2-.3V68.8c0-.1-.1-.1-.1-.1s0-.1-.1-.1l-.1-.1-.2-.2c.1 0-.1.1-.1.1s0 .1-.1.1l-.1.1c-.4.1-.5.1-.5.2 0-.1 0 0 0 0zM53 67.6c0-.1 0-.1 0 0 .1-.1.1-.1.2-.1h.1s.1 0 .1-.1c0 0 .1 0 .1-.1 0 0 .1 0 .1-.1.1 0 .1-.1.2-.1 0 0 0-.1.1-.1 0-.1 0-.1.1-.2 0-.1.1-.1.1-.2v-.1c.1-.2.1-.3.2-.5.1-.1.1-.2.2-.4s.1-.4.2-.6c.1-.3.2-.5.2-.8.2-.6.3-1.2.6-1.7.5-1 .9-2 1.4-3.1-.2-.1-.3-.1-.5-.2-.3.6-.6 1.3-.9 1.9-.2.5-.5 1-.7 1.5-.3.7-.5 1.3-.7 1.9-.1.3-.1.5-.2.8-.1.3-.2.6-.3.8l-.3.6c0 .1-.1.1-.1.2v.1c-.1.4-.1.4-.2.6 0-.1 0-.1 0 0z"/><path d="M53.6 67.1c.1 0 .1-.1.2-.1 0 0 .1 0 .1-.1.1 0 .1-.1.2-.1h.2s.1 0 .1-.1c.2-.4.5-.9.7-1.3.1-.2.2-.4.3-.7.1-.1.1-.2 0 0 .3-.7.6-1.2.9-1.9.4-.7.7-1.4 1-2.1.2-.4.3-.8.5-1.1-.2-.1-.3-.1-.5-.2-.3.5-.5 1.1-.7 1.6-.3.6-.5 1.2-.9 1.9s-.7 1.4-1 2c-.1.1-.1.2-.1.3-.2.5-.5.9-.7 1.4 0 0 0 .1-.1.1v.1c-.2.1-.2.2-.2.3z"/><path d="M53.7 67.6h.7v-.1c0-.1.1-.2.1-.2v-.1c.1-.2.2-.4.4-.6 0 0 0-.1.1-.1l.1-.2.6-.9c.2-.3.3-.5.5-.8l.6-.9c.3-.4.5-.8.7-1.2.4-.7.7-1.3 1.2-1.9l.1-.2c.1-.1.1-.2.2-.3-.1 0-.1-.1-.2-.1s-.2-.1-.3-.1c-.1.1-.2.2-.3.4l-.1.2c-.5.7-.9 1.4-1.3 2.1-.4.7-.7 1.3-1.1 1.9l-.6.9c-.2.4-.5.8-.7 1.2 0 0 0 .1-.1.1s0 .1-.1.1c-.1.1-.1.2-.2.2 0 .1-.1.1-.1.2-.1.2-.2.3-.2.4zM53.3 68.1c.1.1.1.2.2.2l.1.1v.1l.1.1.1.1H54.1c.1 0 .2-.1.2-.1.1 0 .1 0 .1-.1h.1c.2-.1.4-.2.6-.2h.4c.7-.3 1.4-.6 2-.8.1 0 .3-.1.4-.1 1.4-.4 2.7-.8 4.1-1.2.7-.2 1.4-.3 2.2-.4.4-.1.7-.1 1.1-.2-.1-.2-.3-.4-.4-.5-.2 0-.4.1-.5.1-.8.1-1.6.3-2.4.5-.8.2-1.6.4-2.4.7l-2.1.6c-.2.1-.4.1-.7.2-.4.2-.9.3-1.3.5-.1 0-.2.1-.2.1-.1 0-.1 0-.1.1-.1 0-.1.1-.2.1h-.2c-.2.1-.3.1-.5.2h-.1c-.1 0-.2.1-.3.1h-.4c-.1-.3-.1-.3-.2-.2 0-.1 0 0 0 0z"/><path d="M53 68.1s.1.1.2.1l.1.1.1.1s.1 0 .1.1h.5c.1 0 .1-.1.2-.1s.1 0 .1-.1h.1c.1 0 .2-.1.3-.1.1-.1.2-.1.3-.1.1 0 .1-.1.1-.1.2-.1.3-.2.5-.2l.6-.3c.1 0 .2-.1.2-.1.6-.3 1.2-.6 1.8-.8.4-.2.8-.3 1.2-.4 1-.4 2-.7 3-1.1l.2-.1c.6-.2 1.1-.3 1.7-.5l-.5-.5c-.5.1-1 .3-1.5.5l-.2.1-4.2 1.5c-.2.1-.4.1-.5.2-.6.2-1.2.5-1.7.8-.1.1-.2.1-.3.1-.2.1-.3.2-.5.2-.1.1-.2.1-.3.2h-.2c-.2.1-.3.1-.5.2h-.1c-.1 0-.2.1-.3.1h-.1s-.1 0-.1.1h-.6c.4.1.4.1.3.1z"/><path d="M54.2 67.9c0 .1.1.2.1.2v.1c0 .1.1.1.1.2 0 0 .1 0 .1-.1 0 0 .1 0 .1-.1.1-.1.3-.2.4-.3 0 0 .1 0 .1-.1 0 0 .1 0 .1-.1.1-.1.2-.2.3-.2.2-.1.3-.3.5-.4.1-.1.3-.2.4-.3l.2-.2c.3-.2.6-.5.8-.7.2-.2.4-.3.6-.4 1.3-.8 2.6-1.6 3.8-2.5.2-.2.5-.3.8-.5-.2-.2-.3-.3-.5-.4-.3.2-.6.3-.9.5-1.3.8-2.6 1.6-3.8 2.5-.7.4-1.2.9-1.8 1.4-.2.2-.5.4-.7.6-.1.1-.1.1-.2.1l-.1.1h-.2c.2.4 0 .5-.2.6.1 0 0 0 0 0z"/><path d="M54.6 67.3s-.1 0 0 0c-.1 0-.1-.1-.1-.1-.1-.1-.3-.2-.4-.3l-.1-.1c0-.1 0-.1.1-.2 0-.1.1-.1.1-.2v-.1c.1-.2.1-.3.2-.5 0-.1.1-.2.1-.2.1-.2.3-.4.5-.6.1-.1.3-.3.5-.4l.2-.2s.1 0 .1-.1c.3-.2.6-.4.9-.7 0 0 .1 0 .1-.1.6-.4 1.1-.7 1.4-1.1.5-.5 1.1-.9 1.6-1.3.2-.1.4-.3.5-.4.2.1.4.2.6.4-.2.1-.3.2-.5.4-.6.4-1.1.8-1.5 1.2-.5.5-1.1.9-1.7 1.3-.6.4-1.1.8-1.5 1.2-.3.3-.4.6-.6.9v.1l-.5 1.1z"/><path d="m54.6 67.4.1.1s.1 0 .1.1c.1 0 .1.1.2.1s.1.1.2.1l.2-.4v-.1l.1-.2c.1-.1.1-.2.2-.4s.2-.3.4-.4c.4-.4 1.1-.8 1.7-1.2.7-.4 1.4-.9 1.9-1.4.5-.4 1-.8 1.6-1.3.2-.1.3-.2.5-.3-.2-.1-.4-.3-.5-.4-.2.1-.4.3-.5.4-.6.4-1.3.9-1.8 1.4-.5.4-1.1.8-1.7 1.3-.7.4-1.4.9-1.9 1.4l-.4.4-.1.1-.1.1c-.1.2-.2.4-.4.6v.1c.1-.2.1-.2.2-.1zM52.2 68.7s0 .1 0 0v.2c0 .1.1.2.1.2v.1h.5c.1 0 .2 0 .3.1.1 0 .3 0 .5.1H56c.3 0 .5 0 .7.1.2 0 .4 0 .5.1h.1c.8.1 1.5.2 2.2.2h.4c.6 0 1.1.1 1.7.1l4.2.6c.6.1 1.2.2 1.8.4v-.5c-.5-.1-1.1-.3-1.6-.3l-4.2-.6c-.8-.1-1.5-.2-2.2-.2-.7 0-1.3-.1-2-.2h-.1c-.4-.1-.7-.1-1.1-.1H52.6c-.2-.2-.2-.2-.4-.3.1.1.1.1 0 0z"/><path d="M53 68.2s0 .1 0 0v.5h.2c.1 0 .1 0 .2.1h.2c.1 0 .2 0 .3.1H56.6c.7 0 1.4-.1 2 0 .8.1 1.5.1 2.2 0h2.4c1.3.1 2.5.2 3.8.3h.3c-.1-.2-.1-.3-.2-.5H67c-1.3-.1-2.5-.2-3.8-.3h-.4c-.8-.1-1.5-.1-2.2 0h-2c-.8-.1-1.5 0-2.3 0H53.4s-.1 0-.2-.1c0 0-.1 0-.2-.1.1.1 0 .1 0 0z"/><path d="M53.2 68.1v.5h1.5c.2 0 .5 0 .7-.1h.3c.8 0 1.5-.1 2.2-.1.7-.1 1.3-.1 2-.1h4.2c.6 0 1.3.1 2 .2.3 0 .6.1.9.1-.1-.2-.1-.3-.2-.5-.2 0-.3-.1-.5-.1-.7-.1-1.5-.2-2.3-.2h-4.2c-.8 0-1.5.1-2.2.1-.7.1-1.3.1-1.9.1H54.8c-.2 0-.4 0-.6.1h-.1L54 68H53.2c.1.1 0 .1 0 .1z"/><path d="M52 67.9v.6H54.1c.1 0 .2-.1.3-.1H54.7c.1 0 .2 0 .3-.1.1 0 .2-.1.4-.1h.1c.2 0 .4-.1.6-.1.2 0 .4-.1.6-.1.7 0 1.4-.2 2.1-.3.7-.1 1.3-.2 2-.3 1.3-.1 2.7-.1 4-.2h.2c.6 0 1.2 0 1.8.1l-.3-.6c-.6-.1-1.1-.1-1.7-.1h-.2c-1.3.1-2.7.1-4 .2-.8 0-1.5.2-2.1.3h-.2c-.4.1-.9.2-1.3.2h-.4c-.3 0-.5 0-.8.1h-.2c-.1 0-.2 0-.3.1H55c-.1 0-.2 0-.3.1-.1 0-.2 0-.2.1H53.6c-.1 0-.1 0-.2.1H52.5l-.5.1zM41.1 61c.4.2.7.4 1 .7 1.2.8 2.4 1.7 3.6 2.6.5.3.9.7 1.4 1.2l.2.2.3.3c.3.3.6.6 1 .8.1 0 .1.1.1.1.1.1.2.2.3.2.1.1.3.2.4.3 0 0 .1 0 .1.1l.1.1c.1.1.2.1.2.2l.2.2c.1.1.3.2.4.4l.1.1.1.1.1.1.2.2.1.1.2.2.1.1.1.1.1.1.2.2s.1 0 .1.1h.2l.1.1c.1 0 .1.1.2.1 0 0 .1 0 .1.1.1.1.1.1.2.1.1.1.2.1.3.2h.2c.1-.1.3-.1.4-.2-.1-.1-.2-.1-.3-.2-.2-.1-.3-.2-.5-.3h-.1l-.1-.1-.1-.1-.1-.1-.1-.1-.2-.2-.1-.1s-.1 0-.1-.1l-.2-.2-.1-.1h-.1l-.1-.1-.1-.1-.1-.1-.1-.1s0-.1-.1-.1l-.1-.1-.2-.2-.1-.1c-.1 0-.1-.1-.1-.1l-.1-.1-.1-.1-.1-.1c-.1-.1-.3-.2-.4-.4-.1 0-.1-.1-.1-.1l-.2-.2s-.1 0-.1-.1c-.5-.4-1-.8-1.5-1.3-.6-.5-1.1-1-1.8-1.5-1.2-.9-2.4-1.7-3.5-2.6l-.9-.6c-.2.2-.4.3-.5.5z"/><path d="M42.3 60c1 .8 1.9 1.6 2.9 2.3l.4.3c.5.4 1 .9 1.5 1.4.5.5 1.1 1.1 1.7 1.6.4.3.8.7 1.2 1.1.1.1.1.1.1.2l.1.1.1.1.1.1.1.1.2.2.1.1c0 .1.1.1.1.1.1.1.1.1.1.2l.1.1h.1l.1.1.1.1h.1l.1.1.1.1.1.1h.1l.1.1.1.1.1.1s.1 0 .1.1c0 0 .1 0 .1.1l.1.1c.1 0 .1.1.2.1l.1.1s.1 0 .1.1l.1.1s.1 0 .1.1h.1l.1-.1h.1l.1-.1s-.1 0-.1-.1c-.1 0-.1-.1-.2-.1h-.1s-.1 0-.1-.1c-.1 0-.1-.1-.2-.1l-.1-.1h-.2c-.1 0-.1-.1-.2-.1l-.1-.1s-.1 0-.1-.1l-.1-.1-.1-.1-.1-.1h-.1l-.2-.2-.1-.1-.1-.1-.1-.1-.1-.1-.1-.1c-.1-.1-.1-.1-.1-.2-.5-.5-.9-1-1.5-1.5-.5-.4-1-.9-1.5-1.4-.5-.5-1.1-1.1-1.7-1.6l-.7-.9c-.9-.8-1.9-1.5-2.8-2.3-.2.1-.3.2-.4.3z"/><path d="M43.3 59.4c.1.1.3.2.4.3.6.4 1.1.9 1.6 1.3.9.9 1.9 1.8 2.8 2.7l.3.3c.5.5.9.9 1.4 1.5.3.4.7.8 1.1 1.2l.3.3.1.1.1.1c.1 0 .1.1.1.1.1 0 .1.1.1.1l.1.1.1.1v.1l.1.1v.2c.1.1.1.1.1.2l.1.1v.1c.1.1.1.2.2.3l.1.1c0 .1.1.1.1.2h.1c.1 0 .1-.1.1-.1h.2l.1-.1-.2-.2s0-.1 0 0l-.1-.1s0-.1-.1-.1v-.1l-.1-.1s0-.1-.1-.1l-.1-.1s0-.1-.1-.1l-.1-.1-.1-.1c-.1-.1-.1-.1-.1-.2l-.1-.1.2-.2s0-.1-.1-.1l-.1-.1-.1-.1s0-.1-.1-.1-.1-.1-.1-.1l-.1-.1-.1-.1c-.4-.4-.7-.7-1-1.1-.5-.5-.9-1.1-1.5-1.6l-.3-.3c-.9-.9-1.9-1.8-2.8-2.7l-1.8-1.5c-.1 0-.1-.1-.2-.1s-.3.1-.4.2z"/><path d="M44.6 58.9c.4.3.8.7 1.1 1l.1.2c.9 1 1.9 2 2.8 3 .5.5.8 1 1.2 1.6.4.6.8 1.2 1.4 1.7l.1.1s0 .1.1.1l.1.1.1.1s0 .1.1.1 0 .1 0 .1l.1.1.1.1c0 .1.1.1.1.2 0 0 0 .1.1.1v.1l.1.1.1.1s0 .1.1.1c0 .1.1.1.1.2 0 0 0 .1.1.1l.1.1v.1l.1.1v.1l.1.1s0 .1.1.1v.1c0 .1.1.1.1.1l.1.1c.1.1.1.1.1.2 0 0 0 .1.1.1l.1.1.1.1c0 .1.1.1.1.1l.1.1.1-.1.1-.1.2-.2-.1-.1-.1-.1c-.1-.1-.1-.1-.1-.2 0 0 0-.1-.1-.1 0 0 0-.1-.1-.1l-.1-.1c-.1-.1-.1-.2-.2-.2 0 0 0-.1-.1-.1l-.1-.1s0-.1-.1-.1c0 0 0-.1-.1-.1l-.1-.1v-.2s0-.1-.1-.1l-.1-.1s0-.1-.1-.1l-.1-.1v-.1c0-.1-.1-.1-.1-.1s0-.1-.1-.1l-.1-.1s0-.1-.1-.1c0-.1-.1-.1-.1-.2v-.2l-.1-.1c0-.1-.1-.1-.1-.2l-.1-.1c0-.1-.1-.1-.1-.2l-.1-.1-.1-.1c-.1-.1-.1-.1-.1-.2-.1-.1-.1-.1-.1-.2-.1-.2-.2-.3-.4-.4-.1-.1-.2-.2-.2-.3-.1-.2-.2-.3-.3-.5-.2-.2-.4-.5-.5-.7-.2-.3-.5-.7-.8-1-.9-1-1.9-2-2.8-3l-.1-.2-1-1c0 .5-.3.6-.5.7z"/><path d="M40.1 64.5c0 .2 0 .4.1.6.5.1 1.1.3 1.6.5.7.2 1.5.5 2.3.7.5.1 1 .2 1.4.3 1 .2 2.1.4 3.1.7.1 0 .3.1.5.1h.6c.2 0 .4.1.5.1H52.9c0-.1 0-.1-.1-.2v-.1c0-.1 0-.1-.1-.2v-.1H50.8c-.3 0-.5 0-.8-.1H49.7c-.2 0-.4-.1-.6-.1h-.2c-.1 0-.2 0-.3-.1-.2-.1-.4-.1-.7-.1-.1 0-.2-.1-.4-.1-1.1-.2-2.2-.5-3.3-.7l-2.1-.6c-.6-.2-1.3-.4-2-.6z"/><path d="M40.4 66c.1.2.1.4.2.6h.1c.8.1 1.6.3 2.4.3h.3c1.5.1 3 .2 4.4.3H53.3s0-.1-.1-.1V67c0-.1-.1-.1-.1-.2s-.1-.1-.1-.2c0 0 0-.1-.1-.1h.1H47.8c-.8-.1-1.5-.1-2.3-.2-.7 0-1.4-.1-2.1-.1h-.2c-.7-.1-1.4-.2-2.2-.3-.3.2-.4.2-.6.1zM44.4 71.5c.2.1.5.2.7.4.5-.3 1.1-.5 1.8-.8.5-.2 1-.4 1.4-.6l.6-.3c.4-.2.6-.5.8-.8.1-.1.2-.3.2-.4l.1-.1c.1-.1.1-.1.1-.2v-.1c.1-.1.2-.2.3-.4.1-.1.1-.2.2-.2l.1-.1h.4c.1-.1.2-.1.3-.2h.5l-.1-.1-.2-.2s0-.1-.1-.1-.1.1-.2.1h-.1c-.1 0-.1.1-.2.1s-.1.1-.2.1c0 0-.1 0-.1.1l-.1.1s-.1 0-.1.1c-.1 0-.1.1-.1.1h-.1s-.1 0-.1.1H50c-.1.1-.3.2-.4.3l-.1.1c-.1.2-.2.3-.3.5l-.2-.2v.1c-.1.2-.3.5-.5.7-.1.1-.2.2-.4.3-.4.3-1.1.6-1.8.8-.7.3-1.3.5-1.9.8z"/><path d="m41.2 68.1.3.6h1.8c1.5-.1 3-.3 4.5-.4.6 0 1.1-.2 1.7-.3.2-.1.4-.1.6-.1.1 0 .1 0 .2-.1h.1c.1 0 .2 0 .2-.1h.1c.1 0 .2 0 .3-.1H51.9V66.8h-.1.2-1.2c-.1 0-.2 0-.4.1H50c-.2 0-.4.1-.5.1H49.2c-.6.1-1.2.3-1.8.3-1.5.1-3 .3-4.6.4-.3.5-1 .5-1.6.4zM42.4 70.2c.1.2.3.4.4.6.1-.1.3-.1.4-.2.6-.2 1.2-.3 1.9-.4s1.4-.2 2.1-.4c.4-.1.8-.2 1.2-.2.2 0 .5-.1.7-.1H49.7c.2 0 .4-.1.7-.1.2-.1.5-.1.7-.2H51.4c.1 0 .1 0 .1-.1.1 0 .1-.1.2-.1 0 0 .1 0 .1-.1h.1s.1 0 .1-.1.1-.1.1-.1l.1-.1s.1 0 .1-.1l.1-.1.1-.1c0-.1-.1-.1-.1-.2 0 0 0-.1-.1-.1 0-.1-.1-.1-.1-.2v-.1s0-.1-.1-.1H52l-.1.1s-.1 0-.1.1c0 0-.1 0-.1.1l-.1.1s0 .1-.1.1c0 0-.1 0-.1.1-.1 0-.1.1-.1.1l-.1.1-.1.1H51s-.1 0-.1.1c-.1.1-.2.1-.4.2 0 0-.1 0-.1.1-.1 0-.2.1-.3.1-.1 0-.1 0-.2.1-.4.1-.8.1-1.3.2h-.1c-.7.1-1.5.2-2.2.4-.5.2-1.2.3-1.9.4-.7.1-1.4.2-2.1.4.3-.4.2-.4.1-.3z"/><path d="M41.9 69.3c.1.2.2.4.4.6.4-.1.8-.1 1.3-.2.8-.1 1.5-.2 2.2-.4.6-.2 1.4-.2 2.1-.3.4 0 .7-.1 1.1-.1.4-.1.8-.1 1.2-.2h.1c.1 0 .2-.1.3-.1.1 0 .1-.1.2-.1.1-.1.3-.1.4-.2H51.5c.1 0 .1-.1.2-.1 0 0 .1 0 .1-.1s-.1-.1-.1-.1 0-.1-.1-.1v-.1s-.1-.1-.1-.2l-.1-.1c-.1 0-.1.1-.1.1-.1 0-.1.1-.2.1H51l-.1.1c-.1 0-.1.1-.2.1h-.1l-.1.1c-.2.1-.3.2-.5.2h-.1c-.6.1-1.2.2-1.9.3-.8.1-1.6.2-2.4.4-.6.2-1.3.3-2.1.4-.7-.1-1.2 0-1.6 0zM39.7 69.9c.1.1.2.1.4.2l-.4-.2z"/><path d="M40.1 63.5c.1 0 .1.1.2.1.6.3 1.3.5 2 .8.7.2 1.3.4 1.8.7.6.3 1.3.5 1.9.8.6.2 1.1.4 1.6.6.1 0 .1.1.2.1.1.1.3.2.5.2.4.2.8.4 1.1.6h.2c.1 0 .1.1.2.1.1.1.2.1.3.2.1.1.2.1.3.2h.1c.1.1.3.1.4.2.1 0 .1.1.2.1s.1 0 .1.1c0 0 .1 0 .1.1h.1s.1 0 .1.1l.1.1s.1 0 .1.1h.2l.1.1.1.1s.1 0 .1.1c0 0 .1 0 .1.1 0 0 .1 0 .1.1l.1.1.1.1s.1 0 .1.1h.1s0 .1.1.1c.2.1.4.3.6.4.1.1.2.1.4.2 0 0 0-.1.1-.1 0 0 0-.1.1-.1 0 0 0-.1.1-.1l.1-.1.1-.1v-.1c-.1 0-.1-.1-.1-.1-.2-.1-.3-.2-.5-.4h-.2l-.1-.1-.1-.1h-.1l-.1-.1-.1-.1-.1-.1-.1-.1s-.1 0-.1-.1c-.1 0-.1-.1-.2-.1 0 0-.1 0-.1-.1H52.2c-.1 0-.1-.1-.2-.1h-.2s-.1 0-.1-.1c0 0-.1 0-.1-.1-.1 0-.1-.1-.2-.1-.1-.1-.2-.1-.3-.2-.1 0-.2-.1-.2-.1-.1 0-.1-.1-.2-.1-.1-.1-.3-.1-.4-.2-.1 0-.2-.1-.2-.1-.3-.2-.7-.4-1-.5-.3-.2-.6-.3-.9-.4-.3-.1-.7-.3-1-.4-.6-.2-1.3-.4-1.8-.7-.1-.1-.3-.1-.4-.2-.1 0-.1 0 0 0-.5-.2-1.1-.4-1.6-.6-.7-.2-1.3-.4-1.8-.7-.3-.2-.6-.4-.8-.6-.6 0-.7.3-.7.5z"/><path d="M40.5 62c.3.2.7.5 1 .6.6.3 1.3.8 1.9 1.2.3.2.7.5 1 .7.2.1.2.2 0 0 .3.2.7.4 1 .6.8.4 1.7.9 2.5 1.4.2.1.3.2.5.3.3.2.7.4 1 .6l.1.1c.1.1.2.1.4.2.1.1.2.1.3.2h.1c.1.1.2.1.4.2.1 0 .1 0 .2.1h.2c.1 0 .1 0 .2.1h.6c.1 0 .1.1.2.1 0 0 .1 0 .1.1H52.5c.1 0 .1.1.2.1 0 0 .1 0 .1.1 0 0 .1 0 .1.1.1 0 .1.1.2.1 0 0 0-.1.1-.1 0-.1.1-.1.1-.1v-.1s0-.1.1-.1h-.1l-.1-.1s-.1 0-.1-.1H53c-.1 0-.1-.1-.2-.1h-.2s-.1 0-.1-.1h-.1c-.1 0-.1 0-.1-.1h-.7s-.1 0-.1-.1H51c-.1 0-.1-.1-.2-.1h-.2c-.1 0-.1-.1-.2-.1h-.1c-.1 0-.2-.1-.2-.1-.2-.1-.3-.1-.5-.2h-.1c-.1-.1-.2-.1-.3-.2-.1 0-.1-.1-.1-.1-.1-.1-.2-.1-.3-.2-.7-.4-1.4-.8-2.2-1.2-.5-.3-1-.6-1.6-.8-.6-.3-1.2-.8-1.9-1.2-.7-.5-1.4-1-2.1-1.3-.3-.1-.5-.3-.8-.5.4-.3.4-.1.3.1z"/><path d="M52.7 69.4H53c.1 0 .3 0 .4.1H56.9c.4 0 .7.1 1.1.2.1 0 .3.1.4.1 1.1.3 2.1.6 3.2.9.6.2 1.2.4 1.8.7.6.3 1.3.6 1.9.8.6.2 1.1.5 1.8.8.1.1.2.1.3.2 0-.1.1-.2.1-.3 0-.1.1-.2.1-.3-.1-.1-.3-.1-.4-.2-.7-.3-1.3-.7-2-.9-.6-.2-1.1-.4-1.8-.7-.7-.3-1.3-.6-2-.8-.4-.1-.9-.2-1.3-.4-.8-.2-1.5-.4-2.3-.6h-.2c-.4-.1-.8-.2-1.2-.2h-.6c-.3 0-.5 0-.8-.1h-.2c-.1 0-.2 0-.4-.1h-.2c-.1 0-.3-.1-.4-.1h-.7s0 .1-.1.1c0 0 0 .1-.1.1l-.1.1V69.1s0 .1-.1.1v.2c0-.1 0-.1 0 0 0-.1 0-.1 0 0z"/><path d="M52.4 68c.1 0 .1 0 0 0h.6c.1 0 .1 0 .2.1h.2s.1 0 .1.1c.1 0 .1 0 .2.1h.1s.1 0 .1.1h.1s.1 0 .1.1c.2.1.4.2.5.3.1.1.1.1.2.1 0 0 .1 0 .1.1s.1 0 .1.1c0 0 .1 0 .1.1s.1 0 .1.1c.2.1.5.3.7.4.2.1.3.2.5.3.1.1.3.2.5.2.1 0 .2.1.3.1l1.8.9c.6.3 1.3.7 2 1 1.3.5 2.6 1.1 3.9 1.6.7.3 1.4.5 2.1.7v-.1c.1-.1.1-.3.1-.4-.1 0-.1 0-.2-.1-.7-.2-1.3-.4-1.9-.6-1.3-.6-2.6-1.1-3.9-1.6l-1.8-.9c-.4-.2-.7-.4-1.1-.6-.3-.2-.6-.3-.9-.4h-.1c-.2-.1-.5-.2-.7-.3-.1-.1-.3-.2-.4-.2-.1 0-.1-.1-.1-.1-.1-.1-.3-.2-.4-.2-.1-.1-.3-.2-.5-.3-.1-.1-.2-.1-.3-.2-.1 0-.1-.1-.1-.1-.1 0-.1-.1-.2-.1h-.2c-.1-.2-.2-.3-.3-.3h-.1s-.1 0-.1-.1h-.1c-.1 0-.1 0-.1-.1h-.7l-.1.1-.1.1s-.1 0-.1.1-.1-.2-.2-.1c.1-.1.1-.1 0 0 .1-.1.1-.1 0 0 .1-.1.1-.1 0 0z"/><path d="M52.9 68.8h.5c.1 0 .2.1.3.1h.1c.1 0 .1.1.2.1h.2c.2.1.3.2.5.3.1.1.1.1 0 0l.1.1c.1.1.2.1.3.2.1.1.2.1.3.2.1 0 .1.1 0 0 .1.1.3.2.4.3 0 0 .1 0 .1.1.2.1.4.3.6.4.2.2.5.3.8.4.1.1.3.2.4.2.6.3 1.2.6 1.8 1 .6.4 1.2.8 1.9 1.1l.4.2c1.1.6 2.3 1.1 3.4 1.7.4.2.7.3 1.1.5.1-.1.2-.3.2-.4-.4-.1-.7-.3-1.1-.4-1.1-.6-2.3-1.1-3.4-1.7l-.4-.2c-.6-.3-1.2-.6-1.8-1-.6-.4-1.3-.8-1.9-1.1-.3-.2-.6-.3-.9-.5-.2-.2-.5-.3-.8-.5-.1 0-.1-.1-.2-.1-.1-.1-.2-.2-.4-.2l-.6-.3c-.1-.1-.1-.1-.2-.1l-.1-.1s-.1 0-.1-.1h-.1c-.1-.1-.2-.1-.3-.1-.1 0-.1-.1-.2-.1s-.1-.1-.1-.1h-.2c-.1 0-.2-.1-.2-.1H53.2c-.1 0-.1-.1-.2-.1 0 0-.1 0-.1.1l-.1.1-.1.1c.3-.2.2-.1.2 0 0-.1 0-.1 0 0z"/><path d="M52.9 69c.1.1.1.1.2.1s.1.1.2.1c0 0 .1 0 .1.1.1 0 .1.1.1.1l.1.1.1.1.2.2.1.1.1.1c.2.2.5.4.8.5h.1c.2.1.5.3.7.5.1.1.2.2.3.2.1.1.3.2.4.3.2.2.4.3.6.4.3.2.5.4.8.5.1.1.2.2.4.2h.1l.3.2c1.1.6 2.2 1.3 3.2 1.9.7.4 1.4.7 2.1 1 .7.3 1.3.6 1.8.9.1-.1.1-.2.2-.2 0-.1.1-.1.1-.2-.6-.4-1.3-.7-2-.9-.7-.3-1.3-.6-1.8-.9-1.1-.6-2.2-1.3-3.2-1.9l-.4-.2c-.4-.2-.7-.4-1.1-.7-.2-.1-.4-.3-.6-.4l-.2-.2c-.2-.1-.3-.2-.5-.4s-.4-.3-.6-.4c-.1-.1-.2-.2-.4-.2-.1-.1-.2-.1-.3-.2-.1-.1-.2-.1-.2-.2-.1-.1-.2-.1-.2-.2l-.1-.1-.1-.1-.1-.1c-.1 0-.1-.1-.1-.1l-.2-.2h-.1c-.1 0-.1-.1-.2-.1l-.1-.1-.1-.1c-.1-.1-.1-.1-.2-.1l-.1.1v.1c-.1.3-.2.3-.2.4z"/><path d="M52.6 67.5c.1 0 .1.1.1.1l.1.1.1.1.1.1.1.1.1.1.1.1s0 .1.1.1v.1l.1.1.1.1.1.1c.1.1.1.2.2.2l.1.1.1.1c.1.1.1.2.2.2l.1.1.1.1c.1.2.3.3.4.5.1.2.3.3.5.5l.2.2.1.1.4.4c.2.2.4.4.6.7.2.3.5.5.7.8.2.3.5.5.8.8.1.1.2.2.4.3l.2.2c.8.7 1.7 1.4 2.5 2.2l.2.1c.6.5 1.2.9 1.9 1.3.4.3.8.5 1.2.8.2-.1.3-.2.4-.4-.4-.3-.8-.6-1.3-.8-.6-.4-1.2-.8-1.7-1.2l-.2-.2c-1-.9-2-1.8-3-2.6-.1-.1-.2-.2-.4-.3l-.6-.6c-.1-.2-.3-.3-.4-.5-.2-.2-.4-.4-.5-.6h-.1c-.2-.3-.5-.5-.8-.8l-.1-.1-.4-.4-.2-.2c-.1-.2-.3-.3-.4-.5l-.1-.1V69l-.1-.1c-.1-.1-.1-.2-.2-.3l-.1-.1-.1-.1-.1-.1-.1-.1c0-.1-.1-.2-.2-.2h-.1l-.1-.1-.1-.1-.1-.1-.2-.2c0-.1-.1-.1-.1-.1l-.1-.1-.1-.1-.1-.1c0 .1-.1.1-.1.1l-.1.1-.1.1v.1z"/><g><path d="M52.7 50.6c.3.2.6.3.9.5 0-.1.1-.3.1-.4.2-.7.4-1.5.5-2.3 0-.7.2-1.3.3-2 .2-.7.3-1.5.4-2.3 0-1.4 0-2.9.1-4.3 0-.8-.2-1.5-.4-2.3-.2-.7-.3-1.4-.3-2 0-.8-.1-1.5-.2-2.3-.1-.7-.2-1.4-.2-2.1-.3.1-.7.2-1 .3 0 .6.1 1.3.2 1.9.1.7.2 1.4.2 2.1 0 .8.2 1.5.4 2.3.2.7.3 1.4.3 2 0 1.5 0 2.9-.1 4.3 0 .7-.2 1.3-.3 2.1-.2.7-.3 1.5-.4 2.2 0 .7-.2 1.3-.4 2-.1.2-.1.2-.1.3zM49.3 32.5c.1.3.1.6.2.9.2.7.3 1.4.4 2.1.1.8.3 1.5.5 2.2.2.7.4 1.4.5 2v.5c.1 1.3.2 2.5.3 3.8.1.7-.1 1.4-.1 2.1-.1.7-.2 1.5-.2 2.3 0 .4 0 .8-.1 1.2.3.2.6.3.9.5.1-.6.2-1.2.2-1.8-.1-.7.1-1.3.1-2.1.1-.8.2-1.5.2-2.3-.1-1.3-.2-2.5-.3-3.8v-.5c-.1-.8-.3-1.5-.5-2.3-.2-.7-.4-1.3-.5-2-.1-.8-.2-1.5-.4-2.2-.1-.3-.2-.7-.2-1-.4.2-.7.3-1 .4z"/><path d="M46.5 33.3c.1.4.2.8.2 1.2.1.7.3 1.5.5 2.2.2.7.4 1.4.5 2 .1.8.4 1.5.7 2.2.3.7.5 1.3.6 2 .2 1.4.4 2.9.6 4.3.1.5 0 1.1 0 1.7.3.2.6.4 1 .6.1-.8.1-1.5 0-2.3-.2-1.4-.4-2.9-.6-4.3-.1-.8-.4-1.5-.7-2.2-.3-.7-.5-1.3-.6-2-.1-.8-.3-1.5-.5-2.2-.2-.7-.4-1.3-.5-2-.1-.5-.2-.9-.3-1.4-.2 0-.6.1-.9.2zM38.2 35.1c.2.3.3.6.4 1 .3.8.7 1.4 1.1 2 .4.6.8 1.2 1 1.8.4 1.1.8 2.3 1.2 3.4l.2.7c.2.5.3 1.1.4 1.7.4.1.7.2 1.1.2-.1-.7-.2-1.5-.5-2.2l-.2-.7c-.4-1.1-.8-2.3-1.2-3.4-.3-.7-.7-1.4-1.1-2-.4-.6-.8-1.2-1-1.8-.1-.3-.2-.5-.3-.8-.4 0-.8.1-1.1.1zM41.6 34.5c.1.2.1.3.1.5.2.8.6 1.5.9 2.1.4.6.7 1.2.8 1.9.4 1.4.7 2.7 1.1 4.1.2.7.2 1.4.3 2.1 0 .4.1.8.1 1.2.4.1.7.3 1.1.5-.1-.6-.2-1.1-.2-1.8 0-.8-.1-1.5-.3-2.3-.4-1.5-.8-2.8-1.1-4.2-.2-.8-.6-1.4-.9-2.1-.4-.7-.7-1.3-.8-1.9 0-.2-.1-.3-.1-.5-.3.3-.7.4-1 .4zM43.7 34c.1.5.3.9.4 1.3.2.7.5 1.3.6 2 .1.8.5 1.5.8 2.2.3.7.6 1.3.7 1.9l.9 4.2c.1.6.1 1.2.1 1.8.3.2.7.4 1 .6v-.3c0-.8 0-1.5-.1-2.3l-.9-4.2c-.1-.8-.5-1.5-.8-2.2-.3-.7-.6-1.3-.7-1.9-.1-.7-.4-1.5-.6-2.1-.1-.4-.3-.8-.4-1.2-.3.1-.7.2-1 .2zM32.9 35.4c.2.3.4.7.6 1 .4.6.8 1.2 1 1.8.3.7.8 1.3 1.2 1.9.4.6.9 1.1 1.1 1.7l.2.2c.5 1.2 1 2.3 1.5 3.5h1.1v-.1c-.5-1.3-1.1-2.5-1.6-3.8l-.1-.2c-.3-.7-.8-1.3-1.2-2-.4-.6-.9-1.1-1.1-1.7-.3-.7-.7-1.3-1.1-2-.1-.1-.1-.2-.2-.3-.6.1-1 0-1.4 0zM35.5 35.5c.3.5.6 1 .8 1.6.3.8.8 1.5 1.2 2.1.4.7.9 1.3 1.1 2 .6 1.5 1.1 2.9 1.7 4.3v.1c.4 0 .7 0 1.1.1-.1-.2-.1-.3-.2-.5-.6-1.5-1.1-2.9-1.7-4.3-.3-.8-.8-1.5-1.3-2.2-.4-.6-.9-1.2-1.1-1.9-.2-.5-.4-.9-.6-1.3-.3 0-.6.1-.9.1 0-.2 0-.1-.1-.1zM54.3 50.7c0 .2 0 .5.1.7.4.2.8.3 1.1.4-.1-.4-.2-.8-.2-1.1 0-.7.2-1.3.5-2 .2-.7.5-1.5.5-2.3 0-.7.2-1.3.4-2s.4-1.5.4-2.2c.1-1.4.2-2.9.2-4.3.1-.8-.1-1.5-.2-2.3-.1-.7-.3-1.4-.2-2.1.1-.8 0-1.5-.1-2.2 0-.4-.1-.7-.1-1-.3 0-.7.1-1 .2 0 .3 0 .6.1.9.1.7.1 1.4.1 2.1-.1.8.1 1.6.2 2.3.1.7.2 1.4.2 2-.1 1.4-.2 2.9-.2 4.3 0 .7-.2 1.3-.4 2s-.4 1.5-.4 2.2c0 .7-.2 1.3-.5 2-.2.8-.4 1.6-.5 2.4zM56.4 52.1c.2 0 .4.1.6.1.1 0 .3.1.4.1-.1-.5-.2-1-.2-1.5.1-.7.4-1.3.6-2 .3-.7.6-1.4.7-2.2.1-.7.3-1.3.6-2 .2-.7.5-1.4.6-2.2l.1-.5c.2-1.3.3-2.5.5-3.8.1-.8 0-1.5 0-2.3-.1-.7-.1-1.4-.1-2.1.1-.7.1-1.5.1-2.2v-1.3c-.3 0-.7-.1-1-.1v1.4c0 .7 0 1.4-.1 2.1-.1.8 0 1.6.1 2.3.1.7.1 1.4.1 2.1-.2 1.3-.4 2.5-.5 3.8l-.1.5c-.1.7-.3 1.3-.6 2-.2.7-.5 1.5-.6 2.2-.1.7-.4 1.3-.6 2-.3.7-.6 1.5-.7 2.2-.1.4 0 .9.1 1.4z"/><path d="M57.7 52.3c.3.1.7.1 1 .2.1-.1.1-.3.2-.4.3-.7.7-1.4.8-2.2.1-.7.4-1.3.7-2 .3-.7.6-1.4.7-2.2l.1-.5c.2-1.3.5-2.5.8-3.8.2-.8.1-1.5.1-2.3 0-.7-.1-1.4.1-2.1.2-.7.2-1.5.2-2.2 0-.7.1-1.4.2-2.1l.3-2.1c-.3-.1-.7-.2-1-.3v.1l-.3 2.1c-.2.8-.2 1.5-.2 2.2 0 .7-.1 1.4-.2 2.1-.2.8-.1 1.6-.1 2.3 0 .7.1 1.4-.1 2-.3 1.3-.5 2.5-.8 3.8l-.1.5c-.1.7-.4 1.3-.7 2-.3.7-.6 1.4-.7 2.2-.1.6-.4 1.3-.8 1.9 0 .4-.1.6-.2.8zM63.7 52.7c0-.8 0-1.5.3-2 .3-.6.7-1.1 1.2-1.7.5-.6 1-1.2 1.3-1.9.3-.6.7-1.2 1.1-1.8.4-.6.9-1.2 1.2-2 .5-1.2 1-2.3 1.5-3.5l.2-.4c.3-.7.4-1.5.6-2.3.1-.6.2-1.1.3-1.6-.3-.2-.5-.5-.8-.7-.3.7-.4 1.4-.5 2.1-.1.7-.2 1.4-.5 2l-.2.5c-.5 1.2-1 2.3-1.5 3.5-.3.6-.7 1.2-1.1 1.8-.4.6-.9 1.2-1.2 1.9-.3.6-.7 1.1-1.2 1.7-.5.6-1 1.2-1.3 1.9-.3.8-.3 1.6-.3 2.4.3.1.6.1.9.1z"/><path d="M61.1 52.1v.6h1V52c-.1-.8-.1-1.5.1-2 .2-.6.6-1.2 1-1.8.4-.6.9-1.3 1.2-2 .2-.6.6-1.2.9-1.8.4-.6.8-1.3 1-2 .5-1.4.9-2.7 1.4-4.1.2-.7.3-1.5.4-2.3.1-.7.1-1.4.3-2 0-.1.1-.2.1-.4-.3-.2-.6-.4-.9-.5-.1.2-.1.4-.2.6-.2.7-.3 1.5-.4 2.3-.1.7-.1 1.4-.3 2-.5 1.4-.9 2.7-1.4 4.1-.2.6-.6 1.2-.9 1.9s-.8 1.3-1 2c-.2.6-.6 1.2-1 1.8-.1.2-.2.3-.3.5-.3.5-.6 1-.8 1.5-.1.2-.1.4-.2.7-.1.4 0 1 0 1.6z"/><path d="M59 52.5c.3 0 .7.1 1 .1v-.1c.2-.6.5-1.2.9-1.8.1-.1.1-.2.2-.3.3-.5.6-1.1.8-1.8 0-.1.1-.3.1-.4.2-.5.4-1 .7-1.5.3-.7.7-1.4.9-2.1.4-1.3.7-2.6 1.1-4l.1-.2c.2-.8.2-1.5.2-2.3 0-.7 0-1.4.2-2 .2-.7.3-1.5.4-2.2.1-.6.1-1.2.3-1.8-.3-.1-.6-.3-.9-.4-.2.7-.3 1.4-.3 2.2l-.3 2.1c-.2.8-.2 1.5-.2 2.3 0 .7 0 1.4-.2 2.1l-.1.2c-.3 1.3-.7 2.6-1.1 4-.2.7-.5 1.3-.8 1.9-.3.7-.7 1.3-.9 2.1-.2.6-.5 1.2-.9 1.8-.4.7-.8 1.3-1 2.1-.2-.2-.2-.1-.2 0zM65.8 52.8c.3 0 .7 0 1 .1 0-.1.1-.3.2-.4.3-.6.8-1.1 1.2-1.7.5-.6 1.1-1.2 1.4-1.9.3-.6.7-1.1 1.2-1.7.5-.6.9-1.2 1.3-1.9.7-1.3 1.3-2.6 2-3.8.4-.7.5-1.4.7-2.2 0-.1.1-.3.1-.4-.3-.3-.5-.6-.8-.9-.1.3-.2.7-.3 1-.2.7-.3 1.4-.6 2-.7 1.3-1.3 2.6-2 3.8-.3.6-.7 1.1-1.2 1.7-.5.6-.9 1.2-1.3 1.9-.3.6-.8 1.1-1.2 1.6-.5.6-1.1 1.2-1.4 1.9-.2.4-.2.7-.3.9z"/><path d="M64.2 52.8h1c.3-.7.8-1.2 1.3-1.9.5-.6 1-1.3 1.4-2.1.3-.7.7-1.3 1.2-1.9.5-.6.9-1.3 1.3-2 .7-1.4 1.3-2.8 2-4.2.3-.8.5-1.6.7-2.3.1-.4.2-.7.2-1l-.8-.8c-.2.5-.3 1.1-.4 1.6-.2.8-.3 1.5-.6 2.1-.7 1.4-1.3 2.8-2 4.2-.3.7-.7 1.3-1.2 1.9-.5.7-.9 1.3-1.3 2.1-.3.7-.8 1.2-1.2 1.8-.5.7-1.1 1.3-1.4 2.1-.1.1-.2.2-.2.4zM78.6 61.4c.1.3.2.6.3 1 .2-.1.4-.2.7-.2.7-.3 1.4-.5 2.1-.9 1.2-.8 2.4-1.5 3.7-2.3.7-.4 1.2-1 1.7-1.5s1-1 1.5-1.4c.4-.2.8-.5 1.1-.8-.3-.2-.5-.4-.8-.7-.3.2-.6.5-.9.6-.7.4-1.2 1-1.7 1.5s-1 1-1.6 1.4c-1.2.8-2.4 1.5-3.7 2.3-.6.4-1.2.6-1.9.8-.1 0-.3.1-.5.2zM77.5 59.2c.2.3.3.6.5.9.1 0 .2-.1.3-.1.7-.3 1.4-.6 2-1.1 1.2-.9 2.3-1.7 3.5-2.6.6-.5 1.1-1.1 1.6-1.7.5-.6.9-1.1 1.4-1.5.1-.1.2-.1.3-.2-.3-.2-.5-.4-.8-.7 0 0-.1 0-.1.1-.6.5-1.1 1.1-1.6 1.7-.5.6-.9 1.1-1.4 1.5-1.2.9-2.3 1.7-3.5 2.6-.6.4-1.2.7-1.8 1-.1 0-.3.1-.4.1zM76.7 58c.2.3.4.5.6.8.9-.8 1.8-1.5 2.8-2.3.7-.5 1.1-1.2 1.6-1.8.4-.6.8-1.2 1.3-1.6.6-.5 1.1-1.1 1.6-1.6.1-.1.2-.3.3-.4-.2-.2-.5-.4-.7-.7-.1.1-.2.3-.4.4-.5.6-.9 1.1-1.4 1.5-.6.5-1.1 1.1-1.5 1.8-.4.6-.8 1.2-1.3 1.6-1.1.7-2 1.5-2.9 2.3zM71.4 53.8c.2.1.4.2.6.2.1.1.3.1.4.2.1 0 .1-.1.1-.2.4-.5.9-1 1.5-1.5s1.1-1 1.6-1.6c.9-1.1 1.8-2.3 2.6-3.4.5-.6.8-1.3 1.1-2 0-.1.1-.2.1-.3-.2-.3-.4-.6-.7-.9-.1.3-.2.5-.4.8-.3.7-.6 1.3-1 1.8-.9 1.1-1.8 2.3-2.7 3.4-.4.5-.9 1-1.5 1.5s-1.2 1-1.6 1.6c.1.2 0 .3-.1.4zM73.5 54.9c.3.2.6.4.8.6.4-.5 1-.9 1.6-1.3.6-.4 1.2-.9 1.7-1.5 1-1.1 1.9-2.1 2.9-3.2.5-.5.8-1.1 1.1-1.7-.2-.2-.5-.5-.7-.8-.4.6-.7 1.2-1.1 1.7-1 1.1-1.9 2.1-2.9 3.2-.4.5-1 .9-1.6 1.3-.7.6-1.3 1.1-1.8 1.7zM75.2 56.3l.7.7c.3-.2.6-.5.9-.7l.4-.4c.9-.9 1.8-1.8 2.7-2.6.6-.5 1-1.2 1.4-1.8.4-.6.8-1.2 1.2-1.7.2-.2.3-.3.4-.5l-.7-.7c-.1.2-.3.3-.4.5-.6.5-1 1.2-1.4 1.9-.4.6-.8 1.2-1.2 1.7-.9.9-1.8 1.8-2.7 2.6l-.4.4c-.3.1-.6.3-.9.6zM67.2 52.9c.4 0 .9.1 1.3.2.3-.3.5-.6.8-.9.4-.5.9-1 1.4-1.5.5-.5 1.1-1.1 1.5-1.7l2.4-3.6c.4-.7.7-1.4 1-2.1.2-.7.5-1.3.8-1.9.1-.1.1-.2.2-.3-.2-.3-.4-.6-.7-.9l-.3.6c-.4.7-.7 1.4-1 2.1-.2.7-.5 1.3-.8 1.9l-2.4 3.6c-.4.6-.9 1.1-1.4 1.6-.5.5-1.1 1-1.5 1.7-.3.4-.8.8-1.3 1.2zM69.3 53.3c.4.1.7.2 1.1.3.4-.5.9-.9 1.4-1.4.6-.5 1.2-1.1 1.7-1.8.9-1.2 1.8-2.5 2.7-3.8.5-.7.8-1.5 1.1-2.2.2-.4.3-.8.6-1.2-.2-.3-.4-.6-.6-1-.4.6-.6 1.2-.9 1.8-.3.7-.6 1.4-1 2-.9 1.3-1.8 2.5-2.7 3.8-.4.6-1 1.1-1.6 1.7-.6.5-1.2 1.1-1.7 1.7l-.1.1zM79 62.7c.1.3.2.6.2 1 .7-.1 1.4-.2 2-.5.6-.3 1.3-.4 2-.6.7-.2 1.5-.3 2.2-.7l3.9-1.8c.7-.3 1.3-.8 1.9-1.3.5-.4.9-.7 1.4-1-.2-.2-.5-.5-.8-.7-.4.3-.9.6-1.3.9-.6.5-1.1.9-1.7 1.1l-3.9 1.8c-.6.3-1.3.4-2 .6-.7.2-1.5.3-2.2.7-.4.2-1 .4-1.7.5zM79.4 64.6c.1.3.1.7.1 1h.3c.8-.1 1.6-.1 2.3-.4.6-.2 1.3-.3 2-.4.7-.1 1.5-.2 2.2-.5l.2-.1c1.3-.5 2.6-.9 3.8-1.4.7-.3 1.4-.7 2-1.1.6-.4 1.2-.8 1.8-1 .2-.1.5-.2.8-.3-.2-.3-.4-.5-.7-.8-.1.1-.3.1-.4.2-.7.3-1.4.7-2 1.1-.6.4-1.2.8-1.8 1-1.3.5-2.6.9-3.8 1.4l-.2.1c-.6.2-1.3.3-2 .4-.8.1-1.5.2-2.2.5-.6.2-1.3.3-2 .3h-.4zM79.5 67.8c.1 0 .2 0 .3-.1.6-.2 1.3-.2 2.1-.3.7-.1 1.5-.1 2.2-.3l.2-.1c1.3-.4 2.6-.8 4-1.2.8-.2 1.4-.6 2.1-1 .6-.4 1.2-.7 1.9-.9.7-.2 1.4-.5 2.1-.8.7-.3 1.3-.6 2-.8.1 0 .1 0 .2-.1l-.6-.9c-.7.2-1.4.5-2 .8-.7.3-1.3.6-1.9.8-.8.2-1.4.6-2.1 1-.6.4-1.2.7-1.8.9-1.3.4-2.7.8-4 1.2l-.2.1c-.6.2-1.3.2-2.1.3-.7.1-1.5.1-2.2.3-.1.4-.2.7-.2 1.1zM77.6 72.2c-.3.4-.6.8-.8 1.2.8-.1 1.6-.4 2.3-.8.7-.3 1.3-.7 1.9-.7.7 0 1.3.1 2 .2.8.2 1.5.3 2.3.3.7 0 1.3.1 2.1.1.8.1 1.5.2 2.3.2 1.4-.1 2.9-.2 4.3-.3.8-.1 1.5-.3 2.2-.6.7-.2 1.3-.4 2-.5.2 0 .3 0 .5-.1 0-.3.1-.7.1-1-.2 0-.4.1-.7.1-.8.1-1.5.3-2.2.6-.7.2-1.3.5-2 .5-1.4.1-2.9.2-4.3.3-.7.1-1.4 0-2.1-.1-.7-.1-1.5-.2-2.3-.2-.7.1-1.3-.1-2.1-.2-.8-.2-1.5-.3-2.3-.3-.8.1-1.6.4-2.3.8-.2.2-.5.3-.9.5z"/><path d="M79 69.6c-.2.6-.5 1.1-.8 1.7.3-.2.6-.3.8-.5.7-.4 1.2-.8 1.9-.9.6-.1 1.3 0 2.1.1s1.6.2 2.3.1c.7-.1 1.3-.1 2.1 0 .8 0 1.5.1 2.3 0l3.9-.6.3-.1c.8-.1 1.5-.4 2.2-.7.7-.3 1.3-.6 1.9-.7.2 0 .4-.1.6-.1-.1-.3-.1-.7-.2-1-.2.1-.4.1-.6.1-.8.1-1.5.4-2.2.7-.7.3-1.3.6-2 .7l-.3.1-3.9.6c-.7.1-1.3.1-2.1 0s-1.5-.1-2.3 0c-.7.1-1.3 0-2.1-.1-.2 0-.4-.1-.6-.1-.6-.1-1.2-.1-1.7 0-.2 0-.4.1-.6.2-.3.1-.6.3-1 .5z"/><path d="M79.2 69.1h.9c.6 0 1.3.1 1.9-.1.2 0 .3-.1.4-.1.5-.1 1.1-.1 1.6-.1.8 0 1.5 0 2.3-.2 1.3-.3 2.7-.6 4.1-.9h.2c.8-.2 1.5-.5 2.2-.9.7-.3 1.3-.6 1.9-.8.8-.2 1.5-.4 2.1-.7.4-.1.7-.3 1.1-.4-.1-.3-.3-.6-.4-.9-.3.1-.7.3-1 .4-.7.3-1.3.5-2 .7-.8.2-1.5.5-2.1.9-.7.3-1.3.6-1.9.8h-.2c-1.3.3-2.7.6-4.1.9-.7.2-1.3.2-2.1.2-.7 0-1.5 0-2.3.2-.6.1-1.3.1-2.1.1h-.3c0 .2-.1.5-.2.9zM75.4 75.5c-.2.3-.3.6-.4.9.1 0 .2.1.4.1.4.1.8.1 1.2.1.7 0 1.3-.2 1.9-.5l.4-.2c.7-.3 1.3-.6 1.9-.6.6 0 1.3.2 2 .3.8.2 1.5.4 2.3.4.7 0 1.3.1 2.1.3.7.1 1.5.3 2.2.3h4.3c.8 0 1.5-.2 2.3-.4.5-.1.9-.2 1.4-.3.2-.3.3-.7.5-1.1-.7 0-1.4.2-2.1.4-.7.2-1.4.3-2 .3h-4.3c-.7 0-1.3-.1-2.1-.3-.7-.1-1.5-.3-2.3-.3-.7 0-1.3-.2-2-.3-.7-.2-1.5-.4-2.3-.4-.8 0-1.6.4-2.3.7-.7.3-1.3.6-1.9.6-.4.1-.8.1-1.2 0z"/><path d="M76.2 74.3c-.2.4-.5.8-.7 1.2.8-.1 1.5-.4 2.2-.8.7-.4 1.4-.7 2.1-.7.7-.1 1.5.1 2.2.2.8.2 1.6.3 2.5.3.7-.1 1.5.1 2.3.2.8.1 1.6.2 2.4.2 1.6-.1 3.1-.2 4.7-.2.8 0 1.6-.2 2.4-.4.8-.2 1.5-.4 2.2-.4.1-.3.2-.7.3-1h-.2c-.8 0-1.7.2-2.4.4-.8.2-1.5.4-2.2.4-1.6.1-3.1.1-4.7.2-.7 0-1.4-.1-2.2-.2-.8-.1-1.6-.2-2.5-.2-.7 0-1.4-.1-2.2-.2-.8-.2-1.7-.3-2.5-.3-.9.1-1.7.5-2.5.8-.5.1-.9.3-1.2.5zM65.7 86.4c.2.2.3.3.5.4.7.4 1.5.5 2.3.7.8.1 1.4.2 2 .5.6.3 1 .8 1.5 1.4l.6.6 1.2-.3-1-1c-.2-.3-.5-.5-.8-.8-.3-.3-.6-.6-1-.8-.7-.4-1.6-.6-2.4-.7-.2 0-.4-.1-.6-.1h-.2v.1h-2.1z"/><path d="M67.9 86.3c.5.5 1 .9 1.6 1.2.8.3 1.6.4 2.4.4h.1c.7 0 1.3.1 1.9.3.5.2.9.5 1.3.9.3-.2.6-.3.9-.5-.6-.5-1.1-1-1.8-1.3-.7-.3-1.6-.4-2.4-.4-.8 0-1.5-.1-2-.3l-.6-.3c-.4.1-.8.1-1.2.1-.1-.1-.1-.1-.2-.1zM70.2 86c.8.3 1.6.3 2.4.2.8 0 1.5-.1 2 .2.6.2 1.2.6 1.8 1.1.2.2.4.3.7.5l.9-.6c-.3-.2-.7-.4-1-.7-.2-.1-.3-.2-.5-.3-.5-.3-1-.6-1.5-.8-.2-.1-.4-.1-.6-.2-.6-.1-1.2-.1-1.8 0h-.1c-.6.2-1.4.5-2.3.6z"/><path d="M73.4 84.7c.2.1.5.3.7.4.1.1.2.2.3.2.5.3 1.1.7 1.7.8.2 0 .3.1.4.2.5.2.9.4 1.4.7.1 0 .2.1.2.1.3-.2.6-.4.9-.7-.2-.1-.4-.2-.7-.3-.7-.3-1.3-.7-2.1-.9-.6-.2-1.2-.6-1.8-.9-.2-.1-.4-.3-.7-.4.1.3-.1.5-.3.8zM75.4 80c-.4.1-.8.3-1.1.4v1c.5-.1 1-.3 1.4-.4.7-.2 1.4-.5 2-.4.7 0 1.3.3 2 .5s1.5.5 2.3.6c.7 0 1.3.2 2 .4s1.4.4 2.2.5c1.8-.5 2.6-.5 3.4-.6.3 0 .5-.1.8-.1-1.3-.1-2.5-.2-3.8-.3h-.3c-.7 0-1.3-.2-2-.4s-1.5-.4-2.2-.5c-.7 0-1.3-.3-2-.5-.7-.3-1.5-.5-2.3-.6-.8-.2-1.6.1-2.4.4z"/><path d="M74.2 83c.5-.1.9-.2 1.4-.3.1 0 .1 0 .2-.1.7-.2 1.3-.3 1.8-.2.7.1 1.3.4 2 .7.7.3 1.4.6 2.2.7.3 0 .6.1.9.2.4-.2.8-.5 1.2-.7-.6-.2-1.2-.4-1.9-.5-.7-.1-1.3-.4-1.9-.7-.7-.3-1.4-.6-2.2-.8-.8-.1-1.6.1-2.4.3-.3.1-.7.2-1 .2v.2c-.2.4-.3.7-.3 1z"/><path d="M74.2 83.1h.2c.6.1 1.2.5 1.9.8.7.3 1.4.7 2.2.9.7.1 1.3.4 1.9.7.3-.2.6-.5.9-.7-.2-.1-.3-.2-.5-.2-.7-.3-1.4-.6-2.2-.8-.6-.1-1.2-.4-1.9-.8-.3-.2-.6-.3-1-.5s-.8-.3-1.2-.4c-.1 0-.2 0-.3-.1 0 .3 0 .6-.1.8.1.2.1.3.1.3zM74.5 77.9c.3-.1.7-.2 1-.4.1 0 .2-.1.3-.1.6-.2 1.1-.4 1.7-.4.7 0 1.3.2 2 .4s1.5.4 2.3.4c.7 0 1.3.2 2 .3.7.2 1.5.3 2.3.3h4.3c.8 0 1.5-.2 2.3-.4.7-.2 1.4-.3 2-.3.5 0 1 0 1.4-.1.3-.4.6-.8.8-1.1h-.2c-.7.1-1.4.2-2.1.2-.8 0-1.5.2-2.3.4-.7.2-1.4.3-2.1.3h-4.3c-.7 0-1.3-.2-2.1-.3-.7-.2-1.5-.3-2.2-.3-.7 0-1.3-.2-2-.4-.4-.1-.8-.2-1.3-.3-.3-.1-.7-.1-1-.1-.8 0-1.5.2-2.1.5-.1 0-.2.1-.2.1-.1 0-.2.1-.3.1-.1.3-.2.6-.3 1 .1.1.1.1.1.2z"/><path d="M74.3 78.8c.8-.2 1.5-.5 2.2-.4.7 0 1.4.3 2.2.5.8.2 1.6.5 2.4.6.7.1 1.4.2 2.2.4.8.2 1.6.4 2.4.4 1.6.1 3.1.1 4.7.2h.2c.8 0 1.5-.2 2.2-.3.3-.1.6-.1.9-.2.5-.3.9-.7 1.3-1.1-.8 0-1.6.1-2.4.3-.8.2-1.5.3-2.2.3-1.6-.1-3.1-.1-4.7-.2-.7 0-1.5-.2-2.2-.4s-1.6-.4-2.4-.4c-.7 0-1.4-.3-2.2-.5-.8-.2-1.6-.5-2.4-.6h-.7c-.4 0-.9.2-1.3.3 0 .1-.1.2-.1.2-.1.2-.1.4-.1.6v.3zM30.5 34.8c.2.7.4 1.5.8 2.2.3.6.4 1.3.6 2 .2.8.3 1.5.7 2.2.4.7 1 1.3 1.6 1.8.6.5 1.1.9 1.4 1.5.2.5.3 1 .4 1.5.3-.1.6-.2 1-.2-.1-.6-.2-1.2-.5-1.8-.4-.7-1-1.3-1.6-1.8-.6-.5-1.1-.9-1.4-1.5-.3-.6-.4-1.3-.6-2-.1-.8-.3-1.5-.7-2.2-.2-.4-.4-.9-.5-1.4-.5-.1-.9-.2-1.2-.3zM26.9 33.5c.2.2.3.5.5.8.4.6.6 1.2.9 1.9.3.7.5 1.4.9 2.1.3.6.5 1.2.8 1.9.2.7.4 1.5.8 2.2.4.7 1.1 1.2 1.8 1.7.6.4 1.2.8 1.5 1.4.2.3.4.8.5 1.2l.9-.3c-.1-.5-.3-.9-.6-1.4-.4-.7-1.1-1.2-1.8-1.7-.6-.4-1.2-.8-1.5-1.4-.3-.6-.5-1.2-.7-1.9-.2-.7-.4-1.5-.9-2.2-.4-.6-.6-1.2-.8-1.9-.2-.6-.4-1.2-.7-1.7-.6-.3-1.1-.6-1.6-.7zM20.5 32.3l.3.3c.5.5 1 1 1.4 1.6.4.6 1.1 1.1 1.6 1.6.6.5 1.1.9 1.5 1.5l.3.5c.7 1 1.5 2 2.2 3.1.4.5.7 1.2 1 1.9.3.7.6 1.4 1.1 2 .2.3.4.7.5 1.1.1.3.2.5.3.8.2.6.4 1.2.8 1.8l.2-.2c.2-.2.4-.3.6-.4-.3-.5-.4-1-.6-1.5-.3-.7-.5-1.5-1-2.1-.4-.5-.7-1.2-.9-1.8-.3-.7-.6-1.4-1.1-2-.7-1-1.5-2-2.2-3.1l-.3-.5c-.6-.9-1.2-1.4-1.7-1.9-.6-.5-1.1-.9-1.5-1.5-.3-.5-.7-.9-1.1-1.3-.5.1-.9.1-1.4.1zM14.7 37.4v.3l.3.3c.6.5 1.3.9 1.9 1.3.6.3 1.2.7 1.7 1.1.9.8 1.9 1.7 2.8 2.5l.4.4c.5.5.9 1 1.3 1.6.4.6.9 1.2 1.5 1.8.5.4.9 1 1.3 1.6.4.6.9 1.3 1.4 1.8.4.4 1 .7 1.6.9 0-.1.1-.1.1-.2.1-.2.3-.5.5-.7-.6-.2-1.1-.4-1.5-.8-.5-.4-.9-1-1.3-1.6-.4-.7-.8-1.3-1.4-1.8-.5-.5-.9-1-1.3-1.6-.4-.6-.9-1.2-1.5-1.7l-.4-.4c-.9-.8-1.8-1.7-2.8-2.5-.6-.5-1.3-.9-1.9-1.3-.6-.3-1.3-.7-1.7-1.1-.3-.3-.7-.6-1-.8v.9zM16 34.4c.5.4.9.8 1.3 1.2.5.6 1.2 1 1.8 1.4.6.4 1.2.8 1.6 1.3 1 1.1 2 2.1 2.9 3.2.5.5.8 1.1 1.2 1.7.4.6.8 1.3 1.3 1.9.4.5.8 1.1 1.1 1.7.4.7.7 1.4 1.3 2 .4.4.9.7 1.4.9.2-.3.5-.5.7-.8-.6-.2-1.1-.5-1.4-.9-.4-.5-.8-1.1-1.1-1.7-.4-.7-.7-1.4-1.3-2-.5-.5-.8-1.1-1.2-1.7-.4-.6-.8-1.3-1.3-1.8-1-1-2-2.1-2.9-3.2-.5-.6-1.2-1-1.8-1.4-.6-.4-1.2-.8-1.6-1.3-.4-.4-.8-.8-1.2-1.1-.3.2-.5.4-.8.6z"/><path d="M17.9 33.1s.1.1 0 0c.6.7 1.1 1.2 1.7 1.7.5.5 1 .9 1.5 1.5s1.1 1.1 1.7 1.5c.6.4 1.1.8 1.6 1.3.9 1.1 1.8 2.1 2.6 3.2l.1.1c.4.5.8 1.1 1.1 1.8.4.7.7 1.3 1.2 1.9.4.5.7 1.1 1 1.8.1.3.3.6.4.8.2-.2.4-.3.6-.5l.2-.2-.3-.6c-.3-.6-.6-1.3-1-1.8 0-.1-.1-.1-.1-.2-.4-.5-.8-1.1-1.1-1.8-.4-.7-.7-1.3-1.2-1.9l-.1-.1c-.9-1.1-1.8-2.1-2.6-3.2-.5-.6-1.1-1.1-1.7-1.5-.6-.4-1.1-.8-1.6-1.4-.5-.6-1-1.1-1.6-1.6-.5-.5-1-.9-1.4-1.4-.3.2-.7.4-1 .6zM18.3 44.3l.3.9c.1.3.1.5.2.8.3.2.6.4.9.7.5.4 1 1 1.4 1.5.5.6 1 1.2 1.6 1.7.5.4.9 1 1.4 1.6.4.6.9 1.3 1.5 1.8s1.4.8 2.2 1h.1c.1-.3.1-.6.2-.9v-.1H28c-.1 0-.2-.1-.4-.1-.6-.2-1.1-.4-1.5-.7-.5-.4-.9-1-1.3-1.6-.4-.6-.9-1.3-1.5-1.8-.5-.4-1-1-1.4-1.5-.5-.6-1-1.2-1.6-1.7-.7-.6-1.3-1.1-2-1.6z"/><path d="M15.6 40.1s0 .1.1.1c.4.6.8 1.1 1.2 1.7.2.2.5.3.7.5l3.6 3c.6.5 1 1.1 1.5 1.7.5.6 1 1.3 1.6 1.8.5.5 1 1.1 1.4 1.8.4.7.9 1.4 1.5 1.9.2.2.4.3.6.4.1.1.2.2.4.2v-.1l.3-.9c-.2-.1-.4-.2-.6-.4-.5-.5-.9-1.1-1.4-1.7-.5-.7-.9-1.4-1.6-2-.5-.5-1-1-1.5-1.7-.5-.6-1-1.3-1.7-1.8l-3.6-3c-.6-.5-1.4-.9-2.1-1.3-.1 0-.3-.1-.4-.2zM18.4 53c0 .5.1 1 .2 1.5l.2.2c.5.5 1.1 1 1.7 1.5.6.3 1 .9 1.5 1.4.5.6 1 1.2 1.7 1.6.7.5 1.5.6 2.3.7.7.1 1.4.2 1.9.6-.1-.4-.2-.8-.2-1.2-.5-.2-1-.3-1.6-.4-.7-.1-1.4-.2-2-.6-.5-.3-1-.9-1.5-1.4-.5-.6-1.1-1.2-1.7-1.6-.4-.3-.9-.8-1.4-1.3-.4-.3-.7-.7-1.1-1zM18.6 49.6c.3.2.6.4.8.6l.2.2c.6.4 1 .9 1.5 1.4.5.6 1 1.1 1.7 1.6.5.4 1 .9 1.4 1.5.5.6 1 1.2 1.6 1.7.5.4 1.1.5 1.7.7v-1c-.4-.1-.8-.2-1.1-.5-.5-.4-1-.9-1.4-1.5-.5-.6-1-1.2-1.6-1.7-.6-.4-1-.9-1.5-1.4-.5-.5-1-1.1-1.6-1.6l-.3-.2-1.2-.9c-.1.3-.1.7-.2 1.1z"/><path d="M18.4 51.6c.2.1.4.2.5.3.6.4 1.1.9 1.7 1.5.6.6 1.2 1.2 1.9 1.6.6.4 1.1.9 1.6 1.5.6.6 1.1 1.2 1.9 1.7.5.3 1.1.5 1.8.7-.1-.3-.1-.7-.1-1-.4-.1-.8-.2-1.1-.5-.6-.4-1.1-.9-1.7-1.5-.6-.6-1.1-1.2-1.8-1.7-.6-.4-1.2-.9-1.7-1.5-.6-.5-1.1-1.1-1.8-1.6-.3-.2-.6-.4-1-.6 0 .3-.1.6-.1.9-.1.1-.1.2-.1.2zM22.5 61.7c.4.6.9 1.1 1.4 1.6.6.3 1.2.6 1.9.8.2.1.5.1.8.1.6 0 1.1-.1 1.7-.2.3-.1.7-.1 1-.1-.2-.3-.3-.6-.5-.9-.2 0-.4.1-.7.1-.7.1-1.4.2-2 .1-.5-.1-1-.4-1.5-.6-.1-.1-.2-.1-.4-.2-.5-.3-1-.5-1.5-.7h-.2zM20.3 58.4c.4.6.8 1.1 1.3 1.7.6.3 1.2.5 1.8.6.7.2 1.4.5 2 .9.7.4 1.5.8 2.3 1 .3.1.6.1 1 .1v-.1c-.1-.3-.2-.6-.3-1-.1 0-.2 0-.4-.1-.7-.2-1.4-.5-2.1-.9-.7-.4-1.5-.8-2.3-1-.7-.2-1.4-.5-2.1-.8-.4-.1-.8-.3-1.2-.4z"/></g><g><path class="st0" d="M39.7 69.9c.1.1.2.1.4.2l-.4-.2zM22.5 61.7c.4.6.9 1.1 1.4 1.6.5.5 1.1 1 1.7 1.4 2.2 1.6 4.8 2.6 7.4 3.4l2.8-.1c-.1-.1-.3-.2-.5-.2-.2-.1-.4-.1-.5-.2-3-.9-5.8-1.8-8.2-3.5-.1-.1-.2-.2-.3-.2-.6-.4-1.2-.9-1.7-1.4-.4-.5-.9-.9-1.3-1.4l-.4.3-.2.2-.2.1z"/></g><path class="st0" d="M112.6 76c4.8-3.3 7.3-6.6 7.6-10 .4-5.2-4.3-9.8-9.2-14.8l-1.5-1.5c-3.1-3.1-4.4-7.2-5.8-11.6-1.2-3.6-2.3-7.4-4.6-10.5-3-4-4.7-5.1-6.8-6.4-1.4-.9-3.1-1.9-5.6-4.1-1.1-1-2.8-2.8-4.6-4.8-2.1-2.3-4.3-4.8-5.8-6C74.2 4.8 71 4 67.9 3.2c-1.6-.4-3.2-.8-4.5-1.3C58.9.2 55.4-.9 50.3.8 45.6 2.5 42.1 4.2 39.8 6c-7.3 5.9-19.1 7.6-27.8 7.2C8.2 13 1.8 12.7.3 17.3c-.4 1.3-.3 2.5.2 3.7l.1.1c1 2.2 3.4 4 5.7 5.8.8.6 1.6 1.2 2.3 1.8.3.3.6.5.9.8l.3.3.2.2.2.2.1.1.1.1c1.6 1.8 2.9 4.2 3.9 7.1v.1c.3.8.5 1.6.8 2.5l.1.4h.4V40h.4l-.1-.1h.1c-.3-.9-.5-1.8-.8-2.5v-.1c-1.1-3.1-2.5-5.6-4.2-7.6l-.1-.1-.1-.1-.3-.3-.3-.3c-.3-.3-.6-.6-1-.9-.7-.6-1.5-1.2-2.3-1.8-2.2-1.7-4.5-3.4-5.4-5.4l-.1-.1c-.4-1-.5-2-.2-3C2.3 14 7.4 13.9 12 14.1c8.8.4 20.9-1.3 28.4-7.4 2.1-1.7 5.6-3.4 10.1-5 4.7-1.6 8.1-.6 12.4 1.1 1.3.5 2.9.9 4.6 1.3 3 .7 6.1 1.5 8.1 3.1 1.4 1.1 3.6 3.5 5.7 5.8 1.8 2 3.5 3.8 4.7 4.9 2.5 2.2 4.2 3.3 5.7 4.2 2.1 1.3 3.7 2.3 6.5 6.1 2.2 3 3.4 6.6 4.5 10.2 1.4 4.3 2.8 8.8 6 12l1.5 1.5c4.8 4.8 9.4 9.2 8.9 13.9-.3 3.1-2.6 6.1-7.2 9.2l.7 1zM72.6 91.2c1.8 0 3.3-.2 4.8-.7h.1l.1-.1c.6-.2 1.1-.4 1.7-.7 1.5-.8 2.9-1.9 4.2-3l2.7-2.1h.1l.2-.2c.8-.5 1.7-1 2.6-1.2 1.9-.6 3.9-.5 6-.4 1.2.1 2.5.1 3.8.1 2.1-.2 4.1-.7 6.1-1.8l-.5-.9c-1.9 1-3.8 1.6-5.7 1.7-1.2.1-2.4 0-3.6-.1-2.1-.1-4.3-.2-6.4.4-1 .3-1.9.8-2.8 1.4l-.1.1c-1 .7-2 1.4-2.9 2.2-1.3 1-2.6 2.1-4.1 2.9-.6.3-1.1.5-1.6.7l-.2.1c-1.3.4-2.8.6-4.3.6h-.2C68.2 90 63 87.8 58.5 84c-.2-.2-.3-.3-.5-.4l-.3-.3c-.2-.2-.5-.4-.7-.6l-.1-.1c-.5-.5-1-.9-1.5-1.4l-.4-.4-.6-.6-.8.8c.2.2.4.4.7.6l.4.4c.5.5 1 .9 1.5 1.4 0 0 .1.1.2.1.2.2.5.4.7.6l.2.2.1.1.4.4c4.8 3.9 10.1 6.2 14.8 6.4z"/><path class="st0" d="M71.4 90.6c.5 0 .9-.1 1.4-.1l1.2-.3 1.5-.6c.3-.2.7-.3 1-.5.3-.2.7-.4 1-.6l.9-.6.1-.1.1-.1c.3-.2.6-.5.9-.7l1.2-.9c.3-.2.6-.4.9-.7.4-.3.9-.6 1.3-.9.4-.2.8-.4 1.1-.6.6-.3 1.2-.6 1.8-.7l.2-.2c.1 0 .2-.1.2-.1h.1c1.5-.4 2.3-.5 3-.5h.3c.3 0 .5-.1.8-.1h.1c.5-.1 1-.3 1.5-.6.7-.4 1.4-.8 2-1.2.5-.4 1-.8 1.4-1.2.4-.4.8-.8 1.2-1.3l.9-1.2c.2-.3.3-.5.4-.8h.1c.2-.3.3-.6.5-1s.3-.8.4-1.2c.1-.3.2-.7.3-1.1.1-.5.2-1 .2-1.6 0-.3.1-.7.1-1.1 0-.8-.1-1.7-.2-2.5-.1-.3-.1-.7-.2-1-.2-.6-.4-1.3-.6-1.9-.1-.3-.3-.6-.4-1-.1-.2-.2-.5-.4-.7-.2-.4-.5-.8-.7-1.2l-.6-.9c-.2-.3-.5-.7-.8-1-.3-.3-.5-.6-.7-.9-.6-.7-1.2-1.3-1.7-1.8-.2-.2-.5-.5-.8-.7-.8-.7-1.6-1.4-2.3-2-.2-.2-.3-.3-.5-.4h-.4c-.6-.5-1.2-1-1.9-1.5-.2-.2-.5-.4-.8-.6-.5-.4-1-.8-1.4-1.2-.2-.2-.5-.4-.7-.7-.4-.4-.8-.7-1.2-1.1l-.7-.7c-.2-.2-.4-.4-.6-.7l-.5-.5-.2-.3c-.5-.6-1-1.2-1.4-1.8l-.2-.2c-.2-.2-.3-.4-.5-.7-.2-.4-.5-.7-.7-1.1 0-.1-.1-.1-.2-.2-.2-.3-.4-.6-.6-1-.1-.2-.3-.4-.5-.7l-.1-.2c-.2-.3-.5-.6-.7-.9-.3-.4-.7-.9-1.1-1.3-.3-.3-.5-.6-.8-.9l-.8-.8-.2-.2-.6-.6c-.4-.3-.8-.7-1.2-1-.3-.2-.6-.5-.8-.7-.7-.5-1.3-1-2-1.4l-.9-.6c-.6-.3-1.2-.7-1.8-1-.3-.1-.7-.3-1-.4-.7-.3-1.4-.6-2.1-.8-.3-.1-.7-.2-1-.3-.5-.1-1.1-.2-1.6-.3-.4 0-.7-.1-1-.1-.9-.1-1.8 0-2.7.1-.4.1-.7.1-1.1.2-.1 0-.3.1-.5.1-.5.2-1.1.3-1.5.5l-1 .3c-.9.3-1.7.5-2.5.8-.2.1-.4.1-.6.2l-.4.3c-.6.2-1.2.4-1.8.5-.3.1-.5.2-.7.2l-2.1.6c-.3.1-.6.2-1 .2-.4.1-.8.2-1.1.3-.3.1-.6.1-.8.2h-.1c-.8.2-1.6.3-2.4.5l-1.1.2c-.5.1-1 .1-1.5.2-.3 0-.6.1-.9.1h-1.5c-.4 0-.8 0-1.2-.1-.5 0-.9-.2-1.2-.2-.4-.1-.7-.2-1.1-.3-.7-.2-1.4-.5-2-.8l-.3-.1c-.4-.2-.8-.3-1.2-.5-.7-.3-1.3-.5-1.9-.6-1.1-.3-2.2-.5-3.3-.5h-2.3c-.3 0-.7.1-1.1.3l-1 .5c-.4.2-.8.5-1.1.8-.3.2-.6.5-.8.7-.2.1-.3.3-.5.4l-.3.3c-.4.5-.6 1-.7 1.6-.1.3-.1.7 0 1v.3c.1.8.4 1.7.9 2.5l.1.1.1.1c.3.5.7 1 1.1 1.5l.1.1c.5.7 1 1.4 1.4 2.2l.1.1c.1.3.2.5.3.8.1.2.1.5.1.7.1.9.1 1.7 0 2.4v.2c0 .3-.1.6-.1.9l-.2 1.1c0 .3-.1.5-.1.8V53c0 .5.1 1.1.2 1.6.3 1.4.9 2.7 1.8 4 .4.6.8 1.2 1.3 1.7.4.5.9.9 1.4 1.4l.7-.7c-.5-.5-1-.9-1.3-1.3-.5-.5-.9-1.1-1.3-1.6-.8-1.2-1.3-2.4-1.6-3.6v-.1c-.1-.5-.2-.9-.2-1.4V51.4c0-.2.1-.5.1-.8 0-.2.1-.3.1-.5l.1-.4c.1-.3.1-.6.1-.9v-.2c.1-.7.2-1.7 0-2.7 0-.3-.1-.5-.2-.8l-.3-.9v-.1c-.4-.8-.9-1.6-1.5-2.3l-.1-.1c-.4-.5-.8-1.1-1.1-1.6l-.1-.2s0-.1-.1-.1c-.4-.6-.6-1.3-.7-2v-1.1c.1-.5.2-.8.5-1.2.1-.1.1-.2.2-.2.1-.1.2-.2.4-.3.2-.2.5-.4.8-.6.3-.2.7-.5 1.1-.7.3-.2.6-.3.9-.4.3-.1.5-.2.7-.2H22c1 0 2 .2 3.1.5.6.2 1.1.3 1.8.6.4.2.8.3 1.2.5l.3.1c.6.2 1.3.5 2.1.8l1.2.3c.4.1.8.2 1.4.2.4.1.9.1 1.3.1h1.5l.1-.5v.5c.4 0 .7-.1 1-.1.5-.1 1-.1 1.5-.2l1.1-.2c.8-.1 1.6-.3 2.4-.5h.1c.3-.1.6-.1.9-.2.4-.1.8-.2 1.1-.3.3-.1.6-.2.9-.2l2.1-.6c.2-.1.5-.1.8-.2.6-.2 1.2-.3 1.8-.5l.4-.1c.2-.1.4-.1.6-.2.8-.2 1.6-.5 2.5-.8l1-.3c.5-.1 1-.3 1.5-.5.1 0 .3-.1.4-.1.3-.1.6-.2 1-.2.8-.1 1.6-.2 2.5-.1.3 0 .6 0 1 .1.5.1 1 .1 1.5.3l.9.3c.7.2 1.3.4 2 .7.3.1.6.3.9.4.6.3 1.2.6 1.7.9.3.2.6.3.9.5.7.4 1.3.9 1.9 1.4.3.2.5.4.8.7.4.3.8.7 1.1 1 .2.2.4.4.6.5l.2.2.8.8c.3.3.5.6.8.9.3.4.7.8 1 1.3.2.3.4.6.7.9l.2.3c.2.2.3.4.5.7l.6.9c.1.1.1.1.1.2.2.4.5.8.8 1.2.2.2.3.5.5.7l.2.2c.4.6.9 1.2 1.5 1.8l.2.3.5.5c.2.2.4.5.7.7.2.2.4.5.7.7.4.4.8.8 1.2 1.1.2.2.5.4.7.7.5.4 1 .8 1.4 1.2.3.2.5.5.8.7.6.5 1.2 1 1.9 1.5l.2.2.5.5c.7.6 1.5 1.3 2.2 2 .3.2.5.5.8.7.5.5 1.1 1.1 1.7 1.8.2.3.4.5.7.8.3.3.5.7.7 1 .2.3.4.6.6.8.2.4.5.7.7 1.1.1.2.2.4.3.7.2.3.3.6.4.9l.6 1.8c.1.3.2.6.2.9.1.8.2 1.5.2 2.3 0 .3 0 .7-.1 1 0 .5-.1 1-.2 1.4-.1.3-.2.7-.3 1-.1.4-.2.7-.4 1.1-.1.3-.3.7-.5 1l-.1.1c-.1.2-.2.3-.3.5-.3.4-.6.8-.8 1.2-.3.4-.7.8-1.1 1.2-.4.4-.8.7-1.3 1.1-.6.4-1.2.8-1.8 1.1-.5.2-.9.4-1.3.5h-.1c-.2.1-.5.1-.7.1h-.3c-.7.1-1.6.1-3.1.5L86 82c-.1 0-.2.1-.3.1l-.2.1c-.6.2-1.2.4-1.9.8-.4.2-.8.4-1.2.7-.4.3-.9.6-1.3.9-.3.2-.6.4-.9.7l-1.2.9c-.3.2-.6.4-.9.7 0 0-.1.1-.2.1l-.9.6-.9.6c-.3.2-.6.3-.9.5-.4.2-.9.4-1.3.6-.4.1-.8.2-1.1.3-.5.1-.9.1-1.4.1-1.6-.1-3.2-.8-4.4-1.3-1.6-.8-3.1-1.7-4.7-2.8l-.6.8c1.6 1.1 3.2 2.1 4.8 2.9 1.3.6 3 1.4 4.8 1.4-.1-.1 0-.1.1-.1z"/><path class="st0" d="M64 111.2c2.7 0 5.4-.3 8.1-1 5.2-1.3 9.8-5.6 13.9-9.4 1.8-1.7 3.6-3.3 5.2-4.5l-.6-.8c-1.7 1.2-3.4 2.8-5.3 4.6-4 3.7-8.5 7.9-13.5 9.2-6.2 1.6-12.5 1.3-19.3-.9-.5-.2-1-.3-1.6-.5-2.3-.7-4.7-1.4-6.5-3-1.9-1.6-3.4-3.8-4.8-5.9l-.1-.1c-.5-.7-1-1.4-1.6-2.1-1.2-1.4-2.4-2.4-3.7-3.1-1.6-.8-3.3-1-5.3-1.3-1.3-.2-2.8-.4-4.5-.8-2.9-.7-9.2-7.5-11.1-10.2-1.1-1.6-1.6-3.6-2-5.6-.5-2.2-1.1-4.5-1.7-6.7-1.9-6.8-3.6-13.3-3-20.2.1-2.2.4-4.2.6-5.9.7-5.9 1-8.8-1-14-.6-1.5-1.3-2.9-2.2-4.2v-.1l-.1-.1c-.4-.6-.9-1.4-1.3-2.1v-.1l-.2-.2-.3.4h-.5v.1l.1.1c.4.8.9 1.6 1.3 2.2v.1l.1.1c.9 1.3 1.6 2.6 2.1 4.1 1.9 5 1.6 7.8.9 13.5-.1 1.8-.4 3.8-.6 6.2-.6 7.1 1.2 13.6 3.1 20.5.6 2.2 1.2 4.4 1.7 6.6.5 1.9 1 4.1 2.2 5.9 1.9 2.8 8.4 9.9 11.6 10.6 1.8.4 3.3.6 4.6.8 2 .3 3.5.5 5 1.2 1.2.6 2.3 1.5 3.4 2.8.5.6 1 1.3 1.5 2l.1.1c1.5 2.1 3 4.3 5 6.1 2 1.7 4.5 2.4 6.9 3.2.5.2 1 .3 1.6.5 4.1 1.3 8 1.9 11.8 1.9zM1.1 17.9h-1z"/><path class="st0" d="M62.5 101.7c.8 0 1.7 0 2.6-.1 1.1 0 2.1-.1 3.3-.1h.1c3.2 0 5.8-1.4 8.3-2.7 2.3-1.2 4.4-2.4 7-2.6 1.8-.2 4.2-.1 7 .1h.4c2.9.2 5.9.3 7.9.2 10-.9 11.1-5.6 12.9-13.4.5-2.2 1.1-4.6 1.9-7.3l.1-.4-.3-.2c-.4-.2-.9-.3-1.4-.2-1.7.2-3.6 1.8-5.5 3.4-.8.7-1.6 1.3-2.3 1.8l.5.8c.7-.5 1.5-1.2 2.4-1.9 1.7-1.4 3.6-3 5-3.2h.5c-.8 2.6-1.3 4.9-1.8 6.9-1.8 7.8-2.7 11.8-12 12.6-2 .2-4.9 0-7.8-.2h-.4c-2.8-.2-5.3-.3-7.1-.1-2.8.3-5.2 1.5-7.4 2.7-2.5 1.3-4.9 2.6-7.9 2.6h-.4c-1 0-2 0-3 .1-7.5.2-12.5.3-23.8-14.1-4-5.1-9.1-7.2-14-9.3-6.3-2.5-12.3-5-16.2-13.4-2.8-6.2-2.8-7.5-1.7-19.7.6-7-1.2-13.5-5.4-19.3v-.1l-.1-.1c-.2-.2-.3-.5-.3-.9h-1c0 .5.1 1 .4 1.3v.1l.1.1c4.1 5.7 5.9 12 5.3 18.8-1.1 12.3-1.1 13.8 1.8 20.3 4.1 8.8 10.5 11.4 16.8 14 4.8 2 9.8 4.1 13.6 8.9 10.2 13.2 15.4 14.6 21.9 14.6z"/><path class="st0" d="M66.7 86.9H68l.1-.5v.5c.5 0 .9-.1 1.3-.1.3-.1.6-.1.9-.2 1-.2 1.8-.5 2.4-.8.3-.2.7-.4.9-.7.3-.3.5-.6.7-.9.1-.1.1-.2.1-.2.1-.2.1-.4.2-.6v-.2c.1-.3.1-.6.1-.9v-1.8c0-.6 0-1 .1-1.4v-.2c0-.2.1-.4.1-.6 0-.1 0-.2.1-.2.1-.4.2-.7.3-.9 0-.1.1-.2.1-.3.1-.3.3-.6.4-.9l.1-.1c.2-.3.4-.7.6-1l.1-.1c.1-.2.3-.4.4-.6l.5-.7c.2-.2.3-.5.5-.8l.6-.9c.4-.6.7-1.2.9-1.7.1-.2.2-.4.2-.6.1-.3.2-.7.2-1.1 0-.1 0-.2.1-.3.1-.3.1-.7.1-1.1V65.8c0-.3-.1-.7-.1-1 0-.3-.1-.7-.2-1-.1-.3-.2-.7-.2-1l-.1-.4c-.1-.3-.2-.7-.3-1-.2-.4-.3-.8-.6-1.3-.1-.3-.3-.6-.5-.9-.1-.1-.1-.2-.2-.3-.2-.4-.4-.7-.6-.9-.3-.4-.6-.7-.8-1-.2-.2-.4-.5-.7-.8-.3-.3-.6-.6-1-.8l-.9-.6c-.3-.2-.8-.5-1.2-.7-.1 0-.2-.1-.3-.1h-.1c-.2-.1-.4-.2-.6-.2-.3-.1-.7-.2-1-.3-.4-.1-.7-.2-1.1-.3-.3 0-.5-.1-.8-.1-.4-.1-.9-.1-1.3-.2h-.4c-.3 0-.7-.1-1-.1H61.3l-2.5-.8c-.3 0-.7-.1-1-.2h-.2c-.1 0-.3 0-.4-.1-.2 0-.3-.1-.5-.1l-.2.5.1-.5c-.1 0-.3-.1-.4-.1l-1.6-.5-.6-.3-.3.4.2-.5-.4-.2c-.2-.1-.3-.2-.5-.3-.2-.1-.5-.2-.7-.4l-.5-.3c-.2-.1-.4-.2-.6-.4-.1-.1-.2-.1-.3-.2-.3-.2-.7-.4-1-.6l-1.6-.9c-.2-.1-.5-.3-.8-.4-.4-.2-.8-.4-1.3-.6-.4-.2-.7-.3-1.1-.5-.5-.2-1-.4-1.5-.5-.3-.1-.7-.2-1.1-.3-.3 0-.6-.1-.8-.1h-.1c-.4-.1-.8-.1-1.2-.1h-2c-.6 0-1.1.1-1.6.2-.3.1-.7.2-1 .2-.2 0-.4.1-.5.2-.3.1-.6.2-1 .3-.8.3-1.6.8-2.4 1.3-.2.1-.4.3-.6.4-.1 0-.1.1-.2.2-.2.2-.4.3-.6.5 0 0-.1 0-.1.1l-.8.8c-.1.2-.3.3-.4.5v.5c-.2.2-.3.5-.5.7 0 0-.1.1-.1.2l-.6 1.2-.3.9.4.2-.5-.1c-.1.3-.1.6-.2.9-.1.6-.2 1.3-.3 2.1v1.8c0 .3.1.7.1 1.1v.4l.1.3c.1.3.1.6.2.9l.3 1.2c.1.3.2.7.4 1l.1.1c0 .1.1.2.1.3.1.3.3.6.5 1 .9 1.5 2 2 3.5 2.7.5.2 1 .5 1.6.8l.1.1h.1l.3.2c.3.1.5.3.8.4l1.7.9c.4.2.9.4 1.3.6l.1.1h.1c.4.1.7.3 1.1.4l.3.1c.3.1.5.2.8.3.3.1.5.2.7.2h.1c.2.1.4.1.5.1h.1c.1 0 .1 0 .2.1l.2.1c.1 0 .1 0 .2.1l1.8.7-1.3-1.6c-.1-.2-.3-.3-.4-.6-.1-.1-.1-.2-.2-.3l-.1-.2c-.1-.1-.2-.3-.2-.4-.1-.2-.2-.3-.3-.4l-.3-.6c-.2-.5-.5-1-.6-1.4-.1-.2-.1-.4-.2-.6-.1-.3-.1-.6-.2-.9 0-.2-.1-.4-.1-.6V63.6c0-.3.1-.5.1-.7 0-.2.1-.3.1-.5l.1-.2c.1-.1.1-.3.2-.4.1-.2.2-.3.4-.5l.3-.3c.2-.2.4-.4.7-.6.1-.1.3-.2.4-.2.2-.1.4-.2.5-.3.1-.1.3-.1.4-.2h.1c.2-.1.5-.2.7-.3h.1c.2-.1.4-.1.6-.2l1.5-.3c.2 0 .5-.1.7-.1.4 0 .8-.1 1.1-.1h1.9c.5 0 .9.1 1.4.1.1 0 .3 0 .4.1.2 0 .4 0 .6.1.2 0 .4 0 .5.1.2 0 .3.1.5.1s.3.1.5.1.3.1.5.1.4.1.6.2c.2.1.4.1.6.2.2 0 .3.1.5.2.1 0 .2.1.3.1.2.1.4.1.5.2.2.1.4.2.6.2l.1.1h.1l.2.1c.3.1.8.4 1.4.7l.6.3.2.1c.1.1.2.1.3.2.2.1.4.2.5.4l.1.1c.1.1.2.1.3.2.2.1.3.2.5.4.4.3.8.7 1.2 1.1.2.2.3.3.4.5.1.1.2.3.3.4.2.2.3.3.4.5.4.5.7.9.9 1.3.1.2.2.3.3.5l.1.1c.1.2.3.5.4.8.1.2.2.3.2.5.1.2.1.4.2.5.1.2.1.3.2.4v.1c.1.3.2.6.2 1v1.7c0 .1 0 .3-.1.5 0 .1 0 .2-.1.3 0 .1 0 .2-.1.3 0 .2-.1.3-.1.4 0 .1-.1.2-.1.4v.1c-.1.3-.2.5-.3.8l-.1.2c-.1.1-.1.3-.2.4v.1c-.1.1-.1.2-.2.3l.3.4-.4-.3c-.1.1-.1.2-.2.3l-.2.3c-.2.2-.4.4-.6.7l-.1.1-.4.4c-.3.2-.5.4-.8.6-.2.1-.3.2-.5.2h-.1c-.4.2-.9.3-1.3.4h-.1c-.2 0-.3.1-.5.1s-.3.1-.5.1h-.2c-.3 0-.5.1-.7.1h-.8c-.3 0-.5 0-.8-.1-.2 0-.5-.1-.7-.1-.3 0-.5-.1-.8-.2-.2 0-.3-.1-.4-.1h-.1c-.2-.1-.4-.1-.6-.2-.2-.1-.4-.1-.6-.2-.6-.2-1.1-.4-1.6-.6-.1-.2-.3-.2-.5-.3-.2-.1-.3-.1-.4-.2-.1-.1-.2-.1-.3-.1l-2.2-1.2 1.6 2 .3.3c.1.2.2.3.4.5s.4.4.5.6c.8.9 1.4 1.6 2.1 2.2l.1.1.7.7c.2.2.5.5.8.7l.1.1c1.7 1.3 3.4 2.2 5.3 2.8 1 .3 2.5.5 4 .6.4 0 .8 0 1.1-.1zm1.4-1.1H65.7c-1.4-.1-2.8-.2-3.8-.5-1.8-.5-3.4-1.4-5-2.6l-.1-.1c-.3-.2-.6-.5-.8-.7-.3-.2-.5-.4-.7-.7l-.1-.1c-.5-.5-1.1-1.1-1.7-1.9l.9.3c.2.1.4.2.7.2.2.1.4.1.6.2h.2c.2.1.3.1.5.1.2.1.5.1.8.2.2.1.5.1.8.1.3 0 .5 0 .8.1h.9c.2 0 .5 0 .7-.1h.2c.2 0 .4 0 .5-.1.2 0 .3-.1.5-.1h.1c.5-.1.9-.2 1.4-.4h.1l.1-.1c.2-.1.3-.2.5-.2.3-.2.7-.4 1-.7.2-.1.3-.3.5-.4l.2-.2c.2-.2.4-.5.6-.7l.2-.3c.1-.1.1-.2.2-.3 0 0 .1-.1.1-.2.1-.1.1-.2.2-.3 0-.1.1-.2.1-.2.1-.1.1-.2.2-.4l.1-.1v-.2c.2-.3.3-.6.4-.9v-.1c.1-.1.1-.3.1-.4.1-.1.1-.3.1-.4 0-.2.1-.3.1-.4 0-.1 0-.2.1-.3 0-.2.1-.4.1-.6v-.2c0-.3.1-.6.1-.9v-.8c0-.4-.1-.8-.2-1.1v-.1c-.1-.2-.1-.3-.2-.5 0-.2-.1-.4-.2-.6-.1-.2-.2-.4-.2-.6-.1-.2-.2-.5-.4-.8v-.1l-.3-.6c-.3-.4-.6-.9-.9-1.4-.1-.2-.3-.4-.5-.6-.1-.1-.2-.3-.4-.4-.1-.2-.3-.3-.5-.5-.4-.4-.8-.8-1.2-1.1-.1-.1-.3-.3-.5-.4l-.3-.3-.2-.1c-.2-.1-.3-.3-.5-.4-.1-.1-.3-.2-.4-.3l-.1-.1c-.2-.1-.3-.2-.5-.3-.5-.3-1-.6-1.4-.8-.1 0-.1-.1-.2-.1-.2-.1-.2-.1-.3-.1-.2-.1-.4-.2-.7-.3-.1-.1-.3-.1-.5-.2-.1 0-.2-.1-.4-.1-.1 0-.3-.1-.5-.2s-.4-.1-.6-.2c-.2-.1-.4-.1-.6-.2-.1 0-.3-.1-.5-.1-.1 0-.3-.1-.5-.1-.1 0-.3-.1-.5-.1-.1 0-.3-.1-.5-.1s-.4-.1-.7-.1c-.1 0-.3 0-.5-.1-.5 0-1-.1-1.5-.1h-2.1c-.4 0-.8.1-1.2.1-.2 0-.5 0-.8.1-.5.1-1.1.2-1.6.3-.2 0-.4.1-.6.2h-.1c-.3.1-.6.2-.8.3h-.1c-.2.1-.4.2-.5.2l-.6.3c-.1 0-.3.2-.4.2-.4.3-.7.5-.9.7l-.4.4c-.2.2-.3.4-.4.6l-.3.6s-.1.1-.1.2c-.1.2-.1.3-.2.5-.1.3-.1.6-.2.9v1c0 .2 0 .4.1.7.1.3.1.7.2 1 .1.2.1.4.2.7.2.5.4 1 .7 1.5l.3.6.1.2c.1.2.2.3.3.4.1.1.2.3.2.4h-.1c-.2 0-.4-.1-.6-.2-.3-.1-.6-.2-.8-.3l-.4-.2c-.4-.2-.7-.3-1.1-.4-.4-.2-.9-.4-1.3-.6l-1.7-.9c-.2-.1-.5-.3-.8-.4l-.6-.3c-.6-.3-1.1-.6-1.6-.8-1.4-.7-2.3-1.1-3.1-2.3-.2-.3-.3-.6-.4-.9-.1-.1-.1-.2-.1-.3l-.1-.1-.3-.9c-.1-.4-.2-.7-.3-1.1-.1-.4-.1-.8-.2-1.1l-.1-.4c0-.3-.1-.6-.1-.9v-1.7c0-.7.1-1.4.2-2 .1-.3.1-.6.2-.8v-.1c.1-.3.2-.5.3-.8.2-.4.4-.8.6-1.1 0-.1.1-.1.1-.2.1-.2.3-.5.4-.6l.1-.1c.1-.1.2-.3.4-.4.2-.3.5-.5.7-.7l.1-.1c.2-.2.4-.3.5-.5l.2-.2c.2-.2.4-.3.6-.4.7-.5 1.4-.9 2.2-1.2l.9-.3c.2-.1.3-.1.5-.1.3-.1.6-.2 1-.2.5-.1 1-.2 1.5-.2h1.8c.4 0 .7 0 1.1.1h.1c.3 0 .6.1.8.1.3.1.7.1 1 .2.4.1.9.3 1.4.5.4.1.7.3 1.1.5l1.2.6c.2.1.5.3.7.4l1.6.9c.3.2.6.4 1 .6.1 0 .2.1.3.2.2.1.4.3.6.4l.5.3c.2.1.4.2.7.4.2.1.4.2.5.3l.5.3c.2.1.4.2.7.3l1.1.4.4.1c.1 0 .3.1.4.1h.1c.2.1.4.1.6.1.1 0 .3.1.5.1h.3c.3 0 .6.1 1 .2l2.5.2h4.8c.4 0 .7 0 1 .1h.4c.4 0 .9.1 1.3.2.3 0 .5.1.8.1.3.1.7.2 1 .2l.9.3c.2.1.4.2.6.2l.1.1c.1 0 .2.1.2.1.4.2.8.4 1.1.6.3.2.6.4.8.6.3.2.6.5.9.8l.7.7c.2.3.5.6.8 1 .2.3.4.5.5.8.1.2.2.3.2.4.2.3.3.6.5.9.2.4.4.9.6 1.2l.3.9c0 .1.1.2.1.3l.1.4c.1.2.1.4.1.6.1.3.1.6.2.9.1.3.1.7.1 1v1c0 .3 0 .7-.1 1v.2c-.1.4-.1.7-.2 1-.1.2-.1.4-.2.6-.2.5-.4 1-.8 1.6-.2.3-.3.5-.5.8-.2.3-.4.5-.6.8l-.5.7c-.1.2-.3.4-.4.6-.3.4-.5.8-.7 1.2v.6c-.2.3-.3.6-.4.9-.1.1-.1.2-.1.3-.1.2-.2.6-.3 1 0 .1-.1.2-.1.3-.1.1-.1.4-.1.6l-.1.3c-.1.5-.1 1-.1 1.6v1.8c0 .2 0 .5-.1.7v.1c0 .2-.1.4-.1.5l-.1.2c-.1.2-.2.4-.4.6-.2.2-.5.4-.7.5-.6.3-1.3.6-2.2.7-.3.1-.6.1-.9.2-.4.1-.8.2-1.2.2 0 0-.1 0 0 0z"/><path class="st0" d="M51.5 78.4h.2v-.5l.4-.3-.1-.1c-.1-.1-.1-.1-.1-.2-.1-.2-.3-.3-.4-.5l-.3-.3c0-.1-.1-.1-.1-.2s-.1-.1-.1-.1l-.3-.2c0-.1-.1-.1-.1-.1l-.7-.8c-.4-.5-.9-.9-1.4-1.3l-.4-.4c0-.1-.1-.1-.3-.2l-.4-.4-.4-.3c-.1-.1-.2-.1-.3-.2l-.1-.1c-.4-.2-.8-.5-1.1-.7-.3-.1-.5-.3-.8-.4l-1.5-.6-.3.9c.5.2.9.3 1.4.6.3.1.5.2.7.4.4.2.7.4 1.1.7l.1.1c.1.1.2.1.2.2l.4.3c.1.1.3.2.4.3l.1.1c.1 0 .1.1.2.2.2.1.3.2.4.4.5.4.9.8 1.3 1.3l1 1.1.1.1.1.2.2.1.2.2c.1.2.3.3.4.5l.1.2c.1.1.1.1.1.2l.1-.2zM39.9 70.5l.4-.9-.4-.2-.4 1zM51.7 78.4v-1z"/><path d="M127.6 205.2c10.6 0 28.3-1.3 44.5-8.7 4.4-2 15.4-9.1 16.4-12.8.2-.6.1-1.1-.2-1.5-1.4-2-3.4-1.9-5.3-1.8-1.1.1-2.1.1-3.2-.1l-.4-.1-.2.4c-2.1 4.5-9.2 15.1-30.5 18.2-15.2 2.2-29.7 2.1-42.9 0l-.8-.1c-21.5-3.7-40.1-13.1-55.3-28.1-8.4-8.2-17.2-24.5-20.1-37.2-1.9-8 .2-21 3.2-28.1.2-.4 1-1.7 2-3.2.9-1.4 2-3.1 3-4.7l-.9-.5c-1 1.6-2.1 3.3-3 4.7-1.1 1.6-1.9 2.8-2.1 3.3-3.1 7.2-5.2 20.4-3.3 28.7 3 12.8 11.9 29.4 20.4 37.7 15.3 15.1 34.1 24.6 55.8 28.3h.1l.7.1c13.3 2.2 27.9 2.2 43.2 0 7.2-1 24.6-4.9 31.1-18.4 1.1.2 2.2.1 3.1.1 1.9-.1 3.3-.2 4.4 1.3 0 .1.2.2.1.7-.9 3.1-11 10-15.9 12.2-22.7 10.3-48.2 8.7-53 8.3-23.7-2.1-35.8-8-45.5-12.7l-1-.5c-11.9-5.8-33.2-19.6-42.8-47.3-4-11.5-3.6-20.4-3.4-25.2.2-5 2.5-17.3 8.3-23.6l-.7-.7c-6.5 7-8.4 20.2-8.6 24.3-.2 4.8-.6 13.8 3.5 25.5 9.7 28.1 31.3 42.1 43.3 47.9l1 .5c9.8 4.8 22 10.7 45.9 12.8 1.6.1 4.8.3 9.1.3z"/><path class="st0" d="M52.8 70.5h.3c.5-.1 1.1-.4 1.4-.9.2-.3.2-.6.1-.9-.3-.8-1.3-1.6-2.1-2-.5-.2-1-.3-1.3-.2-.6.3-.9 1.1-.6 2 .4 1 1.2 2 2.2 2zm1.4-1.7-.5.2c0 .1-.3.4-.7.5-.7.1-1.1-.6-1.2-.8-.3-.6-.2-1.1-.2-1.2.3-.1 1.8.8 2.1 1.6l.5-.3-.5.2.5-.2z"/></svg>