<?xml version="1.0" encoding="utf-8"?>
<!-- Generator: Adobe Illustrator 26.5.0, SVG Export Plug-In . SVG Version: 6.00 Build 0)  -->
<svg version="1.1" id="Layer_4" xmlns="http://www.w3.org/2000/svg" xmlns:xlink="http://www.w3.org/1999/xlink" x="0px" y="0px"
	 viewBox="0 0 196.7 216.2" style="enable-background:new 0 0 196.7 216.2;" xml:space="preserve">
<style type="text/css">
	.st0{fill:#1D1D1B;}
	.st1{fill:#A21916;}
</style>
<path d="M132.8,213.5c8.9,0,18.6-1,28.6-3.6c13.2-3.4,28.6-12.9,31.4-18.1c0.5-0.8,0.6-1.5,0.4-2.1c-0.6-1.6-5.1-3.7-7.7-3.4
	c-1.4,0.1-2.2,0.8-2.4,1.9c-0.5,3.3-2.8,6.5-6.8,9.3c-12,8.3-40.6,13.9-75.2,6.5c-39.7-8.5-71.5-48.4-67.2-73.2
	c2.3-13.5,5.9-21.9,8.5-26.6l0.2-0.3l-0.2-0.3c-0.6-0.6-1.2-1.2-2-1.7c-0.7-0.4-1.4-0.8-2.1-1.1l-0.4-0.2l-0.2,0.3
	c-5.1,7.2-9.6,25.9-7.7,41.1l0,0c4.8,40,50.8,60,52.8,60.8l0.5,0.2C91.4,206.8,109.8,213.5,132.8,213.5L132.8,213.5z M185.9,187.2
	c2.4,0,6,1.8,6.3,2.8c0.1,0.3,0,0.8-0.3,1.3c-2.4,4.5-17.2,14.1-30.7,17.6c-35.5,9.1-66.1-1.6-77.6-6.7L83,202
	c-1.9-0.8-47.5-20.6-52.2-60c-1.8-14.7,2.4-32.7,7.3-40c0.5,0.2,1,0.5,1.6,0.8c0.6,0.4,1.1,0.8,1.6,1.2c-2.6,4.8-6.1,13.2-8.4,26.6
	c-4.3,25.2,27.8,65.8,68,74.4c34.9,7.4,63.8,1.8,76-6.7c4.2-2.9,6.7-6.4,7.3-9.9c0.1-0.4,0.3-1,1.4-1.1
	C185.6,187.2,185.7,187.2,185.9,187.2L185.9,187.2z"/>
<path class="st0" d="M62.8,88.3c2.1,0,4-0.5,5.5-1.5c2.7-1.7,4-4.8,3.9-8.5c0-3.3-2.3-6.6-6.2-9.1c-5.5-3.5-12.7-4.5-17.3-2.5
	c-0.2,0.1-0.4,0.2-0.6,0.3c-2,0.9-4.3,1.8-4.2,5.9c0,1.6,0.7,3.4,1.8,5.2l0.8-0.5c-1-1.6-1.6-3.2-1.6-4.6c-0.1-3.4,1.6-4.1,3.6-4.9
	c0.2-0.1,0.4-0.2,0.7-0.3c4.2-1.9,11.1-0.9,16.3,2.4c3.6,2.3,5.7,5.3,5.8,8.2c0.1,3.4-1.1,6.1-3.4,7.6c-2.8,1.8-7,1.8-11-0.1
	l-0.4,0.9C58.5,87.8,60.8,88.3,62.8,88.3L62.8,88.3z"/>
<path class="st0" d="M56.9,77.8c0.2,0,0.4,0,0.7-0.1c0.5-0.1,1.2-0.5,1.4-1.1l0,0c0.2-0.8-0.8-1.7-1.1-1.9c-0.3-0.2-1.4-1-2.3-0.5
	c-0.4,0.2-0.6,0.7-0.7,1.2c-0.1,0.7,0.1,1.4,0.6,1.8C55.8,77.6,56.4,77.8,56.9,77.8L56.9,77.8z M58,76.4c-0.1,0.1-0.3,0.3-0.8,0.4
	c-0.2,0.1-0.7,0.1-1-0.2c-0.3-0.3-0.3-0.7-0.3-1c0-0.3,0.1-0.4,0.2-0.5c0.1,0,0.4,0,0.9,0.3C57.6,75.7,58,76.2,58,76.4L58,76.4z"/>
<path class="st1" d="M76.3,99.2c0.3,0,0.7,0,1,0c3.1-0.1,5.3-1.6,8-3.4c2.3-1.5,4.9-3.2,8.6-4.7c2.4-0.9,4.8-1.2,7.4-1.5
	c2.6-0.3,5.3-0.6,8-1.7c9.5-3.6,14.5-8.6,15-14.9l0,0c0.3-4.4-3.5-8.4-7.6-12.5c-2-2-4-4.1-5.7-6.3c-2.4-3.1-3.1-6.7-3.9-10.1
	c-0.9-4.1-1.8-8.3-5.4-11.8c-2-1.9-3.4-2.6-4.9-3.3c-1.7-0.8-3.4-1.6-6.3-4.2c-3-2.8-4.3-4.9-5.5-6.7c-1.3-2.1-2.4-3.8-5.3-5.5
	c-1.6-0.9-2.6-1.1-4.4-1.4c-1.7-0.3-4.3-0.8-9-2.1c-5.7-1.6-7.6-1-9.1-0.6c-0.4,0.1-0.8,0.2-1.3,0.3c-8.7,1.1-12.1,4.1-15.2,6.7
	c-1.8,1.5-3.5,3-6.1,4c-8,2.9-15.2,2.5-20.5,2.2c-5.4-0.3-9.3-0.5-10.1,3.2c-0.7,3.3-0.7,7.3,7.6,11.9c2.9,1.6,5.5,5.2,7.4,10.3
	c1.6,4.1,1.6,6.4,1.5,8.4c0,1.9,0,3.7,1.3,6.4c0.4,0.9,0.8,1.8,1.2,2.6c1.8,4.1,3.1,7.1,10.9,11.2c2.8,1.5,5.8,1.8,8.7,2.2
	c3.2,0.4,6.3,0.7,8.4,2.8c2.4,2.4,4.5,4.7,6.5,7C63,94.1,67.5,99.2,76.3,99.2L76.3,99.2z M60.1,8.9c1.3,0,3.1,0.2,5.9,1
	c4.8,1.3,7.4,1.8,9.1,2.1c1.8,0.3,2.6,0.5,4.1,1.3c2.7,1.5,3.7,3,5,5.1c1.2,1.8,2.6,4.1,5.6,6.9c3,2.8,4.9,3.6,6.5,4.4
	c1.5,0.7,2.8,1.3,4.7,3.1c3.4,3.3,4.2,7.2,5.1,11.3c0.8,3.5,1.5,7.2,4.1,10.5c1.8,2.3,3.8,4.4,5.8,6.4c4.1,4.1,7.6,7.7,7.3,11.7l0,0
	c-0.4,5.9-5.2,10.6-14.3,14.1c-2.6,1-5.2,1.3-7.8,1.6c-2.5,0.3-5.1,0.6-7.6,1.6c-3.9,1.5-6.5,3.2-8.8,4.8c-2.7,1.8-4.8,3.2-7.5,3.3
	c-9,0.4-13.5-4.7-19.1-11.2c-2-2.3-4.1-4.7-6.5-7.1c-2.4-2.3-5.6-2.7-9-3.1c-2.8-0.3-5.7-0.7-8.4-2.1c-7.5-4-8.7-6.8-10.4-10.8
	c-0.4-0.8-0.7-1.7-1.2-2.6c-1.2-2.5-1.2-4.1-1.2-6c0-2.1,0-4.6-1.6-8.8c-2-5.3-4.8-9-7.9-10.8C4.4,31.5,4.3,28.1,4.9,25
	c0.5-2.7,3.3-2.7,9-2.4c5.4,0.3,12.8,0.7,20.9-2.3c2.8-1,4.6-2.5,6.4-4.2c3.1-2.7,6.2-5.4,14.6-6.4c0.5-0.1,1-0.2,1.5-0.3
	C58.1,9.1,58.8,8.9,60.1,8.9L60.1,8.9z"/>
<path class="st1" d="M73,99.1L73,99.1c2.5-0.3,7.1-2.2,7.3-2.3c1.4-0.8,2.3-1.7,3.2-2.6c1-1.1,2-2.1,3.7-2.7l0.9-0.3
	c8.9-3,13.8-4.7,15.2-9c2.8-8.4-3.1-15.2-15.7-25.6c-3.9-3.2-6.1-6.2-8.1-8.9c-2.5-3.3-4.7-6.2-9.3-8.1c-6.5-2.6-12.3-1.2-18.4,0.3
	c-3.4,0.8-6.9,1.7-10.8,2c-1.9,0.1-4.5-0.4-7.2-1.1c-6.1-1.4-13-2.9-15.1,2.5c-0.3,0.7,0.2,1.6,1.1,3.1c1.5,2.8,3.8,7,2.5,12.1
	c-0.2,0.9-0.4,1.8-0.4,2.8l1,0c0-0.9,0.1-1.8,0.4-2.6c1.4-5.5-1.1-10.1-2.6-12.8c-0.5-0.9-1.1-2-1-2.3c1.8-4.7,8-3.3,13.9-1.9
	c2.9,0.6,5.5,1.2,7.6,1.1c4-0.3,7.5-1.2,10.9-2c6.2-1.5,11.7-2.8,17.8-0.3c4.4,1.8,6.4,4.4,8.9,7.8c2,2.7,4.3,5.7,8.3,9
	c12.3,10.1,18,16.7,15.4,24.5c-1.3,3.8-6,5.4-14.6,8.4l-0.9,0.3c-1.9,0.6-3,1.8-4.1,2.9c-0.8,0.9-1.7,1.8-2.9,2.4l0,0
	c0,0-4.7,1.9-6.9,2.2L73,99.1L73,99.1z"/>
<path class="st1" d="M66.7,94.8c1.7,0,3.7-0.2,6.1-0.5c5.8-0.8,5.9-1.7,6.7-7.6c0.1-0.6,0.2-1.3,0.3-2.1c0.2-1.7,1.1-3.3,1.9-5.1
	c1.6-3.2,3.4-6.9,1.4-11.1c-3.9-8.1-9.1-8.4-16.9-8.9c-1-0.1-2-0.1-3.1-0.2c-5.8-0.5-8.8-2.5-11.2-4.1c-1.9-1.2-3.4-2.3-5.7-2.2
	c-6.4,0.3-11,2.1-13.4,5.2c-1.5,2-2.1,4.4-1.6,7.1c0.1,0.3,0.1,0.5,0.1,0.8c0.6,3.1,1.1,6,8.2,11l0.6-0.8c-6.8-4.8-7.3-7.5-7.8-10.4
	c-0.1-0.3-0.1-0.5-0.1-0.8c-0.5-2.4,0-4.5,1.4-6.3c2.2-2.8,6.6-4.5,12.7-4.8c1.9-0.1,3.3,0.8,5.1,2c2.5,1.7,5.6,3.8,11.7,4.2
	c1.1,0.1,2.1,0.2,3.1,0.2c7.7,0.5,12.4,0.8,16.1,8.3c1.8,3.8,0.2,7.1-1.4,10.2c-0.9,1.8-1.8,3.6-2,5.4c-0.1,0.8-0.2,1.4-0.3,2.1
	c-0.7,5.8-0.8,6-5.8,6.7c-3.9,0.5-6.7,0.6-8.8,0.3l-0.1,1C64.6,94.7,65.6,94.7,66.7,94.8L66.7,94.8z"/>
<path class="st1" d="M70.3,110.1c1.6,0,3.2-0.2,4.8-0.5c1.8-0.4,3-1.1,4.3-1.9c1.8-1.1,3.9-2.4,8.2-3c0.3-0.1,0.8-0.1,1.3-0.2
	c1.3-0.3,3-0.6,4.3-0.4c7.3,1.1,13.2-0.1,17.5-3.3c6-4.6,7.6-12,8.4-18.1l-1-0.1l0,0c-0.7,5.8-2.3,13-8,17.3
	c-4.1,3.1-9.7,4.2-16.7,3.2c-1.6-0.2-3.3,0.1-4.7,0.4c-0.5,0.1-0.9,0.2-1.2,0.2c-4.4,0.6-6.6,1.9-8.5,3.1c-1.3,0.8-2.4,1.4-4,1.8
	c-9.2,2-18.5-2.5-23.5-6.9c-2.7-2.3-3.8-4.3-5-6.2c-1.3-2.2-2.6-4.3-6-6.7c-3.3-2.3-5.9-3-8.4-3.6c-1.8-0.4-3.4-0.9-5.3-1.8
	c-9-4.5-15.1-13.8-14.2-21.7c1.1-9.8-0.3-21-2.3-26.9l-0.9,0.3c2,5.8,3.4,16.8,2.3,26.5c-0.9,8.2,5.4,18,14.7,22.7
	c2,1,3.8,1.5,5.5,1.9c2.5,0.6,4.9,1.2,8.1,3.5c3.3,2.3,4.5,4.3,5.7,6.4c1.2,2,2.4,4,5.2,6.4C55.1,106.2,62.4,110.1,70.3,110.1
	L70.3,110.1z"/>
<path class="st1" d="M66,119.7c0.9,0,1.7-0.1,2.4-0.2c12.4-3,23-11,27.3-15.2l-0.7-0.7c-4.2,4.2-14.7,12-26.8,15
	c-4.4,1.1-16.1-2.2-19.8-5.5c-1.9-1.7-2.8-3.5-3.6-5.2c-0.7-1.5-1.4-2.9-2.6-4.1c-0.6-0.6-1.2-1.1-2-1.7c-0.7-0.4-1.4-0.8-2.1-1.1
	c-1.7-0.7-3.2-0.9-4.8-1.1c-1.7-0.2-3.6-0.5-5.8-1.4C17.2,93.6,9.9,70.2,10.2,60.3c0.6-5.3,1.3-10.3,2.1-15l-1-0.1
	c-0.7,4.6-1.4,9.7-2.1,15c-0.3,10.4,7.1,34,17.9,39.1c2.4,1,4.2,1.2,6.1,1.4c1.5,0.2,3,0.4,4.6,1c0.7,0.3,1.3,0.6,1.9,1
	c0.7,0.5,1.3,0.9,1.8,1.5c1.1,1.2,1.7,2.5,2.4,3.9c0.9,1.8,1.8,3.7,3.8,5.6C51.1,116.8,60.4,119.7,66,119.7L66,119.7z"/>
</svg>
