<?xml version="1.0" encoding="UTF-8"?><svg id="Layer_4" xmlns="http://www.w3.org/2000/svg" viewBox="0 0 196.68 216.16"><defs><style>.cls-1{fill:#a21916;}.cls-2{fill:#1d1d1b;}</style></defs><path d="M64.1,213.48c-8.93,0-18.56-1-28.59-3.58-13.23-3.39-28.56-12.94-31.37-18.08-.45-.82-.57-1.54-.38-2.13,.55-1.65,5.08-3.68,7.7-3.45,1.35,.12,2.18,.81,2.35,1.93,.48,3.28,2.85,6.49,6.85,9.27,11.96,8.32,40.6,13.92,75.2,6.53,39.65-8.46,71.46-48.42,67.19-73.23-2.31-13.48-5.88-21.89-8.46-26.57l-.17-.32,.25-.26c.56-.61,1.23-1.15,2.03-1.65,.68-.43,1.36-.77,2.07-1.06l.37-.15,.23,.32c5.12,7.22,9.57,25.86,7.75,41.05h0c-4.8,39.96-50.85,60-52.81,60.83l-.51,.22c-8.35,3.67-26.69,10.32-49.68,10.32Zm-53.1-26.26c-2.41,0-5.97,1.81-6.29,2.78-.1,.32,0,.78,.31,1.34,2.43,4.46,17.17,14.11,30.74,17.59,35.52,9.12,66.11-1.64,77.62-6.69l.52-.23c1.93-.82,47.47-20.64,52.21-60.03,1.77-14.74-2.42-32.72-7.34-40.02-.52,.23-1.03,.5-1.55,.83-.61,.38-1.13,.79-1.58,1.23,2.61,4.81,6.11,13.25,8.4,26.56,4.34,25.22-27.84,65.81-67.97,74.38-34.9,7.45-63.85,1.75-75.98-6.69-4.23-2.94-6.74-6.38-7.27-9.95-.06-.42-.28-.98-1.44-1.08-.12,0-.25-.02-.38-.02Z"/><path class="cls-2" d="M134.04,88.28c-2.05,0-3.96-.51-5.51-1.52-2.65-1.73-4.02-4.75-3.88-8.51,.04-3.26,2.32-6.57,6.24-9.07,5.49-3.49,12.74-4.54,17.25-2.51,.21,.1,.43,.19,.64,.28,2,.86,4.26,1.83,4.16,5.88-.04,1.6-.66,3.38-1.8,5.15l-.84-.54c1.04-1.61,1.6-3.21,1.64-4.63,.08-3.36-1.6-4.09-3.56-4.93-.22-.1-.44-.19-.66-.29-4.22-1.91-11.08-.88-16.3,2.44-3.63,2.31-5.74,5.32-5.77,8.25-.13,3.4,1.08,6.11,3.42,7.64,2.82,1.85,7.01,1.81,10.95-.09l.44,.9c-2.13,1.03-4.35,1.55-6.42,1.55Z"/><path class="cls-2" d="M139.95,77.82c-.22,0-.45-.03-.67-.09-.53-.14-1.21-.52-1.36-1.09h0c-.22-.84,.76-1.66,1.07-1.89,.33-.25,1.45-1.01,2.27-.54,.36,.21,.62,.65,.69,1.21,.09,.7-.12,1.39-.57,1.84-.36,.37-.87,.56-1.43,.56Zm-1.06-1.43c.05,.09,.32,.31,.76,.4,.24,.05,.71,.08,1.02-.24,.27-.28,.33-.7,.29-1-.04-.29-.15-.45-.2-.47-.07-.04-.39-.03-.87,.27-.64,.39-.99,.88-.99,1.04Z"/><path class="cls-1" d="M120.56,99.23c-.33,0-.66,0-1-.02-3.07-.13-5.26-1.59-8.04-3.44-2.28-1.51-4.86-3.23-8.62-4.69-2.41-.94-4.83-1.22-7.38-1.53-2.58-.31-5.26-.63-7.99-1.66-9.47-3.59-14.51-8.61-14.96-14.92h0c-.32-4.45,3.53-8.36,7.6-12.5,1.97-2,4.01-4.07,5.73-6.33,2.38-3.11,3.14-6.67,3.87-10.11,.87-4.09,1.77-8.33,5.39-11.82,1.99-1.93,3.43-2.59,4.95-3.3,1.68-.78,3.43-1.59,6.28-4.24,2.97-2.75,4.3-4.86,5.48-6.73,1.35-2.14,2.42-3.83,5.34-5.46,1.64-.92,2.58-1.09,4.45-1.42,1.7-.3,4.27-.77,9-2.09,5.7-1.59,7.61-1.04,9.14-.59,.43,.13,.84,.25,1.3,.3,8.72,1.07,12.14,4.05,15.17,6.68,1.78,1.55,3.47,3.02,6.09,3.97,7.96,2.9,15.21,2.52,20.51,2.25,5.42-.28,9.34-.48,10.06,3.21,.66,3.34,.66,7.29-7.58,11.93-2.89,1.63-5.46,5.19-7.42,10.29-1.56,4.06-1.55,6.38-1.54,8.43,.01,1.91,.02,3.72-1.3,6.4-.45,.91-.82,1.76-1.17,2.57-1.81,4.13-3.13,7.11-10.9,11.25-2.82,1.5-5.81,1.85-8.71,2.18-3.24,.37-6.3,.73-8.43,2.78-2.45,2.37-4.49,4.73-6.47,7.01-5.58,6.44-10.04,11.58-18.85,11.58ZM136.81,8.92c-1.29,0-3.09,.25-5.88,1.03-4.78,1.34-7.38,1.8-9.09,2.11-1.82,.33-2.64,.47-4.14,1.31-2.7,1.51-3.65,3.02-4.98,5.12-1.15,1.82-2.58,4.08-5.64,6.92-2.97,2.75-4.86,3.63-6.54,4.41-1.5,.7-2.8,1.3-4.68,3.11-3.4,3.28-4.23,7.18-5.1,11.31-.75,3.55-1.53,7.21-4.05,10.51-1.77,2.31-3.83,4.4-5.82,6.42-4.08,4.14-7.6,7.72-7.32,11.73h0c.42,5.88,5.24,10.61,14.32,14.05,2.61,.99,5.22,1.3,7.75,1.6,2.51,.3,5.1,.61,7.63,1.59,3.86,1.5,6.49,3.25,8.81,4.79,2.65,1.76,4.75,3.15,7.53,3.27,9.01,.39,13.45-4.73,19.06-11.21,1.99-2.3,4.06-4.68,6.53-7.08,2.37-2.29,5.59-2.66,9.01-3.06,2.8-.32,5.7-.66,8.35-2.07,7.47-3.98,8.72-6.83,10.45-10.77,.36-.82,.74-1.68,1.19-2.6,1.21-2.48,1.2-4.09,1.19-5.96-.01-2.14-.02-4.56,1.6-8.79,2.04-5.32,4.76-9.05,7.86-10.8,7.66-4.32,7.7-7.74,7.09-10.87-.53-2.71-3.3-2.69-9.03-2.4-5.39,.28-12.76,.66-20.9-2.31-2.79-1.02-4.55-2.54-6.4-4.16-3.06-2.66-6.22-5.4-14.63-6.44-.54-.07-.98-.2-1.46-.33-.72-.21-1.49-.43-2.71-.43Z"/><path class="cls-1" d="M123.86,99.14h-.02c-2.46-.26-7.11-2.19-7.31-2.27-1.4-.77-2.31-1.72-3.19-2.64-1.04-1.09-2.03-2.12-3.66-2.68l-.91-.31c-8.89-3.02-13.78-4.69-15.19-9-2.77-8.4,3.13-15.22,15.74-25.63,3.9-3.23,6.14-6.22,8.12-8.86,2.51-3.35,4.68-6.25,9.3-8.13,6.45-2.62,12.27-1.2,18.42,.3,3.38,.83,6.87,1.68,10.77,2,1.86,.14,4.48-.44,7.25-1.06,6.08-1.36,12.97-2.9,15.09,2.55,.27,.7-.23,1.62-1.06,3.14-1.52,2.79-3.82,7.01-2.48,12.08,.23,.88,.36,1.82,.4,2.78l-1,.03c-.03-.89-.15-1.75-.36-2.56-1.44-5.45,1.07-10.06,2.57-12.81,.49-.91,1.11-2.03,1.01-2.3-1.81-4.65-7.97-3.27-13.94-1.94-2.85,.64-5.53,1.25-7.55,1.08-3.98-.32-7.51-1.18-10.93-2.02-6.25-1.53-11.66-2.85-17.81-.35-4.37,1.77-6.36,4.43-8.88,7.8-2.01,2.69-4.29,5.73-8.28,9.03-12.26,10.12-18.01,16.7-15.42,24.55,1.26,3.83,5.98,5.44,14.56,8.36l.91,.31c1.87,.63,2.98,1.8,4.06,2.93,.83,.87,1.68,1.76,2.9,2.43h0s4.67,1.93,6.93,2.17l-.03,1Z"/><path class="cls-1" d="M130.2,94.77c-1.71,0-3.73-.16-6.14-.48-5.81-.76-5.93-1.67-6.67-7.56-.08-.62-.17-1.3-.27-2.05-.23-1.66-1.05-3.31-1.92-5.07-1.6-3.22-3.42-6.88-1.38-11.1,3.91-8.06,9.07-8.4,16.89-8.9,.99-.06,2.03-.13,3.11-.22,5.84-.46,8.82-2.46,11.21-4.07,1.85-1.24,3.43-2.31,5.71-2.2,6.37,.32,11.01,2.1,13.4,5.16,1.54,1.96,2.08,4.41,1.56,7.06-.05,.26-.1,.52-.14,.78-.55,3.08-1.06,5.99-8.23,11.04l-.58-.82c6.83-4.81,7.31-7.53,7.82-10.4,.05-.26,.09-.53,.15-.8,.47-2.4,0-4.5-1.37-6.26-2.21-2.82-6.59-4.47-12.67-4.78-1.95-.1-3.33,.84-5.1,2.03-2.49,1.68-5.58,3.76-11.69,4.24-1.09,.09-2.13,.15-3.13,.22-7.73,.5-12.4,.8-16.05,8.34-1.82,3.78-.2,7.05,1.38,10.22,.91,1.83,1.77,3.56,2.02,5.38,.1,.75,.19,1.43,.27,2.06,.74,5.8,.77,6.03,5.81,6.69,3.87,.51,6.68,.6,8.83,.28l.15,.99c-.88,.13-1.86,.2-2.97,.2Z"/><path class="cls-1" d="M126.58,110.13c-1.59,0-3.19-.16-4.8-.5-1.75-.38-2.99-1.12-4.3-1.92-1.85-1.12-3.95-2.39-8.16-2.98-.35-.05-.78-.13-1.26-.23-1.32-.27-2.96-.6-4.35-.39-7.31,1.05-13.19-.08-17.47-3.35-5.97-4.55-7.6-12.04-8.36-18.05l1-.07h0c.73,5.77,2.29,13,7.97,17.32,4.06,3.1,9.69,4.16,16.72,3.15,1.56-.22,3.29,.12,4.69,.4,.46,.09,.86,.17,1.2,.22,4.42,.62,6.61,1.94,8.54,3.11,1.29,.78,2.4,1.45,3.99,1.79,9.25,1.97,18.45-2.5,23.5-6.92,2.69-2.35,3.84-4.3,4.96-6.19,1.31-2.22,2.55-4.32,6.03-6.74,3.32-2.31,5.91-2.97,8.41-3.6,1.76-.45,3.42-.87,5.34-1.83,8.97-4.5,15.07-13.81,14.18-21.65-1.11-9.82,.34-20.96,2.34-26.9l.95,.32c-1.97,5.83-3.39,16.79-2.3,26.46,.93,8.23-5.4,17.97-14.72,22.65-2.02,1.01-3.81,1.46-5.54,1.91-2.53,.64-4.92,1.25-8.09,3.46-3.3,2.29-4.49,4.3-5.74,6.42-1.16,1.96-2.35,3.98-5.16,6.43-4.36,3.8-11.69,7.64-19.57,7.64Z"/><path class="cls-1" d="M130.85,119.68c-.9,0-1.7-.08-2.35-.24-12.37-3.04-22.97-11-27.28-15.23l.7-.71c4.24,4.15,14.66,11.98,26.82,14.97,4.43,1.08,16.09-2.15,19.8-5.5,1.9-1.71,2.75-3.5,3.57-5.24,.69-1.47,1.35-2.86,2.57-4.14,.56-.6,1.22-1.14,2.03-1.65,.68-.43,1.36-.77,2.07-1.06,1.69-.69,3.21-.89,4.82-1.1,1.75-.23,3.56-.46,5.77-1.37,10.28-4.85,17.59-28.24,17.32-38.09-.64-5.27-1.34-10.33-2.07-15l.99-.1c.73,4.62,1.43,9.7,2.08,15.02,.28,10.38-7.09,33.97-17.91,39.08-2.36,.98-4.24,1.22-6.05,1.45-1.54,.2-3,.39-4.57,1.03-.66,.27-1.28,.59-1.92,.98-.73,.46-1.32,.94-1.83,1.49-1.12,1.17-1.74,2.49-2.4,3.88-.86,1.83-1.76,3.71-3.81,5.56-3.41,3.07-12.78,5.96-18.35,5.96Z"/></svg>