<svg xmlns="http://www.w3.org/2000/svg" width="178.13" height="60.41" viewBox="0 0 178.13 60.41"><g id="Layer_2" data-name="Layer 2"><g id="Layer_1-2" data-name="Layer 1"><path d="M79.71,1.11c6.92,0,13.57-.35,20.18.1,6,.42,10.86,3.35,12.6,9.59,1.82,6.56.46,12.31-5.21,16.63-.25.19-.46.43-.8.74l2.62,2a13.58,13.58,0,0,1,5.4,10.72c.46,11.57-5.18,18-16.81,18.58-6,.31-11.93,0-18,0ZM90.6,50.24c4.54.11,9,.76,11.84-3.64a9.76,9.76,0,0,0-.4-10.1c-2.16-2.76-7.15-3.94-11.44-2.65ZM90.65,24c4.08.09,8.08.48,10.61-3.38a6.69,6.69,0,0,0-.12-7.72c-2.6-3.83-6.65-2.69-10.49-2.83Z"/><path d="M120.79.82h10.86v39.3c0,1.08,0,2.16.12,3.23.49,5,3,7.24,8,7.07,4.45-.15,7-2.74,7.07-7.58.09-12.92,0-25.84.05-38.76V.9h10.81c0,.84.12,1.64.12,2.45q0,19.13,0,38.26a28.6,28.6,0,0,1-.15,3.47C156.5,54.79,150.78,60,141,60.37c-1.24.05-2.49.05-3.73,0-9.83-.47-15.92-6.1-16.26-15.91-.39-11.25-.16-22.53-.19-33.79C120.78,7.45,120.79,4.23,120.79.82Z"/><path d="M12.45,49.52H34v10H.11c.22-4.07-.95-8.12,1.33-12.18C7.7,36.19,13.7,24.94,19.8,13.74c.47-.86.9-1.74,1.52-3H2.42V.84H33.64C33.36,4.91,34.54,9,32.26,13,25.88,24.34,19.78,35.83,13.58,47.25,13.24,47.89,12.93,48.55,12.45,49.52Z"/><path d="M71.45,25.29H50.17a67.25,67.25,0,0,0,.07,7.81c.33,2.76,2.38,4.25,5.23,4.37,3,.13,5-1.21,5.8-4,.18-.63.32-1.27.5-2h9.4a13,13,0,0,1-8.59,13.38,20,20,0,0,1-11.79.43A13.69,13.69,0,0,1,40.23,32.55c-.29-6.44-.3-12.92,0-19.37A13.56,13.56,0,0,1,52.23.23,24.25,24.25,0,0,1,60.6.52C66.94,2,71,6.93,71.41,13.51,71.66,17.3,71.45,21.11,71.45,25.29ZM50.07,16.83H61.49c.13-3,.42-5.88-2.34-7.71a5.91,5.91,0,0,0-6.81,0C49.56,11,49.93,13.89,50.07,16.83Z"/><path d="M178.12,59.52H167.21V48.09h10.91Z"/><path d="M167.23,23.66h10.9V35h-10.9Z"/></g></g></svg>