<svg width="380" height="228" viewBox="0 0 380 228" fill="none" xmlns="http://www.w3.org/2000/svg">
<mask id="path-1-inside-1_302_188" fill="white">
<path fill-rule="evenodd" clip-rule="evenodd" d="M380 0H0V65.8523C26.8297 65.8523 48.5795 87.6021 48.5795 114.432C48.5795 141.262 26.8297 163.011 0 163.011V227.784H380V0Z"/>
</mask>
<path d="M0 0V-2H-2V0H0ZM380 0H382V-2H380V0ZM0 65.8523H-2V67.8523H0V65.8523ZM0 163.011V161.011H-2V163.011H0ZM0 227.784H-2V229.784H0V227.784ZM380 227.784V229.784H382V227.784H380ZM0 2H380V-2H0V2ZM2 65.8523V0H-2V65.8523H2ZM0 67.8523C25.7252 67.8523 46.5795 88.7066 46.5795 114.432H50.5795C50.5795 86.4975 27.9343 63.8523 0 63.8523V67.8523ZM46.5795 114.432C46.5795 140.157 25.7252 161.011 0 161.011V165.011C27.9343 165.011 50.5795 142.366 50.5795 114.432H46.5795ZM2 227.784V163.011H-2V227.784H2ZM380 225.784H0V229.784H380V225.784ZM378 0V227.784H382V0H378Z" fill="#A00000" mask="url(#path-1-inside-1_302_188)"/>
<path d="M79.69 98.82V93.6H80.74C82.18 93.6 82.9 94.47 82.9 96.21C82.9 97.11 82.71 97.77 82.33 98.19C81.97 98.61 81.44 98.82 80.74 98.82H79.69ZM74.11 89.58V111H79.69V102.84H81.64C83.94 102.84 85.68 102.29 86.86 101.19C88.06 100.07 88.66 98.4 88.66 96.18C88.66 95.24 88.54 94.37 88.3 93.57C88.06 92.77 87.68 92.08 87.16 91.5C86.66 90.9 86.02 90.43 85.24 90.09C84.46 89.75 83.54 89.58 82.48 89.58H74.11ZM96.31 93.96L94.78 103.05H97.9L96.37 93.96H96.31ZM99.85 89.58L105.07 111H99.13L98.56 107.25H94.12L93.55 111H87.7L92.83 89.58H99.85ZM111.57 98.64V93.6H112.65C113.49 93.6 114.09 93.79 114.45 94.17C114.83 94.55 115.02 95.19 115.02 96.09C115.02 96.85 114.83 97.47 114.45 97.95C114.07 98.41 113.48 98.64 112.68 98.64H111.57ZM105.99 89.58V111H111.57V102.42H113.04C113.38 102.42 113.66 102.47 113.88 102.57C114.12 102.65 114.31 102.81 114.45 103.05C114.61 103.27 114.72 103.58 114.78 103.98C114.84 104.38 114.87 104.88 114.87 105.48V106.92C114.87 107.14 114.87 107.43 114.87 107.79C114.89 108.13 114.91 108.49 114.93 108.87C114.97 109.25 115.02 109.63 115.08 110.01C115.16 110.39 115.27 110.72 115.41 111H121.35V110.7C121.17 110.6 121.04 110.5 120.96 110.4C120.88 110.28 120.8 110.16 120.72 110.04C120.66 109.92 120.61 109.75 120.57 109.53C120.53 109.31 120.5 109.07 120.48 108.81C120.46 108.53 120.45 108.24 120.45 107.94C120.45 107.64 120.45 107.35 120.45 107.07V105.24C120.45 103.8 120.2 102.67 119.7 101.85C119.2 101.03 118.28 100.56 116.94 100.44V100.38C118.22 100.18 119.15 99.64 119.73 98.76C120.31 97.88 120.6 96.72 120.6 95.28C120.6 94.46 120.49 93.7 120.27 93C120.07 92.3 119.73 91.7 119.25 91.2C118.79 90.68 118.18 90.28 117.42 90C116.68 89.72 115.78 89.58 114.72 89.58H105.99ZM125.509 94.32V111H131.089V94.32H135.289V89.58H121.369V94.32H125.509ZM141.677 100.29C141.677 98.85 141.697 97.66 141.737 96.72C141.777 95.76 141.857 95 141.977 94.44C142.117 93.88 142.307 93.49 142.547 93.27C142.807 93.05 143.147 92.94 143.567 92.94C143.987 92.94 144.317 93.05 144.557 93.27C144.817 93.49 145.007 93.88 145.127 94.44C145.267 95 145.357 95.76 145.397 96.72C145.437 97.66 145.457 98.85 145.457 100.29C145.457 101.73 145.437 102.93 145.397 103.89C145.357 104.83 145.267 105.58 145.127 106.14C145.007 106.7 144.817 107.09 144.557 107.31C144.317 107.53 143.987 107.64 143.567 107.64C143.147 107.64 142.807 107.53 142.547 107.31C142.307 107.09 142.117 106.7 141.977 106.14C141.857 105.58 141.777 104.83 141.737 103.89C141.697 102.93 141.677 101.73 141.677 100.29ZM135.917 100.29C135.917 102.29 136.047 104 136.307 105.42C136.567 106.82 136.997 107.97 137.597 108.87C138.197 109.75 138.987 110.38 139.967 110.76C140.947 111.14 142.147 111.33 143.567 111.33C144.987 111.33 146.187 111.14 147.167 110.76C148.147 110.38 148.937 109.75 149.537 108.87C150.137 107.97 150.567 106.82 150.827 105.42C151.087 104 151.217 102.29 151.217 100.29C151.217 98.29 151.087 96.59 150.827 95.19C150.567 93.77 150.137 92.62 149.537 91.74C148.937 90.84 148.147 90.19 147.167 89.79C146.187 89.37 144.987 89.16 143.567 89.16C142.147 89.16 140.947 89.37 139.967 89.79C138.987 90.19 138.197 90.84 137.597 91.74C136.997 92.62 136.567 93.77 136.307 95.19C136.047 96.59 135.917 98.29 135.917 100.29ZM158.556 89.58H152.976V103.62C152.976 105.12 153.136 106.37 153.456 107.37C153.776 108.37 154.236 109.17 154.836 109.77C155.456 110.37 156.216 110.78 157.116 111C158.036 111.22 159.076 111.33 160.236 111.33C161.416 111.33 162.456 111.22 163.356 111C164.256 110.78 165.006 110.37 165.606 109.77C166.226 109.17 166.696 108.37 167.016 107.37C167.336 106.37 167.496 105.12 167.496 103.62V89.58H161.916V105.03C161.916 106.07 161.766 106.77 161.466 107.13C161.166 107.47 160.756 107.64 160.236 107.64C159.716 107.64 159.306 107.47 159.006 107.13C158.706 106.77 158.556 106.07 158.556 105.03V89.58ZM172.706 94.32V111H178.286V94.32H182.486V89.58H168.566V94.32H172.706ZM189.504 106.98V101.76H191.064C191.584 101.76 192.044 101.98 192.444 102.42C192.844 102.86 193.044 103.5 193.044 104.34C193.044 105.24 192.844 105.91 192.444 106.35C192.044 106.77 191.584 106.98 191.064 106.98H189.504ZM189.504 97.98V93.6H190.854C191.434 93.6 191.874 93.82 192.174 94.26C192.474 94.7 192.624 95.22 192.624 95.82C192.624 96.4 192.474 96.91 192.174 97.35C191.874 97.77 191.434 97.98 190.854 97.98H189.504ZM183.924 89.58V111H192.354C193.514 111 194.504 110.85 195.324 110.55C196.144 110.23 196.804 109.79 197.304 109.23C197.824 108.67 198.204 108 198.444 107.22C198.684 106.44 198.804 105.59 198.804 104.67C198.804 104.11 198.724 103.56 198.564 103.02C198.424 102.46 198.194 101.95 197.874 101.49C197.554 101.03 197.144 100.65 196.644 100.35C196.144 100.03 195.544 99.84 194.844 99.78V99.72C195.444 99.6 195.954 99.39 196.374 99.09C196.794 98.79 197.134 98.43 197.394 98.01C197.674 97.57 197.874 97.09 197.994 96.57C198.134 96.03 198.204 95.48 198.204 94.92C198.204 93.3 197.724 92.01 196.764 91.05C195.824 90.07 194.354 89.58 192.354 89.58H183.924ZM200.76 89.58V111H206.34V89.58H200.76ZM208.763 89.58V111H221.213V106.44H214.343V89.58H208.763ZM222.65 89.58V111H235.1V106.44H228.23V89.58H222.65ZM236.537 89.58V111H249.497V106.44H242.117V102.18H248.777V97.8H242.117V94.14H249.227V89.58H236.537ZM254.357 94.32V111H259.937V94.32H264.137V89.58H250.217V94.32H254.357Z" fill="#A00000"/>
<path d="M75.1 70.985V67.16H78.61C80.22 67.16 81.025 67.83 81.025 69.17C81.025 69.42 80.975 69.655 80.875 69.875C80.775 70.095 80.625 70.29 80.425 70.46C80.225 70.62 79.975 70.75 79.675 70.85C79.375 70.94 79.02 70.985 78.61 70.985H75.1ZM74.08 66.29V77H78.61C79.19 77 79.685 76.95 80.095 76.85C80.515 76.74 80.865 76.605 81.145 76.445C81.435 76.275 81.665 76.08 81.835 75.86C82.005 75.64 82.135 75.42 82.225 75.2C82.315 74.97 82.375 74.75 82.405 74.54C82.435 74.32 82.45 74.125 82.45 73.955C82.45 73.255 82.245 72.67 81.835 72.2C81.425 71.72 80.875 71.435 80.185 71.345V71.315C80.465 71.255 80.715 71.15 80.935 71C81.165 70.85 81.36 70.67 81.52 70.46C81.69 70.24 81.82 70 81.91 69.74C82 69.47 82.045 69.195 82.045 68.915C82.045 68.415 81.95 68 81.76 67.67C81.57 67.33 81.315 67.06 80.995 66.86C80.685 66.65 80.32 66.505 79.9 66.425C79.49 66.335 79.06 66.29 78.61 66.29H74.08ZM75.1 76.13V71.855H78.61C79.52 71.855 80.215 72.03 80.695 72.38C81.185 72.72 81.43 73.235 81.43 73.925C81.43 74.355 81.355 74.715 81.205 75.005C81.055 75.285 80.85 75.51 80.59 75.68C80.33 75.85 80.03 75.97 79.69 76.04C79.35 76.1 78.99 76.13 78.61 76.13H75.1ZM83.9199 66.29V67.805H84.8649V66.29H83.9199ZM83.9199 69.26V77H84.8649V69.26H83.9199ZM86.6884 66.29V77H87.6334V66.29H86.6884ZM89.457 66.29V77H90.402V66.29H89.457ZM97.7755 72.59H92.7655C92.8055 72.24 92.8855 71.9 93.0055 71.57C93.1355 71.23 93.3055 70.935 93.5155 70.685C93.7255 70.425 93.9805 70.22 94.2805 70.07C94.5805 69.91 94.9255 69.83 95.3155 69.83C95.6955 69.83 96.0355 69.91 96.3355 70.07C96.6355 70.22 96.8905 70.425 97.1005 70.685C97.3105 70.935 97.4705 71.225 97.5805 71.555C97.7005 71.885 97.7655 72.23 97.7755 72.59ZM92.7655 73.385H98.7205C98.7405 72.845 98.6905 72.315 98.5705 71.795C98.4505 71.265 98.2505 70.8 97.9705 70.4C97.7005 69.99 97.3455 69.66 96.9055 69.41C96.4655 69.16 95.9355 69.035 95.3155 69.035C94.7055 69.035 94.1755 69.155 93.7255 69.395C93.2855 69.625 92.9255 69.935 92.6455 70.325C92.3655 70.705 92.1555 71.14 92.0155 71.63C91.8855 72.12 91.8205 72.62 91.8205 73.13C91.8205 73.68 91.8855 74.205 92.0155 74.705C92.1555 75.195 92.3655 75.63 92.6455 76.01C92.9255 76.38 93.2855 76.675 93.7255 76.895C94.1755 77.105 94.7055 77.21 95.3155 77.21C96.2955 77.21 97.0505 76.97 97.5805 76.49C98.1205 76.01 98.4905 75.33 98.6905 74.45H97.7455C97.5955 75.05 97.3255 75.53 96.9355 75.89C96.5455 76.25 96.0055 76.43 95.3155 76.43C94.8655 76.43 94.4805 76.335 94.1605 76.145C93.8405 75.955 93.5755 75.715 93.3655 75.425C93.1555 75.135 93.0005 74.81 92.9005 74.45C92.8105 74.08 92.7655 73.725 92.7655 73.385ZM101.489 69.26V66.935H100.544V69.26H99.1939V70.055H100.544V75.35C100.534 76.01 100.654 76.465 100.904 76.715C101.154 76.955 101.594 77.075 102.224 77.075C102.364 77.075 102.504 77.07 102.644 77.06C102.784 77.05 102.924 77.045 103.064 77.045V76.25C102.794 76.28 102.524 76.295 102.254 76.295C101.914 76.275 101.699 76.18 101.609 76.01C101.529 75.83 101.489 75.585 101.489 75.275V70.055H103.064V69.26H101.489ZM110.102 69.26V66.935H109.157V69.26H107.807V70.055H109.157V75.35C109.147 76.01 109.267 76.465 109.517 76.715C109.767 76.955 110.207 77.075 110.837 77.075C110.977 77.075 111.117 77.07 111.257 77.06C111.397 77.05 111.537 77.045 111.677 77.045V76.25C111.407 76.28 111.137 76.295 110.867 76.295C110.527 76.275 110.312 76.18 110.222 76.01C110.142 75.83 110.102 75.585 110.102 75.275V70.055H111.677V69.26H110.102ZM113.056 66.29V67.805H114.001V66.29H113.056ZM113.056 69.26V77H114.001V69.26H113.056ZM115.824 66.29V77H116.769V66.29H115.824ZM122.738 66.29V77H123.683V72.485C123.693 72.105 123.753 71.755 123.863 71.435C123.983 71.105 124.143 70.825 124.343 70.595C124.553 70.355 124.803 70.17 125.093 70.04C125.393 69.9 125.733 69.83 126.113 69.83C126.493 69.83 126.808 69.89 127.058 70.01C127.318 70.13 127.523 70.295 127.673 70.505C127.823 70.715 127.928 70.965 127.988 71.255C128.048 71.535 128.078 71.84 128.078 72.17V77H129.023V72.02C129.023 71.56 128.978 71.145 128.888 70.775C128.798 70.405 128.643 70.095 128.423 69.845C128.203 69.585 127.908 69.385 127.538 69.245C127.178 69.105 126.728 69.035 126.188 69.035C125.638 69.035 125.133 69.18 124.673 69.47C124.213 69.75 123.893 70.125 123.713 70.595H123.683V66.29H122.738ZM136.374 72.59H131.364C131.404 72.24 131.484 71.9 131.604 71.57C131.734 71.23 131.904 70.935 132.114 70.685C132.324 70.425 132.579 70.22 132.879 70.07C133.179 69.91 133.524 69.83 133.914 69.83C134.294 69.83 134.634 69.91 134.934 70.07C135.234 70.22 135.489 70.425 135.699 70.685C135.909 70.935 136.069 71.225 136.179 71.555C136.299 71.885 136.364 72.23 136.374 72.59ZM131.364 73.385H137.319C137.339 72.845 137.289 72.315 137.169 71.795C137.049 71.265 136.849 70.8 136.569 70.4C136.299 69.99 135.944 69.66 135.504 69.41C135.064 69.16 134.534 69.035 133.914 69.035C133.304 69.035 132.774 69.155 132.324 69.395C131.884 69.625 131.524 69.935 131.244 70.325C130.964 70.705 130.754 71.14 130.614 71.63C130.484 72.12 130.419 72.62 130.419 73.13C130.419 73.68 130.484 74.205 130.614 74.705C130.754 75.195 130.964 75.63 131.244 76.01C131.524 76.38 131.884 76.675 132.324 76.895C132.774 77.105 133.304 77.21 133.914 77.21C134.894 77.21 135.649 76.97 136.179 76.49C136.719 76.01 137.089 75.33 137.289 74.45H136.344C136.194 75.05 135.924 75.53 135.534 75.89C135.144 76.25 134.604 76.43 133.914 76.43C133.464 76.43 133.079 76.335 132.759 76.145C132.439 75.955 132.174 75.715 131.964 75.425C131.754 75.135 131.599 74.81 131.499 74.45C131.409 74.08 131.364 73.725 131.364 73.385ZM138.603 66.29V77H139.548V66.29H138.603ZM146.921 72.59H141.911C141.951 72.24 142.031 71.9 142.151 71.57C142.281 71.23 142.451 70.935 142.661 70.685C142.871 70.425 143.126 70.22 143.426 70.07C143.726 69.91 144.071 69.83 144.461 69.83C144.841 69.83 145.181 69.91 145.481 70.07C145.781 70.22 146.036 70.425 146.246 70.685C146.456 70.935 146.616 71.225 146.726 71.555C146.846 71.885 146.911 72.23 146.921 72.59ZM141.911 73.385H147.866C147.886 72.845 147.836 72.315 147.716 71.795C147.596 71.265 147.396 70.8 147.116 70.4C146.846 69.99 146.491 69.66 146.051 69.41C145.611 69.16 145.081 69.035 144.461 69.035C143.851 69.035 143.321 69.155 142.871 69.395C142.431 69.625 142.071 69.935 141.791 70.325C141.511 70.705 141.301 71.14 141.161 71.63C141.031 72.12 140.966 72.62 140.966 73.13C140.966 73.68 141.031 74.205 141.161 74.705C141.301 75.195 141.511 75.63 141.791 76.01C142.071 76.38 142.431 76.675 142.871 76.895C143.321 77.105 143.851 77.21 144.461 77.21C145.441 77.21 146.196 76.97 146.726 76.49C147.266 76.01 147.636 75.33 147.836 74.45H146.891C146.741 75.05 146.471 75.53 146.081 75.89C145.691 76.25 145.151 76.43 144.461 76.43C144.011 76.43 143.626 76.335 143.306 76.145C142.986 75.955 142.721 75.715 142.511 75.425C142.301 75.135 142.146 74.81 142.046 74.45C141.956 74.08 141.911 73.725 141.911 73.385ZM156.294 70.055V69.26H154.764V68.585C154.764 68.375 154.769 68.18 154.779 68C154.789 67.82 154.824 67.665 154.884 67.535C154.954 67.395 155.059 67.285 155.199 67.205C155.339 67.125 155.539 67.085 155.799 67.085C155.909 67.085 156.019 67.095 156.129 67.115C156.239 67.125 156.359 67.14 156.489 67.16V66.35C156.339 66.33 156.204 66.315 156.084 66.305C155.964 66.295 155.834 66.29 155.694 66.29C155.314 66.29 154.999 66.345 154.749 66.455C154.509 66.565 154.319 66.72 154.179 66.92C154.039 67.12 153.944 67.36 153.894 67.64C153.844 67.92 153.819 68.225 153.819 68.555V69.26H152.499V70.055H153.819V77H154.764V70.055H156.294ZM162.756 72.59H157.746C157.786 72.24 157.866 71.9 157.986 71.57C158.116 71.23 158.286 70.935 158.496 70.685C158.706 70.425 158.961 70.22 159.261 70.07C159.561 69.91 159.906 69.83 160.296 69.83C160.676 69.83 161.016 69.91 161.316 70.07C161.616 70.22 161.871 70.425 162.081 70.685C162.291 70.935 162.451 71.225 162.561 71.555C162.681 71.885 162.746 72.23 162.756 72.59ZM157.746 73.385H163.701C163.721 72.845 163.671 72.315 163.551 71.795C163.431 71.265 163.231 70.8 162.951 70.4C162.681 69.99 162.326 69.66 161.886 69.41C161.446 69.16 160.916 69.035 160.296 69.035C159.686 69.035 159.156 69.155 158.706 69.395C158.266 69.625 157.906 69.935 157.626 70.325C157.346 70.705 157.136 71.14 156.996 71.63C156.866 72.12 156.801 72.62 156.801 73.13C156.801 73.68 156.866 74.205 156.996 74.705C157.136 75.195 157.346 75.63 157.626 76.01C157.906 76.38 158.266 76.675 158.706 76.895C159.156 77.105 159.686 77.21 160.296 77.21C161.276 77.21 162.031 76.97 162.561 76.49C163.101 76.01 163.471 75.33 163.671 74.45H162.726C162.576 75.05 162.306 75.53 161.916 75.89C161.526 76.25 160.986 76.43 160.296 76.43C159.846 76.43 159.461 76.335 159.141 76.145C158.821 75.955 158.556 75.715 158.346 75.425C158.136 75.135 157.981 74.81 157.881 74.45C157.791 74.08 157.746 73.725 157.746 73.385ZM169.604 71.525H170.549C170.529 71.105 170.444 70.74 170.294 70.43C170.144 70.12 169.939 69.86 169.679 69.65C169.429 69.44 169.134 69.285 168.794 69.185C168.464 69.085 168.104 69.035 167.714 69.035C167.374 69.035 167.029 69.075 166.679 69.155C166.339 69.235 166.029 69.36 165.749 69.53C165.469 69.7 165.239 69.925 165.059 70.205C164.889 70.485 164.804 70.82 164.804 71.21C164.804 71.54 164.859 71.82 164.969 72.05C165.079 72.27 165.229 72.46 165.419 72.62C165.619 72.77 165.849 72.9 166.109 73.01C166.369 73.11 166.654 73.2 166.964 73.28L168.179 73.55C168.389 73.6 168.594 73.66 168.794 73.73C169.004 73.8 169.189 73.89 169.349 74C169.509 74.1 169.634 74.23 169.724 74.39C169.824 74.54 169.874 74.73 169.874 74.96C169.874 75.23 169.804 75.46 169.664 75.65C169.534 75.83 169.364 75.98 169.154 76.1C168.944 76.22 168.714 76.305 168.464 76.355C168.224 76.405 167.989 76.43 167.759 76.43C167.129 76.43 166.599 76.27 166.169 75.95C165.749 75.62 165.519 75.135 165.479 74.495H164.534C164.614 75.445 164.934 76.135 165.494 76.565C166.064 76.995 166.804 77.21 167.714 77.21C168.074 77.21 168.439 77.17 168.809 77.09C169.179 77.01 169.509 76.88 169.799 76.7C170.099 76.51 170.344 76.27 170.534 75.98C170.724 75.68 170.819 75.32 170.819 74.9C170.819 74.56 170.754 74.265 170.624 74.015C170.494 73.765 170.324 73.555 170.114 73.385C169.914 73.215 169.679 73.08 169.409 72.98C169.149 72.87 168.884 72.795 168.614 72.755L167.354 72.47C167.194 72.43 167.019 72.38 166.829 72.32C166.639 72.25 166.464 72.165 166.304 72.065C166.144 71.965 166.009 71.845 165.899 71.705C165.799 71.555 165.749 71.375 165.749 71.165C165.749 70.915 165.804 70.705 165.914 70.535C166.024 70.365 166.169 70.23 166.349 70.13C166.529 70.02 166.724 69.945 166.934 69.905C167.154 69.855 167.369 69.83 167.579 69.83C167.849 69.83 168.104 69.865 168.344 69.935C168.584 69.995 168.794 70.095 168.974 70.235C169.164 70.375 169.314 70.555 169.424 70.775C169.534 70.985 169.594 71.235 169.604 71.525ZM173.691 69.26V66.935H172.746V69.26H171.396V70.055H172.746V75.35C172.736 76.01 172.856 76.465 173.106 76.715C173.356 76.955 173.796 77.075 174.426 77.075C174.566 77.075 174.706 77.07 174.846 77.06C174.986 77.05 175.126 77.045 175.266 77.045V76.25C174.996 76.28 174.726 76.295 174.456 76.295C174.116 76.275 173.901 76.18 173.811 76.01C173.731 75.83 173.691 75.585 173.691 75.275V70.055H175.266V69.26H173.691ZM176.644 66.29V67.805H177.589V66.29H176.644ZM176.644 69.26V77H177.589V69.26H176.644ZM178.528 69.26L181.513 77H182.518L185.413 69.26H184.438L182.038 76.055H182.008L179.578 69.26H178.528ZM186.251 71.63H187.196C187.216 71 187.416 70.545 187.796 70.265C188.176 69.975 188.666 69.83 189.266 69.83C189.546 69.83 189.806 69.855 190.046 69.905C190.296 69.945 190.511 70.025 190.691 70.145C190.881 70.265 191.026 70.43 191.126 70.64C191.236 70.84 191.291 71.1 191.291 71.42C191.291 71.63 191.261 71.8 191.201 71.93C191.151 72.06 191.076 72.165 190.976 72.245C190.876 72.315 190.751 72.365 190.601 72.395C190.451 72.425 190.276 72.45 190.076 72.47C189.566 72.53 189.061 72.595 188.561 72.665C188.071 72.725 187.626 72.835 187.226 72.995C186.836 73.155 186.521 73.39 186.281 73.7C186.041 74 185.921 74.42 185.921 74.96C185.921 75.35 185.986 75.69 186.116 75.98C186.256 76.26 186.441 76.495 186.671 76.685C186.911 76.865 187.186 76.995 187.496 77.075C187.816 77.165 188.156 77.21 188.516 77.21C188.896 77.21 189.221 77.175 189.491 77.105C189.771 77.035 190.016 76.935 190.226 76.805C190.446 76.675 190.641 76.515 190.811 76.325C190.991 76.125 191.166 75.9 191.336 75.65H191.366C191.366 75.85 191.376 76.035 191.396 76.205C191.426 76.365 191.481 76.505 191.561 76.625C191.641 76.745 191.751 76.84 191.891 76.91C192.041 76.97 192.236 77 192.476 77C192.606 77 192.711 76.995 192.791 76.985C192.881 76.975 192.981 76.96 193.091 76.94V76.145C193.001 76.185 192.901 76.205 192.791 76.205C192.421 76.205 192.236 76.015 192.236 75.635V71.525C192.236 71.005 192.151 70.585 191.981 70.265C191.811 69.935 191.591 69.68 191.321 69.5C191.051 69.32 190.746 69.2 190.406 69.14C190.066 69.07 189.726 69.035 189.386 69.035C188.936 69.035 188.526 69.085 188.156 69.185C187.786 69.285 187.461 69.44 187.181 69.65C186.911 69.86 186.696 70.13 186.536 70.46C186.376 70.79 186.281 71.18 186.251 71.63ZM191.291 72.77V74C191.291 74.38 191.216 74.72 191.066 75.02C190.926 75.32 190.731 75.575 190.481 75.785C190.241 75.995 189.956 76.155 189.626 76.265C189.296 76.375 188.951 76.43 188.591 76.43C188.371 76.43 188.156 76.395 187.946 76.325C187.736 76.255 187.551 76.155 187.391 76.025C187.231 75.885 187.101 75.725 187.001 75.545C186.911 75.355 186.866 75.14 186.866 74.9C186.866 74.52 186.976 74.23 187.196 74.03C187.426 73.82 187.716 73.66 188.066 73.55C188.416 73.44 188.801 73.36 189.221 73.31C189.651 73.25 190.066 73.185 190.466 73.115C190.596 73.095 190.746 73.06 190.916 73.01C191.086 72.96 191.201 72.88 191.261 72.77H191.291ZM194.135 66.29V77H195.08V66.29H194.135ZM196.903 66.29V77H197.848V66.29H196.903ZM205.222 72.59H200.212C200.252 72.24 200.332 71.9 200.452 71.57C200.582 71.23 200.752 70.935 200.962 70.685C201.172 70.425 201.427 70.22 201.727 70.07C202.027 69.91 202.372 69.83 202.762 69.83C203.142 69.83 203.482 69.91 203.782 70.07C204.082 70.22 204.337 70.425 204.547 70.685C204.757 70.935 204.917 71.225 205.027 71.555C205.147 71.885 205.212 72.23 205.222 72.59ZM200.212 73.385H206.167C206.187 72.845 206.137 72.315 206.017 71.795C205.897 71.265 205.697 70.8 205.417 70.4C205.147 69.99 204.792 69.66 204.352 69.41C203.912 69.16 203.382 69.035 202.762 69.035C202.152 69.035 201.622 69.155 201.172 69.395C200.732 69.625 200.372 69.935 200.092 70.325C199.812 70.705 199.602 71.14 199.462 71.63C199.332 72.12 199.267 72.62 199.267 73.13C199.267 73.68 199.332 74.205 199.462 74.705C199.602 75.195 199.812 75.63 200.092 76.01C200.372 76.38 200.732 76.675 201.172 76.895C201.622 77.105 202.152 77.21 202.762 77.21C203.742 77.21 204.497 76.97 205.027 76.49C205.567 76.01 205.937 75.33 206.137 74.45H205.192C205.042 75.05 204.772 75.53 204.382 75.89C203.992 76.25 203.452 76.43 202.762 76.43C202.312 76.43 201.927 76.335 201.607 76.145C201.287 75.955 201.022 75.715 200.812 75.425C200.602 75.135 200.447 74.81 200.347 74.45C200.257 74.08 200.212 73.725 200.212 73.385ZM207.42 69.26V77H208.365V72.485C208.375 72.105 208.435 71.755 208.545 71.435C208.665 71.105 208.825 70.825 209.025 70.595C209.235 70.355 209.485 70.17 209.775 70.04C210.075 69.9 210.415 69.83 210.795 69.83C211.175 69.83 211.49 69.89 211.74 70.01C212 70.13 212.205 70.295 212.355 70.505C212.505 70.715 212.61 70.965 212.67 71.255C212.73 71.535 212.76 71.84 212.76 72.17V77H213.705V72.02C213.705 71.56 213.66 71.145 213.57 70.775C213.48 70.405 213.325 70.095 213.105 69.845C212.885 69.585 212.59 69.385 212.22 69.245C211.86 69.105 211.41 69.035 210.87 69.035C210.32 69.035 209.815 69.18 209.355 69.47C208.895 69.75 208.575 70.125 208.395 70.595H208.365V69.26H207.42Z" fill="black"/>
<path d="M252.02 142.88V132.84H253.24C253.787 132.84 254.22 132.947 254.54 133.16C254.873 133.36 255.12 133.667 255.28 134.08C255.453 134.48 255.567 134.987 255.62 135.6C255.673 136.213 255.7 136.927 255.7 137.74C255.7 138.713 255.667 139.527 255.6 140.18C255.547 140.833 255.427 141.36 255.24 141.76C255.067 142.16 254.827 142.447 254.52 142.62C254.213 142.793 253.807 142.88 253.3 142.88H252.02ZM249.14 130.72V145H253.68C254.64 145 255.433 144.853 256.06 144.56C256.687 144.267 257.187 143.82 257.56 143.22C257.933 142.62 258.193 141.86 258.34 140.94C258.5 140.007 258.58 138.913 258.58 137.66C258.58 136.607 258.52 135.653 258.4 134.8C258.28 133.947 258.047 133.22 257.7 132.62C257.367 132.007 256.893 131.54 256.28 131.22C255.667 130.887 254.86 130.72 253.86 130.72H249.14ZM263.364 130.72H260.484V145H263.364V140.76L264.424 139.14L267.364 145H270.604L266.284 136.84L270.164 130.72H267.044L263.404 136.44H263.364V130.72ZM274.107 130.72H271.227V145H274.107V140.76L275.167 139.14L278.107 145H281.347L277.027 136.84L280.907 130.72H277.787L274.147 136.44H274.107V130.72ZM294.853 145V142.76H289.513C289.58 142.493 289.733 142.18 289.973 141.82C290.213 141.447 290.547 141.067 290.973 140.68L292.573 139.2C292.973 138.84 293.313 138.493 293.593 138.16C293.873 137.813 294.1 137.46 294.273 137.1C294.447 136.74 294.573 136.367 294.653 135.98C294.733 135.58 294.773 135.153 294.773 134.7C294.773 133.46 294.427 132.507 293.733 131.84C293.04 131.173 291.973 130.84 290.533 130.84C289.013 130.84 287.9 131.193 287.193 131.9C286.487 132.607 286.133 133.62 286.133 134.94V135.48H288.893C288.893 135.107 288.907 134.753 288.933 134.42C288.973 134.087 289.047 133.793 289.153 133.54C289.273 133.287 289.433 133.087 289.633 132.94C289.847 132.793 290.133 132.72 290.493 132.72C291.427 132.72 291.893 133.307 291.893 134.48C291.893 134.84 291.873 135.16 291.833 135.44C291.807 135.72 291.74 135.98 291.633 136.22C291.527 136.46 291.373 136.7 291.173 136.94C290.987 137.18 290.733 137.44 290.413 137.72L289.253 138.8C288.733 139.28 288.273 139.76 287.873 140.24C287.487 140.707 287.16 141.187 286.893 141.68C286.64 142.173 286.447 142.693 286.313 143.24C286.193 143.787 286.133 144.373 286.133 145H294.853ZM298.543 135.52C298.543 135.12 298.556 134.753 298.583 134.42C298.623 134.073 298.696 133.773 298.803 133.52C298.909 133.267 299.063 133.073 299.263 132.94C299.476 132.793 299.756 132.72 300.103 132.72C300.436 132.72 300.703 132.793 300.903 132.94C301.116 133.073 301.276 133.267 301.383 133.52C301.503 133.76 301.583 134.053 301.623 134.4C301.663 134.747 301.683 135.12 301.683 135.52C301.683 136.48 301.563 137.167 301.323 137.58C301.083 137.993 300.676 138.2 300.103 138.2C299.543 138.2 299.143 137.993 298.903 137.58C298.663 137.167 298.543 136.48 298.543 135.52ZM298.763 141.7H296.003C296.016 142.38 296.129 142.953 296.343 143.42C296.569 143.873 296.863 144.24 297.223 144.52C297.583 144.787 297.996 144.967 298.463 145.06C298.943 145.167 299.436 145.22 299.943 145.22C301.103 145.22 302.003 145.013 302.643 144.6C303.296 144.173 303.769 143.6 304.063 142.88C304.369 142.16 304.549 141.333 304.603 140.4C304.669 139.453 304.703 138.473 304.703 137.46C304.703 136.593 304.656 135.76 304.563 134.96C304.469 134.16 304.263 133.46 303.943 132.86C303.636 132.247 303.189 131.76 302.603 131.4C302.016 131.027 301.229 130.84 300.243 130.84C298.643 130.84 297.476 131.273 296.743 132.14C296.023 133.007 295.663 134.26 295.663 135.9C295.663 136.54 295.723 137.133 295.843 137.68C295.976 138.213 296.176 138.68 296.443 139.08C296.723 139.467 297.083 139.773 297.523 140C297.963 140.213 298.496 140.32 299.123 140.32C299.763 140.32 300.303 140.213 300.743 140C301.196 139.773 301.543 139.48 301.783 139.12H301.823V139.8C301.823 140.32 301.803 140.8 301.763 141.24C301.723 141.68 301.636 142.06 301.503 142.38C301.383 142.7 301.209 142.953 300.983 143.14C300.756 143.313 300.449 143.4 300.063 143.4C299.583 143.4 299.243 143.253 299.043 142.96C298.856 142.653 298.763 142.233 298.763 141.7ZM313.492 133.36V131.12H306.112L305.592 138.82H308.172C308.226 138.42 308.359 138.107 308.572 137.88C308.799 137.64 309.119 137.52 309.532 137.52C309.852 137.52 310.119 137.567 310.332 137.66C310.546 137.753 310.712 137.913 310.832 138.14C310.966 138.367 311.059 138.673 311.112 139.06C311.166 139.447 311.192 139.933 311.192 140.52C311.192 141.44 311.059 142.133 310.792 142.6C310.539 143.053 310.112 143.28 309.512 143.28C309.206 143.28 308.959 143.207 308.772 143.06C308.586 142.9 308.439 142.707 308.332 142.48C308.239 142.24 308.179 141.987 308.152 141.72C308.126 141.453 308.112 141.2 308.112 140.96H305.352V141.34C305.352 141.74 305.399 142.173 305.492 142.64C305.599 143.093 305.799 143.52 306.092 143.92C306.386 144.307 306.806 144.62 307.352 144.86C307.912 145.1 308.639 145.22 309.532 145.22C310.439 145.22 311.186 145.107 311.772 144.88C312.359 144.64 312.819 144.293 313.152 143.84C313.499 143.373 313.739 142.82 313.872 142.18C314.006 141.54 314.072 140.827 314.072 140.04C314.072 139.48 314.019 138.933 313.912 138.4C313.806 137.853 313.619 137.367 313.352 136.94C313.099 136.513 312.746 136.173 312.292 135.92C311.852 135.653 311.292 135.52 310.612 135.52C309.999 135.52 309.479 135.607 309.052 135.78C308.626 135.94 308.279 136.207 308.012 136.58H307.972L308.272 133.36H313.492ZM318.322 141.88H315.682V145H316.722V145.26C316.722 145.633 316.635 145.973 316.462 146.28C316.288 146.587 316.028 146.773 315.682 146.84V148.24C316.215 148.187 316.648 148.053 316.982 147.84C317.328 147.64 317.602 147.373 317.802 147.04C318.002 146.72 318.135 146.333 318.202 145.88C318.282 145.44 318.322 144.973 318.322 144.48V141.88ZM325.926 138.04H320.286V140.4H325.926V138.04Z" fill="#222222"/>
<rect x="73.5" y="161.5" width="253" height="40.5625" stroke="#A00000"/>
<path d="M138.104 176.576V188H140.616V184.32L142.056 182.864L145.496 188H148.648L143.752 181.088L148.216 176.576H145.08L140.616 181.312V176.576H138.104ZM152.723 185.376L157.443 180.16C157.592 180.491 157.699 180.843 157.763 181.216C157.838 181.579 157.875 181.952 157.875 182.336C157.875 182.816 157.816 183.285 157.699 183.744C157.592 184.192 157.416 184.597 157.171 184.96C156.926 185.323 156.606 185.616 156.211 185.84C155.816 186.053 155.336 186.16 154.771 186.16C154.323 186.16 153.928 186.091 153.587 185.952C153.256 185.813 152.968 185.621 152.723 185.376ZM156.851 179.232L152.115 184.496C151.955 184.165 151.838 183.819 151.763 183.456C151.699 183.083 151.667 182.709 151.667 182.336C151.667 181.835 151.72 181.349 151.827 180.88C151.944 180.411 152.126 179.995 152.371 179.632C152.616 179.259 152.936 178.965 153.331 178.752C153.726 178.528 154.206 178.416 154.771 178.416C155.23 178.416 155.63 178.491 155.971 178.64C156.312 178.789 156.606 178.987 156.851 179.232ZM150.467 186.32L149.091 187.84L149.875 188.512L151.203 187.056C151.651 187.429 152.174 187.723 152.771 187.936C153.368 188.149 154.035 188.256 154.771 188.256C155.656 188.256 156.446 188.107 157.139 187.808C157.832 187.499 158.419 187.077 158.899 186.544C159.379 186.011 159.747 185.387 160.003 184.672C160.259 183.947 160.387 183.168 160.387 182.336C160.387 181.536 160.275 180.8 160.051 180.128C159.838 179.456 159.523 178.848 159.107 178.304L160.451 176.816L159.651 176.112L158.371 177.536C157.912 177.141 157.379 176.837 156.771 176.624C156.174 176.411 155.507 176.304 154.771 176.304C153.896 176.304 153.107 176.459 152.403 176.768C151.71 177.077 151.123 177.504 150.643 178.048C150.163 178.592 149.795 179.232 149.539 179.968C149.283 180.693 149.155 181.483 149.155 182.336C149.155 183.104 149.262 183.824 149.475 184.496C149.688 185.168 150.019 185.776 150.467 186.32ZM164.616 181.2V178.528H166.968C167.192 178.528 167.405 178.549 167.608 178.592C167.821 178.624 168.008 178.688 168.168 178.784C168.328 178.88 168.456 179.013 168.552 179.184C168.648 179.355 168.696 179.573 168.696 179.84C168.696 180.32 168.552 180.667 168.264 180.88C167.976 181.093 167.608 181.2 167.16 181.2H164.616ZM162.104 176.576V188H167.64C168.152 188 168.648 187.936 169.128 187.808C169.619 187.68 170.051 187.483 170.424 187.216C170.808 186.949 171.112 186.608 171.336 186.192C171.56 185.765 171.672 185.264 171.672 184.688C171.672 183.973 171.496 183.365 171.144 182.864C170.803 182.352 170.28 181.995 169.576 181.792C170.088 181.547 170.472 181.232 170.728 180.848C170.995 180.464 171.128 179.984 171.128 179.408C171.128 178.875 171.037 178.427 170.856 178.064C170.685 177.701 170.44 177.413 170.12 177.2C169.8 176.976 169.416 176.816 168.968 176.72C168.52 176.624 168.024 176.576 167.48 176.576H162.104ZM164.616 186.048V182.912H167.352C167.896 182.912 168.333 183.04 168.664 183.296C168.995 183.541 169.16 183.957 169.16 184.544C169.16 184.843 169.107 185.088 169 185.28C168.904 185.472 168.771 185.627 168.6 185.744C168.429 185.851 168.232 185.931 168.008 185.984C167.784 186.027 167.549 186.048 167.304 186.048H164.616ZM180.335 181.2V178.528H182.687C182.911 178.528 183.124 178.549 183.327 178.592C183.54 178.624 183.727 178.688 183.887 178.784C184.047 178.88 184.175 179.013 184.271 179.184C184.367 179.355 184.415 179.573 184.415 179.84C184.415 180.32 184.271 180.667 183.983 180.88C183.695 181.093 183.327 181.2 182.879 181.2H180.335ZM177.823 176.576V188H183.359C183.871 188 184.367 187.936 184.847 187.808C185.337 187.68 185.769 187.483 186.143 187.216C186.527 186.949 186.831 186.608 187.055 186.192C187.279 185.765 187.391 185.264 187.391 184.688C187.391 183.973 187.215 183.365 186.863 182.864C186.521 182.352 185.999 181.995 185.295 181.792C185.807 181.547 186.191 181.232 186.447 180.848C186.713 180.464 186.847 179.984 186.847 179.408C186.847 178.875 186.756 178.427 186.575 178.064C186.404 177.701 186.159 177.413 185.839 177.2C185.519 176.976 185.135 176.816 184.687 176.72C184.239 176.624 183.743 176.576 183.199 176.576H177.823ZM180.335 186.048V182.912H183.071C183.615 182.912 184.052 183.04 184.383 183.296C184.713 183.541 184.879 183.957 184.879 184.544C184.879 184.843 184.825 185.088 184.719 185.28C184.623 185.472 184.489 185.627 184.319 185.744C184.148 185.851 183.951 185.931 183.727 185.984C183.503 186.027 183.268 186.048 183.023 186.048H180.335ZM189.088 176.576V188H191.6V176.576H189.088ZM193.807 176.576V188H201.887V185.888H196.319V176.576H193.807ZM203.292 176.576V188H211.372V185.888H205.804V176.576H203.292ZM212.776 176.576V188H221.448V185.888H215.288V183.088H220.824V181.136H215.288V178.688H221.32V176.576H212.776ZM225.679 178.688V188H228.191V178.688H231.615V176.576H222.255V178.688H225.679ZM235.46 178.688V188H237.972V178.688H241.396V176.576H232.036V178.688H235.46ZM242.713 176.576V188H251.385V185.888H245.225V183.088H250.761V181.136H245.225V178.688H251.257V176.576H242.713ZM255.6 181.744V178.528H258.352C258.928 178.528 259.36 178.656 259.648 178.912C259.936 179.157 260.08 179.557 260.08 180.112C260.08 180.688 259.936 181.104 259.648 181.36C259.36 181.616 258.928 181.744 258.352 181.744H255.6ZM253.088 176.576V188H255.6V183.536H258.112C258.742 183.536 259.195 183.675 259.472 183.952C259.75 184.229 259.931 184.667 260.016 185.264C260.08 185.723 260.128 186.203 260.16 186.704C260.192 187.205 260.278 187.637 260.416 188H262.928C262.811 187.84 262.72 187.648 262.656 187.424C262.603 187.189 262.56 186.944 262.528 186.688C262.507 186.432 262.491 186.181 262.48 185.936C262.47 185.691 262.459 185.477 262.448 185.296C262.427 185.008 262.384 184.72 262.32 184.432C262.267 184.144 262.176 183.883 262.048 183.648C261.92 183.403 261.755 183.195 261.552 183.024C261.35 182.843 261.094 182.709 260.784 182.624V182.592C261.424 182.336 261.883 181.963 262.16 181.472C262.448 180.981 262.592 180.4 262.592 179.728C262.592 179.291 262.512 178.885 262.352 178.512C262.203 178.128 261.979 177.792 261.68 177.504C261.392 177.216 261.04 176.992 260.624 176.832C260.219 176.661 259.76 176.576 259.248 176.576H253.088Z" fill="#222222"/>
</svg>
