<svg xmlns="http://www.w3.org/2000/svg" version="1.1" xmlns:xlink="http://www.w3.org/1999/xlink" xmlns:svgjs="http://svgjs.com/svgjs" width="32" height="32"><svg id="SvgjsSvg1000" xmlns="http://www.w3.org/2000/svg" viewBox="0 0 32 32"><defs><style>.cls-1{fill:#a21916;}</style></defs><g><polygon points="18.24 18.55 18.24 18.55 18.24 18.55 18.24 18.55"></polygon><g><polygon points="18.24 18.55 18.24 18.55 18.24 18.55 18.24 18.55"></polygon><path d="M18.26,18.54s0,.01,0,.02c0,0,0,0,0,0,0,0,0,0,.01-.01Z"></path></g><path d="M17.58,18.23s-.01-.04-.02-.06c0,.02,.01,.04,.02,.06Z"></path><path d="M17.58,18.23s-.01-.04-.02-.06c0,.02,.01,.04,.02,.06Z"></path><path d="M21.22,17.78c0-.07-.02-.15-.04-.22-.26,.3-.76,.32-1.11,.49,.34-.25,.69-.46,1.04-.67-.02-.05-.04-.09-.08-.14-.56,.34-1.11,.71-1.68,1.04,.51-.41,1.03-.82,1.59-1.17-.03-.03-.06-.07-.09-.1-.8,.47-1.46,1.16-2.23,1.65,.64-.65,1.31-1.25,2.03-1.82-.04-.02-.08-.05-.12-.07-.74,.59-1.46,1.24-2.12,1.91,.4-.72,1.28-1.41,1.98-1.99-.82,.15-1.49,1.31-2.14,1.86,.56-.71,1.09-1.41,1.78-2-.61,.13-1.08,.82-1.52,1.44,.28-.54,.59-1.05,.94-1.57-.46-.02-.63,.78-.91,1.12,.12-.39,.27-.78,.41-1.17-.05,0-.09,0-.14,0-.16,.44-.32,.89-.46,1.34,.06-.45,.13-.89,.24-1.34h-.16c-.17,.69-.23,1.4-.33,2.09-.04-.69-.07-1.38-.05-2.06-.04,0-.09,.01-.13,.02-.02,.7,.01,1.4,.06,2.09,0,0-.02,0-.03,0-.07-.69-.16-1.38-.2-2.06-.04,0-.09,.01-.13,.02,.02,.74,.21,1.49,.19,2.2-.13-.73-.27-1.44-.32-2.18-.04,0-.09,.02-.13,.03,.05,.57,.12,1.14,.23,1.7-.15-.55-.28-1.1-.37-1.67-.05,.01-.1,.02-.15,.04,.02,.18,.05,.35,.08,.52-.07-.16-.15-.32-.23-.48-.05,.01-.09,.03-.14,.04,.27,.51,.45,1.04,.65,1.57-.26-.5-.5-1.01-.74-1.54-.04,.01-.09,.03-.13,.05,.21,.37,.36,.86,.57,1.28-.25-.4-.48-.8-.75-1.2-.04,.02-.08,.03-.12,.05,.2,.29,.38,.6,.56,.9-.32-.23-.67-.44-.93-.7-.05,.03-.1,.06-.15,.09,.5,.5,1.27,.77,1.58,1.42-.45-.55-1.16-.86-1.69-1.34-.05,.03-.09,.06-.14,.1,.46,.43,1.1,.71,1.52,1.17-.52-.4-1.06-.76-1.63-1.08-.04,.03-.09,.07-.13,.11,.48,.29,.95,.58,1.4,.92-.56-.14-1.34-.78-1.83-.5,.29,.08,.57,.17,.86,.27-.38-.1-.75-.13-1.06-.02,.69,.12,1.36,.28,2.02,.5-.77-.09-1.79-.4-2.35,0,.96-.05,1.91,.05,2.85,.22-1-.04-2.23-.31-3.01,.13,1.01-.13,2.02-.1,3.03-.01-.97,.15-2.07-.01-3.09,.17-.02,.04-.03,.09-.05,.13,.99-.11,1.99-.14,2.99-.12,0,0,0,0,0,.01-1.01,.12-2.04,.15-3.03,.4,0,.04,0,.09,0,.14,.68-.16,1.36-.25,2.06-.31-.69,.19-1.37,.45-2.02,.78,.01,.06,.02,.11,.04,.17,.77-.37,1.56-.68,2.38-.86-.76,.39-1.53,.74-2.35,.98,.01,.04,.03,.08,.04,.13,.95-.29,1.85-.72,2.73-1.18-.76,.61-1.72,1.05-2.62,1.45,.02,.04,.04,.08,.06,.12,.82-.35,1.62-.78,2.38-1.24-.54,.68-1.53,.95-2.29,1.38,.02,.04,.04,.07,.07,.11,.64-.31,1.3-.64,1.92-1.02-.51,.49-1.05,.95-1.66,1.33,.04,.04,.08,.07,.12,.11,.53-.34,1.04-.73,1.5-1.16-.39,.46-.81,.9-1.26,1.32,.05,.03,.1,.05,.15,.07,.32-.31,.64-.62,.95-.96-.16,.37-.33,.74-.57,1.07,.06,.01,.11,.02,.17,.03,.44-.64,.6-1.43,1.14-2-.32,.67-.51,1.43-.95,2.02,.76-.26,.75-1.73,1.31-2.32-.3,.77-.47,1.63-.92,2.33,.79-.39,.79-1.82,1.21-2.62,0,0,0,0,0,0,.02,.02,.05,.04,.07,.05-.26,.86-.49,1.74-.89,2.54,.71-.41,.67-1.69,1.04-2.48,.01,0,.02,0,.03,0-.26,.76-.43,1.56-.53,2.35,.05-.01,.11-.03,.16-.05,.09-.68,.24-1.33,.44-1.97-.04,.6-.03,1.2,0,1.8,.05-.02,.1-.04,.15-.07-.01-.42-.02-.84-.01-1.26,.02,.41,.06,.81,.12,1.2,.32-.34-.07-1.09,.02-1.57,.11,.41,.19,.84,.29,1.26,.25-.23-.06-.69-.05-1.02,.08,.25,.17,.53,.27,.77,.04-.04,.08-.08,.12-.13-.17-.47-.34-.95-.48-1.43,.25,.37,.52,.75,.84,1.09,.03-.03,.07-.07,.11-.09-.31-.32-.55-.7-.8-1.07,.3,.33,.6,.66,.88,1.01,.04-.04,.07-.07,.11-.09-.22-.21-.48-.6-.77-.9,.3,.26,.57,.55,.87,.82,.03-.03,.07-.05,.11-.08-.18-.19-.38-.38-.58-.57,.35,.11,.74,.48,1.07,.29-.31-.2-.77-.25-1.05-.5,.49,.07,.99,.18,1.46,.3,.04-.05,.07-.1,.11-.16-.53-.23-1.21-.15-1.73-.36,.59,.09,1.18,.18,1.77,.29,.03-.05,.07-.1,.1-.16-.67-.14-1.37-.18-2.02-.34,0,0,0,0,0-.01,.69,.14,1.42,.17,2.13,.19,.03-.05,.06-.11,.08-.16-.58-.01-1.15-.04-1.72-.12,.81,.02,1.67,.04,1.9-.32-.67,.12-1.33,.17-2,.18,.71-.13,1.41-.31,2.09-.53,.01-.06,.02-.11,.02-.16-.66,.19-1.32,.39-1.99,.52,.65-.29,1.34-.5,1.99-.78Zm-4.37,1.97c.03-.07,.08-.13,.15-.16-.05,.06-.1,.11-.15,.16Zm1.39-1.2h0s0,0,0,0h0Z"></path><polygon points="18.24 18.55 18.24 18.55 18.24 18.55 18.24 18.55"></polygon><path d="M21.32,19.46s-.06,.03-.09,.04c0,0,.09-.04,.09-.04Z"></path><polygon points="17.52 19.49 17.51 19.49 17.51 19.48 17.52 19.49"></polygon></g><g><path d="M17.9,14.38c-.08,.04-.16,.08-.24,.12-.35-1.34-.46-2.77-.16-4.13,0-.2,.03-.4,.06-.6,.03-.19,.06-.36,.06-.54,.09,.03,.18,.06,.26,.08,0,.17-.03,.33-.06,.5-.03,.19-.06,.37-.06,.55-.28,1.34-.21,2.68,.14,4.01Z"></path><path d="M18.79,9.61c-.02,.08-.03,.16-.05,.24-.04,.19-.09,.37-.1,.55-.38,1.23-.39,2.45-.25,3.72-.08,.05-.16,.09-.24,.14-.18-1.29-.17-2.63,.22-3.88,.02-.2,.06-.4,.11-.59,.02-.09,.04-.17,.06-.26,.08,.03,.17,.05,.25,.08Z"></path><path d="M19.52,9.82c-.02,.11-.04,.22-.06,.32-.26,1.27-.82,2.46-.75,3.78-.08,.05-.17,.1-.25,.15-.12-1.37,.47-2.66,.75-3.96,.02-.12,.04-.24,.07-.36,.09,.03,.17,.05,.25,.07Z"></path><path d="M21.72,10.31c-.42,.92-.98,1.77-1.14,2.79-.09,.02-.19,.04-.28,.07,.13-1.05,.7-1.97,1.14-2.9,.09,.01,.18,.03,.27,.04Z"></path><path d="M20.82,10.15c-.41,1.02-.88,2.02-.89,3.15-.1,.04-.19,.08-.29,.12,.04-1.17,.45-2.28,.92-3.33,.09,.02,.17,.04,.26,.06Z"></path><path d="M20.26,10.02c-.03,.12-.07,.24-.12,.35-.32,1.07-.81,2.07-.82,3.21-.09,.05-.18,.1-.27,.15-.02-1.21,.49-2.32,.84-3.44,.04-.11,.08-.22,.11-.33,.09,.02,.17,.04,.25,.06Z"></path><path d="M23.12,10.37c-.51,.9-1.13,1.71-1.48,2.68-.09,0-.19-.01-.28-.01,.46-.87,.86-2.35,1.76-2.67Z"></path><path d="M22.42,10.39c-.47,.88-1.01,1.69-1.3,2.65-.09,0-.19,0-.28,.02,.28-.98,.83-1.82,1.3-2.7,.09,.01,.19,.02,.28,.03Z"></path><path d="M17.46,14.4c0,.06,0,.13-.01,.19-.1,.04-.2,.08-.3,.11,0-1.39-.74-2.84-.43-4.29,.03-.19,.07-.37,.06-.54-.01-.2,0-.4,.02-.59,0-.09,.02-.18,.02-.27,.09,.01,.18,.03,.26,.06,0,.08-.01,.16-.02,.23-.02,.19-.03,.37-.02,.55,.01,.21-.03,.41-.06,.61-.2,1.34,.22,2.63,.48,3.93Z"></path><path d="M16.93,14.77c-.09,.02-.19,.04-.28,.06,.01-1.42-.98-2.83-.75-4.34,.02-.19,.04-.37,.01-.55-.03-.19-.03-.4-.02-.59,0-.12,0-.23,0-.35,.09-.01,.17-.02,.26-.02,0,.12,0,.25,0,.37,0,.19,0,.37,.02,.55,.03,.21,0,.41-.01,.61-.2,1.49,.73,2.83,.77,4.25Z"></path><path d="M16.59,14.84c-.09,.02-.18,.03-.27,.04-.71-1.44-.91-3.04-.96-4.62-.01-.19-.02-.37-.06-.55-.04-.18-.06-.37-.08-.55,.09-.03,.17-.05,.26-.07,0,0,0,.02,0,.02,.02,.18,.04,.37,.08,.55,.04,.2,.05,.4,.06,.59,.05,1.6,.26,3.14,.97,4.6Z"></path><path d="M14.99,14.94c-.33-1.56-1.92-2.76-2.01-4.54,.07-.06,.14-.12,.22-.17,.2,1.14,.66,2.15,1.31,3.11,.28,.51,.84,.93,.74,1.59-.09,0-.18,0-.26,0Z"></path><path d="M15.68,14.77c0,.06,0,.11,0,.16-.09,0-.18,0-.27,0,.02-1.57-1.57-2.78-1.57-4.44-.02-.19-.03-.37-.08-.54-.01-.03-.02-.07-.03-.1,.08-.05,.16-.1,.23-.14,.01,.06,.03,.11,.04,.16,.07,.19,.08,.4,.1,.6,.15,1.18,.71,2.25,1.33,3.26,.23,.3,.3,.67,.25,1.04Z"></path><path d="M16.25,14.88c-.09,0-.18,.02-.27,.02-.1-.41-.46-.75-.55-1.18-.53-.98-.78-2.1-.84-3.2-.05-.19-.07-.4-.09-.59-.02-.17-.03-.33-.07-.48,.08-.04,.16-.07,.25-.11,.05,.19,.07,.38,.09,.57,.02,.19,.04,.37,.08,.55,.02,1.61,.74,3,1.4,4.42Z"></path><path d="M14.45,14.97c-.09,0-.18,.01-.27,.02-.75-1.17-1.82-2.25-2.13-3.67,.07-.08,.14-.16,.21-.23,.28,1.53,1.48,2.58,2.19,3.88Z"></path><path d="M14.87,14.95c-.09,0-.18,0-.27,.01-.83-1.27-1.81-2.56-2.13-4.09,.07-.07,.14-.14,.21-.2,.31,1.63,1.38,2.89,2.19,4.28Z"></path><path d="M11.09,17.21c-.03,.08-.06,.17-.09,.25-1.11-.35-1.97-1.19-2.85-1.91,.07-.06,.13-.11,.2-.17,.86,.69,1.65,1.49,2.73,1.83Z"></path><path d="M11.36,16.65c-.04,.08-.09,.15-.12,.23-.95-.4-1.69-1.18-2.39-1.89,.07-.06,.14-.11,.21-.17,.69,.71,1.38,1.44,2.31,1.83Z"></path><path d="M11.57,16.32c-.05,.07-.1,.14-.15,.22-.78-.57-1.34-1.36-2-2.04,.07-.06,.13-.12,.19-.18,.65,.68,1.19,1.45,1.95,2Z"></path><path d="M12.98,15.23c-.09,.03-.17,.07-.26,.11-.7-.7-1.48-1.42-1.88-2.35,.06-.08,.12-.16,.18-.24,.41,1.01,1.22,1.72,1.96,2.48Z"></path><path d="M12.43,15.51c-.08,.04-.15,.1-.22,.15-.71-.57-1.45-1.2-1.93-1.99,.06-.07,.12-.13,.19-.2,.48,.84,1.24,1.42,1.96,2.04Z"></path><path d="M11.97,15.87c-.07,.06-.13,.12-.19,.19-.74-.56-1.28-1.33-1.85-2.03,.06-.06,.13-.13,.19-.19,.59,.71,1.1,1.47,1.85,2.03Z"></path><path d="M14.07,15c-1.22-.2-1.91-2.06-2.48-3.11,.06-.08,.12-.15,.17-.23,.55,1.27,1.27,2.4,2.3,3.34Z"></path><path d="M13.52,15.08c-.09,.02-.19,.04-.28,.07-.81-.78-1.57-1.69-1.99-2.75,.05-.08,.11-.17,.16-.25,.46,1.15,1.24,2.07,2.11,2.93Z"></path><path d="M10.97,17.56c-.02,.08-.04,.17-.06,.26-1.09-.29-2.25-.6-3.18-1.28-.13-.1-.25-.19-.37-.26,.07-.07,.13-.13,.2-.19,.99,.8,2.19,1.17,3.41,1.48Z"></path><path d="M10.86,18.07c-.02,.09-.03,.17-.03,.26-.98-.11-1.96-.38-2.89-.74-.19-.07-.37-.18-.53-.29-.16-.11-.31-.21-.48-.27-.07-.02-.13-.05-.2-.08,.06-.07,.12-.14,.18-.21,.03,.02,.07,.03,.11,.04,.19,.07,.37,.18,.53,.3,1.01,.6,2.16,.82,3.3,.99Z"></path><path d="M10.84,18.9c-1.16-.14-2.32-.44-3.34-1.01-.19-.06-.37-.14-.55-.22-.18-.08-.34-.16-.52-.21-.02,0-.03-.01-.05-.02,.05-.08,.1-.15,.15-.23,.18,.05,.36,.13,.53,.21,.17,.08,.34,.16,.51,.21,1.02,.55,2.09,.87,3.24,.99,0,.09,.01,.19,.02,.27Z"></path><path d="M11.33,20.06c.07,.11,.14,.21,.22,.32-1.11-.58-2.22-.24-3.42-.19-.38-.03-.76-.06-1.14-.09-.21-.02-.4-.08-.59-.14-.18-.06-.35-.12-.53-.13-.04,0-.09-.01-.14-.02,0-.09-.01-.18-.01-.27,.06,0,.11,.02,.17,.02,.21,.02,.4,.08,.59,.14,.18,.06,.36,.12,.53,.13,.38,.03,.76,.06,1.14,.09,1.06,.04,2.22-.51,3.19,.13Z"></path><path d="M10.96,19.39c.06,.16,.14,.3,.22,.44-.88-.67-2-.18-3.02-.34-.35-.05-.69-.11-1.04-.17h-.08c-.2-.04-.4-.13-.58-.21-.18-.08-.34-.15-.51-.18-.06,0-.11-.02-.17-.03,.02-.08,.03-.17,.06-.26,.05,.01,.1,.02,.15,.03,.2,.03,.39,.11,.57,.19,.18,.08,.35,.15,.52,.17l.08,.02c.35,.06,.69,.11,1.04,.16,.89,.14,1.92-.25,2.76,.16Z"></path><path d="M10.91,19.24c-1.01,.04-2.02-.09-3-.34-.2-.04-.39-.14-.57-.23-.17-.09-.33-.17-.5-.21-.2-.04-.38-.12-.56-.19-.09-.04-.19-.07-.28-.11,.03-.08,.07-.16,.11-.24,.09,.03,.18,.07,.27,.1,.18,.07,.35,.14,.52,.18,.2,.04,.38,.14,.56,.23,1.07,.47,2.24,.54,3.39,.54,.01,.09,.03,.18,.06,.26Z"></path><path d="M11.91,20.94c.04,.08,.08,.16,.12,.25-.54,.22-1.04-.22-1.54-.29-.74,.11-1.52,.27-2.28,.33-.38,0-.76,0-1.14,0-.21,0-.41-.05-.6-.1-.13-.03-.25-.06-.37-.08h0c-.05-.09-.09-.18-.13-.28,.19,0,.38,.05,.56,.1,.18,.05,.36,.09,.53,.09,.38,0,.76,0,1.14,0,.76-.06,1.52-.24,2.28-.33,.49,.01,.92,.49,1.42,.31Z"></path><path d="M11.72,20.61c.07,.1,.13,.21,.19,.32-1.16-.63-2.35-.22-3.61-.18-.41-.02-.82-.04-1.23-.06-.22,0-.43-.06-.63-.12-.2-.05-.38-.1-.57-.11-.03-.09-.05-.18-.07-.27,.02,0,.04,0,.06,0,.22,0,.44,.06,.65,.12,.2,.06,.39,.11,.57,.11,.41,.02,.82,.03,1.23,.06,1.14,.03,2.37-.54,3.41,.12Z"></path><path d="M14.48,23.8c-.33,.33-.91,.21-1.28,.41-.31,.15-.47,.69-.87,.45,.42-.47,.89-.89,1.56-.89,0,0,0,0-.01,.01,.2,.01,.4,.01,.6,0Z"></path><path d="M13.89,23.78c-.49,.64-1.4,.18-1.93,.73-.08-.04-.17-.09-.25-.13,.57-.56,1.48-.48,2.18-.6Z"></path><path d="M13.28,23.72c-.66,.12-1.3-.05-1.82,.5-.08-.05-.16-.11-.23-.16,.62-.55,1.29-.68,2.06-.34Z"></path><path d="M12.45,23.36c-.4,.29-.86,.42-1.29,.66-.08-.06-.16-.12-.23-.18,.45-.26,.94-.39,1.38-.7,.03,.08,.08,.15,.15,.22Z"></path><path d="M11.92,22.12c.11,.04,.21,.07,.3,.09,0,.09,0,.18,0,.27-1.43-.61-2.64,.64-4.24,.11,1.35,.13,2.65-.82,3.95-.47Z"></path><path d="M12.23,22.91c-.91-.53-1.72,.53-2.53,.1,.84-.2,1.63-.75,2.51-.37,0,.09,0,.18,.02,.27Z"></path><path d="M12.24,22.95c-.55,.17-1.08,.46-1.64,.64-.08-.06-.16-.12-.25-.18,.62-.22,1.22-.52,1.86-.72,0,.09,.01,.17,.03,.26Z"></path><path d="M12.16,21.58c-1.33-.56-2.78,.41-4.21,.16-.2,0-.4-.05-.6-.09-.19-.04-.36-.09-.53-.09h0c-.13,0-.26-.01-.38-.03-.08-.1-.16-.2-.22-.3,.02,0,.03,0,.05,0,.19,.03,.37,.06,.55,.06h0c.2,0,.4,.05,.6,.1,.19,.04,.37,.08,.54,.09,1.13,.35,3.78-1.09,4.2,.1Z"></path><path d="M12.21,21.81c-1.4-.25-2.82,.62-4.29,.45-.2,0-.4-.04-.59-.08-.08-.02-.16-.03-.23-.04-.13-.09-.25-.19-.36-.29,.22,0,.43,.04,.64,.08,.21,.04,.4,.08,.59,.07,1,.31,4.1-1.17,4.24-.18Z"></path><path d="M23.75,10.22c-.2,.54-.34,1.11-.53,1.67-.26,.47-.91,.67-.92,1.28-.08-.02-.17-.04-.26-.06,0-.62,.64-.9,.94-1.33,.17-.47,.25-1,.47-1.47,.1-.02,.2-.05,.3-.08Z"></path><path d="M24.69,9.86c-.04,.07-.08,.13-.12,.2-.35,.68-.59,1.42-.89,2.13-.27,.43-.92,.56-.99,1.11-.08-.03-.17-.06-.25-.09,.08-.56,.72-.77,1.02-1.16,.21-.52,.39-1.06,.64-1.58,.06-.15,.11-.31,.19-.45,.13-.05,.27-.11,.4-.16Z"></path><path d="M26.39,9.56s-.05,.05-.08,.08c-.14,.14-.27,.27-.37,.41-.12,.17-.28,.3-.43,.43-.97,.89-1.48,2.12-2.01,3.3-.07-.06-.14-.11-.21-.16,.51-1.18,1.08-2.46,2.05-3.34,.14-.12,.28-.24,.38-.38,.09-.12,.19-.23,.29-.33,.12,0,.24,0,.37,0Z"></path><path d="M27.91,10.91h0s0,.06,0,.09c-.03,.02-.06,.05-.09,.07-.15,.14-.33,.24-.51,.34-.17,.09-.33,.18-.45,.3-1.1,.74-1.6,2.12-2.7,2.79-.04-.08-.09-.16-.15-.23,1.07-.65,1.58-2.03,2.67-2.76,.15-.14,.33-.24,.51-.33,.17-.09,.33-.18,.46-.3,.08-.08,.17-.15,.27-.21,.01,.08,.02,.16,0,.24Z"></path><path d="M27.56,10.12c-.12,.1-.24,.2-.34,.31-.14,.15-.31,.27-.48,.38-1.31,.79-1.73,2.43-2.87,3.32-.06-.07-.13-.14-.19-.2,1.23-1.04,1.83-2.84,3.36-3.67,.1-.11,.21-.21,.32-.3,.08,.06,.15,.11,.21,.17Z"></path><path d="M27.06,9.76s-.01,.02-.02,.03c-.13,.16-.28,.29-.42,.42-1.21,1.06-2.29,2.2-2.97,3.69-.07-.06-.13-.12-.21-.17,.62-1.26,1.48-2.43,2.58-3.3,.12-.15,.27-.29,.42-.41,.14-.13,.27-.25,.38-.38,.07,.03,.16,.07,.24,.12Z"></path><path d="M26.96,12.71c-.33,.7-1.73,2.41-2.51,2.59-.02-.09-.04-.17-.06-.26,1.1-.39,1.54-1.75,2.58-2.33Z"></path><path d="M27.68,11.61s-.01,.02-.02,.03c-.09,.15-.2,.3-.31,.44h0c-.07,.04-.13,.09-.19,.13-.31,.27-.62,.53-.94,.8-.68,.61-1.11,1.51-1.84,2.06-.02-.09-.05-.17-.09-.26,.9-.9,1.61-2.04,2.7-2.8,.17-.14,.37-.25,.56-.34,.04-.02,.08-.04,.12-.07Z"></path><path d="M26.94,15.02c.05,.63-.64,.77-.96,1.21-.34,.56-1.04,.55-1.57,.75,.02-.1,.04-.21,.06-.31,1.1-.08,1.66-1.02,2.48-1.65Z"></path><path d="M26.87,14.11c-.89,.52-1.37,1.67-2.36,2.01,0-.09,0-.18,0-.27,.91-.44,1.42-1.51,2.32-2.03,.01,.1,.03,.2,.04,.3Z"></path><path d="M26.94,14.65c-.89,.53-1.46,1.61-2.46,1.92,.01-.09,.02-.18,.03-.27,.92-.43,1.5-1.42,2.4-1.94,.01,.1,.02,.2,.03,.3Z"></path><path d="M25.84,17.31c-.38,.64-1.1,.75-1.78,.57,.04-.07,.09-.15,.13-.25,.61,.21,1.08-.09,1.6-.35l.04,.03Z"></path><path d="M26.45,16.43c-.45,.67-1.45,.92-2.21,1.12,.04-.09,.07-.18,.1-.27,.71-.23,1.4-.58,2.12-.85Z"></path></g><g><path class="cls-1" d="M21.32,19.46s-.06,.03-.09,.04c0,0,.09-.04,.09-.04Z"></path><path class="cls-1" d="M25.84,17.31c-.12,.15-.25,.29-.38,.42-.14,.14-.29,.26-.45,.38-.59,.43-1.27,.68-1.95,.9l-.73-.02s.08-.04,.12-.07c.05-.02,.09-.03,.14-.04,.79-.24,1.53-.47,2.17-.92,.03-.02,.06-.04,.09-.06,.16-.12,.31-.24,.45-.38,.12-.12,.23-.24,.34-.38l.1,.08,.06,.05,.04,.03Z"></path></g><path class="cls-1" d="M2.11,21.06c-5.34-3.39,1.72-6.04,2.35-9.95,.58-2.75,2.41-4.09,4.48-5.52,1.89-2.14,3.18-3.58,6.15-4.03,4.77-2.09,7.33,3.84,13.52,2.95,1.31-.2,3.82,.24,3.04,2.1-.47,.97-1.81,1.58-2.54,2.41-.58,.64-1.05,1.72-1.31,2.7h-.1v-.13h-.13l.03-.03h-.02c.35-1.26,.89-2.4,1.8-3.16,2.63-1.59,3.24-3.91-.75-3.62C22.3,5.64,19.82-.22,15.18,1.8c-2.93,.44-4.2,1.87-6.06,3.98-2.06,1.44-3.83,2.68-4.4,5.4-.45,3.8-7.6,6.43-2.45,9.66l-.15,.22Z"></path><path class="cls-1" d="M12.66,25.07h-.02c-.44,.01-.87-.05-1.26-.18h-.03l-.02-.02c-.14-.05-.29-.11-.45-.19-.41-.21-.77-.5-1.11-.79-.23-.19-.47-.38-.71-.54h-.01l-.05-.04c-.21-.14-.45-.25-.68-.33-.5-.15-1.03-.13-1.58-.1-.32,.02-.66,.03-.99,.01-.55-.04-1.08-.2-1.61-.48l.12-.23c.5,.26,.99,.41,1.51,.45,.31,.02,.64,0,.96-.01,.55-.03,1.13-.06,1.68,.11,.25,.08,.51,.2,.75,.36h0l.04,.02c.27,.17,.52,.38,.77,.58,.34,.27,.69,.56,1.07,.76,.15,.08,.29,.14,.43,.18l.05,.02c.35,.11,.73,.17,1.14,.16h.05c1.17-.05,2.52-.63,3.71-1.61,.05-.04,.09-.07,.12-.11l.08-.07c.07-.06,.13-.11,.19-.17,.02-.01,.03-.02,.03-.03,.14-.12,.27-.24,.4-.36l.11-.11c.06-.05,.11-.1,.17-.16l.19,.19c-.06,.06-.12,.11-.18,.17l-.11,.11c-.13,.12-.27,.24-.4,.36,0,0-.02,.02-.04,.04-.06,.05-.12,.11-.19,.16l-.05,.04s-.03,.02-.04,.03c-.04,.03-.08,.07-.12,.1-1.25,1.03-2.66,1.64-3.87,1.68h-.02Z"></path><path class="cls-1" d="M12.97,24.91c-1.54-.02-2.45-1.6-3.86-1.99-4-.17-4.51-4.77-1.65-6.93,.97-.89,2.04-1.62,2.9-2.61,1.61-2.45,4.28-5.57,7.54-4.18,1.59,.49,3.2,1.03,4.88,1.07,1.33-.08,2.45-1.03,3.8-.82,2.04,.59,1.56,1.96,.49,3.29-.41,1.85,.66,2.97-1.26,4.59l-.18-.2c2.29-1.89,0-3.58,1.91-5.58h0c.55-.77-.05-1.5-.8-1.79-1.52-.42-2.82,.93-4.35,.76,0,.12-3.72-.84-5.61-1.37-3.28-.92-4.99,3.6-8.43,6.39-2.88,2.33-3.71,6.75,.82,7.12,2.44,1.14,3.51,3.18,6.23,.89l.15,.22c-.86,.55-1.55,1.08-2.61,1.14Z"></path><path class="cls-1" d="M14.93,30.36c-2.98,.28-5.1-2.17-7.17-3.93l.15-.21c3.39,3.19,5.57,4.96,10.45,3.25,2.2-.25,2.76-2.73,4.41-3.71,.82-.38,1.65-.31,2.58-.55,.75-.18,2.43-1.98,2.91-2.69,.98-2.68,1.9-5.68,1.79-8.53-.26-2.37-.72-4.43,.66-6.43,.13-.17,.27-.38,.36-.59l.04-.04,.09,.09h.14c-.07,.23-.28,.45-.36,.65-1.42,1.92-.9,3.98-.67,6.3,.22,2.45-.7,4.77-1.26,7.15-.21,1.65-2.2,3.72-3.64,4.36-.47,.11-.86,.16-1.21,.21-3.98,.51-1.6,4.36-9.28,4.69Z"></path><path class="cls-1" d="M15.31,27.85c-2.13,.36-3.72-.95-5.63-1.43-5.56,.34-6.96,.33-7.95-5.48,.86-.49,1.78,.79,2.53,1.25l-.15,.22c-.61-.39-1.42-1.35-2.06-1.33,.91,5.73,2.48,5.29,7.66,5.08,4.63,1.47,6.71,3.43,11.19-2.3,2.43-3.06,6.17-2.06,7.96-6.01,1.43-2.36-.6-7.79,1.97-10.57h.26c-2.66,3.27-.47,7.98-2,10.68-1.85,4.05-5.53,3.03-7.99,6.06-2.7,3.47-4.08,3.83-5.79,3.83Z"></path><path class="cls-1" d="M17.6,14.38c1.9-1.16,4.17-2.35,6.13-.57,1.51,1.37,1.18,4.46-.91,5.08-.35,.17-.79,.41-1.14,.58-.26,.06-.54,.22-.8,.27-.05,.02-.13,.03-.17,.05-.14,.02-.53,.19-.67,.25,2.96-3.32-.99-4.22-3.66-3.06-1.5,.66-3.03,2.52-1.94,4.14l.02,.04c.96,1.45,3.02,.72,4.21-.03-1.11,1.48-2.46,2.93-4.46,2.8-.77-.03-1.96-.08-2.11-1.01,0-.89-.01-1.69-.61-2.41-1.65-1.75-.53-4.89,1.71-5.5,1.19-.33,2.47-.1,3.66-.37l.74-.27Zm-3.75,9.28c1.54,.17,2.89-.52,3.83-1.72-1.24,.55-3.08,.44-3.62-.99h0c-.04-.09-.08-.17-.1-.26h0c-.73-2.13,1.59-3.99,3.5-4.32,1.25-.22,3.07-.31,3.79,.96,.33,.73-.05,1.54-.45,2.17,.63-.16,1.23-.48,1.8-.79,.48-.29,1.09-.42,1.37-.9,.67-1.24,.64-3.1-.59-3.98-2.02-1.55-4-.09-5.86,.88-1.06,.46-2.28,.3-3.41,.41-1.93,.03-3.35,1.97-3.11,3.82,.12,.74,.7,1.3,1.06,1.93,.78,1.37-.51,2.68,1.82,2.79Z"></path><path class="cls-1" d="M18.22,21.71h-.06c.02-.08-.02-.18-.1-.22,.64-.78,1.37-1.55,2.35-1.88l.08,.25c-.96,.32-1.65,1.1-2.28,1.85Z"></path><polygon class="cls-1" points="21.28 19.62 21.18 19.38 21.27 19.34 21.37 19.58 21.28 19.62"></polygon><polygon class="cls-1" points="18.17 21.71 18.16 21.71 18.16 21.44 18.17 21.71"></polygon><path class="cls-1" d="M17.87,19.6c-.33,0-.55-.02-.66-.12-.04-.04-.06-.09-.06-.14,0-.26,.49-.76,.91-.76,.47,0,.74,.14,.74,.39,0,.27-.23,.64-.65,.64h-.15c-.05,0-.1,0-.14,0Zm.19-.83c-.33,0-.71,.43-.71,.57,.05,.07,.46,.07,.66,.06h.15c.32,0,.45-.29,.45-.44,0-.11-.22-.19-.55-.19Z"></path></svg><style>@media (prefers-color-scheme: light) { :root { filter: none; } }
@media (prefers-color-scheme: dark) { :root { filter: contrast(0.3846153846153846) brightness(4.5); } }
</style></svg>