<svg xmlns="http://www.w3.org/2000/svg" width="217.99" height="61.03" viewBox="0 0 217.99 61.03"><g id="Layer_2" data-name="Layer 2"><g id="Layer_1-2" data-name="Layer 1"><path d="M23.73,34.83H8.8v2.7c0,6.88-.06,13.76,0,20.63,0,2-.64,2.55-2.59,2.54C0,60.68,0,60.75,0,54.64c0-7,0-14.08,0-21.12a7.87,7.87,0,0,1,.8-2.33,7.72,7.72,0,0,1,.94,2.4c.07,7.38,0,14.75,0,22.12v2.93H6.9C7,57.85,7,57,7,56.11c0-6.88.08-13.76,0-20.63,0-2.11.69-2.7,2.72-2.64q6.61.19,13.22,0c2-.06,2.55.7,2.52,2.6-.09,6.71,0,13.42,0,20.13,0,3.39,0,3.39,3.4,3.31.49,0,1-.08,1.78-.15.05-.88.13-1.75.13-2.62,0-7.62,0-15.24,0-22.86a6.87,6.87,0,0,1,.75-2.08c.34.73,1,1.45,1,2.18.07,8.28,0,16.56.07,24.85,0,1.75-.44,2.49-2.37,2.5-6.48,0-6.48.12-6.48-6.29Z"/><path d="M25.44,2.87c0,7.49-.08,14.69,0,21.89,0,2.2-.49,3.11-2.89,3-4.24-.19-8.48-.16-12.72,0C7.73,27.83,7,27.24,7,25c.14-6.46,0-12.92,0-19.38V2.83H1.62V29.18l-.95.11a7,7,0,0,1-.62-2C0,19.17,0,11.05,0,2.94c0-1.49.52-2,2-2C8.8.69,8.8.64,8.8,7.42V25.7H23.73V5.8c0-4.86,0-4.86,4.86-4.86.66,0,1.33.05,2,0,1.36-.11,2,.43,2,1.84,0,8.19,0,16.39-.05,24.59,0,.6-.57,1.18-.88,1.77-.29-.58-.83-1.16-.83-1.75-.06-7.2,0-14.41,0-21.61V2.87Z"/><path d="M104.27,15.72h5.13c.65-4.56-3.68-10.52-8.06-12.45-5.49-2.4-10.78-2-15.56,1.49-4.48,3.3-6.72,8-5.51,13.47a15.22,15.22,0,0,0,4,7.13c2.55,2.53,5.84,4.32,8.81,6.44.74.53,1.46,1.11,2.19,1.66l-.36.76a7.41,7.41,0,0,1-2.22-.6,101.42,101.42,0,0,1-8.61-5.89C78.55,23.22,76.94,17.66,79,11.14A16.42,16.42,0,0,1,93,.08,16.85,16.85,0,0,1,111.5,14.75c.3,2.19-.32,3.16-2.59,2.91a9.87,9.87,0,0,0-2.24,0c-2.72.35-4.38-.21-4.86-3.47-.44-3-3.39-4.79-6.7-4.86s-6.17,1.55-7.28,4.23-.37,5.71,2.35,7.94c1.34,1.1,2.87,2,4.23,3.05.35.28.39.93.58,1.42-.51,0-1.14.19-1.52,0a40.85,40.85,0,0,1-4.13-2.78c-3.51-2.75-4.65-6.22-3.33-9.84s4.73-5.84,9-5.8a8.75,8.75,0,0,1,8.67,6.2C103.87,14.34,104,15,104.27,15.72Z"/><path d="M126.86,26c3.6,0,6.92,0,10.24,0,.7,0,1.79.43,2,.93a3.53,3.53,0,0,1-.13,1.92,41.58,41.58,0,0,0-5.14-1c-2.32-.16-4.65-.08-7,0-1.19,0-1.88-.29-1.87-1.66,0-5.46,0-10.93,0-16.4,0-1.81,1.17-1.67,2.36-1.67H148.4V3H119.74c-.27,8.85.16,17.65-.23,26.42l-1.14.05a12.49,12.49,0,0,1-.36-2.16c0-8,0-16.07-.05-24.11,0-1.57.46-2.21,2.13-2.2q14.08.09,28.18,0c1.44,0,2.06.44,2.14,2,.37,6.84.41,6.84-6.48,6.84H126.86Z"/><path d="M86.24,44.82H81C80.52,51,85.91,57.44,92.7,58.89c10.82,2.32,20.68-7.37,17.75-17.77-.73-2.61-2.74-5.09-4.73-7-2.15-2.12-5-3.54-7.49-5.31A20.48,20.48,0,0,1,96.33,27l.49-.7a7.74,7.74,0,0,1,1.9.65,88,88,0,0,1,8.18,5.66c5.8,4.88,7.39,11.54,4.64,18.11A16.83,16.83,0,0,1,94.81,61,17.06,17.06,0,0,1,78.89,45.29c-.13-1.7.31-2.54,2.14-2.38a13,13,0,0,0,2.49,0c2.81-.31,4.69.07,5.3,3.59.56,3.23,4,5.14,7.16,5.07a7.6,7.6,0,0,0,7.15-4.88c1-3,.13-5.7-2.8-8.08-1-.84-2.19-1.52-3.21-2.36-.3-.25-.34-.82-.5-1.24.42-.09,1-.4,1.25-.24,3.28,2,6.64,4,7.27,8.27a8.55,8.55,0,0,1-6,9.7c-4.66,1.54-9.49-.21-11.57-4.26A35.86,35.86,0,0,1,86.24,44.82Z"/><path d="M119.36,31.51V58.77h29.07V53.86H136.68c-3.16,0-6.32,0-9.48,0-1.54,0-2.27-.38-2.25-2.09q.12-8.32,0-16.65c0-1.65.59-2.2,2.19-2.14a62.5,62.5,0,0,0,7,0,32.94,32.94,0,0,0,4.87-1.1l.23,2.92H126.7c0,1.2,0,2.24,0,3.28l.27,13.6c4.54.13,9.08.28,13.62.37,2.5.05,5,.09,7.49,0,1.72-.07,2.3.56,2.33,2.29.13,6.42.19,6.41-6.12,6.41-8,0-16,0-23.95,0-1.63,0-2.4-.33-2.39-2.18.09-8.37,0-16.74.06-25.11a12.67,12.67,0,0,1,.32-2Z"/><path d="M71.3,17.66A5,5,0,0,1,72,19.41c0,9.1.29,18.22-.27,27.3-.54,8.87-8,14.77-16.9,14.29S39.65,54.26,39.57,45.26c-.08-8.44,0-16.88,0-25.33,0-.71.61-1.42.93-2.13a6.8,6.8,0,0,1,.73,2.11c.06,8.28,0,16.56,0,24.84,0,5.52,2.05,10.08,7.15,12.72A14.9,14.9,0,0,0,63.66,57a13,13,0,0,0,6.5-11.61c.14-8.28.06-16.56.1-24.83,0-.92.17-1.84.26-2.76Z"/><path d="M167.07,9.67c-3.28,0-6.34-.06-9.39,0-1.67.05-2.34-.45-2.38-2.23-.13-6.53-.19-6.53,6.27-6.53,2.32,0,4.65,0,7,0a9.49,9.49,0,0,1,2,.52l-.09,1H157.28v5.5c1,0,1.94,0,2.89,0,2.79.12,6.65-.76,8.06.7s.62,5.29.63,8.09c0,13,0,26,.06,39,0,1.34.63,2.67,1.1,4.58-.32,0-1.39.46-2.11.12-.52-.24-.8-1.48-.81-2.28q-.06-22.62,0-45.25Z"/><path d="M46.43,3H41.49c-.66,4.31.35,8.72-.56,12.94l-.75,0c-.19-.33-.55-.65-.56-1,0-4.14-.09-8.29,0-12.43,0-.48.82-1,1.29-1.42.09-.08.33,0,.49,0,6.87-.5,6.87-.5,6.87,6.4,0,12.1,0,24.19,0,36.29,0,4.07,1.31,7.09,5.39,8.53.44.15.73.73,1.09,1.11-.55.18-1.15.6-1.65.51-3.09-.56-5.84-3.67-6.38-7.2a29.66,29.66,0,0,1-.26-4.21q0-18.15,0-36.29Z"/><path d="M201.53,59.32,184.79,42.94c.93,0,2.12-.15,3.31-.16,3.49,0,7-.05,10.46,0,.59,0,1.17.55,1.75.85-.6.29-1.19.82-1.79.83-3.46.08-6.92,0-10.37,0l13.42,13.23,12.91-13.22h-8.41a12.8,12.8,0,0,1-2.48-.06c-.44-.08-.79-.6-1.18-.92.36-.26.73-.73,1.1-.73,4.73,0,9.46,0,14.19.08.18,0,.36.31.27.23Z"/><path d="M173.09,60.24c.48-1.82,1.16-3.22,1.16-4.62.08-14.92.11-29.83,0-44.74,0-2.44.74-3.16,3.09-3,2.72.19,5.47,0,8.4,0V2.47H172.6l-.1-.94a7.78,7.78,0,0,1,2-.56C178.24.91,182,1,185.72.91c1.54,0,2,.57,2,2,.28,6.73.32,6.73-6.31,6.73H176v3q0,22.74,0,45.49C176,60.9,175.09,61.37,173.09,60.24Z"/><path d="M70.39,15.81V3H65.07c0,1-.13,1.93-.13,2.88q0,19.14,0,38.26c0,4.26-1.43,7.64-5.51,9.42a7.06,7.06,0,0,1-2.68,0A8.27,8.27,0,0,1,58.54,52c3.54-1.58,4.65-4.45,4.64-8,0-13.25.06-26.5-.06-39.74,0-2.47.53-3.33,3.15-3.24C72,1.19,72,1.05,72,6.87c0,2.24,0,4.47,0,6.71a12.55,12.55,0,0,1-.54,2.36Z"/></g></g></svg>